<?xml version="1.0" encoding="utf-8" standalone="no"?>
<!DOCTYPE svg PUBLIC "-//W3C//DTD SVG 1.1//EN"
  "http://www.w3.org/Graphics/SVG/1.1/DTD/svg11.dtd">
<svg xmlns:xlink="http://www.w3.org/1999/xlink" width="924.30625pt" height="531.644375pt" viewBox="0 0 924.30625 531.644375" xmlns="http://www.w3.org/2000/svg" version="1.1">
 <metadata>
  <rdf:RDF xmlns:dc="http://purl.org/dc/elements/1.1/" xmlns:cc="http://creativecommons.org/ns#" xmlns:rdf="http://www.w3.org/1999/02/22-rdf-syntax-ns#">
   <cc:Work>
    <dc:type rdf:resource="http://purl.org/dc/dcmitype/StillImage"/>
    <dc:date>2024-03-02T23:39:11.538570</dc:date>
    <dc:format>image/svg+xml</dc:format>
    <dc:creator>
     <cc:Agent>
      <dc:title>Matplotlib v3.6.2, https://matplotlib.org/</dc:title>
     </cc:Agent>
    </dc:creator>
   </cc:Work>
  </rdf:RDF>
 </metadata>
 <defs>
  <style type="text/css">*{stroke-linejoin: round; stroke-linecap: butt}</style>
 </defs>
 <g id="figure_1">
  <g id="patch_1">
   <path d="M 0 531.644375 
L 924.30625 531.644375 
L 924.30625 0 
L 0 0 
z
" style="fill: #ffffff"/>
  </g>
  <g id="axes_1">
   <g id="patch_2">
    <path d="M 31.50625 498.96 
L 924.30625 498.96 
L 924.30625 0 
L 31.50625 0 
z
" style="fill: #eaeaf2"/>
   </g>
   <g id="patch_3">
    <path d="M -272474.091704 295.634447 
L -272474.091704 0 
L 480.386676 0 
L 480.386676 295.634447 
z
" clip-path="url(#p81389f5467)" style="fill: #c1c8f3; opacity: 0.2; stroke: #c1c8f3; stroke-linejoin: miter"/>
   </g>
   <g id="line2d_1">
    <path d="M 31.50625 295.634447 
L 924.30625 295.634447 
" clip-path="url(#p81389f5467)" style="fill: none; stroke-dasharray: 5.55,2.4; stroke-dashoffset: 0; stroke: #c1c8f3; stroke-width: 1.5"/>
   </g>
   <g id="line2d_2">
    <path d="M 480.386676 498.96 
L 480.386676 0 
" clip-path="url(#p81389f5467)" style="fill: none; stroke-dasharray: 5.55,2.4; stroke-dashoffset: 0; stroke: #c1c8f3; stroke-width: 1.5"/>
   </g>
   <g id="text_1">
    <!-- Minimum accuracy for benchmark -->
    <g style="fill: #636efa" transform="translate(36.706327 312.568976) scale(0.1 -0.1)">
     <defs>
      <path id="ArialMT-4d" d="M 475 0 
L 475 4581 
L 1388 4581 
L 2472 1338 
Q 2622 884 2691 659 
Q 2769 909 2934 1394 
L 4031 4581 
L 4847 4581 
L 4847 0 
L 4263 0 
L 4263 3834 
L 2931 0 
L 2384 0 
L 1059 3900 
L 1059 0 
L 475 0 
z
" transform="scale(0.015625)"/>
      <path id="ArialMT-69" d="M 425 3934 
L 425 4581 
L 988 4581 
L 988 3934 
L 425 3934 
z
M 425 0 
L 425 3319 
L 988 3319 
L 988 0 
L 425 0 
z
" transform="scale(0.015625)"/>
      <path id="ArialMT-6e" d="M 422 0 
L 422 3319 
L 928 3319 
L 928 2847 
Q 1294 3394 1984 3394 
Q 2284 3394 2536 3286 
Q 2788 3178 2913 3003 
Q 3038 2828 3088 2588 
Q 3119 2431 3119 2041 
L 3119 0 
L 2556 0 
L 2556 2019 
Q 2556 2363 2490 2533 
Q 2425 2703 2258 2804 
Q 2091 2906 1866 2906 
Q 1506 2906 1245 2678 
Q 984 2450 984 1813 
L 984 0 
L 422 0 
z
" transform="scale(0.015625)"/>
      <path id="ArialMT-6d" d="M 422 0 
L 422 3319 
L 925 3319 
L 925 2853 
Q 1081 3097 1340 3245 
Q 1600 3394 1931 3394 
Q 2300 3394 2536 3241 
Q 2772 3088 2869 2813 
Q 3263 3394 3894 3394 
Q 4388 3394 4653 3120 
Q 4919 2847 4919 2278 
L 4919 0 
L 4359 0 
L 4359 2091 
Q 4359 2428 4304 2576 
Q 4250 2725 4106 2815 
Q 3963 2906 3769 2906 
Q 3419 2906 3187 2673 
Q 2956 2441 2956 1928 
L 2956 0 
L 2394 0 
L 2394 2156 
Q 2394 2531 2256 2718 
Q 2119 2906 1806 2906 
Q 1569 2906 1367 2781 
Q 1166 2656 1075 2415 
Q 984 2175 984 1722 
L 984 0 
L 422 0 
z
" transform="scale(0.015625)"/>
      <path id="ArialMT-75" d="M 2597 0 
L 2597 488 
Q 2209 -75 1544 -75 
Q 1250 -75 995 37 
Q 741 150 617 320 
Q 494 491 444 738 
Q 409 903 409 1263 
L 409 3319 
L 972 3319 
L 972 1478 
Q 972 1038 1006 884 
Q 1059 663 1231 536 
Q 1403 409 1656 409 
Q 1909 409 2131 539 
Q 2353 669 2445 892 
Q 2538 1116 2538 1541 
L 2538 3319 
L 3100 3319 
L 3100 0 
L 2597 0 
z
" transform="scale(0.015625)"/>
      <path id="ArialMT-20" transform="scale(0.015625)"/>
      <path id="ArialMT-61" d="M 2588 409 
Q 2275 144 1986 34 
Q 1697 -75 1366 -75 
Q 819 -75 525 192 
Q 231 459 231 875 
Q 231 1119 342 1320 
Q 453 1522 633 1644 
Q 813 1766 1038 1828 
Q 1203 1872 1538 1913 
Q 2219 1994 2541 2106 
Q 2544 2222 2544 2253 
Q 2544 2597 2384 2738 
Q 2169 2928 1744 2928 
Q 1347 2928 1158 2789 
Q 969 2650 878 2297 
L 328 2372 
Q 403 2725 575 2942 
Q 747 3159 1072 3276 
Q 1397 3394 1825 3394 
Q 2250 3394 2515 3294 
Q 2781 3194 2906 3042 
Q 3031 2891 3081 2659 
Q 3109 2516 3109 2141 
L 3109 1391 
Q 3109 606 3145 398 
Q 3181 191 3288 0 
L 2700 0 
Q 2613 175 2588 409 
z
M 2541 1666 
Q 2234 1541 1622 1453 
Q 1275 1403 1131 1340 
Q 988 1278 909 1158 
Q 831 1038 831 891 
Q 831 666 1001 516 
Q 1172 366 1500 366 
Q 1825 366 2078 508 
Q 2331 650 2450 897 
Q 2541 1088 2541 1459 
L 2541 1666 
z
" transform="scale(0.015625)"/>
      <path id="ArialMT-63" d="M 2588 1216 
L 3141 1144 
Q 3050 572 2676 248 
Q 2303 -75 1759 -75 
Q 1078 -75 664 370 
Q 250 816 250 1647 
Q 250 2184 428 2587 
Q 606 2991 970 3192 
Q 1334 3394 1763 3394 
Q 2303 3394 2647 3120 
Q 2991 2847 3088 2344 
L 2541 2259 
Q 2463 2594 2264 2762 
Q 2066 2931 1784 2931 
Q 1359 2931 1093 2626 
Q 828 2322 828 1663 
Q 828 994 1084 691 
Q 1341 388 1753 388 
Q 2084 388 2306 591 
Q 2528 794 2588 1216 
z
" transform="scale(0.015625)"/>
      <path id="ArialMT-72" d="M 416 0 
L 416 3319 
L 922 3319 
L 922 2816 
Q 1116 3169 1280 3281 
Q 1444 3394 1641 3394 
Q 1925 3394 2219 3213 
L 2025 2691 
Q 1819 2813 1613 2813 
Q 1428 2813 1281 2702 
Q 1134 2591 1072 2394 
Q 978 2094 978 1738 
L 978 0 
L 416 0 
z
" transform="scale(0.015625)"/>
      <path id="ArialMT-79" d="M 397 -1278 
L 334 -750 
Q 519 -800 656 -800 
Q 844 -800 956 -737 
Q 1069 -675 1141 -563 
Q 1194 -478 1313 -144 
Q 1328 -97 1363 -6 
L 103 3319 
L 709 3319 
L 1400 1397 
Q 1534 1031 1641 628 
Q 1738 1016 1872 1384 
L 2581 3319 
L 3144 3319 
L 1881 -56 
Q 1678 -603 1566 -809 
Q 1416 -1088 1222 -1217 
Q 1028 -1347 759 -1347 
Q 597 -1347 397 -1278 
z
" transform="scale(0.015625)"/>
      <path id="ArialMT-66" d="M 556 0 
L 556 2881 
L 59 2881 
L 59 3319 
L 556 3319 
L 556 3672 
Q 556 4006 616 4169 
Q 697 4388 901 4523 
Q 1106 4659 1475 4659 
Q 1713 4659 2000 4603 
L 1916 4113 
Q 1741 4144 1584 4144 
Q 1328 4144 1222 4034 
Q 1116 3925 1116 3625 
L 1116 3319 
L 1763 3319 
L 1763 2881 
L 1116 2881 
L 1116 0 
L 556 0 
z
" transform="scale(0.015625)"/>
      <path id="ArialMT-6f" d="M 213 1659 
Q 213 2581 725 3025 
Q 1153 3394 1769 3394 
Q 2453 3394 2887 2945 
Q 3322 2497 3322 1706 
Q 3322 1066 3130 698 
Q 2938 331 2570 128 
Q 2203 -75 1769 -75 
Q 1072 -75 642 372 
Q 213 819 213 1659 
z
M 791 1659 
Q 791 1022 1069 705 
Q 1347 388 1769 388 
Q 2188 388 2466 706 
Q 2744 1025 2744 1678 
Q 2744 2294 2464 2611 
Q 2184 2928 1769 2928 
Q 1347 2928 1069 2612 
Q 791 2297 791 1659 
z
" transform="scale(0.015625)"/>
      <path id="ArialMT-62" d="M 941 0 
L 419 0 
L 419 4581 
L 981 4581 
L 981 2947 
Q 1338 3394 1891 3394 
Q 2197 3394 2470 3270 
Q 2744 3147 2920 2923 
Q 3097 2700 3197 2384 
Q 3297 2069 3297 1709 
Q 3297 856 2875 390 
Q 2453 -75 1863 -75 
Q 1275 -75 941 416 
L 941 0 
z
M 934 1684 
Q 934 1088 1097 822 
Q 1363 388 1816 388 
Q 2184 388 2453 708 
Q 2722 1028 2722 1663 
Q 2722 2313 2464 2622 
Q 2206 2931 1841 2931 
Q 1472 2931 1203 2611 
Q 934 2291 934 1684 
z
" transform="scale(0.015625)"/>
      <path id="ArialMT-65" d="M 2694 1069 
L 3275 997 
Q 3138 488 2766 206 
Q 2394 -75 1816 -75 
Q 1088 -75 661 373 
Q 234 822 234 1631 
Q 234 2469 665 2931 
Q 1097 3394 1784 3394 
Q 2450 3394 2872 2941 
Q 3294 2488 3294 1666 
Q 3294 1616 3291 1516 
L 816 1516 
Q 847 969 1125 678 
Q 1403 388 1819 388 
Q 2128 388 2347 550 
Q 2566 713 2694 1069 
z
M 847 1978 
L 2700 1978 
Q 2663 2397 2488 2606 
Q 2219 2931 1791 2931 
Q 1403 2931 1139 2672 
Q 875 2413 847 1978 
z
" transform="scale(0.015625)"/>
      <path id="ArialMT-68" d="M 422 0 
L 422 4581 
L 984 4581 
L 984 2938 
Q 1378 3394 1978 3394 
Q 2347 3394 2619 3248 
Q 2891 3103 3008 2847 
Q 3125 2591 3125 2103 
L 3125 0 
L 2563 0 
L 2563 2103 
Q 2563 2525 2380 2717 
Q 2197 2909 1863 2909 
Q 1613 2909 1392 2779 
Q 1172 2650 1078 2428 
Q 984 2206 984 1816 
L 984 0 
L 422 0 
z
" transform="scale(0.015625)"/>
      <path id="ArialMT-6b" d="M 425 0 
L 425 4581 
L 988 4581 
L 988 1969 
L 2319 3319 
L 3047 3319 
L 1778 2088 
L 3175 0 
L 2481 0 
L 1384 1697 
L 988 1316 
L 988 0 
L 425 0 
z
" transform="scale(0.015625)"/>
     </defs>
     <use xlink:href="#ArialMT-4d"/>
     <use xlink:href="#ArialMT-69" x="83.300781"/>
     <use xlink:href="#ArialMT-6e" x="105.517578"/>
     <use xlink:href="#ArialMT-69" x="161.132812"/>
     <use xlink:href="#ArialMT-6d" x="183.349609"/>
     <use xlink:href="#ArialMT-75" x="266.650391"/>
     <use xlink:href="#ArialMT-6d" x="322.265625"/>
     <use xlink:href="#ArialMT-20" x="405.566406"/>
     <use xlink:href="#ArialMT-61" x="433.349609"/>
     <use xlink:href="#ArialMT-63" x="488.964844"/>
     <use xlink:href="#ArialMT-63" x="538.964844"/>
     <use xlink:href="#ArialMT-75" x="588.964844"/>
     <use xlink:href="#ArialMT-72" x="644.580078"/>
     <use xlink:href="#ArialMT-61" x="677.880859"/>
     <use xlink:href="#ArialMT-63" x="733.496094"/>
     <use xlink:href="#ArialMT-79" x="783.496094"/>
     <use xlink:href="#ArialMT-20" x="833.496094"/>
     <use xlink:href="#ArialMT-66" x="861.279297"/>
     <use xlink:href="#ArialMT-6f" x="889.0625"/>
     <use xlink:href="#ArialMT-72" x="944.677734"/>
     <use xlink:href="#ArialMT-20" x="977.978516"/>
     <use xlink:href="#ArialMT-62" x="1005.761719"/>
     <use xlink:href="#ArialMT-65" x="1061.376953"/>
     <use xlink:href="#ArialMT-6e" x="1116.992188"/>
     <use xlink:href="#ArialMT-63" x="1172.607422"/>
     <use xlink:href="#ArialMT-68" x="1222.607422"/>
     <use xlink:href="#ArialMT-6d" x="1278.222656"/>
     <use xlink:href="#ArialMT-61" x="1361.523438"/>
     <use xlink:href="#ArialMT-72" x="1417.138672"/>
     <use xlink:href="#ArialMT-6b" x="1450.439453"/>
    </g>
   </g>
   <g id="text_2">
    <!-- Maximum parameters for benchmark -->
    <g style="fill: #636efa" transform="translate(486.136089 16.934529) scale(0.1 -0.1)">
     <defs>
      <path id="ArialMT-78" d="M 47 0 
L 1259 1725 
L 138 3319 
L 841 3319 
L 1350 2541 
Q 1494 2319 1581 2169 
Q 1719 2375 1834 2534 
L 2394 3319 
L 3066 3319 
L 1919 1756 
L 3153 0 
L 2463 0 
L 1781 1031 
L 1600 1309 
L 728 0 
L 47 0 
z
" transform="scale(0.015625)"/>
      <path id="ArialMT-70" d="M 422 -1272 
L 422 3319 
L 934 3319 
L 934 2888 
Q 1116 3141 1344 3267 
Q 1572 3394 1897 3394 
Q 2322 3394 2647 3175 
Q 2972 2956 3137 2557 
Q 3303 2159 3303 1684 
Q 3303 1175 3120 767 
Q 2938 359 2589 142 
Q 2241 -75 1856 -75 
Q 1575 -75 1351 44 
Q 1128 163 984 344 
L 984 -1272 
L 422 -1272 
z
M 931 1641 
Q 931 1000 1190 694 
Q 1450 388 1819 388 
Q 2194 388 2461 705 
Q 2728 1022 2728 1688 
Q 2728 2322 2467 2637 
Q 2206 2953 1844 2953 
Q 1484 2953 1207 2617 
Q 931 2281 931 1641 
z
" transform="scale(0.015625)"/>
      <path id="ArialMT-74" d="M 1650 503 
L 1731 6 
Q 1494 -44 1306 -44 
Q 1000 -44 831 53 
Q 663 150 594 308 
Q 525 466 525 972 
L 525 2881 
L 113 2881 
L 113 3319 
L 525 3319 
L 525 4141 
L 1084 4478 
L 1084 3319 
L 1650 3319 
L 1650 2881 
L 1084 2881 
L 1084 941 
Q 1084 700 1114 631 
Q 1144 563 1211 522 
Q 1278 481 1403 481 
Q 1497 481 1650 503 
z
" transform="scale(0.015625)"/>
      <path id="ArialMT-73" d="M 197 991 
L 753 1078 
Q 800 744 1014 566 
Q 1228 388 1613 388 
Q 2000 388 2187 545 
Q 2375 703 2375 916 
Q 2375 1106 2209 1216 
Q 2094 1291 1634 1406 
Q 1016 1563 777 1677 
Q 538 1791 414 1992 
Q 291 2194 291 2438 
Q 291 2659 392 2848 
Q 494 3038 669 3163 
Q 800 3259 1026 3326 
Q 1253 3394 1513 3394 
Q 1903 3394 2198 3281 
Q 2494 3169 2634 2976 
Q 2775 2784 2828 2463 
L 2278 2388 
Q 2241 2644 2061 2787 
Q 1881 2931 1553 2931 
Q 1166 2931 1000 2803 
Q 834 2675 834 2503 
Q 834 2394 903 2306 
Q 972 2216 1119 2156 
Q 1203 2125 1616 2013 
Q 2213 1853 2448 1751 
Q 2684 1650 2818 1456 
Q 2953 1263 2953 975 
Q 2953 694 2789 445 
Q 2625 197 2315 61 
Q 2006 -75 1616 -75 
Q 969 -75 630 194 
Q 291 463 197 991 
z
" transform="scale(0.015625)"/>
     </defs>
     <use xlink:href="#ArialMT-4d"/>
     <use xlink:href="#ArialMT-61" x="83.300781"/>
     <use xlink:href="#ArialMT-78" x="138.916016"/>
     <use xlink:href="#ArialMT-69" x="188.916016"/>
     <use xlink:href="#ArialMT-6d" x="211.132812"/>
     <use xlink:href="#ArialMT-75" x="294.433594"/>
     <use xlink:href="#ArialMT-6d" x="350.048828"/>
     <use xlink:href="#ArialMT-20" x="433.349609"/>
     <use xlink:href="#ArialMT-70" x="461.132812"/>
     <use xlink:href="#ArialMT-61" x="516.748047"/>
     <use xlink:href="#ArialMT-72" x="572.363281"/>
     <use xlink:href="#ArialMT-61" x="605.664062"/>
     <use xlink:href="#ArialMT-6d" x="661.279297"/>
     <use xlink:href="#ArialMT-65" x="744.580078"/>
     <use xlink:href="#ArialMT-74" x="800.195312"/>
     <use xlink:href="#ArialMT-65" x="827.978516"/>
     <use xlink:href="#ArialMT-72" x="883.59375"/>
     <use xlink:href="#ArialMT-73" x="916.894531"/>
     <use xlink:href="#ArialMT-20" x="966.894531"/>
     <use xlink:href="#ArialMT-66" x="994.677734"/>
     <use xlink:href="#ArialMT-6f" x="1022.460938"/>
     <use xlink:href="#ArialMT-72" x="1078.076172"/>
     <use xlink:href="#ArialMT-20" x="1111.376953"/>
     <use xlink:href="#ArialMT-62" x="1139.160156"/>
     <use xlink:href="#ArialMT-65" x="1194.775391"/>
     <use xlink:href="#ArialMT-6e" x="1250.390625"/>
     <use xlink:href="#ArialMT-63" x="1306.005859"/>
     <use xlink:href="#ArialMT-68" x="1356.005859"/>
     <use xlink:href="#ArialMT-6d" x="1411.621094"/>
     <use xlink:href="#ArialMT-61" x="1494.921875"/>
     <use xlink:href="#ArialMT-72" x="1550.537109"/>
     <use xlink:href="#ArialMT-6b" x="1583.837891"/>
    </g>
   </g>
   <g id="matplotlib.axis_1">
    <g id="xtick_1">
     <g id="line2d_3">
      <path d="M 218.274513 498.96 
L 218.274513 0 
" clip-path="url(#p81389f5467)" style="fill: none; stroke: #ffffff; stroke-width: 0.8; stroke-linecap: round"/>
     </g>
     <g id="text_3">
      <!-- $\mathdefault{10^{5}}$ -->
      <g style="fill: #262626" transform="translate(210.424513 516.1725) scale(0.1 -0.1)">
       <defs>
        <path id="ArialMT-31" d="M 2384 0 
L 1822 0 
L 1822 3584 
Q 1619 3391 1289 3197 
Q 959 3003 697 2906 
L 697 3450 
Q 1169 3672 1522 3987 
Q 1875 4303 2022 4600 
L 2384 4600 
L 2384 0 
z
" transform="scale(0.015625)"/>
        <path id="ArialMT-30" d="M 266 2259 
Q 266 3072 433 3567 
Q 600 4063 929 4331 
Q 1259 4600 1759 4600 
Q 2128 4600 2406 4451 
Q 2684 4303 2865 4023 
Q 3047 3744 3150 3342 
Q 3253 2941 3253 2259 
Q 3253 1453 3087 958 
Q 2922 463 2592 192 
Q 2263 -78 1759 -78 
Q 1097 -78 719 397 
Q 266 969 266 2259 
z
M 844 2259 
Q 844 1131 1108 757 
Q 1372 384 1759 384 
Q 2147 384 2411 759 
Q 2675 1134 2675 2259 
Q 2675 3391 2411 3762 
Q 2147 4134 1753 4134 
Q 1366 4134 1134 3806 
Q 844 3388 844 2259 
z
" transform="scale(0.015625)"/>
        <path id="ArialMT-35" d="M 266 1200 
L 856 1250 
Q 922 819 1161 601 
Q 1400 384 1738 384 
Q 2144 384 2425 690 
Q 2706 997 2706 1503 
Q 2706 1984 2436 2262 
Q 2166 2541 1728 2541 
Q 1456 2541 1237 2417 
Q 1019 2294 894 2097 
L 366 2166 
L 809 4519 
L 3088 4519 
L 3088 3981 
L 1259 3981 
L 1013 2750 
Q 1425 3038 1878 3038 
Q 2478 3038 2890 2622 
Q 3303 2206 3303 1553 
Q 3303 931 2941 478 
Q 2500 -78 1738 -78 
Q 1113 -78 717 272 
Q 322 622 266 1200 
z
" transform="scale(0.015625)"/>
       </defs>
       <use xlink:href="#ArialMT-31" transform="translate(0 0.879688)"/>
       <use xlink:href="#ArialMT-30" transform="translate(55.615234 0.879688)"/>
       <use xlink:href="#ArialMT-35" transform="translate(112.972813 70.573438) scale(0.7)"/>
      </g>
     </g>
    </g>
    <g id="xtick_2">
     <g id="line2d_4">
      <path d="M 489.6102 498.96 
L 489.6102 0 
" clip-path="url(#p81389f5467)" style="fill: none; stroke: #ffffff; stroke-width: 0.8; stroke-linecap: round"/>
     </g>
     <g id="text_4">
      <!-- $\mathdefault{10^{6}}$ -->
      <g style="fill: #262626" transform="translate(481.7602 516.2725) scale(0.1 -0.1)">
       <defs>
        <path id="ArialMT-36" d="M 3184 3459 
L 2625 3416 
Q 2550 3747 2413 3897 
Q 2184 4138 1850 4138 
Q 1581 4138 1378 3988 
Q 1113 3794 959 3422 
Q 806 3050 800 2363 
Q 1003 2672 1297 2822 
Q 1591 2972 1913 2972 
Q 2475 2972 2870 2558 
Q 3266 2144 3266 1488 
Q 3266 1056 3080 686 
Q 2894 316 2569 119 
Q 2244 -78 1831 -78 
Q 1128 -78 684 439 
Q 241 956 241 2144 
Q 241 3472 731 4075 
Q 1159 4600 1884 4600 
Q 2425 4600 2770 4297 
Q 3116 3994 3184 3459 
z
M 888 1484 
Q 888 1194 1011 928 
Q 1134 663 1356 523 
Q 1578 384 1822 384 
Q 2178 384 2434 671 
Q 2691 959 2691 1453 
Q 2691 1928 2437 2201 
Q 2184 2475 1800 2475 
Q 1419 2475 1153 2201 
Q 888 1928 888 1484 
z
" transform="scale(0.015625)"/>
       </defs>
       <use xlink:href="#ArialMT-31" transform="translate(0 0.99375)"/>
       <use xlink:href="#ArialMT-30" transform="translate(55.615234 0.99375)"/>
       <use xlink:href="#ArialMT-36" transform="translate(112.972813 70.6875) scale(0.7)"/>
      </g>
     </g>
    </g>
    <g id="xtick_3">
     <g id="line2d_5">
      <path d="M 760.945888 498.96 
L 760.945888 0 
" clip-path="url(#p81389f5467)" style="fill: none; stroke: #ffffff; stroke-width: 0.8; stroke-linecap: round"/>
     </g>
     <g id="text_5">
      <!-- $\mathdefault{10^{7}}$ -->
      <g style="fill: #262626" transform="translate(753.095888 516.1725) scale(0.1 -0.1)">
       <defs>
        <path id="ArialMT-37" d="M 303 3981 
L 303 4522 
L 3269 4522 
L 3269 4084 
Q 2831 3619 2401 2847 
Q 1972 2075 1738 1259 
Q 1569 684 1522 0 
L 944 0 
Q 953 541 1156 1306 
Q 1359 2072 1739 2783 
Q 2119 3494 2547 3981 
L 303 3981 
z
" transform="scale(0.015625)"/>
       </defs>
       <use xlink:href="#ArialMT-31" transform="translate(0 0.846875)"/>
       <use xlink:href="#ArialMT-30" transform="translate(55.615234 0.846875)"/>
       <use xlink:href="#ArialMT-37" transform="translate(112.972813 70.540625) scale(0.7)"/>
      </g>
     </g>
    </g>
    <g id="xtick_4"/>
    <g id="xtick_5"/>
    <g id="xtick_6"/>
    <g id="xtick_7"/>
    <g id="xtick_8"/>
    <g id="xtick_9"/>
    <g id="xtick_10"/>
    <g id="xtick_11"/>
    <g id="xtick_12"/>
    <g id="xtick_13"/>
    <g id="xtick_14"/>
    <g id="xtick_15"/>
    <g id="xtick_16"/>
    <g id="xtick_17"/>
    <g id="xtick_18"/>
    <g id="xtick_19"/>
    <g id="xtick_20"/>
    <g id="xtick_21"/>
    <g id="xtick_22"/>
    <g id="xtick_23"/>
    <g id="xtick_24"/>
    <g id="xtick_25"/>
    <g id="xtick_26"/>
    <g id="xtick_27"/>
    <g id="xtick_28"/>
    <g id="xtick_29"/>
    <g id="text_6">
     <!-- Parameters (millions) -->
     <g style="fill: #262626" transform="translate(430.677344 529.539688) scale(0.1 -0.1)">
      <defs>
       <path id="ArialMT-50" d="M 494 0 
L 494 4581 
L 2222 4581 
Q 2678 4581 2919 4538 
Q 3256 4481 3484 4323 
Q 3713 4166 3852 3881 
Q 3991 3597 3991 3256 
Q 3991 2672 3619 2267 
Q 3247 1863 2275 1863 
L 1100 1863 
L 1100 0 
L 494 0 
z
M 1100 2403 
L 2284 2403 
Q 2872 2403 3119 2622 
Q 3366 2841 3366 3238 
Q 3366 3525 3220 3729 
Q 3075 3934 2838 4000 
Q 2684 4041 2272 4041 
L 1100 4041 
L 1100 2403 
z
" transform="scale(0.015625)"/>
       <path id="ArialMT-28" d="M 1497 -1347 
Q 1031 -759 709 28 
Q 388 816 388 1659 
Q 388 2403 628 3084 
Q 909 3875 1497 4659 
L 1900 4659 
Q 1522 4009 1400 3731 
Q 1209 3300 1100 2831 
Q 966 2247 966 1656 
Q 966 153 1900 -1347 
L 1497 -1347 
z
" transform="scale(0.015625)"/>
       <path id="ArialMT-6c" d="M 409 0 
L 409 4581 
L 972 4581 
L 972 0 
L 409 0 
z
" transform="scale(0.015625)"/>
       <path id="ArialMT-29" d="M 791 -1347 
L 388 -1347 
Q 1322 153 1322 1656 
Q 1322 2244 1188 2822 
Q 1081 3291 891 3722 
Q 769 4003 388 4659 
L 791 4659 
Q 1378 3875 1659 3084 
Q 1900 2403 1900 1659 
Q 1900 816 1576 28 
Q 1253 -759 791 -1347 
z
" transform="scale(0.015625)"/>
      </defs>
      <use xlink:href="#ArialMT-50"/>
      <use xlink:href="#ArialMT-61" x="66.699219"/>
      <use xlink:href="#ArialMT-72" x="122.314453"/>
      <use xlink:href="#ArialMT-61" x="155.615234"/>
      <use xlink:href="#ArialMT-6d" x="211.230469"/>
      <use xlink:href="#ArialMT-65" x="294.53125"/>
      <use xlink:href="#ArialMT-74" x="350.146484"/>
      <use xlink:href="#ArialMT-65" x="377.929688"/>
      <use xlink:href="#ArialMT-72" x="433.544922"/>
      <use xlink:href="#ArialMT-73" x="466.845703"/>
      <use xlink:href="#ArialMT-20" x="516.845703"/>
      <use xlink:href="#ArialMT-28" x="544.628906"/>
      <use xlink:href="#ArialMT-6d" x="577.929688"/>
      <use xlink:href="#ArialMT-69" x="661.230469"/>
      <use xlink:href="#ArialMT-6c" x="683.447266"/>
      <use xlink:href="#ArialMT-6c" x="705.664062"/>
      <use xlink:href="#ArialMT-69" x="727.880859"/>
      <use xlink:href="#ArialMT-6f" x="750.097656"/>
      <use xlink:href="#ArialMT-6e" x="805.712891"/>
      <use xlink:href="#ArialMT-73" x="861.328125"/>
      <use xlink:href="#ArialMT-29" x="911.328125"/>
     </g>
    </g>
   </g>
   <g id="matplotlib.axis_2">
    <g id="ytick_1">
     <g id="line2d_6">
      <path d="M 31.50625 447.877709 
L 924.30625 447.877709 
" clip-path="url(#p81389f5467)" style="fill: none; stroke: #ffffff; stroke-width: 0.8; stroke-linecap: round"/>
     </g>
     <g id="text_7">
      <!-- 70 -->
      <g style="fill: #262626" transform="translate(13.384375 451.456615) scale(0.1 -0.1)">
       <use xlink:href="#ArialMT-37"/>
       <use xlink:href="#ArialMT-30" x="55.615234"/>
      </g>
     </g>
    </g>
    <g id="ytick_2">
     <g id="line2d_7">
      <path d="M 31.50625 337.79131 
L 924.30625 337.79131 
" clip-path="url(#p81389f5467)" style="fill: none; stroke: #ffffff; stroke-width: 0.8; stroke-linecap: round"/>
     </g>
     <g id="text_8">
      <!-- 75 -->
      <g style="fill: #262626" transform="translate(13.384375 341.370216) scale(0.1 -0.1)">
       <use xlink:href="#ArialMT-37"/>
       <use xlink:href="#ArialMT-35" x="55.615234"/>
      </g>
     </g>
    </g>
    <g id="ytick_3">
     <g id="line2d_8">
      <path d="M 31.50625 227.70491 
L 924.30625 227.70491 
" clip-path="url(#p81389f5467)" style="fill: none; stroke: #ffffff; stroke-width: 0.8; stroke-linecap: round"/>
     </g>
     <g id="text_9">
      <!-- 80 -->
      <g style="fill: #262626" transform="translate(13.384375 231.283816) scale(0.1 -0.1)">
       <defs>
        <path id="ArialMT-38" d="M 1131 2484 
Q 781 2613 612 2850 
Q 444 3088 444 3419 
Q 444 3919 803 4259 
Q 1163 4600 1759 4600 
Q 2359 4600 2725 4251 
Q 3091 3903 3091 3403 
Q 3091 3084 2923 2848 
Q 2756 2613 2416 2484 
Q 2838 2347 3058 2040 
Q 3278 1734 3278 1309 
Q 3278 722 2862 322 
Q 2447 -78 1769 -78 
Q 1091 -78 675 323 
Q 259 725 259 1325 
Q 259 1772 486 2073 
Q 713 2375 1131 2484 
z
M 1019 3438 
Q 1019 3113 1228 2906 
Q 1438 2700 1772 2700 
Q 2097 2700 2305 2904 
Q 2513 3109 2513 3406 
Q 2513 3716 2298 3927 
Q 2084 4138 1766 4138 
Q 1444 4138 1231 3931 
Q 1019 3725 1019 3438 
z
M 838 1322 
Q 838 1081 952 856 
Q 1066 631 1291 507 
Q 1516 384 1775 384 
Q 2178 384 2440 643 
Q 2703 903 2703 1303 
Q 2703 1709 2433 1975 
Q 2163 2241 1756 2241 
Q 1359 2241 1098 1978 
Q 838 1716 838 1322 
z
" transform="scale(0.015625)"/>
       </defs>
       <use xlink:href="#ArialMT-38"/>
       <use xlink:href="#ArialMT-30" x="55.615234"/>
      </g>
     </g>
    </g>
    <g id="ytick_4">
     <g id="line2d_9">
      <path d="M 31.50625 117.618511 
L 924.30625 117.618511 
" clip-path="url(#p81389f5467)" style="fill: none; stroke: #ffffff; stroke-width: 0.8; stroke-linecap: round"/>
     </g>
     <g id="text_10">
      <!-- 85 -->
      <g style="fill: #262626" transform="translate(13.384375 121.197417) scale(0.1 -0.1)">
       <use xlink:href="#ArialMT-38"/>
       <use xlink:href="#ArialMT-35" x="55.615234"/>
      </g>
     </g>
    </g>
    <g id="ytick_5">
     <g id="line2d_10">
      <path d="M 31.50625 7.532111 
L 924.30625 7.532111 
" clip-path="url(#p81389f5467)" style="fill: none; stroke: #ffffff; stroke-width: 0.8; stroke-linecap: round"/>
     </g>
     <g id="text_11">
      <!-- 90 -->
      <g style="fill: #262626" transform="translate(13.384375 11.111018) scale(0.1 -0.1)">
       <defs>
        <path id="ArialMT-39" d="M 350 1059 
L 891 1109 
Q 959 728 1153 556 
Q 1347 384 1650 384 
Q 1909 384 2104 503 
Q 2300 622 2425 820 
Q 2550 1019 2634 1356 
Q 2719 1694 2719 2044 
Q 2719 2081 2716 2156 
Q 2547 1888 2255 1720 
Q 1963 1553 1622 1553 
Q 1053 1553 659 1965 
Q 266 2378 266 3053 
Q 266 3750 677 4175 
Q 1088 4600 1706 4600 
Q 2153 4600 2523 4359 
Q 2894 4119 3086 3673 
Q 3278 3228 3278 2384 
Q 3278 1506 3087 986 
Q 2897 466 2520 194 
Q 2144 -78 1638 -78 
Q 1100 -78 759 220 
Q 419 519 350 1059 
z
M 2653 3081 
Q 2653 3566 2395 3850 
Q 2138 4134 1775 4134 
Q 1400 4134 1122 3828 
Q 844 3522 844 3034 
Q 844 2597 1108 2323 
Q 1372 2050 1759 2050 
Q 2150 2050 2401 2323 
Q 2653 2597 2653 3081 
z
" transform="scale(0.015625)"/>
       </defs>
       <use xlink:href="#ArialMT-39"/>
       <use xlink:href="#ArialMT-30" x="55.615234"/>
      </g>
     </g>
    </g>
    <g id="text_12">
     <!-- Accuracy (%) -->
     <g style="fill: #262626" transform="translate(7.279688 279.205781) rotate(-90) scale(0.1 -0.1)">
      <defs>
       <path id="ArialMT-41" d="M -9 0 
L 1750 4581 
L 2403 4581 
L 4278 0 
L 3588 0 
L 3053 1388 
L 1138 1388 
L 634 0 
L -9 0 
z
M 1313 1881 
L 2866 1881 
L 2388 3150 
Q 2169 3728 2063 4100 
Q 1975 3659 1816 3225 
L 1313 1881 
z
" transform="scale(0.015625)"/>
       <path id="ArialMT-25" d="M 372 3481 
Q 372 3972 619 4315 
Q 866 4659 1334 4659 
Q 1766 4659 2048 4351 
Q 2331 4044 2331 3447 
Q 2331 2866 2045 2552 
Q 1759 2238 1341 2238 
Q 925 2238 648 2547 
Q 372 2856 372 3481 
z
M 1350 4272 
Q 1141 4272 1002 4090 
Q 863 3909 863 3425 
Q 863 2984 1003 2804 
Q 1144 2625 1350 2625 
Q 1563 2625 1702 2806 
Q 1841 2988 1841 3469 
Q 1841 3913 1700 4092 
Q 1559 4272 1350 4272 
z
M 1353 -169 
L 3859 4659 
L 4316 4659 
L 1819 -169 
L 1353 -169 
z
M 3334 1075 
Q 3334 1569 3581 1911 
Q 3828 2253 4300 2253 
Q 4731 2253 5014 1945 
Q 5297 1638 5297 1041 
Q 5297 459 5011 145 
Q 4725 -169 4303 -169 
Q 3888 -169 3611 142 
Q 3334 453 3334 1075 
z
M 4316 1866 
Q 4103 1866 3964 1684 
Q 3825 1503 3825 1019 
Q 3825 581 3965 400 
Q 4106 219 4313 219 
Q 4528 219 4667 400 
Q 4806 581 4806 1063 
Q 4806 1506 4665 1686 
Q 4525 1866 4316 1866 
z
" transform="scale(0.015625)"/>
      </defs>
      <use xlink:href="#ArialMT-41"/>
      <use xlink:href="#ArialMT-63" x="66.699219"/>
      <use xlink:href="#ArialMT-63" x="116.699219"/>
      <use xlink:href="#ArialMT-75" x="166.699219"/>
      <use xlink:href="#ArialMT-72" x="222.314453"/>
      <use xlink:href="#ArialMT-61" x="255.615234"/>
      <use xlink:href="#ArialMT-63" x="311.230469"/>
      <use xlink:href="#ArialMT-79" x="361.230469"/>
      <use xlink:href="#ArialMT-20" x="411.230469"/>
      <use xlink:href="#ArialMT-28" x="439.013672"/>
      <use xlink:href="#ArialMT-25" x="472.314453"/>
      <use xlink:href="#ArialMT-29" x="561.230469"/>
     </g>
    </g>
   </g>
   <g id="PathCollection_1">
    <path d="M 216.949646 299.646853 
C 217.951171 299.646853 218.91181 299.248943 219.619995 298.540758 
C 220.32818 297.832573 220.72609 296.871933 220.72609 295.870409 
C 220.72609 294.868884 220.32818 293.908244 219.619995 293.20006 
C 218.91181 292.491875 217.951171 292.093965 216.949646 292.093965 
C 215.948121 292.093965 214.987482 292.491875 214.279297 293.20006 
C 213.571112 293.908244 213.173202 294.868884 213.173202 295.870409 
C 213.173202 296.871933 213.571112 297.832573 214.279297 298.540758 
C 214.987482 299.248943 215.948121 299.646853 216.949646 299.646853 
z
" clip-path="url(#p81389f5467)" style="fill: #ecaa7d; stroke: #ffffff; stroke-width: 0.594073"/>
    <path d="M 217.349385 147.639553 
C 218.35091 147.639553 219.311549 147.241643 220.019734 146.533458 
C 220.727919 145.825273 221.125829 144.864633 221.125829 143.863108 
C 221.125829 142.861584 220.727919 141.900944 220.019734 141.192759 
C 219.311549 140.484574 218.35091 140.086664 217.349385 140.086664 
C 216.34786 140.086664 215.387221 140.484574 214.679036 141.192759 
C 213.970851 141.900944 213.572941 142.861584 213.572941 143.863108 
C 213.572941 144.864633 213.970851 145.825273 214.679036 146.533458 
C 215.387221 147.241643 216.34786 147.639553 217.349385 147.639553 
z
" clip-path="url(#p81389f5467)" style="fill: #ecaa7d; stroke: #ffffff; stroke-width: 0.594073"/>
    <path d="M 219.535694 180.951699 
C 220.537219 180.951699 221.497859 180.553788 222.206044 179.845603 
C 222.914229 179.137418 223.312139 178.176778 223.312139 177.175253 
C 223.312139 176.173728 222.914229 175.213088 222.206044 174.504903 
C 221.497859 173.796717 220.537219 173.398807 219.535694 173.398807 
C 218.534168 173.398807 217.573528 173.796717 216.865343 174.504903 
C 216.157158 175.213088 215.759248 176.173728 215.759248 177.175253 
C 215.759248 178.176778 216.157158 179.137418 216.865343 179.845603 
C 217.573528 180.553788 218.534168 180.951699 219.535694 180.951699 
z
" clip-path="url(#p81389f5467)" style="fill: #ecaa7d; stroke: #ffffff; stroke-width: 0.594073"/>
    <path d="M 224.012702 203.343276 
C 225.014228 203.343276 225.974869 202.945365 226.683055 202.237179 
C 227.391241 201.528993 227.789151 200.568353 227.789151 199.566827 
C 227.789151 198.565301 227.391241 197.60466 226.683055 196.896474 
C 225.974869 196.188288 225.014228 195.790378 224.012702 195.790378 
C 223.011176 195.790378 222.050535 196.188288 221.34235 196.896474 
C 220.634164 197.60466 220.236253 198.565301 220.236253 199.566827 
C 220.236253 200.568353 220.634164 201.528993 221.34235 202.237179 
C 222.050535 202.945365 223.011176 203.343276 224.012702 203.343276 
z
" clip-path="url(#p81389f5467)" style="fill: #ecaa7d; stroke: #ffffff; stroke-width: 0.594073"/>
    <path d="M 71.038841 479.976915 
C 72.019274 479.976915 72.959683 479.587384 73.652954 478.894113 
C 74.346225 478.200842 74.735755 477.260433 74.735755 476.28 
C 74.735755 475.299567 74.346225 474.359158 73.652954 473.665887 
C 72.959683 472.972616 72.019274 472.583085 71.038841 472.583085 
C 70.058407 472.583085 69.117998 472.972616 68.424727 473.665887 
C 67.731456 474.359158 67.341926 475.299567 67.341926 476.28 
C 67.341926 477.260433 67.731456 478.200842 68.424727 478.894113 
C 69.117998 479.587384 70.058407 479.976915 71.038841 479.976915 
z
" clip-path="url(#p81389f5467)" style="fill: #edad7f; stroke: #ffffff; stroke-width: 0.594073"/>
    <path d="M 155.894587 393.984872 
C 156.906192 393.984872 157.8765 393.582957 158.591813 392.867645 
C 159.307125 392.152332 159.70904 391.182023 159.70904 390.170418 
C 159.70904 389.158813 159.307125 388.188505 158.591813 387.473192 
C 157.8765 386.75788 156.906192 386.355965 155.894587 386.355965 
C 154.882982 386.355965 153.912673 386.75788 153.197361 387.473192 
C 152.482048 388.188505 152.080133 389.158813 152.080133 390.170418 
C 152.080133 391.182023 152.482048 392.152332 153.197361 392.867645 
C 153.912673 393.582957 154.882982 393.984872 155.894587 393.984872 
z
" clip-path="url(#p81389f5467)" style="fill: #ecaa7d; stroke: #ffffff; stroke-width: 0.594073"/>
    <path d="M 204.714215 46.247891 
C 205.756059 46.247891 206.755373 45.833962 207.492068 45.097267 
C 208.228763 44.360572 208.642693 43.361258 208.642693 42.319414 
C 208.642693 41.277569 208.228763 40.278256 207.492068 39.54156 
C 206.755373 38.804865 205.756059 38.390936 204.714215 38.390936 
C 203.67237 38.390936 202.673057 38.804865 201.936362 39.54156 
C 201.199666 40.278256 200.785737 41.277569 200.785737 42.319414 
C 200.785737 43.361258 201.199666 44.360572 201.936362 45.097267 
C 202.673057 45.833962 203.67237 46.247891 204.714215 46.247891 
z
" clip-path="url(#p81389f5467)" style="fill: #eca67b; stroke: #ffffff; stroke-width: 0.594073"/>
    <path d="M 299.559268 26.647211 
C 300.611385 26.647211 301.620551 26.2292 302.36451 25.485242 
C 303.108468 24.741283 303.526479 23.732117 303.526479 22.68 
C 303.526479 21.627883 303.108468 20.618717 302.36451 19.874758 
C 301.620551 19.1308 300.611385 18.712789 299.559268 18.712789 
C 298.507152 18.712789 297.497985 19.1308 296.754027 19.874758 
C 296.010068 20.618717 295.592058 21.627883 295.592058 22.68 
C 295.592058 23.732117 296.010068 24.741283 296.754027 25.485242 
C 297.497985 26.2292 298.507152 26.647211 299.559268 26.647211 
z
" clip-path="url(#p81389f5467)" style="fill: #eca57a; stroke: #ffffff; stroke-width: 0.594073"/>
    <path d="M 134.564245 195.385463 
C 135.615783 195.385463 136.624395 194.967683 137.367945 194.224133 
C 138.111495 193.480583 138.529275 192.471971 138.529275 191.420433 
C 138.529275 190.368895 138.111495 189.360283 137.367945 188.616733 
C 136.624395 187.873183 135.615783 187.455402 134.564245 187.455402 
C 133.512706 187.455402 132.504095 187.873183 131.760545 188.616733 
C 131.016995 189.360283 130.599214 190.368895 130.599214 191.420433 
C 130.599214 192.471971 131.016995 193.480583 131.760545 194.224133 
C 132.504095 194.967683 133.512706 195.385463 134.564245 195.385463 
z
" clip-path="url(#p81389f5467)" style="fill: #eca67b; stroke: #ffffff; stroke-width: 0.594073"/>
    <path d="M 143.536287 226.998889 
C 144.586927 226.998889 145.594677 226.581465 146.337591 225.838551 
C 147.080506 225.095636 147.497929 224.087887 147.497929 223.037247 
C 147.497929 221.986607 147.080506 220.978857 146.337591 220.235943 
C 145.594677 219.493028 144.586927 219.075605 143.536287 219.075605 
C 142.485647 219.075605 141.477897 219.493028 140.734983 220.235943 
C 139.992068 220.978857 139.574645 221.986607 139.574645 223.037247 
C 139.574645 224.087887 139.992068 225.095636 140.734983 225.838551 
C 141.477897 226.581465 142.485647 226.998889 143.536287 226.998889 
z
" clip-path="url(#p81389f5467)" style="fill: #eca67b; stroke: #ffffff; stroke-width: 0.594073"/>
    <path d="M 562.066857 255.135421 
C 563.004492 255.135421 563.90385 254.762895 564.566857 254.099887 
C 565.229865 253.43688 565.602391 252.537522 565.602391 251.599887 
C 565.602391 250.662253 565.229865 249.762895 564.566857 249.099887 
C 563.90385 248.43688 563.004492 248.064353 562.066857 248.064353 
C 561.129223 248.064353 560.229865 248.43688 559.566857 249.099887 
C 558.90385 249.762895 558.531323 250.662253 558.531323 251.599887 
C 558.531323 252.537522 558.90385 253.43688 559.566857 254.099887 
C 560.229865 254.762895 561.129223 255.135421 562.066857 255.135421 
z
" clip-path="url(#p81389f5467)" style="fill: #edb081; stroke: #ffffff; stroke-width: 0.594073"/>
    <path d="M 583.929151 338.462752 
C 585.054722 338.462752 586.134343 338.015558 586.930241 337.21966 
C 587.72614 336.423762 588.173333 335.34414 588.173333 334.21857 
C 588.173333 333.093 587.72614 332.013379 586.930241 331.21748 
C 586.134343 330.421582 585.054722 329.974388 583.929151 329.974388 
C 582.803581 329.974388 581.72396 330.421582 580.928062 331.21748 
C 580.132163 332.013379 579.68497 333.093 579.68497 334.21857 
C 579.68497 335.34414 580.132163 336.423762 580.928062 337.21966 
C 581.72396 338.015558 582.803581 338.462752 583.929151 338.462752 
z
" clip-path="url(#p81389f5467)" style="fill: #eb9e76; stroke: #ffffff; stroke-width: 0.594073"/>
    <path d="M 861.690651 221.456631 
C 864.171399 221.456631 866.550876 220.471019 868.30503 218.716866 
C 870.059183 216.962712 871.044795 214.583235 871.044795 212.102487 
C 871.044795 209.62174 870.059183 207.242263 868.30503 205.488109 
C 866.550876 203.733956 864.171399 202.748344 861.690651 202.748344 
C 859.209904 202.748344 856.830427 203.733956 855.076273 205.488109 
C 853.322119 207.242263 852.336508 209.62174 852.336508 212.102487 
C 852.336508 214.583235 853.322119 216.962712 855.076273 218.716866 
C 856.830427 220.471019 859.209904 221.456631 861.690651 221.456631 
z
" clip-path="url(#p81389f5467)" style="fill: #4b2362; stroke: #ffffff; stroke-width: 0.594073"/>
   </g>
   <g id="line2d_11"/>
   <g id="line2d_12"/>
   <g id="line2d_13"/>
   <g id="line2d_14"/>
   <g id="line2d_15"/>
   <g id="patch_4">
    <path d="M 31.50625 498.96 
L 31.50625 0 
" style="fill: none; stroke: #ffffff; stroke-width: 0.8; stroke-linejoin: miter; stroke-linecap: square"/>
   </g>
   <g id="patch_5">
    <path d="M 924.30625 498.96 
L 924.30625 0 
" style="fill: none; stroke: #ffffff; stroke-width: 0.8; stroke-linejoin: miter; stroke-linecap: square"/>
   </g>
   <g id="patch_6">
    <path d="M 31.50625 498.96 
L 924.30625 498.96 
" style="fill: none; stroke: #ffffff; stroke-width: 0.8; stroke-linejoin: miter; stroke-linecap: square"/>
   </g>
   <g id="patch_7">
    <path d="M 31.50625 0 
L 924.30625 0 
" style="fill: none; stroke: #ffffff; stroke-width: 0.8; stroke-linejoin: miter; stroke-linecap: square"/>
   </g>
   <g id="text_13">
    <!-- MLN -->
    <g style="fill: #262626" transform="translate(223.948767 299.173001) scale(0.1 -0.1)">
     <defs>
      <path id="ArialMT-4c" d="M 469 0 
L 469 4581 
L 1075 4581 
L 1075 541 
L 3331 541 
L 3331 0 
L 469 0 
z
" transform="scale(0.015625)"/>
      <path id="ArialMT-4e" d="M 488 0 
L 488 4581 
L 1109 4581 
L 3516 984 
L 3516 4581 
L 4097 4581 
L 4097 0 
L 3475 0 
L 1069 3600 
L 1069 0 
L 488 0 
z
" transform="scale(0.015625)"/>
     </defs>
     <use xlink:href="#ArialMT-4d"/>
     <use xlink:href="#ArialMT-4c" x="83.300781"/>
     <use xlink:href="#ArialMT-4e" x="138.916016"/>
    </g>
   </g>
   <g id="text_14">
    <!-- MLN + FF -->
    <g style="fill: #262626" transform="translate(224.338809 147.1657) scale(0.1 -0.1)">
     <defs>
      <path id="ArialMT-2b" d="M 1603 741 
L 1603 1997 
L 356 1997 
L 356 2522 
L 1603 2522 
L 1603 3769 
L 2134 3769 
L 2134 2522 
L 3381 2522 
L 3381 1997 
L 2134 1997 
L 2134 741 
L 1603 741 
z
" transform="scale(0.015625)"/>
      <path id="ArialMT-46" d="M 525 0 
L 525 4581 
L 3616 4581 
L 3616 4041 
L 1131 4041 
L 1131 2622 
L 3281 2622 
L 3281 2081 
L 1131 2081 
L 1131 0 
L 525 0 
z
" transform="scale(0.015625)"/>
     </defs>
     <use xlink:href="#ArialMT-4d"/>
     <use xlink:href="#ArialMT-4c" x="83.300781"/>
     <use xlink:href="#ArialMT-4e" x="138.916016"/>
     <use xlink:href="#ArialMT-20" x="211.132812"/>
     <use xlink:href="#ArialMT-2b" x="238.916016"/>
     <use xlink:href="#ArialMT-20" x="297.314453"/>
     <use xlink:href="#ArialMT-46" x="325.097656"/>
     <use xlink:href="#ArialMT-46" x="386.181641"/>
    </g>
   </g>
   <g id="text_15">
    <!-- MLN + A -->
    <g style="fill: #262626" transform="translate(226.472581 180.477845) scale(0.1 -0.1)">
     <use xlink:href="#ArialMT-4d"/>
     <use xlink:href="#ArialMT-4c" x="83.300781"/>
     <use xlink:href="#ArialMT-4e" x="138.916016"/>
     <use xlink:href="#ArialMT-20" x="211.132812"/>
     <use xlink:href="#ArialMT-2b" x="238.916016"/>
     <use xlink:href="#ArialMT-20" x="297.314453"/>
     <use xlink:href="#ArialMT-41" x="319.597656"/>
    </g>
   </g>
   <g id="text_16">
    <!-- MLN + FF + A -->
    <g style="fill: #262626" transform="translate(230.844608 202.869419) scale(0.1 -0.1)">
     <use xlink:href="#ArialMT-4d"/>
     <use xlink:href="#ArialMT-4c" x="83.300781"/>
     <use xlink:href="#ArialMT-4e" x="138.916016"/>
     <use xlink:href="#ArialMT-20" x="211.132812"/>
     <use xlink:href="#ArialMT-2b" x="238.916016"/>
     <use xlink:href="#ArialMT-20" x="297.314453"/>
     <use xlink:href="#ArialMT-46" x="325.097656"/>
     <use xlink:href="#ArialMT-46" x="386.181641"/>
     <use xlink:href="#ArialMT-20" x="447.265625"/>
     <use xlink:href="#ArialMT-2b" x="475.048828"/>
     <use xlink:href="#ArialMT-20" x="533.447266"/>
     <use xlink:href="#ArialMT-41" x="555.730469"/>
    </g>
   </g>
   <g id="text_17">
    <!-- MLN 1 Rep/Blk -->
    <g style="fill: #262626" transform="translate(82.139616 479.582592) scale(0.1 -0.1)">
     <defs>
      <path id="ArialMT-52" d="M 503 0 
L 503 4581 
L 2534 4581 
Q 3147 4581 3465 4457 
Q 3784 4334 3975 4021 
Q 4166 3709 4166 3331 
Q 4166 2844 3850 2509 
Q 3534 2175 2875 2084 
Q 3116 1969 3241 1856 
Q 3506 1613 3744 1247 
L 4541 0 
L 3778 0 
L 3172 953 
Q 2906 1366 2734 1584 
Q 2563 1803 2427 1890 
Q 2291 1978 2150 2013 
Q 2047 2034 1813 2034 
L 1109 2034 
L 1109 0 
L 503 0 
z
M 1109 2559 
L 2413 2559 
Q 2828 2559 3062 2645 
Q 3297 2731 3419 2920 
Q 3541 3109 3541 3331 
Q 3541 3656 3305 3865 
Q 3069 4075 2559 4075 
L 1109 4075 
L 1109 2559 
z
" transform="scale(0.015625)"/>
      <path id="ArialMT-2f" d="M 0 -78 
L 1328 4659 
L 1778 4659 
L 453 -78 
L 0 -78 
z
" transform="scale(0.015625)"/>
      <path id="ArialMT-42" d="M 469 0 
L 469 4581 
L 2188 4581 
Q 2713 4581 3030 4442 
Q 3347 4303 3526 4014 
Q 3706 3725 3706 3409 
Q 3706 3116 3547 2856 
Q 3388 2597 3066 2438 
Q 3481 2316 3704 2022 
Q 3928 1728 3928 1328 
Q 3928 1006 3792 729 
Q 3656 453 3456 303 
Q 3256 153 2954 76 
Q 2653 0 2216 0 
L 469 0 
z
M 1075 2656 
L 2066 2656 
Q 2469 2656 2644 2709 
Q 2875 2778 2992 2937 
Q 3109 3097 3109 3338 
Q 3109 3566 3000 3739 
Q 2891 3913 2687 3977 
Q 2484 4041 1991 4041 
L 1075 4041 
L 1075 2656 
z
M 1075 541 
L 2216 541 
Q 2509 541 2628 563 
Q 2838 600 2978 687 
Q 3119 775 3209 942 
Q 3300 1109 3300 1328 
Q 3300 1584 3169 1773 
Q 3038 1963 2805 2039 
Q 2572 2116 2134 2116 
L 1075 2116 
L 1075 541 
z
" transform="scale(0.015625)"/>
     </defs>
     <use xlink:href="#ArialMT-4d"/>
     <use xlink:href="#ArialMT-4c" x="83.300781"/>
     <use xlink:href="#ArialMT-4e" x="138.916016"/>
     <use xlink:href="#ArialMT-20" x="211.132812"/>
     <use xlink:href="#ArialMT-31" x="238.916016"/>
     <use xlink:href="#ArialMT-20" x="294.53125"/>
     <use xlink:href="#ArialMT-52" x="322.314453"/>
     <use xlink:href="#ArialMT-65" x="394.53125"/>
     <use xlink:href="#ArialMT-70" x="450.146484"/>
     <use xlink:href="#ArialMT-2f" x="505.761719"/>
     <use xlink:href="#ArialMT-42" x="533.544922"/>
     <use xlink:href="#ArialMT-6c" x="600.244141"/>
     <use xlink:href="#ArialMT-6b" x="622.460938"/>
    </g>
   </g>
   <g id="text_18">
    <!-- MLN 2 Reps/Blk -->
    <g style="fill: #262626" transform="translate(165.338369 393.47301) scale(0.1 -0.1)">
     <defs>
      <path id="ArialMT-32" d="M 3222 541 
L 3222 0 
L 194 0 
Q 188 203 259 391 
Q 375 700 629 1000 
Q 884 1300 1366 1694 
Q 2113 2306 2375 2664 
Q 2638 3022 2638 3341 
Q 2638 3675 2398 3904 
Q 2159 4134 1775 4134 
Q 1369 4134 1125 3890 
Q 881 3647 878 3216 
L 300 3275 
Q 359 3922 746 4261 
Q 1134 4600 1788 4600 
Q 2447 4600 2831 4234 
Q 3216 3869 3216 3328 
Q 3216 3053 3103 2787 
Q 2991 2522 2730 2228 
Q 2469 1934 1863 1422 
Q 1356 997 1212 845 
Q 1069 694 975 541 
L 3222 541 
z
" transform="scale(0.015625)"/>
     </defs>
     <use xlink:href="#ArialMT-4d"/>
     <use xlink:href="#ArialMT-4c" x="83.300781"/>
     <use xlink:href="#ArialMT-4e" x="138.916016"/>
     <use xlink:href="#ArialMT-20" x="211.132812"/>
     <use xlink:href="#ArialMT-32" x="238.916016"/>
     <use xlink:href="#ArialMT-20" x="294.53125"/>
     <use xlink:href="#ArialMT-52" x="322.314453"/>
     <use xlink:href="#ArialMT-65" x="394.53125"/>
     <use xlink:href="#ArialMT-70" x="450.146484"/>
     <use xlink:href="#ArialMT-73" x="505.761719"/>
     <use xlink:href="#ArialMT-2f" x="555.761719"/>
     <use xlink:href="#ArialMT-42" x="583.544922"/>
     <use xlink:href="#ArialMT-6c" x="650.244141"/>
     <use xlink:href="#ArialMT-6b" x="672.460938"/>
    </g>
   </g>
   <g id="text_19">
    <!-- MLN 3 Reps/Blk -->
    <g style="fill: #262626" transform="translate(213.558917 45.622006) scale(0.1 -0.1)">
     <defs>
      <path id="ArialMT-33" d="M 269 1209 
L 831 1284 
Q 928 806 1161 595 
Q 1394 384 1728 384 
Q 2125 384 2398 659 
Q 2672 934 2672 1341 
Q 2672 1728 2419 1979 
Q 2166 2231 1775 2231 
Q 1616 2231 1378 2169 
L 1441 2663 
Q 1497 2656 1531 2656 
Q 1891 2656 2178 2843 
Q 2466 3031 2466 3422 
Q 2466 3731 2256 3934 
Q 2047 4138 1716 4138 
Q 1388 4138 1169 3931 
Q 950 3725 888 3313 
L 325 3413 
Q 428 3978 793 4289 
Q 1159 4600 1703 4600 
Q 2078 4600 2393 4439 
Q 2709 4278 2876 4000 
Q 3044 3722 3044 3409 
Q 3044 3113 2884 2869 
Q 2725 2625 2413 2481 
Q 2819 2388 3044 2092 
Q 3269 1797 3269 1353 
Q 3269 753 2831 336 
Q 2394 -81 1725 -81 
Q 1122 -81 723 278 
Q 325 638 269 1209 
z
" transform="scale(0.015625)"/>
     </defs>
     <use xlink:href="#ArialMT-4d"/>
     <use xlink:href="#ArialMT-4c" x="83.300781"/>
     <use xlink:href="#ArialMT-4e" x="138.916016"/>
     <use xlink:href="#ArialMT-20" x="211.132812"/>
     <use xlink:href="#ArialMT-33" x="238.916016"/>
     <use xlink:href="#ArialMT-20" x="294.53125"/>
     <use xlink:href="#ArialMT-52" x="322.314453"/>
     <use xlink:href="#ArialMT-65" x="394.53125"/>
     <use xlink:href="#ArialMT-70" x="450.146484"/>
     <use xlink:href="#ArialMT-73" x="505.761719"/>
     <use xlink:href="#ArialMT-2f" x="555.761719"/>
     <use xlink:href="#ArialMT-42" x="583.544922"/>
     <use xlink:href="#ArialMT-6c" x="650.244141"/>
     <use xlink:href="#ArialMT-6b" x="672.460938"/>
    </g>
   </g>
   <g id="text_20">
    <!-- MLN Deep -->
    <g style="fill: #262626" transform="translate(305.928116 25.982592) scale(0.1 -0.1)">
     <defs>
      <path id="ArialMT-44" d="M 494 0 
L 494 4581 
L 2072 4581 
Q 2606 4581 2888 4516 
Q 3281 4425 3559 4188 
Q 3922 3881 4101 3404 
Q 4281 2928 4281 2316 
Q 4281 1794 4159 1391 
Q 4038 988 3847 723 
Q 3656 459 3429 307 
Q 3203 156 2883 78 
Q 2563 0 2147 0 
L 494 0 
z
M 1100 541 
L 2078 541 
Q 2531 541 2789 625 
Q 3047 709 3200 863 
Q 3416 1078 3536 1442 
Q 3656 1806 3656 2325 
Q 3656 3044 3420 3430 
Q 3184 3816 2847 3947 
Q 2603 4041 2063 4041 
L 1100 4041 
L 1100 541 
z
" transform="scale(0.015625)"/>
     </defs>
     <use xlink:href="#ArialMT-4d"/>
     <use xlink:href="#ArialMT-4c" x="83.300781"/>
     <use xlink:href="#ArialMT-4e" x="138.916016"/>
     <use xlink:href="#ArialMT-20" x="211.132812"/>
     <use xlink:href="#ArialMT-44" x="238.916016"/>
     <use xlink:href="#ArialMT-65" x="311.132812"/>
     <use xlink:href="#ArialMT-65" x="366.748047"/>
     <use xlink:href="#ArialMT-70" x="422.363281"/>
    </g>
   </g>
   <g id="text_21">
    <!-- MLN RevReps -->
    <g style="fill: #262626" transform="translate(147.69875 194.723025) scale(0.1 -0.1)">
     <defs>
      <path id="ArialMT-76" d="M 1344 0 
L 81 3319 
L 675 3319 
L 1388 1331 
Q 1503 1009 1600 663 
Q 1675 925 1809 1294 
L 2547 3319 
L 3125 3319 
L 1869 0 
L 1344 0 
z
" transform="scale(0.015625)"/>
     </defs>
     <use xlink:href="#ArialMT-4d"/>
     <use xlink:href="#ArialMT-4c" x="83.300781"/>
     <use xlink:href="#ArialMT-4e" x="138.916016"/>
     <use xlink:href="#ArialMT-20" x="211.132812"/>
     <use xlink:href="#ArialMT-52" x="238.916016"/>
     <use xlink:href="#ArialMT-65" x="311.132812"/>
     <use xlink:href="#ArialMT-76" x="366.748047"/>
     <use xlink:href="#ArialMT-52" x="416.748047"/>
     <use xlink:href="#ArialMT-65" x="488.964844"/>
     <use xlink:href="#ArialMT-70" x="544.580078"/>
     <use xlink:href="#ArialMT-73" x="600.195312"/>
    </g>
   </g>
   <g id="text_22">
    <!-- MLN RevBlks -->
    <g style="fill: #262626" transform="translate(155.989603 226.339839) scale(0.1 -0.1)">
     <use xlink:href="#ArialMT-4d"/>
     <use xlink:href="#ArialMT-4c" x="83.300781"/>
     <use xlink:href="#ArialMT-4e" x="138.916016"/>
     <use xlink:href="#ArialMT-20" x="211.132812"/>
     <use xlink:href="#ArialMT-52" x="238.916016"/>
     <use xlink:href="#ArialMT-65" x="311.132812"/>
     <use xlink:href="#ArialMT-76" x="366.748047"/>
     <use xlink:href="#ArialMT-42" x="416.748047"/>
     <use xlink:href="#ArialMT-6c" x="483.447266"/>
     <use xlink:href="#ArialMT-6b" x="505.664062"/>
     <use xlink:href="#ArialMT-73" x="555.664062"/>
    </g>
   </g>
   <g id="text_23">
    <!-- Base CNN -->
    <g style="fill: #262626" transform="translate(573.924525 254.902479) scale(0.1 -0.1)">
     <defs>
      <path id="ArialMT-43" d="M 3763 1606 
L 4369 1453 
Q 4178 706 3683 314 
Q 3188 -78 2472 -78 
Q 1731 -78 1267 223 
Q 803 525 561 1097 
Q 319 1669 319 2325 
Q 319 3041 592 3573 
Q 866 4106 1370 4382 
Q 1875 4659 2481 4659 
Q 3169 4659 3637 4309 
Q 4106 3959 4291 3325 
L 3694 3184 
Q 3534 3684 3231 3912 
Q 2928 4141 2469 4141 
Q 1941 4141 1586 3887 
Q 1231 3634 1087 3207 
Q 944 2781 944 2328 
Q 944 1744 1114 1308 
Q 1284 872 1643 656 
Q 2003 441 2422 441 
Q 2931 441 3284 734 
Q 3638 1028 3763 1606 
z
" transform="scale(0.015625)"/>
     </defs>
     <use xlink:href="#ArialMT-42"/>
     <use xlink:href="#ArialMT-61" x="66.699219"/>
     <use xlink:href="#ArialMT-73" x="122.314453"/>
     <use xlink:href="#ArialMT-65" x="172.314453"/>
     <use xlink:href="#ArialMT-20" x="227.929688"/>
     <use xlink:href="#ArialMT-43" x="255.712891"/>
     <use xlink:href="#ArialMT-4e" x="327.929688"/>
     <use xlink:href="#ArialMT-4e" x="400.146484"/>
    </g>
   </g>
   <g id="text_24">
    <!-- MobileNet -->
    <g style="fill: #262626" transform="translate(595.920388 337.521162) scale(0.1 -0.1)">
     <use xlink:href="#ArialMT-4d"/>
     <use xlink:href="#ArialMT-6f" x="83.300781"/>
     <use xlink:href="#ArialMT-62" x="138.916016"/>
     <use xlink:href="#ArialMT-69" x="194.53125"/>
     <use xlink:href="#ArialMT-6c" x="216.748047"/>
     <use xlink:href="#ArialMT-65" x="238.964844"/>
     <use xlink:href="#ArialMT-4e" x="294.580078"/>
     <use xlink:href="#ArialMT-65" x="366.796875"/>
     <use xlink:href="#ArialMT-74" x="422.412109"/>
    </g>
   </g>
   <g id="text_25">
    <!-- ResNet -->
    <g style="fill: #262626" transform="translate(872.19591 215.405079) scale(0.1 -0.1)">
     <use xlink:href="#ArialMT-52"/>
     <use xlink:href="#ArialMT-65" x="72.216797"/>
     <use xlink:href="#ArialMT-73" x="127.832031"/>
     <use xlink:href="#ArialMT-4e" x="177.832031"/>
     <use xlink:href="#ArialMT-65" x="250.048828"/>
     <use xlink:href="#ArialMT-74" x="305.664062"/>
    </g>
   </g>
   <g id="text_26">
    <!-- Models that meet the benchmark -->
    <g style="fill: #636efa" transform="translate(290.73117 248.669217) scale(0.1 -0.1)">
     <defs>
      <path id="ArialMT-64" d="M 2575 0 
L 2575 419 
Q 2259 -75 1647 -75 
Q 1250 -75 917 144 
Q 584 363 401 755 
Q 219 1147 219 1656 
Q 219 2153 384 2558 
Q 550 2963 881 3178 
Q 1213 3394 1622 3394 
Q 1922 3394 2156 3267 
Q 2391 3141 2538 2938 
L 2538 4581 
L 3097 4581 
L 3097 0 
L 2575 0 
z
M 797 1656 
Q 797 1019 1065 703 
Q 1334 388 1700 388 
Q 2069 388 2326 689 
Q 2584 991 2584 1609 
Q 2584 2291 2321 2609 
Q 2059 2928 1675 2928 
Q 1300 2928 1048 2622 
Q 797 2316 797 1656 
z
" transform="scale(0.015625)"/>
     </defs>
     <use xlink:href="#ArialMT-4d"/>
     <use xlink:href="#ArialMT-6f" x="83.300781"/>
     <use xlink:href="#ArialMT-64" x="138.916016"/>
     <use xlink:href="#ArialMT-65" x="194.53125"/>
     <use xlink:href="#ArialMT-6c" x="250.146484"/>
     <use xlink:href="#ArialMT-73" x="272.363281"/>
     <use xlink:href="#ArialMT-20" x="322.363281"/>
     <use xlink:href="#ArialMT-74" x="350.146484"/>
     <use xlink:href="#ArialMT-68" x="377.929688"/>
     <use xlink:href="#ArialMT-61" x="433.544922"/>
     <use xlink:href="#ArialMT-74" x="489.160156"/>
     <use xlink:href="#ArialMT-20" x="516.943359"/>
     <use xlink:href="#ArialMT-6d" x="544.726562"/>
     <use xlink:href="#ArialMT-65" x="628.027344"/>
     <use xlink:href="#ArialMT-65" x="683.642578"/>
     <use xlink:href="#ArialMT-74" x="739.257812"/>
     <use xlink:href="#ArialMT-20" x="767.041016"/>
     <use xlink:href="#ArialMT-74" x="794.824219"/>
     <use xlink:href="#ArialMT-68" x="822.607422"/>
     <use xlink:href="#ArialMT-65" x="878.222656"/>
     <use xlink:href="#ArialMT-20" x="933.837891"/>
     <use xlink:href="#ArialMT-62" x="961.621094"/>
     <use xlink:href="#ArialMT-65" x="1017.236328"/>
     <use xlink:href="#ArialMT-6e" x="1072.851562"/>
     <use xlink:href="#ArialMT-63" x="1128.466797"/>
     <use xlink:href="#ArialMT-68" x="1178.466797"/>
     <use xlink:href="#ArialMT-6d" x="1234.082031"/>
     <use xlink:href="#ArialMT-61" x="1317.382812"/>
     <use xlink:href="#ArialMT-72" x="1372.998047"/>
     <use xlink:href="#ArialMT-6b" x="1406.298828"/>
    </g>
    <!-- for an effective lightweight model -->
    <g style="fill: #636efa" transform="translate(290.73117 259.392342) scale(0.1 -0.1)">
     <defs>
      <path id="ArialMT-67" d="M 319 -275 
L 866 -356 
Q 900 -609 1056 -725 
Q 1266 -881 1628 -881 
Q 2019 -881 2231 -725 
Q 2444 -569 2519 -288 
Q 2563 -116 2559 434 
Q 2191 0 1641 0 
Q 956 0 581 494 
Q 206 988 206 1678 
Q 206 2153 378 2554 
Q 550 2956 876 3175 
Q 1203 3394 1644 3394 
Q 2231 3394 2613 2919 
L 2613 3319 
L 3131 3319 
L 3131 450 
Q 3131 -325 2973 -648 
Q 2816 -972 2473 -1159 
Q 2131 -1347 1631 -1347 
Q 1038 -1347 672 -1080 
Q 306 -813 319 -275 
z
M 784 1719 
Q 784 1066 1043 766 
Q 1303 466 1694 466 
Q 2081 466 2343 764 
Q 2606 1063 2606 1700 
Q 2606 2309 2336 2618 
Q 2066 2928 1684 2928 
Q 1309 2928 1046 2623 
Q 784 2319 784 1719 
z
" transform="scale(0.015625)"/>
      <path id="ArialMT-77" d="M 1034 0 
L 19 3319 
L 600 3319 
L 1128 1403 
L 1325 691 
Q 1338 744 1497 1375 
L 2025 3319 
L 2603 3319 
L 3100 1394 
L 3266 759 
L 3456 1400 
L 4025 3319 
L 4572 3319 
L 3534 0 
L 2950 0 
L 2422 1988 
L 2294 2553 
L 1622 0 
L 1034 0 
z
" transform="scale(0.015625)"/>
     </defs>
     <use xlink:href="#ArialMT-66"/>
     <use xlink:href="#ArialMT-6f" x="27.783203"/>
     <use xlink:href="#ArialMT-72" x="83.398438"/>
     <use xlink:href="#ArialMT-20" x="116.699219"/>
     <use xlink:href="#ArialMT-61" x="144.482422"/>
     <use xlink:href="#ArialMT-6e" x="200.097656"/>
     <use xlink:href="#ArialMT-20" x="255.712891"/>
     <use xlink:href="#ArialMT-65" x="283.496094"/>
     <use xlink:href="#ArialMT-66" x="339.111328"/>
     <use xlink:href="#ArialMT-66" x="365.144531"/>
     <use xlink:href="#ArialMT-65" x="392.927734"/>
     <use xlink:href="#ArialMT-63" x="448.542969"/>
     <use xlink:href="#ArialMT-74" x="498.542969"/>
     <use xlink:href="#ArialMT-69" x="526.326172"/>
     <use xlink:href="#ArialMT-76" x="548.542969"/>
     <use xlink:href="#ArialMT-65" x="598.542969"/>
     <use xlink:href="#ArialMT-20" x="654.158203"/>
     <use xlink:href="#ArialMT-6c" x="681.941406"/>
     <use xlink:href="#ArialMT-69" x="704.158203"/>
     <use xlink:href="#ArialMT-67" x="726.375"/>
     <use xlink:href="#ArialMT-68" x="781.990234"/>
     <use xlink:href="#ArialMT-74" x="837.605469"/>
     <use xlink:href="#ArialMT-77" x="865.388672"/>
     <use xlink:href="#ArialMT-65" x="937.605469"/>
     <use xlink:href="#ArialMT-69" x="993.220703"/>
     <use xlink:href="#ArialMT-67" x="1015.4375"/>
     <use xlink:href="#ArialMT-68" x="1071.052734"/>
     <use xlink:href="#ArialMT-74" x="1126.667969"/>
     <use xlink:href="#ArialMT-20" x="1154.451172"/>
     <use xlink:href="#ArialMT-6d" x="1182.234375"/>
     <use xlink:href="#ArialMT-6f" x="1265.535156"/>
     <use xlink:href="#ArialMT-64" x="1321.150391"/>
     <use xlink:href="#ArialMT-65" x="1376.765625"/>
     <use xlink:href="#ArialMT-6c" x="1432.380859"/>
    </g>
    <!-- (based on accuracy vs parameters) -->
    <g style="fill: #636efa" transform="translate(290.73117 270.232654) scale(0.1 -0.1)">
     <use xlink:href="#ArialMT-28"/>
     <use xlink:href="#ArialMT-62" x="33.300781"/>
     <use xlink:href="#ArialMT-61" x="88.916016"/>
     <use xlink:href="#ArialMT-73" x="144.53125"/>
     <use xlink:href="#ArialMT-65" x="194.53125"/>
     <use xlink:href="#ArialMT-64" x="250.146484"/>
     <use xlink:href="#ArialMT-20" x="305.761719"/>
     <use xlink:href="#ArialMT-6f" x="333.544922"/>
     <use xlink:href="#ArialMT-6e" x="389.160156"/>
     <use xlink:href="#ArialMT-20" x="444.775391"/>
     <use xlink:href="#ArialMT-61" x="472.558594"/>
     <use xlink:href="#ArialMT-63" x="528.173828"/>
     <use xlink:href="#ArialMT-63" x="578.173828"/>
     <use xlink:href="#ArialMT-75" x="628.173828"/>
     <use xlink:href="#ArialMT-72" x="683.789062"/>
     <use xlink:href="#ArialMT-61" x="717.089844"/>
     <use xlink:href="#ArialMT-63" x="772.705078"/>
     <use xlink:href="#ArialMT-79" x="822.705078"/>
     <use xlink:href="#ArialMT-20" x="872.705078"/>
     <use xlink:href="#ArialMT-76" x="900.488281"/>
     <use xlink:href="#ArialMT-73" x="950.488281"/>
     <use xlink:href="#ArialMT-20" x="1000.488281"/>
     <use xlink:href="#ArialMT-70" x="1028.271484"/>
     <use xlink:href="#ArialMT-61" x="1083.886719"/>
     <use xlink:href="#ArialMT-72" x="1139.501953"/>
     <use xlink:href="#ArialMT-61" x="1172.802734"/>
     <use xlink:href="#ArialMT-6d" x="1228.417969"/>
     <use xlink:href="#ArialMT-65" x="1311.71875"/>
     <use xlink:href="#ArialMT-74" x="1367.333984"/>
     <use xlink:href="#ArialMT-65" x="1395.117188"/>
     <use xlink:href="#ArialMT-72" x="1450.732422"/>
     <use xlink:href="#ArialMT-73" x="1484.033203"/>
     <use xlink:href="#ArialMT-29" x="1534.033203"/>
    </g>
   </g>
   <g id="legend_1">
    <g id="patch_8">
     <path d="M 38.50625 93.117188 
L 116.4 93.117188 
Q 118.4 93.117188 118.4 91.117188 
L 118.4 7 
Q 118.4 5 116.4 5 
L 38.50625 5 
Q 36.50625 5 36.50625 7 
L 36.50625 91.117188 
Q 36.50625 93.117188 38.50625 93.117188 
z
" style="fill: #eaeaf2; opacity: 0.8; stroke: #cccccc; stroke-linejoin: miter"/>
    </g>
    <g id="text_27">
     <!-- FLOPs (millions) -->
     <g style="fill: #262626" transform="translate(40.50625 16.285938) scale(0.1 -0.1)">
      <defs>
       <path id="ArialMT-4f" d="M 309 2231 
Q 309 3372 921 4017 
Q 1534 4663 2503 4663 
Q 3138 4663 3647 4359 
Q 4156 4056 4423 3514 
Q 4691 2972 4691 2284 
Q 4691 1588 4409 1038 
Q 4128 488 3612 205 
Q 3097 -78 2500 -78 
Q 1853 -78 1343 234 
Q 834 547 571 1087 
Q 309 1628 309 2231 
z
M 934 2222 
Q 934 1394 1379 917 
Q 1825 441 2497 441 
Q 3181 441 3623 922 
Q 4066 1403 4066 2288 
Q 4066 2847 3877 3264 
Q 3688 3681 3323 3911 
Q 2959 4141 2506 4141 
Q 1863 4141 1398 3698 
Q 934 3256 934 2222 
z
" transform="scale(0.015625)"/>
      </defs>
      <use xlink:href="#ArialMT-46"/>
      <use xlink:href="#ArialMT-4c" x="61.083984"/>
      <use xlink:href="#ArialMT-4f" x="116.699219"/>
      <use xlink:href="#ArialMT-50" x="194.482422"/>
      <use xlink:href="#ArialMT-73" x="261.181641"/>
      <use xlink:href="#ArialMT-20" x="311.181641"/>
      <use xlink:href="#ArialMT-28" x="338.964844"/>
      <use xlink:href="#ArialMT-6d" x="372.265625"/>
      <use xlink:href="#ArialMT-69" x="455.566406"/>
      <use xlink:href="#ArialMT-6c" x="477.783203"/>
      <use xlink:href="#ArialMT-6c" x="500"/>
      <use xlink:href="#ArialMT-69" x="522.216797"/>
      <use xlink:href="#ArialMT-6f" x="544.433594"/>
      <use xlink:href="#ArialMT-6e" x="600.048828"/>
      <use xlink:href="#ArialMT-73" x="655.664062"/>
      <use xlink:href="#ArialMT-29" x="705.664062"/>
     </g>
    </g>
    <g id="line2d_16">
     <defs>
      <path id="m4c1d196ff7" d="M 0 4.97379 
C 1.319065 4.97379 2.584281 4.44972 3.517001 3.517001 
C 4.44972 2.584281 4.97379 1.319065 4.97379 0 
C 4.97379 -1.319065 4.44972 -2.584281 3.517001 -3.517001 
C 2.584281 -4.44972 1.319065 -4.97379 0 -4.97379 
C -1.319065 -4.97379 -2.584281 -4.44972 -3.517001 -3.517001 
C -4.44972 -2.584281 -4.97379 -1.319065 -4.97379 0 
C -4.97379 1.319065 -4.44972 2.584281 -3.517001 3.517001 
C -2.584281 4.44972 -1.319065 4.97379 0 4.97379 
z
" style="stroke: #ffffff; stroke-width: 0.594073"/>
     </defs>
     <g>
      <use xlink:href="#m4c1d196ff7" x="59.550781" y="27.048438" style="fill: #e98868; stroke: #ffffff; stroke-width: 0.594073"/>
     </g>
    </g>
    <g id="text_28">
     <!-- 2000 -->
     <g style="fill: #262626" transform="translate(77.550781 30.548438) scale(0.1 -0.1)">
      <use xlink:href="#ArialMT-32"/>
      <use xlink:href="#ArialMT-30" x="55.615234"/>
      <use xlink:href="#ArialMT-30" x="111.230469"/>
      <use xlink:href="#ArialMT-30" x="166.845703"/>
     </g>
    </g>
    <g id="line2d_17">
     <defs>
      <path id="me1a80b226d" d="M 0 6.107758 
C 1.619796 6.107758 3.173468 5.464206 4.318837 4.318837 
C 5.464206 3.173468 6.107758 1.619796 6.107758 0 
C 6.107758 -1.619796 5.464206 -3.173468 4.318837 -4.318837 
C 3.173468 -5.464206 1.619796 -6.107758 0 -6.107758 
C -1.619796 -6.107758 -3.173468 -5.464206 -4.318837 -4.318837 
C -5.464206 -3.173468 -6.107758 -1.619796 -6.107758 0 
C -6.107758 1.619796 -5.464206 3.173468 -4.318837 4.318837 
C -3.173468 5.464206 -1.619796 6.107758 0 6.107758 
z
" style="stroke: #ffffff; stroke-width: 0.594073"/>
     </defs>
     <g>
      <use xlink:href="#me1a80b226d" x="59.550781" y="41.19375" style="fill: #df5e5c; stroke: #ffffff; stroke-width: 0.594073"/>
     </g>
    </g>
    <g id="text_29">
     <!-- 4000 -->
     <g style="fill: #262626" transform="translate(77.550781 44.69375) scale(0.1 -0.1)">
      <defs>
       <path id="ArialMT-34" d="M 2069 0 
L 2069 1097 
L 81 1097 
L 81 1613 
L 2172 4581 
L 2631 4581 
L 2631 1613 
L 3250 1613 
L 3250 1097 
L 2631 1097 
L 2631 0 
L 2069 0 
z
M 2069 1613 
L 2069 3678 
L 634 1613 
L 2069 1613 
z
" transform="scale(0.015625)"/>
      </defs>
      <use xlink:href="#ArialMT-34"/>
      <use xlink:href="#ArialMT-30" x="55.615234"/>
      <use xlink:href="#ArialMT-30" x="111.230469"/>
      <use xlink:href="#ArialMT-30" x="166.845703"/>
     </g>
    </g>
    <g id="line2d_18">
     <defs>
      <path id="mf4bcaacee0" d="M 0 7.061928 
C 1.872845 7.061928 3.669236 6.317839 4.993537 4.993537 
C 6.317839 3.669236 7.061928 1.872845 7.061928 0 
C 7.061928 -1.872845 6.317839 -3.669236 4.993537 -4.993537 
C 3.669236 -6.317839 1.872845 -7.061928 0 -7.061928 
C -1.872845 -7.061928 -3.669236 -6.317839 -4.993537 -4.993537 
C -6.317839 -3.669236 -7.061928 -1.872845 -7.061928 0 
C -7.061928 1.872845 -6.317839 3.669236 -4.993537 4.993537 
C -3.669236 6.317839 -1.872845 7.061928 0 7.061928 
z
" style="stroke: #ffffff; stroke-width: 0.594073"/>
     </defs>
     <g>
      <use xlink:href="#mf4bcaacee0" x="59.550781" y="55.339063" style="fill: #c24167; stroke: #ffffff; stroke-width: 0.594073"/>
     </g>
    </g>
    <g id="text_30">
     <!-- 6000 -->
     <g style="fill: #262626" transform="translate(77.550781 58.839063) scale(0.1 -0.1)">
      <use xlink:href="#ArialMT-36"/>
      <use xlink:href="#ArialMT-30" x="55.615234"/>
      <use xlink:href="#ArialMT-30" x="111.230469"/>
      <use xlink:href="#ArialMT-30" x="166.845703"/>
     </g>
    </g>
    <g id="line2d_19">
     <defs>
      <path id="m1e5336a441" d="M 0 7.901706 
C 2.095557 7.901706 4.105567 7.069132 5.58735 5.58735 
C 7.069132 4.105567 7.901706 2.095557 7.901706 0 
C 7.901706 -2.095557 7.069132 -4.105567 5.58735 -5.58735 
C 4.105567 -7.069132 2.095557 -7.901706 0 -7.901706 
C -2.095557 -7.901706 -4.105567 -7.069132 -5.58735 -5.58735 
C -7.069132 -4.105567 -7.901706 -2.095557 -7.901706 0 
C -7.901706 2.095557 -7.069132 4.105567 -5.58735 5.58735 
C -4.105567 7.069132 -2.095557 7.901706 0 7.901706 
z
" style="stroke: #ffffff; stroke-width: 0.594073"/>
     </defs>
     <g>
      <use xlink:href="#m1e5336a441" x="59.550781" y="69.484375" style="fill: #9a3670; stroke: #ffffff; stroke-width: 0.594073"/>
     </g>
    </g>
    <g id="text_31">
     <!-- 8000 -->
     <g style="fill: #262626" transform="translate(77.550781 72.984375) scale(0.1 -0.1)">
      <use xlink:href="#ArialMT-38"/>
      <use xlink:href="#ArialMT-30" x="55.615234"/>
      <use xlink:href="#ArialMT-30" x="111.230469"/>
      <use xlink:href="#ArialMT-30" x="166.845703"/>
     </g>
    </g>
    <g id="line2d_20">
     <defs>
      <path id="m2021192a29" d="M 0 8.660432 
C 2.296773 8.660432 4.499786 7.747914 6.12385 6.12385 
C 7.747914 4.499786 8.660432 2.296773 8.660432 0 
C 8.660432 -2.296773 7.747914 -4.499786 6.12385 -6.12385 
C 4.499786 -7.747914 2.296773 -8.660432 0 -8.660432 
C -2.296773 -8.660432 -4.499786 -7.747914 -6.12385 -6.12385 
C -7.747914 -4.499786 -8.660432 -2.296773 -8.660432 0 
C -8.660432 2.296773 -7.747914 4.499786 -6.12385 6.12385 
C -4.499786 7.747914 -2.296773 8.660432 0 8.660432 
z
" style="stroke: #ffffff; stroke-width: 0.594073"/>
     </defs>
     <g>
      <use xlink:href="#m2021192a29" x="59.550781" y="83.629688" style="fill: #722c6e; stroke: #ffffff; stroke-width: 0.594073"/>
     </g>
    </g>
    <g id="text_32">
     <!-- 10000 -->
     <g style="fill: #262626" transform="translate(77.550781 87.129688) scale(0.1 -0.1)">
      <use xlink:href="#ArialMT-31"/>
      <use xlink:href="#ArialMT-30" x="55.615234"/>
      <use xlink:href="#ArialMT-30" x="111.230469"/>
      <use xlink:href="#ArialMT-30" x="166.845703"/>
      <use xlink:href="#ArialMT-30" x="222.460938"/>
     </g>
    </g>
   </g>
  </g>
 </g>
 <defs>
  <clipPath id="p81389f5467">
   <rect x="31.50625" y="0" width="892.8" height="498.96"/>
  </clipPath>
 </defs>
</svg>
