<?xml version="1.0" encoding="utf-8" standalone="no"?>
<!DOCTYPE svg PUBLIC "-//W3C//DTD SVG 1.1//EN"
  "http://www.w3.org/Graphics/SVG/1.1/DTD/svg11.dtd">
<svg xmlns:xlink="http://www.w3.org/1999/xlink" width="924.30625pt" height="531.644375pt" viewBox="0 0 924.30625 531.644375" xmlns="http://www.w3.org/2000/svg" version="1.1">
 <metadata>
  <rdf:RDF xmlns:dc="http://purl.org/dc/elements/1.1/" xmlns:cc="http://creativecommons.org/ns#" xmlns:rdf="http://www.w3.org/1999/02/22-rdf-syntax-ns#">
   <cc:Work>
    <dc:type rdf:resource="http://purl.org/dc/dcmitype/StillImage"/>
    <dc:date>2024-02-23T21:56:26.688562</dc:date>
    <dc:format>image/svg+xml</dc:format>
    <dc:creator>
     <cc:Agent>
      <dc:title>Matplotlib v3.6.2, https://matplotlib.org/</dc:title>
     </cc:Agent>
    </dc:creator>
   </cc:Work>
  </rdf:RDF>
 </metadata>
 <defs>
  <style type="text/css">*{stroke-linejoin: round; stroke-linecap: butt}</style>
 </defs>
 <g id="figure_1">
  <g id="patch_1">
   <path d="M 0 531.644375 
L 924.30625 531.644375 
L 924.30625 0 
L 0 0 
z
" style="fill: #ffffff"/>
  </g>
  <g id="axes_1">
   <g id="patch_2">
    <path d="M 31.50625 498.96 
L 924.30625 498.96 
L 924.30625 0 
L 31.50625 0 
z
" style="fill: #eaeaf2"/>
   </g>
   <g id="matplotlib.axis_1">
    <g id="xtick_1">
     <g id="line2d_1">
      <path d="M 218.274513 498.96 
L 218.274513 0 
" clip-path="url(#p06e9c1edbe)" style="fill: none; stroke: #ffffff; stroke-width: 0.8; stroke-linecap: round"/>
     </g>
     <g id="text_1">
      <!-- $\mathdefault{10^{5}}$ -->
      <g style="fill: #262626" transform="translate(210.424513 516.1725) scale(0.1 -0.1)">
       <defs>
        <path id="ArialMT-31" d="M 2384 0 
L 1822 0 
L 1822 3584 
Q 1619 3391 1289 3197 
Q 959 3003 697 2906 
L 697 3450 
Q 1169 3672 1522 3987 
Q 1875 4303 2022 4600 
L 2384 4600 
L 2384 0 
z
" transform="scale(0.015625)"/>
        <path id="ArialMT-30" d="M 266 2259 
Q 266 3072 433 3567 
Q 600 4063 929 4331 
Q 1259 4600 1759 4600 
Q 2128 4600 2406 4451 
Q 2684 4303 2865 4023 
Q 3047 3744 3150 3342 
Q 3253 2941 3253 2259 
Q 3253 1453 3087 958 
Q 2922 463 2592 192 
Q 2263 -78 1759 -78 
Q 1097 -78 719 397 
Q 266 969 266 2259 
z
M 844 2259 
Q 844 1131 1108 757 
Q 1372 384 1759 384 
Q 2147 384 2411 759 
Q 2675 1134 2675 2259 
Q 2675 3391 2411 3762 
Q 2147 4134 1753 4134 
Q 1366 4134 1134 3806 
Q 844 3388 844 2259 
z
" transform="scale(0.015625)"/>
        <path id="ArialMT-35" d="M 266 1200 
L 856 1250 
Q 922 819 1161 601 
Q 1400 384 1738 384 
Q 2144 384 2425 690 
Q 2706 997 2706 1503 
Q 2706 1984 2436 2262 
Q 2166 2541 1728 2541 
Q 1456 2541 1237 2417 
Q 1019 2294 894 2097 
L 366 2166 
L 809 4519 
L 3088 4519 
L 3088 3981 
L 1259 3981 
L 1013 2750 
Q 1425 3038 1878 3038 
Q 2478 3038 2890 2622 
Q 3303 2206 3303 1553 
Q 3303 931 2941 478 
Q 2500 -78 1738 -78 
Q 1113 -78 717 272 
Q 322 622 266 1200 
z
" transform="scale(0.015625)"/>
       </defs>
       <use xlink:href="#ArialMT-31" transform="translate(0 0.879688)"/>
       <use xlink:href="#ArialMT-30" transform="translate(55.615234 0.879688)"/>
       <use xlink:href="#ArialMT-35" transform="translate(112.972813 70.573438) scale(0.7)"/>
      </g>
     </g>
    </g>
    <g id="xtick_2">
     <g id="line2d_2">
      <path d="M 489.6102 498.96 
L 489.6102 0 
" clip-path="url(#p06e9c1edbe)" style="fill: none; stroke: #ffffff; stroke-width: 0.8; stroke-linecap: round"/>
     </g>
     <g id="text_2">
      <!-- $\mathdefault{10^{6}}$ -->
      <g style="fill: #262626" transform="translate(481.7602 516.2725) scale(0.1 -0.1)">
       <defs>
        <path id="ArialMT-36" d="M 3184 3459 
L 2625 3416 
Q 2550 3747 2413 3897 
Q 2184 4138 1850 4138 
Q 1581 4138 1378 3988 
Q 1113 3794 959 3422 
Q 806 3050 800 2363 
Q 1003 2672 1297 2822 
Q 1591 2972 1913 2972 
Q 2475 2972 2870 2558 
Q 3266 2144 3266 1488 
Q 3266 1056 3080 686 
Q 2894 316 2569 119 
Q 2244 -78 1831 -78 
Q 1128 -78 684 439 
Q 241 956 241 2144 
Q 241 3472 731 4075 
Q 1159 4600 1884 4600 
Q 2425 4600 2770 4297 
Q 3116 3994 3184 3459 
z
M 888 1484 
Q 888 1194 1011 928 
Q 1134 663 1356 523 
Q 1578 384 1822 384 
Q 2178 384 2434 671 
Q 2691 959 2691 1453 
Q 2691 1928 2437 2201 
Q 2184 2475 1800 2475 
Q 1419 2475 1153 2201 
Q 888 1928 888 1484 
z
" transform="scale(0.015625)"/>
       </defs>
       <use xlink:href="#ArialMT-31" transform="translate(0 0.99375)"/>
       <use xlink:href="#ArialMT-30" transform="translate(55.615234 0.99375)"/>
       <use xlink:href="#ArialMT-36" transform="translate(112.972813 70.6875) scale(0.7)"/>
      </g>
     </g>
    </g>
    <g id="xtick_3">
     <g id="line2d_3">
      <path d="M 760.945888 498.96 
L 760.945888 0 
" clip-path="url(#p06e9c1edbe)" style="fill: none; stroke: #ffffff; stroke-width: 0.8; stroke-linecap: round"/>
     </g>
     <g id="text_3">
      <!-- $\mathdefault{10^{7}}$ -->
      <g style="fill: #262626" transform="translate(753.095888 516.1725) scale(0.1 -0.1)">
       <defs>
        <path id="ArialMT-37" d="M 303 3981 
L 303 4522 
L 3269 4522 
L 3269 4084 
Q 2831 3619 2401 2847 
Q 1972 2075 1738 1259 
Q 1569 684 1522 0 
L 944 0 
Q 953 541 1156 1306 
Q 1359 2072 1739 2783 
Q 2119 3494 2547 3981 
L 303 3981 
z
" transform="scale(0.015625)"/>
       </defs>
       <use xlink:href="#ArialMT-31" transform="translate(0 0.846875)"/>
       <use xlink:href="#ArialMT-30" transform="translate(55.615234 0.846875)"/>
       <use xlink:href="#ArialMT-37" transform="translate(112.972813 70.540625) scale(0.7)"/>
      </g>
     </g>
    </g>
    <g id="xtick_4"/>
    <g id="xtick_5"/>
    <g id="xtick_6"/>
    <g id="xtick_7"/>
    <g id="xtick_8"/>
    <g id="xtick_9"/>
    <g id="xtick_10"/>
    <g id="xtick_11"/>
    <g id="xtick_12"/>
    <g id="xtick_13"/>
    <g id="xtick_14"/>
    <g id="xtick_15"/>
    <g id="xtick_16"/>
    <g id="xtick_17"/>
    <g id="xtick_18"/>
    <g id="xtick_19"/>
    <g id="xtick_20"/>
    <g id="xtick_21"/>
    <g id="xtick_22"/>
    <g id="xtick_23"/>
    <g id="xtick_24"/>
    <g id="xtick_25"/>
    <g id="xtick_26"/>
    <g id="xtick_27"/>
    <g id="xtick_28"/>
    <g id="xtick_29"/>
    <g id="text_4">
     <!-- Parameters (millions) -->
     <g style="fill: #262626" transform="translate(430.677344 529.539688) scale(0.1 -0.1)">
      <defs>
       <path id="ArialMT-50" d="M 494 0 
L 494 4581 
L 2222 4581 
Q 2678 4581 2919 4538 
Q 3256 4481 3484 4323 
Q 3713 4166 3852 3881 
Q 3991 3597 3991 3256 
Q 3991 2672 3619 2267 
Q 3247 1863 2275 1863 
L 1100 1863 
L 1100 0 
L 494 0 
z
M 1100 2403 
L 2284 2403 
Q 2872 2403 3119 2622 
Q 3366 2841 3366 3238 
Q 3366 3525 3220 3729 
Q 3075 3934 2838 4000 
Q 2684 4041 2272 4041 
L 1100 4041 
L 1100 2403 
z
" transform="scale(0.015625)"/>
       <path id="ArialMT-61" d="M 2588 409 
Q 2275 144 1986 34 
Q 1697 -75 1366 -75 
Q 819 -75 525 192 
Q 231 459 231 875 
Q 231 1119 342 1320 
Q 453 1522 633 1644 
Q 813 1766 1038 1828 
Q 1203 1872 1538 1913 
Q 2219 1994 2541 2106 
Q 2544 2222 2544 2253 
Q 2544 2597 2384 2738 
Q 2169 2928 1744 2928 
Q 1347 2928 1158 2789 
Q 969 2650 878 2297 
L 328 2372 
Q 403 2725 575 2942 
Q 747 3159 1072 3276 
Q 1397 3394 1825 3394 
Q 2250 3394 2515 3294 
Q 2781 3194 2906 3042 
Q 3031 2891 3081 2659 
Q 3109 2516 3109 2141 
L 3109 1391 
Q 3109 606 3145 398 
Q 3181 191 3288 0 
L 2700 0 
Q 2613 175 2588 409 
z
M 2541 1666 
Q 2234 1541 1622 1453 
Q 1275 1403 1131 1340 
Q 988 1278 909 1158 
Q 831 1038 831 891 
Q 831 666 1001 516 
Q 1172 366 1500 366 
Q 1825 366 2078 508 
Q 2331 650 2450 897 
Q 2541 1088 2541 1459 
L 2541 1666 
z
" transform="scale(0.015625)"/>
       <path id="ArialMT-72" d="M 416 0 
L 416 3319 
L 922 3319 
L 922 2816 
Q 1116 3169 1280 3281 
Q 1444 3394 1641 3394 
Q 1925 3394 2219 3213 
L 2025 2691 
Q 1819 2813 1613 2813 
Q 1428 2813 1281 2702 
Q 1134 2591 1072 2394 
Q 978 2094 978 1738 
L 978 0 
L 416 0 
z
" transform="scale(0.015625)"/>
       <path id="ArialMT-6d" d="M 422 0 
L 422 3319 
L 925 3319 
L 925 2853 
Q 1081 3097 1340 3245 
Q 1600 3394 1931 3394 
Q 2300 3394 2536 3241 
Q 2772 3088 2869 2813 
Q 3263 3394 3894 3394 
Q 4388 3394 4653 3120 
Q 4919 2847 4919 2278 
L 4919 0 
L 4359 0 
L 4359 2091 
Q 4359 2428 4304 2576 
Q 4250 2725 4106 2815 
Q 3963 2906 3769 2906 
Q 3419 2906 3187 2673 
Q 2956 2441 2956 1928 
L 2956 0 
L 2394 0 
L 2394 2156 
Q 2394 2531 2256 2718 
Q 2119 2906 1806 2906 
Q 1569 2906 1367 2781 
Q 1166 2656 1075 2415 
Q 984 2175 984 1722 
L 984 0 
L 422 0 
z
" transform="scale(0.015625)"/>
       <path id="ArialMT-65" d="M 2694 1069 
L 3275 997 
Q 3138 488 2766 206 
Q 2394 -75 1816 -75 
Q 1088 -75 661 373 
Q 234 822 234 1631 
Q 234 2469 665 2931 
Q 1097 3394 1784 3394 
Q 2450 3394 2872 2941 
Q 3294 2488 3294 1666 
Q 3294 1616 3291 1516 
L 816 1516 
Q 847 969 1125 678 
Q 1403 388 1819 388 
Q 2128 388 2347 550 
Q 2566 713 2694 1069 
z
M 847 1978 
L 2700 1978 
Q 2663 2397 2488 2606 
Q 2219 2931 1791 2931 
Q 1403 2931 1139 2672 
Q 875 2413 847 1978 
z
" transform="scale(0.015625)"/>
       <path id="ArialMT-74" d="M 1650 503 
L 1731 6 
Q 1494 -44 1306 -44 
Q 1000 -44 831 53 
Q 663 150 594 308 
Q 525 466 525 972 
L 525 2881 
L 113 2881 
L 113 3319 
L 525 3319 
L 525 4141 
L 1084 4478 
L 1084 3319 
L 1650 3319 
L 1650 2881 
L 1084 2881 
L 1084 941 
Q 1084 700 1114 631 
Q 1144 563 1211 522 
Q 1278 481 1403 481 
Q 1497 481 1650 503 
z
" transform="scale(0.015625)"/>
       <path id="ArialMT-73" d="M 197 991 
L 753 1078 
Q 800 744 1014 566 
Q 1228 388 1613 388 
Q 2000 388 2187 545 
Q 2375 703 2375 916 
Q 2375 1106 2209 1216 
Q 2094 1291 1634 1406 
Q 1016 1563 777 1677 
Q 538 1791 414 1992 
Q 291 2194 291 2438 
Q 291 2659 392 2848 
Q 494 3038 669 3163 
Q 800 3259 1026 3326 
Q 1253 3394 1513 3394 
Q 1903 3394 2198 3281 
Q 2494 3169 2634 2976 
Q 2775 2784 2828 2463 
L 2278 2388 
Q 2241 2644 2061 2787 
Q 1881 2931 1553 2931 
Q 1166 2931 1000 2803 
Q 834 2675 834 2503 
Q 834 2394 903 2306 
Q 972 2216 1119 2156 
Q 1203 2125 1616 2013 
Q 2213 1853 2448 1751 
Q 2684 1650 2818 1456 
Q 2953 1263 2953 975 
Q 2953 694 2789 445 
Q 2625 197 2315 61 
Q 2006 -75 1616 -75 
Q 969 -75 630 194 
Q 291 463 197 991 
z
" transform="scale(0.015625)"/>
       <path id="ArialMT-20" transform="scale(0.015625)"/>
       <path id="ArialMT-28" d="M 1497 -1347 
Q 1031 -759 709 28 
Q 388 816 388 1659 
Q 388 2403 628 3084 
Q 909 3875 1497 4659 
L 1900 4659 
Q 1522 4009 1400 3731 
Q 1209 3300 1100 2831 
Q 966 2247 966 1656 
Q 966 153 1900 -1347 
L 1497 -1347 
z
" transform="scale(0.015625)"/>
       <path id="ArialMT-69" d="M 425 3934 
L 425 4581 
L 988 4581 
L 988 3934 
L 425 3934 
z
M 425 0 
L 425 3319 
L 988 3319 
L 988 0 
L 425 0 
z
" transform="scale(0.015625)"/>
       <path id="ArialMT-6c" d="M 409 0 
L 409 4581 
L 972 4581 
L 972 0 
L 409 0 
z
" transform="scale(0.015625)"/>
       <path id="ArialMT-6f" d="M 213 1659 
Q 213 2581 725 3025 
Q 1153 3394 1769 3394 
Q 2453 3394 2887 2945 
Q 3322 2497 3322 1706 
Q 3322 1066 3130 698 
Q 2938 331 2570 128 
Q 2203 -75 1769 -75 
Q 1072 -75 642 372 
Q 213 819 213 1659 
z
M 791 1659 
Q 791 1022 1069 705 
Q 1347 388 1769 388 
Q 2188 388 2466 706 
Q 2744 1025 2744 1678 
Q 2744 2294 2464 2611 
Q 2184 2928 1769 2928 
Q 1347 2928 1069 2612 
Q 791 2297 791 1659 
z
" transform="scale(0.015625)"/>
       <path id="ArialMT-6e" d="M 422 0 
L 422 3319 
L 928 3319 
L 928 2847 
Q 1294 3394 1984 3394 
Q 2284 3394 2536 3286 
Q 2788 3178 2913 3003 
Q 3038 2828 3088 2588 
Q 3119 2431 3119 2041 
L 3119 0 
L 2556 0 
L 2556 2019 
Q 2556 2363 2490 2533 
Q 2425 2703 2258 2804 
Q 2091 2906 1866 2906 
Q 1506 2906 1245 2678 
Q 984 2450 984 1813 
L 984 0 
L 422 0 
z
" transform="scale(0.015625)"/>
       <path id="ArialMT-29" d="M 791 -1347 
L 388 -1347 
Q 1322 153 1322 1656 
Q 1322 2244 1188 2822 
Q 1081 3291 891 3722 
Q 769 4003 388 4659 
L 791 4659 
Q 1378 3875 1659 3084 
Q 1900 2403 1900 1659 
Q 1900 816 1576 28 
Q 1253 -759 791 -1347 
z
" transform="scale(0.015625)"/>
      </defs>
      <use xlink:href="#ArialMT-50"/>
      <use xlink:href="#ArialMT-61" x="66.699219"/>
      <use xlink:href="#ArialMT-72" x="122.314453"/>
      <use xlink:href="#ArialMT-61" x="155.615234"/>
      <use xlink:href="#ArialMT-6d" x="211.230469"/>
      <use xlink:href="#ArialMT-65" x="294.53125"/>
      <use xlink:href="#ArialMT-74" x="350.146484"/>
      <use xlink:href="#ArialMT-65" x="377.929688"/>
      <use xlink:href="#ArialMT-72" x="433.544922"/>
      <use xlink:href="#ArialMT-73" x="466.845703"/>
      <use xlink:href="#ArialMT-20" x="516.845703"/>
      <use xlink:href="#ArialMT-28" x="544.628906"/>
      <use xlink:href="#ArialMT-6d" x="577.929688"/>
      <use xlink:href="#ArialMT-69" x="661.230469"/>
      <use xlink:href="#ArialMT-6c" x="683.447266"/>
      <use xlink:href="#ArialMT-6c" x="705.664062"/>
      <use xlink:href="#ArialMT-69" x="727.880859"/>
      <use xlink:href="#ArialMT-6f" x="750.097656"/>
      <use xlink:href="#ArialMT-6e" x="805.712891"/>
      <use xlink:href="#ArialMT-73" x="861.328125"/>
      <use xlink:href="#ArialMT-29" x="911.328125"/>
     </g>
    </g>
   </g>
   <g id="matplotlib.axis_2">
    <g id="ytick_1">
     <g id="line2d_4">
      <path d="M 31.50625 447.877709 
L 924.30625 447.877709 
" clip-path="url(#p06e9c1edbe)" style="fill: none; stroke: #ffffff; stroke-width: 0.8; stroke-linecap: round"/>
     </g>
     <g id="text_5">
      <!-- 70 -->
      <g style="fill: #262626" transform="translate(13.384375 451.456615) scale(0.1 -0.1)">
       <use xlink:href="#ArialMT-37"/>
       <use xlink:href="#ArialMT-30" x="55.615234"/>
      </g>
     </g>
    </g>
    <g id="ytick_2">
     <g id="line2d_5">
      <path d="M 31.50625 337.79131 
L 924.30625 337.79131 
" clip-path="url(#p06e9c1edbe)" style="fill: none; stroke: #ffffff; stroke-width: 0.8; stroke-linecap: round"/>
     </g>
     <g id="text_6">
      <!-- 75 -->
      <g style="fill: #262626" transform="translate(13.384375 341.370216) scale(0.1 -0.1)">
       <use xlink:href="#ArialMT-37"/>
       <use xlink:href="#ArialMT-35" x="55.615234"/>
      </g>
     </g>
    </g>
    <g id="ytick_3">
     <g id="line2d_6">
      <path d="M 31.50625 227.70491 
L 924.30625 227.70491 
" clip-path="url(#p06e9c1edbe)" style="fill: none; stroke: #ffffff; stroke-width: 0.8; stroke-linecap: round"/>
     </g>
     <g id="text_7">
      <!-- 80 -->
      <g style="fill: #262626" transform="translate(13.384375 231.283816) scale(0.1 -0.1)">
       <defs>
        <path id="ArialMT-38" d="M 1131 2484 
Q 781 2613 612 2850 
Q 444 3088 444 3419 
Q 444 3919 803 4259 
Q 1163 4600 1759 4600 
Q 2359 4600 2725 4251 
Q 3091 3903 3091 3403 
Q 3091 3084 2923 2848 
Q 2756 2613 2416 2484 
Q 2838 2347 3058 2040 
Q 3278 1734 3278 1309 
Q 3278 722 2862 322 
Q 2447 -78 1769 -78 
Q 1091 -78 675 323 
Q 259 725 259 1325 
Q 259 1772 486 2073 
Q 713 2375 1131 2484 
z
M 1019 3438 
Q 1019 3113 1228 2906 
Q 1438 2700 1772 2700 
Q 2097 2700 2305 2904 
Q 2513 3109 2513 3406 
Q 2513 3716 2298 3927 
Q 2084 4138 1766 4138 
Q 1444 4138 1231 3931 
Q 1019 3725 1019 3438 
z
M 838 1322 
Q 838 1081 952 856 
Q 1066 631 1291 507 
Q 1516 384 1775 384 
Q 2178 384 2440 643 
Q 2703 903 2703 1303 
Q 2703 1709 2433 1975 
Q 2163 2241 1756 2241 
Q 1359 2241 1098 1978 
Q 838 1716 838 1322 
z
" transform="scale(0.015625)"/>
       </defs>
       <use xlink:href="#ArialMT-38"/>
       <use xlink:href="#ArialMT-30" x="55.615234"/>
      </g>
     </g>
    </g>
    <g id="ytick_4">
     <g id="line2d_7">
      <path d="M 31.50625 117.618511 
L 924.30625 117.618511 
" clip-path="url(#p06e9c1edbe)" style="fill: none; stroke: #ffffff; stroke-width: 0.8; stroke-linecap: round"/>
     </g>
     <g id="text_8">
      <!-- 85 -->
      <g style="fill: #262626" transform="translate(13.384375 121.197417) scale(0.1 -0.1)">
       <use xlink:href="#ArialMT-38"/>
       <use xlink:href="#ArialMT-35" x="55.615234"/>
      </g>
     </g>
    </g>
    <g id="ytick_5">
     <g id="line2d_8">
      <path d="M 31.50625 7.532111 
L 924.30625 7.532111 
" clip-path="url(#p06e9c1edbe)" style="fill: none; stroke: #ffffff; stroke-width: 0.8; stroke-linecap: round"/>
     </g>
     <g id="text_9">
      <!-- 90 -->
      <g style="fill: #262626" transform="translate(13.384375 11.111018) scale(0.1 -0.1)">
       <defs>
        <path id="ArialMT-39" d="M 350 1059 
L 891 1109 
Q 959 728 1153 556 
Q 1347 384 1650 384 
Q 1909 384 2104 503 
Q 2300 622 2425 820 
Q 2550 1019 2634 1356 
Q 2719 1694 2719 2044 
Q 2719 2081 2716 2156 
Q 2547 1888 2255 1720 
Q 1963 1553 1622 1553 
Q 1053 1553 659 1965 
Q 266 2378 266 3053 
Q 266 3750 677 4175 
Q 1088 4600 1706 4600 
Q 2153 4600 2523 4359 
Q 2894 4119 3086 3673 
Q 3278 3228 3278 2384 
Q 3278 1506 3087 986 
Q 2897 466 2520 194 
Q 2144 -78 1638 -78 
Q 1100 -78 759 220 
Q 419 519 350 1059 
z
M 2653 3081 
Q 2653 3566 2395 3850 
Q 2138 4134 1775 4134 
Q 1400 4134 1122 3828 
Q 844 3522 844 3034 
Q 844 2597 1108 2323 
Q 1372 2050 1759 2050 
Q 2150 2050 2401 2323 
Q 2653 2597 2653 3081 
z
" transform="scale(0.015625)"/>
       </defs>
       <use xlink:href="#ArialMT-39"/>
       <use xlink:href="#ArialMT-30" x="55.615234"/>
      </g>
     </g>
    </g>
    <g id="text_10">
     <!-- Accuracy (%) -->
     <g style="fill: #262626" transform="translate(7.279688 279.205781) rotate(-90) scale(0.1 -0.1)">
      <defs>
       <path id="ArialMT-41" d="M -9 0 
L 1750 4581 
L 2403 4581 
L 4278 0 
L 3588 0 
L 3053 1388 
L 1138 1388 
L 634 0 
L -9 0 
z
M 1313 1881 
L 2866 1881 
L 2388 3150 
Q 2169 3728 2063 4100 
Q 1975 3659 1816 3225 
L 1313 1881 
z
" transform="scale(0.015625)"/>
       <path id="ArialMT-63" d="M 2588 1216 
L 3141 1144 
Q 3050 572 2676 248 
Q 2303 -75 1759 -75 
Q 1078 -75 664 370 
Q 250 816 250 1647 
Q 250 2184 428 2587 
Q 606 2991 970 3192 
Q 1334 3394 1763 3394 
Q 2303 3394 2647 3120 
Q 2991 2847 3088 2344 
L 2541 2259 
Q 2463 2594 2264 2762 
Q 2066 2931 1784 2931 
Q 1359 2931 1093 2626 
Q 828 2322 828 1663 
Q 828 994 1084 691 
Q 1341 388 1753 388 
Q 2084 388 2306 591 
Q 2528 794 2588 1216 
z
" transform="scale(0.015625)"/>
       <path id="ArialMT-75" d="M 2597 0 
L 2597 488 
Q 2209 -75 1544 -75 
Q 1250 -75 995 37 
Q 741 150 617 320 
Q 494 491 444 738 
Q 409 903 409 1263 
L 409 3319 
L 972 3319 
L 972 1478 
Q 972 1038 1006 884 
Q 1059 663 1231 536 
Q 1403 409 1656 409 
Q 1909 409 2131 539 
Q 2353 669 2445 892 
Q 2538 1116 2538 1541 
L 2538 3319 
L 3100 3319 
L 3100 0 
L 2597 0 
z
" transform="scale(0.015625)"/>
       <path id="ArialMT-79" d="M 397 -1278 
L 334 -750 
Q 519 -800 656 -800 
Q 844 -800 956 -737 
Q 1069 -675 1141 -563 
Q 1194 -478 1313 -144 
Q 1328 -97 1363 -6 
L 103 3319 
L 709 3319 
L 1400 1397 
Q 1534 1031 1641 628 
Q 1738 1016 1872 1384 
L 2581 3319 
L 3144 3319 
L 1881 -56 
Q 1678 -603 1566 -809 
Q 1416 -1088 1222 -1217 
Q 1028 -1347 759 -1347 
Q 597 -1347 397 -1278 
z
" transform="scale(0.015625)"/>
       <path id="ArialMT-25" d="M 372 3481 
Q 372 3972 619 4315 
Q 866 4659 1334 4659 
Q 1766 4659 2048 4351 
Q 2331 4044 2331 3447 
Q 2331 2866 2045 2552 
Q 1759 2238 1341 2238 
Q 925 2238 648 2547 
Q 372 2856 372 3481 
z
M 1350 4272 
Q 1141 4272 1002 4090 
Q 863 3909 863 3425 
Q 863 2984 1003 2804 
Q 1144 2625 1350 2625 
Q 1563 2625 1702 2806 
Q 1841 2988 1841 3469 
Q 1841 3913 1700 4092 
Q 1559 4272 1350 4272 
z
M 1353 -169 
L 3859 4659 
L 4316 4659 
L 1819 -169 
L 1353 -169 
z
M 3334 1075 
Q 3334 1569 3581 1911 
Q 3828 2253 4300 2253 
Q 4731 2253 5014 1945 
Q 5297 1638 5297 1041 
Q 5297 459 5011 145 
Q 4725 -169 4303 -169 
Q 3888 -169 3611 142 
Q 3334 453 3334 1075 
z
M 4316 1866 
Q 4103 1866 3964 1684 
Q 3825 1503 3825 1019 
Q 3825 581 3965 400 
Q 4106 219 4313 219 
Q 4528 219 4667 400 
Q 4806 581 4806 1063 
Q 4806 1506 4665 1686 
Q 4525 1866 4316 1866 
z
" transform="scale(0.015625)"/>
      </defs>
      <use xlink:href="#ArialMT-41"/>
      <use xlink:href="#ArialMT-63" x="66.699219"/>
      <use xlink:href="#ArialMT-63" x="116.699219"/>
      <use xlink:href="#ArialMT-75" x="166.699219"/>
      <use xlink:href="#ArialMT-72" x="222.314453"/>
      <use xlink:href="#ArialMT-61" x="255.615234"/>
      <use xlink:href="#ArialMT-63" x="311.230469"/>
      <use xlink:href="#ArialMT-79" x="361.230469"/>
      <use xlink:href="#ArialMT-20" x="411.230469"/>
      <use xlink:href="#ArialMT-28" x="439.013672"/>
      <use xlink:href="#ArialMT-25" x="472.314453"/>
      <use xlink:href="#ArialMT-29" x="561.230469"/>
     </g>
    </g>
   </g>
   <g id="PathCollection_1">
    <path d="M 286.783774 135.149136 
C 287.795222 135.149136 288.765379 134.747284 289.48058 134.032082 
C 290.195782 133.316881 290.597634 132.346724 290.597634 131.335276 
C 290.597634 130.323829 290.195782 129.353671 289.48058 128.63847 
C 288.765379 127.923269 287.795222 127.521416 286.783774 127.521416 
C 285.772327 127.521416 284.802169 127.923269 284.086968 128.63847 
C 283.371766 129.353671 282.969914 130.323829 282.969914 131.335276 
C 282.969914 132.346724 283.371766 133.316881 284.086968 134.032082 
C 284.802169 134.747284 285.772327 135.149136 286.783774 135.149136 
z
" clip-path="url(#p06e9c1edbe)" style="fill: #ecaa7d; stroke: #ffffff; stroke-width: 0.593964"/>
    <path d="M 208.799293 133.347021 
C 209.799938 133.347021 210.759734 132.949461 211.467297 132.241898 
C 212.17486 131.534335 212.572421 130.574539 212.572421 129.573894 
C 212.572421 128.573249 212.17486 127.613453 211.467297 126.90589 
C 210.759734 126.198327 209.799938 125.800766 208.799293 125.800766 
C 207.798648 125.800766 206.838852 126.198327 206.131289 126.90589 
C 205.423726 127.613453 205.026166 128.573249 205.026166 129.573894 
C 205.026166 130.574539 205.423726 131.534335 206.131289 132.241898 
C 206.838852 132.949461 207.798648 133.347021 208.799293 133.347021 
z
" clip-path="url(#p06e9c1edbe)" style="fill: #edab7e; stroke: #ffffff; stroke-width: 0.593964"/>
    <path d="M 219.535694 180.951676 
C 220.537213 180.951676 221.497847 180.553768 222.206028 179.845587 
C 222.914209 179.137406 223.312116 178.176772 223.312116 177.175253 
C 223.312116 176.173734 222.914209 175.2131 222.206028 174.504919 
C 221.497847 173.796738 220.537213 173.39883 219.535694 173.39883 
C 218.534175 173.39883 217.57354 173.796738 216.865359 174.504919 
C 216.157178 175.2131 215.759271 176.173734 215.759271 177.175253 
C 215.759271 178.176772 216.157178 179.137406 216.865359 179.845587 
C 217.57354 180.553768 218.534175 180.951676 219.535694 180.951676 
z
" clip-path="url(#p06e9c1edbe)" style="fill: #ecaa7d; stroke: #ffffff; stroke-width: 0.593964"/>
    <path d="M 224.012702 203.343258 
C 225.014224 203.343258 225.97486 202.945349 226.683042 202.237167 
C 227.391225 201.528984 227.789133 200.568348 227.789133 199.566827 
C 227.789133 198.565305 227.391225 197.604669 226.683042 196.896486 
C 225.97486 196.188304 225.014224 195.790395 224.012702 195.790395 
C 223.011181 195.790395 222.050545 196.188304 221.342362 196.896486 
C 220.63418 197.604669 220.236271 198.565305 220.236271 199.566827 
C 220.236271 200.568348 220.63418 201.528984 221.342362 202.237167 
C 222.050545 202.945349 223.011181 203.343258 224.012702 203.343258 
z
" clip-path="url(#p06e9c1edbe)" style="fill: #ecaa7d; stroke: #ffffff; stroke-width: 0.593964"/>
    <path d="M 71.038841 479.976905 
C 72.019271 479.976905 72.959678 479.587376 73.652947 478.894106 
C 74.346216 478.200837 74.735745 477.260431 74.735745 476.28 
C 74.735745 475.299569 74.346216 474.359163 73.652947 473.665894 
C 72.959678 472.972624 72.019271 472.583095 71.038841 472.583095 
C 70.05841 472.583095 69.118003 472.972624 68.424734 473.665894 
C 67.731465 474.359163 67.341936 475.299569 67.341936 476.28 
C 67.341936 477.260431 67.731465 478.200837 68.424734 478.894106 
C 69.118003 479.587376 70.05841 479.976905 71.038841 479.976905 
z
" clip-path="url(#p06e9c1edbe)" style="fill: #edad7f; stroke: #ffffff; stroke-width: 0.593964"/>
    <path d="M 155.894587 393.984847 
C 156.906185 393.984847 157.876487 393.582934 158.591795 392.867627 
C 159.307103 392.152319 159.709015 391.182017 159.709015 390.170418 
C 159.709015 389.15882 159.307103 388.188518 158.591795 387.47321 
C 157.876487 386.757902 156.906185 386.35599 155.894587 386.35599 
C 154.882988 386.35599 153.912686 386.757902 153.197378 387.47321 
C 152.482071 388.188518 152.080158 389.15882 152.080158 390.170418 
C 152.080158 391.182017 152.482071 392.152319 153.197378 392.867627 
C 153.912686 393.582934 154.882988 393.984847 155.894587 393.984847 
z
" clip-path="url(#p06e9c1edbe)" style="fill: #ecaa7d; stroke: #ffffff; stroke-width: 0.593964"/>
    <path d="M 204.714215 46.247859 
C 205.756051 46.247859 206.755356 45.833933 207.492045 45.097244 
C 208.228735 44.360555 208.64266 43.36125 208.64266 42.319414 
C 208.64266 41.277578 208.228735 40.278272 207.492045 39.541583 
C 206.755356 38.804894 205.756051 38.390968 204.714215 38.390968 
C 203.672379 38.390968 202.673074 38.804894 201.936384 39.541583 
C 201.199695 40.278272 200.785769 41.277578 200.785769 42.319414 
C 200.785769 43.36125 201.199695 44.360555 201.936384 45.097244 
C 202.673074 45.833933 203.672379 46.247859 204.714215 46.247859 
z
" clip-path="url(#p06e9c1edbe)" style="fill: #eca67b; stroke: #ffffff; stroke-width: 0.593964"/>
    <path d="M 299.559268 26.64718 
C 300.611377 26.64718 301.620535 26.229173 302.364488 25.48522 
C 303.108441 24.741267 303.526448 23.732108 303.526448 22.68 
C 303.526448 21.627892 303.108441 20.618733 302.364488 19.87478 
C 301.620535 19.130827 300.611377 18.71282 299.559268 18.71282 
C 298.50716 18.71282 297.498001 19.130827 296.754048 19.87478 
C 296.010095 20.618733 295.592088 21.627892 295.592088 22.68 
C 295.592088 23.732108 296.010095 24.741267 296.754048 25.48522 
C 297.498001 26.229173 298.50716 26.64718 299.559268 26.64718 
z
" clip-path="url(#p06e9c1edbe)" style="fill: #eca57a; stroke: #ffffff; stroke-width: 0.593964"/>
    <path d="M 143.536287 226.998857 
C 144.586918 226.998857 145.59466 226.581436 146.337568 225.838528 
C 147.080477 225.09562 147.497897 224.087878 147.497897 223.037247 
C 147.497897 221.986616 147.080477 220.978874 146.337568 220.235966 
C 145.59466 219.493057 144.586918 219.075637 143.536287 219.075637 
C 142.485656 219.075637 141.477914 219.493057 140.735006 220.235966 
C 139.992098 220.978874 139.574677 221.986616 139.574677 223.037247 
C 139.574677 224.087878 139.992098 225.09562 140.735006 225.838528 
C 141.477914 226.581436 142.485656 226.998857 143.536287 226.998857 
z
" clip-path="url(#p06e9c1edbe)" style="fill: #eca67b; stroke: #ffffff; stroke-width: 0.593964"/>
    <path d="M 134.564245 195.385427 
C 135.615773 195.385427 136.624376 194.96765 137.367919 194.224107 
C 138.111462 193.480564 138.529239 192.471962 138.529239 191.420433 
C 138.529239 190.368904 138.111462 189.360302 137.367919 188.616759 
C 136.624376 187.873216 135.615773 187.455439 134.564245 187.455439 
C 133.512716 187.455439 132.504114 187.873216 131.760571 188.616759 
C 131.017028 189.360302 130.599251 190.368904 130.599251 191.420433 
C 130.599251 192.471962 131.017028 193.480564 131.760571 194.224107 
C 132.504114 194.96765 133.512716 195.385427 134.564245 195.385427 
z
" clip-path="url(#p06e9c1edbe)" style="fill: #eca67b; stroke: #ffffff; stroke-width: 0.593964"/>
    <path d="M 562.066857 255.129193 
C 563.004492 255.129193 563.90385 254.756667 564.566857 254.093659 
C 565.229865 253.430651 565.602391 252.531293 565.602391 251.593659 
C 565.602391 250.656024 565.229865 249.756667 564.566857 249.093659 
C 563.90385 248.430651 563.004492 248.058125 562.066857 248.058125 
C 561.129223 248.058125 560.229865 248.430651 559.566857 249.093659 
C 558.90385 249.756667 558.531323 250.656024 558.531323 251.593659 
C 558.531323 252.531293 558.90385 253.430651 559.566857 254.093659 
C 560.229865 254.756667 561.129223 255.129193 562.066857 255.129193 
z
" clip-path="url(#p06e9c1edbe)" style="fill: #edb081; stroke: #ffffff; stroke-width: 0.593964"/>
    <path d="M 583.929151 338.468636 
C 585.054707 338.468636 586.134314 338.021448 586.930202 337.22556 
C 587.726089 336.429673 588.173277 335.350066 588.173277 334.22451 
C 588.173277 333.098955 587.726089 332.019348 586.930202 331.22346 
C 586.134314 330.427572 585.054707 329.980384 583.929151 329.980384 
C 582.803596 329.980384 581.723989 330.427572 580.928101 331.22346 
C 580.132214 332.019348 579.685026 333.098955 579.685026 334.22451 
C 579.685026 335.350066 580.132214 336.429673 580.928101 337.22556 
C 581.723989 338.021448 582.803596 338.468636 583.929151 338.468636 
z
" clip-path="url(#p06e9c1edbe)" style="fill: #eb9e76; stroke: #ffffff; stroke-width: 0.593964"/>
    <path d="M 861.690651 221.448802 
C 864.171399 221.448802 866.550876 220.463191 868.30503 218.709037 
C 870.059183 216.954883 871.044795 214.575407 871.044795 212.094659 
C 871.044795 209.613911 870.059183 207.234434 868.30503 205.48028 
C 866.550876 203.726127 864.171399 202.740515 861.690651 202.740515 
C 859.209904 202.740515 856.830427 203.726127 855.076273 205.48028 
C 853.322119 207.234434 852.336508 209.613911 852.336508 212.094659 
C 852.336508 214.575407 853.322119 216.954883 855.076273 218.709037 
C 856.830427 220.463191 859.209904 221.448802 861.690651 221.448802 
z
" clip-path="url(#p06e9c1edbe)" style="fill: #4b2362; stroke: #ffffff; stroke-width: 0.593964"/>
   </g>
   <g id="line2d_9"/>
   <g id="line2d_10"/>
   <g id="line2d_11"/>
   <g id="line2d_12"/>
   <g id="line2d_13"/>
   <g id="patch_3">
    <path d="M 31.50625 498.96 
L 31.50625 0 
" style="fill: none; stroke: #ffffff; stroke-width: 0.8; stroke-linejoin: miter; stroke-linecap: square"/>
   </g>
   <g id="patch_4">
    <path d="M 924.30625 498.96 
L 924.30625 0 
" style="fill: none; stroke: #ffffff; stroke-width: 0.8; stroke-linejoin: miter; stroke-linecap: square"/>
   </g>
   <g id="patch_5">
    <path d="M 31.50625 498.96 
L 924.30625 498.96 
" style="fill: none; stroke: #ffffff; stroke-width: 0.8; stroke-linejoin: miter; stroke-linecap: square"/>
   </g>
   <g id="patch_6">
    <path d="M 31.50625 0 
L 924.30625 0 
" style="fill: none; stroke: #ffffff; stroke-width: 0.8; stroke-linejoin: miter; stroke-linecap: square"/>
   </g>
   <g id="text_11">
    <!-- MLN -->
    <g style="fill: #262626" transform="translate(292.640587 134.637868) scale(0.1 -0.1)">
     <defs>
      <path id="ArialMT-4d" d="M 475 0 
L 475 4581 
L 1388 4581 
L 2472 1338 
Q 2622 884 2691 659 
Q 2769 909 2934 1394 
L 4031 4581 
L 4847 4581 
L 4847 0 
L 4263 0 
L 4263 3834 
L 2931 0 
L 2384 0 
L 1059 3900 
L 1059 0 
L 475 0 
z
" transform="scale(0.015625)"/>
      <path id="ArialMT-4c" d="M 469 0 
L 469 4581 
L 1075 4581 
L 1075 541 
L 3331 541 
L 3331 0 
L 469 0 
z
" transform="scale(0.015625)"/>
      <path id="ArialMT-4e" d="M 488 0 
L 488 4581 
L 1109 4581 
L 3516 984 
L 3516 4581 
L 4097 4581 
L 4097 0 
L 3475 0 
L 1069 3600 
L 1069 0 
L 488 0 
z
" transform="scale(0.015625)"/>
     </defs>
     <use xlink:href="#ArialMT-4d"/>
     <use xlink:href="#ArialMT-4c" x="83.300781"/>
     <use xlink:href="#ArialMT-4e" x="138.916016"/>
    </g>
   </g>
   <g id="text_12">
    <!-- MLN + FF -->
    <g style="fill: #262626" transform="translate(215.970818 132.876486) scale(0.1 -0.1)">
     <defs>
      <path id="ArialMT-2b" d="M 1603 741 
L 1603 1997 
L 356 1997 
L 356 2522 
L 1603 2522 
L 1603 3769 
L 2134 3769 
L 2134 2522 
L 3381 2522 
L 3381 1997 
L 2134 1997 
L 2134 741 
L 1603 741 
z
" transform="scale(0.015625)"/>
      <path id="ArialMT-46" d="M 525 0 
L 525 4581 
L 3616 4581 
L 3616 4041 
L 1131 4041 
L 1131 2622 
L 3281 2622 
L 3281 2081 
L 1131 2081 
L 1131 0 
L 525 0 
z
" transform="scale(0.015625)"/>
     </defs>
     <use xlink:href="#ArialMT-4d"/>
     <use xlink:href="#ArialMT-4c" x="83.300781"/>
     <use xlink:href="#ArialMT-4e" x="138.916016"/>
     <use xlink:href="#ArialMT-20" x="211.132812"/>
     <use xlink:href="#ArialMT-2b" x="238.916016"/>
     <use xlink:href="#ArialMT-20" x="297.314453"/>
     <use xlink:href="#ArialMT-46" x="325.097656"/>
     <use xlink:href="#ArialMT-46" x="386.181641"/>
    </g>
   </g>
   <g id="text_13">
    <!-- MLN + A -->
    <g style="fill: #262626" transform="translate(226.472553 180.477845) scale(0.1 -0.1)">
     <use xlink:href="#ArialMT-4d"/>
     <use xlink:href="#ArialMT-4c" x="83.300781"/>
     <use xlink:href="#ArialMT-4e" x="138.916016"/>
     <use xlink:href="#ArialMT-20" x="211.132812"/>
     <use xlink:href="#ArialMT-2b" x="238.916016"/>
     <use xlink:href="#ArialMT-20" x="297.314453"/>
     <use xlink:href="#ArialMT-41" x="319.597656"/>
    </g>
   </g>
   <g id="text_14">
    <!-- MLN + FF + A -->
    <g style="fill: #262626" transform="translate(230.844623 202.869419) scale(0.1 -0.1)">
     <use xlink:href="#ArialMT-4d"/>
     <use xlink:href="#ArialMT-4c" x="83.300781"/>
     <use xlink:href="#ArialMT-4e" x="138.916016"/>
     <use xlink:href="#ArialMT-20" x="211.132812"/>
     <use xlink:href="#ArialMT-2b" x="238.916016"/>
     <use xlink:href="#ArialMT-20" x="297.314453"/>
     <use xlink:href="#ArialMT-46" x="325.097656"/>
     <use xlink:href="#ArialMT-46" x="386.181641"/>
     <use xlink:href="#ArialMT-20" x="447.265625"/>
     <use xlink:href="#ArialMT-2b" x="475.048828"/>
     <use xlink:href="#ArialMT-20" x="533.447266"/>
     <use xlink:href="#ArialMT-41" x="555.730469"/>
    </g>
   </g>
   <g id="text_15">
    <!-- MLN 1 Rep/Grp -->
    <g style="fill: #262626" transform="translate(82.139719 479.582592) scale(0.1 -0.1)">
     <defs>
      <path id="ArialMT-52" d="M 503 0 
L 503 4581 
L 2534 4581 
Q 3147 4581 3465 4457 
Q 3784 4334 3975 4021 
Q 4166 3709 4166 3331 
Q 4166 2844 3850 2509 
Q 3534 2175 2875 2084 
Q 3116 1969 3241 1856 
Q 3506 1613 3744 1247 
L 4541 0 
L 3778 0 
L 3172 953 
Q 2906 1366 2734 1584 
Q 2563 1803 2427 1890 
Q 2291 1978 2150 2013 
Q 2047 2034 1813 2034 
L 1109 2034 
L 1109 0 
L 503 0 
z
M 1109 2559 
L 2413 2559 
Q 2828 2559 3062 2645 
Q 3297 2731 3419 2920 
Q 3541 3109 3541 3331 
Q 3541 3656 3305 3865 
Q 3069 4075 2559 4075 
L 1109 4075 
L 1109 2559 
z
" transform="scale(0.015625)"/>
      <path id="ArialMT-70" d="M 422 -1272 
L 422 3319 
L 934 3319 
L 934 2888 
Q 1116 3141 1344 3267 
Q 1572 3394 1897 3394 
Q 2322 3394 2647 3175 
Q 2972 2956 3137 2557 
Q 3303 2159 3303 1684 
Q 3303 1175 3120 767 
Q 2938 359 2589 142 
Q 2241 -75 1856 -75 
Q 1575 -75 1351 44 
Q 1128 163 984 344 
L 984 -1272 
L 422 -1272 
z
M 931 1641 
Q 931 1000 1190 694 
Q 1450 388 1819 388 
Q 2194 388 2461 705 
Q 2728 1022 2728 1688 
Q 2728 2322 2467 2637 
Q 2206 2953 1844 2953 
Q 1484 2953 1207 2617 
Q 931 2281 931 1641 
z
" transform="scale(0.015625)"/>
      <path id="ArialMT-2f" d="M 0 -78 
L 1328 4659 
L 1778 4659 
L 453 -78 
L 0 -78 
z
" transform="scale(0.015625)"/>
      <path id="ArialMT-47" d="M 2638 1797 
L 2638 2334 
L 4578 2338 
L 4578 638 
Q 4131 281 3656 101 
Q 3181 -78 2681 -78 
Q 2006 -78 1454 211 
Q 903 500 622 1047 
Q 341 1594 341 2269 
Q 341 2938 620 3517 
Q 900 4097 1425 4378 
Q 1950 4659 2634 4659 
Q 3131 4659 3532 4498 
Q 3934 4338 4162 4050 
Q 4391 3763 4509 3300 
L 3963 3150 
Q 3859 3500 3706 3700 
Q 3553 3900 3268 4020 
Q 2984 4141 2638 4141 
Q 2222 4141 1919 4014 
Q 1616 3888 1430 3681 
Q 1244 3475 1141 3228 
Q 966 2803 966 2306 
Q 966 1694 1177 1281 
Q 1388 869 1791 669 
Q 2194 469 2647 469 
Q 3041 469 3416 620 
Q 3791 772 3984 944 
L 3984 1797 
L 2638 1797 
z
" transform="scale(0.015625)"/>
     </defs>
     <use xlink:href="#ArialMT-4d"/>
     <use xlink:href="#ArialMT-4c" x="83.300781"/>
     <use xlink:href="#ArialMT-4e" x="138.916016"/>
     <use xlink:href="#ArialMT-20" x="211.132812"/>
     <use xlink:href="#ArialMT-31" x="238.916016"/>
     <use xlink:href="#ArialMT-20" x="294.53125"/>
     <use xlink:href="#ArialMT-52" x="322.314453"/>
     <use xlink:href="#ArialMT-65" x="394.53125"/>
     <use xlink:href="#ArialMT-70" x="450.146484"/>
     <use xlink:href="#ArialMT-2f" x="505.761719"/>
     <use xlink:href="#ArialMT-47" x="533.544922"/>
     <use xlink:href="#ArialMT-72" x="611.328125"/>
     <use xlink:href="#ArialMT-70" x="644.628906"/>
    </g>
   </g>
   <g id="text_16">
    <!-- MLN 2 Reps/Grp -->
    <g style="fill: #262626" transform="translate(165.338327 393.47301) scale(0.1 -0.1)">
     <defs>
      <path id="ArialMT-32" d="M 3222 541 
L 3222 0 
L 194 0 
Q 188 203 259 391 
Q 375 700 629 1000 
Q 884 1300 1366 1694 
Q 2113 2306 2375 2664 
Q 2638 3022 2638 3341 
Q 2638 3675 2398 3904 
Q 2159 4134 1775 4134 
Q 1369 4134 1125 3890 
Q 881 3647 878 3216 
L 300 3275 
Q 359 3922 746 4261 
Q 1134 4600 1788 4600 
Q 2447 4600 2831 4234 
Q 3216 3869 3216 3328 
Q 3216 3053 3103 2787 
Q 2991 2522 2730 2228 
Q 2469 1934 1863 1422 
Q 1356 997 1212 845 
Q 1069 694 975 541 
L 3222 541 
z
" transform="scale(0.015625)"/>
     </defs>
     <use xlink:href="#ArialMT-4d"/>
     <use xlink:href="#ArialMT-4c" x="83.300781"/>
     <use xlink:href="#ArialMT-4e" x="138.916016"/>
     <use xlink:href="#ArialMT-20" x="211.132812"/>
     <use xlink:href="#ArialMT-32" x="238.916016"/>
     <use xlink:href="#ArialMT-20" x="294.53125"/>
     <use xlink:href="#ArialMT-52" x="322.314453"/>
     <use xlink:href="#ArialMT-65" x="394.53125"/>
     <use xlink:href="#ArialMT-70" x="450.146484"/>
     <use xlink:href="#ArialMT-73" x="505.761719"/>
     <use xlink:href="#ArialMT-2f" x="555.761719"/>
     <use xlink:href="#ArialMT-47" x="583.544922"/>
     <use xlink:href="#ArialMT-72" x="661.328125"/>
     <use xlink:href="#ArialMT-70" x="694.628906"/>
    </g>
   </g>
   <g id="text_17">
    <!-- MLN 3 Reps/Grp -->
    <g style="fill: #262626" transform="translate(213.558909 45.622006) scale(0.1 -0.1)">
     <defs>
      <path id="ArialMT-33" d="M 269 1209 
L 831 1284 
Q 928 806 1161 595 
Q 1394 384 1728 384 
Q 2125 384 2398 659 
Q 2672 934 2672 1341 
Q 2672 1728 2419 1979 
Q 2166 2231 1775 2231 
Q 1616 2231 1378 2169 
L 1441 2663 
Q 1497 2656 1531 2656 
Q 1891 2656 2178 2843 
Q 2466 3031 2466 3422 
Q 2466 3731 2256 3934 
Q 2047 4138 1716 4138 
Q 1388 4138 1169 3931 
Q 950 3725 888 3313 
L 325 3413 
Q 428 3978 793 4289 
Q 1159 4600 1703 4600 
Q 2078 4600 2393 4439 
Q 2709 4278 2876 4000 
Q 3044 3722 3044 3409 
Q 3044 3113 2884 2869 
Q 2725 2625 2413 2481 
Q 2819 2388 3044 2092 
Q 3269 1797 3269 1353 
Q 3269 753 2831 336 
Q 2394 -81 1725 -81 
Q 1122 -81 723 278 
Q 325 638 269 1209 
z
" transform="scale(0.015625)"/>
     </defs>
     <use xlink:href="#ArialMT-4d"/>
     <use xlink:href="#ArialMT-4c" x="83.300781"/>
     <use xlink:href="#ArialMT-4e" x="138.916016"/>
     <use xlink:href="#ArialMT-20" x="211.132812"/>
     <use xlink:href="#ArialMT-33" x="238.916016"/>
     <use xlink:href="#ArialMT-20" x="294.53125"/>
     <use xlink:href="#ArialMT-52" x="322.314453"/>
     <use xlink:href="#ArialMT-65" x="394.53125"/>
     <use xlink:href="#ArialMT-70" x="450.146484"/>
     <use xlink:href="#ArialMT-73" x="505.761719"/>
     <use xlink:href="#ArialMT-2f" x="555.761719"/>
     <use xlink:href="#ArialMT-47" x="583.544922"/>
     <use xlink:href="#ArialMT-72" x="661.328125"/>
     <use xlink:href="#ArialMT-70" x="694.628906"/>
    </g>
   </g>
   <g id="text_18">
    <!-- MLN Deep -->
    <g style="fill: #262626" transform="translate(305.928134 25.982592) scale(0.1 -0.1)">
     <defs>
      <path id="ArialMT-44" d="M 494 0 
L 494 4581 
L 2072 4581 
Q 2606 4581 2888 4516 
Q 3281 4425 3559 4188 
Q 3922 3881 4101 3404 
Q 4281 2928 4281 2316 
Q 4281 1794 4159 1391 
Q 4038 988 3847 723 
Q 3656 459 3429 307 
Q 3203 156 2883 78 
Q 2563 0 2147 0 
L 494 0 
z
M 1100 541 
L 2078 541 
Q 2531 541 2789 625 
Q 3047 709 3200 863 
Q 3416 1078 3536 1442 
Q 3656 1806 3656 2325 
Q 3656 3044 3420 3430 
Q 3184 3816 2847 3947 
Q 2603 4041 2063 4041 
L 1100 4041 
L 1100 541 
z
" transform="scale(0.015625)"/>
     </defs>
     <use xlink:href="#ArialMT-4d"/>
     <use xlink:href="#ArialMT-4c" x="83.300781"/>
     <use xlink:href="#ArialMT-4e" x="138.916016"/>
     <use xlink:href="#ArialMT-20" x="211.132812"/>
     <use xlink:href="#ArialMT-44" x="238.916016"/>
     <use xlink:href="#ArialMT-65" x="311.132812"/>
     <use xlink:href="#ArialMT-65" x="366.748047"/>
     <use xlink:href="#ArialMT-70" x="422.363281"/>
    </g>
   </g>
   <g id="text_19">
    <!-- MLN RevGrps -->
    <g style="fill: #262626" transform="translate(155.989629 226.339839) scale(0.1 -0.1)">
     <defs>
      <path id="ArialMT-76" d="M 1344 0 
L 81 3319 
L 675 3319 
L 1388 1331 
Q 1503 1009 1600 663 
Q 1675 925 1809 1294 
L 2547 3319 
L 3125 3319 
L 1869 0 
L 1344 0 
z
" transform="scale(0.015625)"/>
     </defs>
     <use xlink:href="#ArialMT-4d"/>
     <use xlink:href="#ArialMT-4c" x="83.300781"/>
     <use xlink:href="#ArialMT-4e" x="138.916016"/>
     <use xlink:href="#ArialMT-20" x="211.132812"/>
     <use xlink:href="#ArialMT-52" x="238.916016"/>
     <use xlink:href="#ArialMT-65" x="311.132812"/>
     <use xlink:href="#ArialMT-76" x="366.748047"/>
     <use xlink:href="#ArialMT-47" x="416.748047"/>
     <use xlink:href="#ArialMT-72" x="494.53125"/>
     <use xlink:href="#ArialMT-70" x="527.832031"/>
     <use xlink:href="#ArialMT-73" x="583.447266"/>
    </g>
   </g>
   <g id="text_20">
    <!-- MLN RevReps -->
    <g style="fill: #262626" transform="translate(147.698712 194.723025) scale(0.1 -0.1)">
     <use xlink:href="#ArialMT-4d"/>
     <use xlink:href="#ArialMT-4c" x="83.300781"/>
     <use xlink:href="#ArialMT-4e" x="138.916016"/>
     <use xlink:href="#ArialMT-20" x="211.132812"/>
     <use xlink:href="#ArialMT-52" x="238.916016"/>
     <use xlink:href="#ArialMT-65" x="311.132812"/>
     <use xlink:href="#ArialMT-76" x="366.748047"/>
     <use xlink:href="#ArialMT-52" x="416.748047"/>
     <use xlink:href="#ArialMT-65" x="488.964844"/>
     <use xlink:href="#ArialMT-70" x="544.580078"/>
     <use xlink:href="#ArialMT-73" x="600.195312"/>
    </g>
   </g>
   <g id="text_21">
    <!-- Base CNN -->
    <g style="fill: #262626" transform="translate(573.924525 254.896251) scale(0.1 -0.1)">
     <defs>
      <path id="ArialMT-42" d="M 469 0 
L 469 4581 
L 2188 4581 
Q 2713 4581 3030 4442 
Q 3347 4303 3526 4014 
Q 3706 3725 3706 3409 
Q 3706 3116 3547 2856 
Q 3388 2597 3066 2438 
Q 3481 2316 3704 2022 
Q 3928 1728 3928 1328 
Q 3928 1006 3792 729 
Q 3656 453 3456 303 
Q 3256 153 2954 76 
Q 2653 0 2216 0 
L 469 0 
z
M 1075 2656 
L 2066 2656 
Q 2469 2656 2644 2709 
Q 2875 2778 2992 2937 
Q 3109 3097 3109 3338 
Q 3109 3566 3000 3739 
Q 2891 3913 2687 3977 
Q 2484 4041 1991 4041 
L 1075 4041 
L 1075 2656 
z
M 1075 541 
L 2216 541 
Q 2509 541 2628 563 
Q 2838 600 2978 687 
Q 3119 775 3209 942 
Q 3300 1109 3300 1328 
Q 3300 1584 3169 1773 
Q 3038 1963 2805 2039 
Q 2572 2116 2134 2116 
L 1075 2116 
L 1075 541 
z
" transform="scale(0.015625)"/>
      <path id="ArialMT-43" d="M 3763 1606 
L 4369 1453 
Q 4178 706 3683 314 
Q 3188 -78 2472 -78 
Q 1731 -78 1267 223 
Q 803 525 561 1097 
Q 319 1669 319 2325 
Q 319 3041 592 3573 
Q 866 4106 1370 4382 
Q 1875 4659 2481 4659 
Q 3169 4659 3637 4309 
Q 4106 3959 4291 3325 
L 3694 3184 
Q 3534 3684 3231 3912 
Q 2928 4141 2469 4141 
Q 1941 4141 1586 3887 
Q 1231 3634 1087 3207 
Q 944 2781 944 2328 
Q 944 1744 1114 1308 
Q 1284 872 1643 656 
Q 2003 441 2422 441 
Q 2931 441 3284 734 
Q 3638 1028 3763 1606 
z
" transform="scale(0.015625)"/>
     </defs>
     <use xlink:href="#ArialMT-42"/>
     <use xlink:href="#ArialMT-61" x="66.699219"/>
     <use xlink:href="#ArialMT-73" x="122.314453"/>
     <use xlink:href="#ArialMT-65" x="172.314453"/>
     <use xlink:href="#ArialMT-20" x="227.929688"/>
     <use xlink:href="#ArialMT-43" x="255.712891"/>
     <use xlink:href="#ArialMT-4e" x="327.929688"/>
     <use xlink:href="#ArialMT-4e" x="400.146484"/>
    </g>
   </g>
   <g id="text_22">
    <!-- MobileNetV2 -->
    <g style="fill: #262626" transform="translate(595.920387 337.527102) scale(0.1 -0.1)">
     <defs>
      <path id="ArialMT-62" d="M 941 0 
L 419 0 
L 419 4581 
L 981 4581 
L 981 2947 
Q 1338 3394 1891 3394 
Q 2197 3394 2470 3270 
Q 2744 3147 2920 2923 
Q 3097 2700 3197 2384 
Q 3297 2069 3297 1709 
Q 3297 856 2875 390 
Q 2453 -75 1863 -75 
Q 1275 -75 941 416 
L 941 0 
z
M 934 1684 
Q 934 1088 1097 822 
Q 1363 388 1816 388 
Q 2184 388 2453 708 
Q 2722 1028 2722 1663 
Q 2722 2313 2464 2622 
Q 2206 2931 1841 2931 
Q 1472 2931 1203 2611 
Q 934 2291 934 1684 
z
" transform="scale(0.015625)"/>
      <path id="ArialMT-56" d="M 1803 0 
L 28 4581 
L 684 4581 
L 1875 1253 
Q 2019 853 2116 503 
Q 2222 878 2363 1253 
L 3600 4581 
L 4219 4581 
L 2425 0 
L 1803 0 
z
" transform="scale(0.015625)"/>
     </defs>
     <use xlink:href="#ArialMT-4d"/>
     <use xlink:href="#ArialMT-6f" x="83.300781"/>
     <use xlink:href="#ArialMT-62" x="138.916016"/>
     <use xlink:href="#ArialMT-69" x="194.53125"/>
     <use xlink:href="#ArialMT-6c" x="216.748047"/>
     <use xlink:href="#ArialMT-65" x="238.964844"/>
     <use xlink:href="#ArialMT-4e" x="294.580078"/>
     <use xlink:href="#ArialMT-65" x="366.796875"/>
     <use xlink:href="#ArialMT-74" x="422.412109"/>
     <use xlink:href="#ArialMT-56" x="450.195312"/>
     <use xlink:href="#ArialMT-32" x="516.894531"/>
    </g>
   </g>
   <g id="text_23">
    <!-- ResNet50 -->
    <g style="fill: #262626" transform="translate(872.195941 215.397251) scale(0.1 -0.1)">
     <use xlink:href="#ArialMT-52"/>
     <use xlink:href="#ArialMT-65" x="72.216797"/>
     <use xlink:href="#ArialMT-73" x="127.832031"/>
     <use xlink:href="#ArialMT-4e" x="177.832031"/>
     <use xlink:href="#ArialMT-65" x="250.048828"/>
     <use xlink:href="#ArialMT-74" x="305.664062"/>
     <use xlink:href="#ArialMT-35" x="333.447266"/>
     <use xlink:href="#ArialMT-30" x="389.0625"/>
    </g>
   </g>
   <g id="legend_1">
    <g id="patch_7">
     <path d="M 38.50625 93.117188 
L 116.4 93.117188 
Q 118.4 93.117188 118.4 91.117188 
L 118.4 7 
Q 118.4 5 116.4 5 
L 38.50625 5 
Q 36.50625 5 36.50625 7 
L 36.50625 91.117188 
Q 36.50625 93.117188 38.50625 93.117188 
z
" style="fill: #eaeaf2; opacity: 0.8; stroke: #cccccc; stroke-linejoin: miter"/>
    </g>
    <g id="text_24">
     <!-- FLOPs (millions) -->
     <g style="fill: #262626" transform="translate(40.50625 16.285938) scale(0.1 -0.1)">
      <defs>
       <path id="ArialMT-4f" d="M 309 2231 
Q 309 3372 921 4017 
Q 1534 4663 2503 4663 
Q 3138 4663 3647 4359 
Q 4156 4056 4423 3514 
Q 4691 2972 4691 2284 
Q 4691 1588 4409 1038 
Q 4128 488 3612 205 
Q 3097 -78 2500 -78 
Q 1853 -78 1343 234 
Q 834 547 571 1087 
Q 309 1628 309 2231 
z
M 934 2222 
Q 934 1394 1379 917 
Q 1825 441 2497 441 
Q 3181 441 3623 922 
Q 4066 1403 4066 2288 
Q 4066 2847 3877 3264 
Q 3688 3681 3323 3911 
Q 2959 4141 2506 4141 
Q 1863 4141 1398 3698 
Q 934 3256 934 2222 
z
" transform="scale(0.015625)"/>
      </defs>
      <use xlink:href="#ArialMT-46"/>
      <use xlink:href="#ArialMT-4c" x="61.083984"/>
      <use xlink:href="#ArialMT-4f" x="116.699219"/>
      <use xlink:href="#ArialMT-50" x="194.482422"/>
      <use xlink:href="#ArialMT-73" x="261.181641"/>
      <use xlink:href="#ArialMT-20" x="311.181641"/>
      <use xlink:href="#ArialMT-28" x="338.964844"/>
      <use xlink:href="#ArialMT-6d" x="372.265625"/>
      <use xlink:href="#ArialMT-69" x="455.566406"/>
      <use xlink:href="#ArialMT-6c" x="477.783203"/>
      <use xlink:href="#ArialMT-6c" x="500"/>
      <use xlink:href="#ArialMT-69" x="522.216797"/>
      <use xlink:href="#ArialMT-6f" x="544.433594"/>
      <use xlink:href="#ArialMT-6e" x="600.048828"/>
      <use xlink:href="#ArialMT-73" x="655.664062"/>
      <use xlink:href="#ArialMT-29" x="705.664062"/>
     </g>
    </g>
    <g id="line2d_14">
     <defs>
      <path id="m73da69d59d" d="M 0 4.973685 
C 1.319037 4.973685 2.584227 4.449627 3.516927 3.516927 
C 4.449627 2.584227 4.973685 1.319037 4.973685 0 
C 4.973685 -1.319037 4.449627 -2.584227 3.516927 -3.516927 
C 2.584227 -4.449627 1.319037 -4.973685 0 -4.973685 
C -1.319037 -4.973685 -2.584227 -4.449627 -3.516927 -3.516927 
C -4.449627 -2.584227 -4.973685 -1.319037 -4.973685 0 
C -4.973685 1.319037 -4.449627 2.584227 -3.516927 3.516927 
C -2.584227 4.449627 -1.319037 4.973685 0 4.973685 
z
" style="stroke: #ffffff; stroke-width: 0.593964"/>
     </defs>
     <g>
      <use xlink:href="#m73da69d59d" x="59.550781" y="27.048438" style="fill: #e98868; stroke: #ffffff; stroke-width: 0.593964"/>
     </g>
    </g>
    <g id="text_25">
     <!-- 2000 -->
     <g style="fill: #262626" transform="translate(77.550781 30.548438) scale(0.1 -0.1)">
      <use xlink:href="#ArialMT-32"/>
      <use xlink:href="#ArialMT-30" x="55.615234"/>
      <use xlink:href="#ArialMT-30" x="111.230469"/>
      <use xlink:href="#ArialMT-30" x="166.845703"/>
     </g>
    </g>
    <g id="line2d_15">
     <defs>
      <path id="m07816962e1" d="M 0 6.107586 
C 1.619751 6.107586 3.173379 5.464052 4.318715 4.318715 
C 5.464052 3.173379 6.107586 1.619751 6.107586 0 
C 6.107586 -1.619751 5.464052 -3.173379 4.318715 -4.318715 
C 3.173379 -5.464052 1.619751 -6.107586 0 -6.107586 
C -1.619751 -6.107586 -3.173379 -5.464052 -4.318715 -4.318715 
C -5.464052 -3.173379 -6.107586 -1.619751 -6.107586 0 
C -6.107586 1.619751 -5.464052 3.173379 -4.318715 4.318715 
C -3.173379 5.464052 -1.619751 6.107586 0 6.107586 
z
" style="stroke: #ffffff; stroke-width: 0.593964"/>
     </defs>
     <g>
      <use xlink:href="#m07816962e1" x="59.550781" y="41.19375" style="fill: #df5e5c; stroke: #ffffff; stroke-width: 0.593964"/>
     </g>
    </g>
    <g id="text_26">
     <!-- 4000 -->
     <g style="fill: #262626" transform="translate(77.550781 44.69375) scale(0.1 -0.1)">
      <defs>
       <path id="ArialMT-34" d="M 2069 0 
L 2069 1097 
L 81 1097 
L 81 1613 
L 2172 4581 
L 2631 4581 
L 2631 1613 
L 3250 1613 
L 3250 1097 
L 2631 1097 
L 2631 0 
L 2069 0 
z
M 2069 1613 
L 2069 3678 
L 634 1613 
L 2069 1613 
z
" transform="scale(0.015625)"/>
      </defs>
      <use xlink:href="#ArialMT-34"/>
      <use xlink:href="#ArialMT-30" x="55.615234"/>
      <use xlink:href="#ArialMT-30" x="111.230469"/>
      <use xlink:href="#ArialMT-30" x="166.845703"/>
     </g>
    </g>
    <g id="line2d_16">
     <defs>
      <path id="m3816936d9e" d="M 0 7.061704 
C 1.872786 7.061704 3.669119 6.317638 4.993379 4.993379 
C 6.317638 3.669119 7.061704 1.872786 7.061704 0 
C 7.061704 -1.872786 6.317638 -3.669119 4.993379 -4.993379 
C 3.669119 -6.317638 1.872786 -7.061704 0 -7.061704 
C -1.872786 -7.061704 -3.669119 -6.317638 -4.993379 -4.993379 
C -6.317638 -3.669119 -7.061704 -1.872786 -7.061704 0 
C -7.061704 1.872786 -6.317638 3.669119 -4.993379 4.993379 
C -3.669119 6.317638 -1.872786 7.061704 0 7.061704 
z
" style="stroke: #ffffff; stroke-width: 0.593964"/>
     </defs>
     <g>
      <use xlink:href="#m3816936d9e" x="59.550781" y="55.339063" style="fill: #c24167; stroke: #ffffff; stroke-width: 0.593964"/>
     </g>
    </g>
    <g id="text_27">
     <!-- 6000 -->
     <g style="fill: #262626" transform="translate(77.550781 58.839063) scale(0.1 -0.1)">
      <use xlink:href="#ArialMT-36"/>
      <use xlink:href="#ArialMT-30" x="55.615234"/>
      <use xlink:href="#ArialMT-30" x="111.230469"/>
      <use xlink:href="#ArialMT-30" x="166.845703"/>
     </g>
    </g>
    <g id="line2d_17">
     <defs>
      <path id="m9b1f77253b" d="M 0 7.901437 
C 2.095486 7.901437 4.105428 7.068892 5.58716 5.58716 
C 7.068892 4.105428 7.901437 2.095486 7.901437 0 
C 7.901437 -2.095486 7.068892 -4.105428 5.58716 -5.58716 
C 4.105428 -7.068892 2.095486 -7.901437 0 -7.901437 
C -2.095486 -7.901437 -4.105428 -7.068892 -5.58716 -5.58716 
C -7.068892 -4.105428 -7.901437 -2.095486 -7.901437 0 
C -7.901437 2.095486 -7.068892 4.105428 -5.58716 5.58716 
C -4.105428 7.068892 -2.095486 7.901437 0 7.901437 
z
" style="stroke: #ffffff; stroke-width: 0.593964"/>
     </defs>
     <g>
      <use xlink:href="#m9b1f77253b" x="59.550781" y="69.484375" style="fill: #9a3670; stroke: #ffffff; stroke-width: 0.593964"/>
     </g>
    </g>
    <g id="text_28">
     <!-- 8000 -->
     <g style="fill: #262626" transform="translate(77.550781 72.984375) scale(0.1 -0.1)">
      <use xlink:href="#ArialMT-38"/>
      <use xlink:href="#ArialMT-30" x="55.615234"/>
      <use xlink:href="#ArialMT-30" x="111.230469"/>
      <use xlink:href="#ArialMT-30" x="166.845703"/>
     </g>
    </g>
    <g id="line2d_18">
     <defs>
      <path id="m42dc60a5b3" d="M 0 8.660125 
C 2.296692 8.660125 4.499627 7.74764 6.123633 6.123633 
C 7.74764 4.499627 8.660125 2.296692 8.660125 0 
C 8.660125 -2.296692 7.74764 -4.499627 6.123633 -6.123633 
C 4.499627 -7.74764 2.296692 -8.660125 0 -8.660125 
C -2.296692 -8.660125 -4.499627 -7.74764 -6.123633 -6.123633 
C -7.74764 -4.499627 -8.660125 -2.296692 -8.660125 0 
C -8.660125 2.296692 -7.74764 4.499627 -6.123633 6.123633 
C -4.499627 7.74764 -2.296692 8.660125 0 8.660125 
z
" style="stroke: #ffffff; stroke-width: 0.593964"/>
     </defs>
     <g>
      <use xlink:href="#m42dc60a5b3" x="59.550781" y="83.629688" style="fill: #722c6e; stroke: #ffffff; stroke-width: 0.593964"/>
     </g>
    </g>
    <g id="text_29">
     <!-- 10000 -->
     <g style="fill: #262626" transform="translate(77.550781 87.129688) scale(0.1 -0.1)">
      <use xlink:href="#ArialMT-31"/>
      <use xlink:href="#ArialMT-30" x="55.615234"/>
      <use xlink:href="#ArialMT-30" x="111.230469"/>
      <use xlink:href="#ArialMT-30" x="166.845703"/>
      <use xlink:href="#ArialMT-30" x="222.460938"/>
     </g>
    </g>
   </g>
  </g>
 </g>
 <defs>
  <clipPath id="p06e9c1edbe">
   <rect x="31.50625" y="0" width="892.8" height="498.96"/>
  </clipPath>
 </defs>
</svg>
