<?xml version="1.0" encoding="utf-8" standalone="no"?>
<!DOCTYPE svg PUBLIC "-//W3C//DTD SVG 1.1//EN"
  "http://www.w3.org/Graphics/SVG/1.1/DTD/svg11.dtd">
<svg xmlns:xlink="http://www.w3.org/1999/xlink" width="1152pt" height="648pt" viewBox="0 0 1152 648" xmlns="http://www.w3.org/2000/svg" version="1.1">
 <metadata>
  <rdf:RDF xmlns:dc="http://purl.org/dc/elements/1.1/" xmlns:cc="http://creativecommons.org/ns#" xmlns:rdf="http://www.w3.org/1999/02/22-rdf-syntax-ns#">
   <cc:Work>
    <dc:type rdf:resource="http://purl.org/dc/dcmitype/StillImage"/>
    <dc:date>2024-02-23T20:56:00.423127</dc:date>
    <dc:format>image/svg+xml</dc:format>
    <dc:creator>
     <cc:Agent>
      <dc:title>Matplotlib v3.6.2, https://matplotlib.org/</dc:title>
     </cc:Agent>
    </dc:creator>
   </cc:Work>
  </rdf:RDF>
 </metadata>
 <defs>
  <style type="text/css">*{stroke-linejoin: round; stroke-linecap: butt}</style>
 </defs>
 <g id="figure_1">
  <g id="patch_1">
   <path d="M 0 648 
L 1152 648 
L 1152 0 
L 0 0 
z
" style="fill: #ffffff"/>
  </g>
  <g id="axes_1">
   <g id="patch_2">
    <path d="M 144 576.72 
L 1036.8 576.72 
L 1036.8 77.76 
L 144 77.76 
z
" style="fill: #eaeaf2"/>
   </g>
   <g id="matplotlib.axis_1">
    <g id="xtick_1">
     <g id="line2d_1">
      <path d="M 335.725247 576.72 
L 335.725247 77.76 
" clip-path="url(#pe720142b46)" style="fill: none; stroke: #ffffff; stroke-width: 0.8; stroke-linecap: round"/>
     </g>
     <g id="text_1">
      <!-- $\mathdefault{10^{5}}$ -->
      <g style="fill: #262626" transform="translate(327.875247 593.9325) scale(0.1 -0.1)">
       <defs>
        <path id="ArialMT-31" d="M 2384 0 
L 1822 0 
L 1822 3584 
Q 1619 3391 1289 3197 
Q 959 3003 697 2906 
L 697 3450 
Q 1169 3672 1522 3987 
Q 1875 4303 2022 4600 
L 2384 4600 
L 2384 0 
z
" transform="scale(0.015625)"/>
        <path id="ArialMT-30" d="M 266 2259 
Q 266 3072 433 3567 
Q 600 4063 929 4331 
Q 1259 4600 1759 4600 
Q 2128 4600 2406 4451 
Q 2684 4303 2865 4023 
Q 3047 3744 3150 3342 
Q 3253 2941 3253 2259 
Q 3253 1453 3087 958 
Q 2922 463 2592 192 
Q 2263 -78 1759 -78 
Q 1097 -78 719 397 
Q 266 969 266 2259 
z
M 844 2259 
Q 844 1131 1108 757 
Q 1372 384 1759 384 
Q 2147 384 2411 759 
Q 2675 1134 2675 2259 
Q 2675 3391 2411 3762 
Q 2147 4134 1753 4134 
Q 1366 4134 1134 3806 
Q 844 3388 844 2259 
z
" transform="scale(0.015625)"/>
        <path id="ArialMT-35" d="M 266 1200 
L 856 1250 
Q 922 819 1161 601 
Q 1400 384 1738 384 
Q 2144 384 2425 690 
Q 2706 997 2706 1503 
Q 2706 1984 2436 2262 
Q 2166 2541 1728 2541 
Q 1456 2541 1237 2417 
Q 1019 2294 894 2097 
L 366 2166 
L 809 4519 
L 3088 4519 
L 3088 3981 
L 1259 3981 
L 1013 2750 
Q 1425 3038 1878 3038 
Q 2478 3038 2890 2622 
Q 3303 2206 3303 1553 
Q 3303 931 2941 478 
Q 2500 -78 1738 -78 
Q 1113 -78 717 272 
Q 322 622 266 1200 
z
" transform="scale(0.015625)"/>
       </defs>
       <use xlink:href="#ArialMT-31" transform="translate(0 0.879688)"/>
       <use xlink:href="#ArialMT-30" transform="translate(55.615234 0.879688)"/>
       <use xlink:href="#ArialMT-35" transform="translate(112.972813 70.573438) scale(0.7)"/>
      </g>
     </g>
    </g>
    <g id="xtick_2">
     <g id="line2d_2">
      <path d="M 614.262408 576.72 
L 614.262408 77.76 
" clip-path="url(#pe720142b46)" style="fill: none; stroke: #ffffff; stroke-width: 0.8; stroke-linecap: round"/>
     </g>
     <g id="text_2">
      <!-- $\mathdefault{10^{6}}$ -->
      <g style="fill: #262626" transform="translate(606.412408 594.0325) scale(0.1 -0.1)">
       <defs>
        <path id="ArialMT-36" d="M 3184 3459 
L 2625 3416 
Q 2550 3747 2413 3897 
Q 2184 4138 1850 4138 
Q 1581 4138 1378 3988 
Q 1113 3794 959 3422 
Q 806 3050 800 2363 
Q 1003 2672 1297 2822 
Q 1591 2972 1913 2972 
Q 2475 2972 2870 2558 
Q 3266 2144 3266 1488 
Q 3266 1056 3080 686 
Q 2894 316 2569 119 
Q 2244 -78 1831 -78 
Q 1128 -78 684 439 
Q 241 956 241 2144 
Q 241 3472 731 4075 
Q 1159 4600 1884 4600 
Q 2425 4600 2770 4297 
Q 3116 3994 3184 3459 
z
M 888 1484 
Q 888 1194 1011 928 
Q 1134 663 1356 523 
Q 1578 384 1822 384 
Q 2178 384 2434 671 
Q 2691 959 2691 1453 
Q 2691 1928 2437 2201 
Q 2184 2475 1800 2475 
Q 1419 2475 1153 2201 
Q 888 1928 888 1484 
z
" transform="scale(0.015625)"/>
       </defs>
       <use xlink:href="#ArialMT-31" transform="translate(0 0.99375)"/>
       <use xlink:href="#ArialMT-30" transform="translate(55.615234 0.99375)"/>
       <use xlink:href="#ArialMT-36" transform="translate(112.972813 70.6875) scale(0.7)"/>
      </g>
     </g>
    </g>
    <g id="xtick_3">
     <g id="line2d_3">
      <path d="M 892.799569 576.72 
L 892.799569 77.76 
" clip-path="url(#pe720142b46)" style="fill: none; stroke: #ffffff; stroke-width: 0.8; stroke-linecap: round"/>
     </g>
     <g id="text_3">
      <!-- $\mathdefault{10^{7}}$ -->
      <g style="fill: #262626" transform="translate(884.949569 593.9325) scale(0.1 -0.1)">
       <defs>
        <path id="ArialMT-37" d="M 303 3981 
L 303 4522 
L 3269 4522 
L 3269 4084 
Q 2831 3619 2401 2847 
Q 1972 2075 1738 1259 
Q 1569 684 1522 0 
L 944 0 
Q 953 541 1156 1306 
Q 1359 2072 1739 2783 
Q 2119 3494 2547 3981 
L 303 3981 
z
" transform="scale(0.015625)"/>
       </defs>
       <use xlink:href="#ArialMT-31" transform="translate(0 0.846875)"/>
       <use xlink:href="#ArialMT-30" transform="translate(55.615234 0.846875)"/>
       <use xlink:href="#ArialMT-37" transform="translate(112.972813 70.540625) scale(0.7)"/>
      </g>
     </g>
    </g>
    <g id="xtick_4"/>
    <g id="xtick_5"/>
    <g id="xtick_6"/>
    <g id="xtick_7"/>
    <g id="xtick_8"/>
    <g id="xtick_9"/>
    <g id="xtick_10"/>
    <g id="xtick_11"/>
    <g id="xtick_12"/>
    <g id="xtick_13"/>
    <g id="xtick_14"/>
    <g id="xtick_15"/>
    <g id="xtick_16"/>
    <g id="xtick_17"/>
    <g id="xtick_18"/>
    <g id="xtick_19"/>
    <g id="xtick_20"/>
    <g id="xtick_21"/>
    <g id="xtick_22"/>
    <g id="xtick_23"/>
    <g id="xtick_24"/>
    <g id="xtick_25"/>
    <g id="xtick_26"/>
    <g id="xtick_27"/>
    <g id="xtick_28"/>
    <g id="text_4">
     <!-- Parameters (millions) -->
     <g style="fill: #262626" transform="translate(543.171094 607.299688) scale(0.1 -0.1)">
      <defs>
       <path id="ArialMT-50" d="M 494 0 
L 494 4581 
L 2222 4581 
Q 2678 4581 2919 4538 
Q 3256 4481 3484 4323 
Q 3713 4166 3852 3881 
Q 3991 3597 3991 3256 
Q 3991 2672 3619 2267 
Q 3247 1863 2275 1863 
L 1100 1863 
L 1100 0 
L 494 0 
z
M 1100 2403 
L 2284 2403 
Q 2872 2403 3119 2622 
Q 3366 2841 3366 3238 
Q 3366 3525 3220 3729 
Q 3075 3934 2838 4000 
Q 2684 4041 2272 4041 
L 1100 4041 
L 1100 2403 
z
" transform="scale(0.015625)"/>
       <path id="ArialMT-61" d="M 2588 409 
Q 2275 144 1986 34 
Q 1697 -75 1366 -75 
Q 819 -75 525 192 
Q 231 459 231 875 
Q 231 1119 342 1320 
Q 453 1522 633 1644 
Q 813 1766 1038 1828 
Q 1203 1872 1538 1913 
Q 2219 1994 2541 2106 
Q 2544 2222 2544 2253 
Q 2544 2597 2384 2738 
Q 2169 2928 1744 2928 
Q 1347 2928 1158 2789 
Q 969 2650 878 2297 
L 328 2372 
Q 403 2725 575 2942 
Q 747 3159 1072 3276 
Q 1397 3394 1825 3394 
Q 2250 3394 2515 3294 
Q 2781 3194 2906 3042 
Q 3031 2891 3081 2659 
Q 3109 2516 3109 2141 
L 3109 1391 
Q 3109 606 3145 398 
Q 3181 191 3288 0 
L 2700 0 
Q 2613 175 2588 409 
z
M 2541 1666 
Q 2234 1541 1622 1453 
Q 1275 1403 1131 1340 
Q 988 1278 909 1158 
Q 831 1038 831 891 
Q 831 666 1001 516 
Q 1172 366 1500 366 
Q 1825 366 2078 508 
Q 2331 650 2450 897 
Q 2541 1088 2541 1459 
L 2541 1666 
z
" transform="scale(0.015625)"/>
       <path id="ArialMT-72" d="M 416 0 
L 416 3319 
L 922 3319 
L 922 2816 
Q 1116 3169 1280 3281 
Q 1444 3394 1641 3394 
Q 1925 3394 2219 3213 
L 2025 2691 
Q 1819 2813 1613 2813 
Q 1428 2813 1281 2702 
Q 1134 2591 1072 2394 
Q 978 2094 978 1738 
L 978 0 
L 416 0 
z
" transform="scale(0.015625)"/>
       <path id="ArialMT-6d" d="M 422 0 
L 422 3319 
L 925 3319 
L 925 2853 
Q 1081 3097 1340 3245 
Q 1600 3394 1931 3394 
Q 2300 3394 2536 3241 
Q 2772 3088 2869 2813 
Q 3263 3394 3894 3394 
Q 4388 3394 4653 3120 
Q 4919 2847 4919 2278 
L 4919 0 
L 4359 0 
L 4359 2091 
Q 4359 2428 4304 2576 
Q 4250 2725 4106 2815 
Q 3963 2906 3769 2906 
Q 3419 2906 3187 2673 
Q 2956 2441 2956 1928 
L 2956 0 
L 2394 0 
L 2394 2156 
Q 2394 2531 2256 2718 
Q 2119 2906 1806 2906 
Q 1569 2906 1367 2781 
Q 1166 2656 1075 2415 
Q 984 2175 984 1722 
L 984 0 
L 422 0 
z
" transform="scale(0.015625)"/>
       <path id="ArialMT-65" d="M 2694 1069 
L 3275 997 
Q 3138 488 2766 206 
Q 2394 -75 1816 -75 
Q 1088 -75 661 373 
Q 234 822 234 1631 
Q 234 2469 665 2931 
Q 1097 3394 1784 3394 
Q 2450 3394 2872 2941 
Q 3294 2488 3294 1666 
Q 3294 1616 3291 1516 
L 816 1516 
Q 847 969 1125 678 
Q 1403 388 1819 388 
Q 2128 388 2347 550 
Q 2566 713 2694 1069 
z
M 847 1978 
L 2700 1978 
Q 2663 2397 2488 2606 
Q 2219 2931 1791 2931 
Q 1403 2931 1139 2672 
Q 875 2413 847 1978 
z
" transform="scale(0.015625)"/>
       <path id="ArialMT-74" d="M 1650 503 
L 1731 6 
Q 1494 -44 1306 -44 
Q 1000 -44 831 53 
Q 663 150 594 308 
Q 525 466 525 972 
L 525 2881 
L 113 2881 
L 113 3319 
L 525 3319 
L 525 4141 
L 1084 4478 
L 1084 3319 
L 1650 3319 
L 1650 2881 
L 1084 2881 
L 1084 941 
Q 1084 700 1114 631 
Q 1144 563 1211 522 
Q 1278 481 1403 481 
Q 1497 481 1650 503 
z
" transform="scale(0.015625)"/>
       <path id="ArialMT-73" d="M 197 991 
L 753 1078 
Q 800 744 1014 566 
Q 1228 388 1613 388 
Q 2000 388 2187 545 
Q 2375 703 2375 916 
Q 2375 1106 2209 1216 
Q 2094 1291 1634 1406 
Q 1016 1563 777 1677 
Q 538 1791 414 1992 
Q 291 2194 291 2438 
Q 291 2659 392 2848 
Q 494 3038 669 3163 
Q 800 3259 1026 3326 
Q 1253 3394 1513 3394 
Q 1903 3394 2198 3281 
Q 2494 3169 2634 2976 
Q 2775 2784 2828 2463 
L 2278 2388 
Q 2241 2644 2061 2787 
Q 1881 2931 1553 2931 
Q 1166 2931 1000 2803 
Q 834 2675 834 2503 
Q 834 2394 903 2306 
Q 972 2216 1119 2156 
Q 1203 2125 1616 2013 
Q 2213 1853 2448 1751 
Q 2684 1650 2818 1456 
Q 2953 1263 2953 975 
Q 2953 694 2789 445 
Q 2625 197 2315 61 
Q 2006 -75 1616 -75 
Q 969 -75 630 194 
Q 291 463 197 991 
z
" transform="scale(0.015625)"/>
       <path id="ArialMT-20" transform="scale(0.015625)"/>
       <path id="ArialMT-28" d="M 1497 -1347 
Q 1031 -759 709 28 
Q 388 816 388 1659 
Q 388 2403 628 3084 
Q 909 3875 1497 4659 
L 1900 4659 
Q 1522 4009 1400 3731 
Q 1209 3300 1100 2831 
Q 966 2247 966 1656 
Q 966 153 1900 -1347 
L 1497 -1347 
z
" transform="scale(0.015625)"/>
       <path id="ArialMT-69" d="M 425 3934 
L 425 4581 
L 988 4581 
L 988 3934 
L 425 3934 
z
M 425 0 
L 425 3319 
L 988 3319 
L 988 0 
L 425 0 
z
" transform="scale(0.015625)"/>
       <path id="ArialMT-6c" d="M 409 0 
L 409 4581 
L 972 4581 
L 972 0 
L 409 0 
z
" transform="scale(0.015625)"/>
       <path id="ArialMT-6f" d="M 213 1659 
Q 213 2581 725 3025 
Q 1153 3394 1769 3394 
Q 2453 3394 2887 2945 
Q 3322 2497 3322 1706 
Q 3322 1066 3130 698 
Q 2938 331 2570 128 
Q 2203 -75 1769 -75 
Q 1072 -75 642 372 
Q 213 819 213 1659 
z
M 791 1659 
Q 791 1022 1069 705 
Q 1347 388 1769 388 
Q 2188 388 2466 706 
Q 2744 1025 2744 1678 
Q 2744 2294 2464 2611 
Q 2184 2928 1769 2928 
Q 1347 2928 1069 2612 
Q 791 2297 791 1659 
z
" transform="scale(0.015625)"/>
       <path id="ArialMT-6e" d="M 422 0 
L 422 3319 
L 928 3319 
L 928 2847 
Q 1294 3394 1984 3394 
Q 2284 3394 2536 3286 
Q 2788 3178 2913 3003 
Q 3038 2828 3088 2588 
Q 3119 2431 3119 2041 
L 3119 0 
L 2556 0 
L 2556 2019 
Q 2556 2363 2490 2533 
Q 2425 2703 2258 2804 
Q 2091 2906 1866 2906 
Q 1506 2906 1245 2678 
Q 984 2450 984 1813 
L 984 0 
L 422 0 
z
" transform="scale(0.015625)"/>
       <path id="ArialMT-29" d="M 791 -1347 
L 388 -1347 
Q 1322 153 1322 1656 
Q 1322 2244 1188 2822 
Q 1081 3291 891 3722 
Q 769 4003 388 4659 
L 791 4659 
Q 1378 3875 1659 3084 
Q 1900 2403 1900 1659 
Q 1900 816 1576 28 
Q 1253 -759 791 -1347 
z
" transform="scale(0.015625)"/>
      </defs>
      <use xlink:href="#ArialMT-50"/>
      <use xlink:href="#ArialMT-61" x="66.699219"/>
      <use xlink:href="#ArialMT-72" x="122.314453"/>
      <use xlink:href="#ArialMT-61" x="155.615234"/>
      <use xlink:href="#ArialMT-6d" x="211.230469"/>
      <use xlink:href="#ArialMT-65" x="294.53125"/>
      <use xlink:href="#ArialMT-74" x="350.146484"/>
      <use xlink:href="#ArialMT-65" x="377.929688"/>
      <use xlink:href="#ArialMT-72" x="433.544922"/>
      <use xlink:href="#ArialMT-73" x="466.845703"/>
      <use xlink:href="#ArialMT-20" x="516.845703"/>
      <use xlink:href="#ArialMT-28" x="544.628906"/>
      <use xlink:href="#ArialMT-6d" x="577.929688"/>
      <use xlink:href="#ArialMT-69" x="661.230469"/>
      <use xlink:href="#ArialMT-6c" x="683.447266"/>
      <use xlink:href="#ArialMT-6c" x="705.664062"/>
      <use xlink:href="#ArialMT-69" x="727.880859"/>
      <use xlink:href="#ArialMT-6f" x="750.097656"/>
      <use xlink:href="#ArialMT-6e" x="805.712891"/>
      <use xlink:href="#ArialMT-73" x="861.328125"/>
      <use xlink:href="#ArialMT-29" x="911.328125"/>
     </g>
    </g>
   </g>
   <g id="matplotlib.axis_2">
    <g id="ytick_1">
     <g id="line2d_4">
      <path d="M 144 525.637709 
L 1036.8 525.637709 
" clip-path="url(#pe720142b46)" style="fill: none; stroke: #ffffff; stroke-width: 0.8; stroke-linecap: round"/>
     </g>
     <g id="text_5">
      <!-- 70 -->
      <g style="fill: #262626" transform="translate(125.878125 529.216615) scale(0.1 -0.1)">
       <use xlink:href="#ArialMT-37"/>
       <use xlink:href="#ArialMT-30" x="55.615234"/>
      </g>
     </g>
    </g>
    <g id="ytick_2">
     <g id="line2d_5">
      <path d="M 144 415.55131 
L 1036.8 415.55131 
" clip-path="url(#pe720142b46)" style="fill: none; stroke: #ffffff; stroke-width: 0.8; stroke-linecap: round"/>
     </g>
     <g id="text_6">
      <!-- 75 -->
      <g style="fill: #262626" transform="translate(125.878125 419.130216) scale(0.1 -0.1)">
       <use xlink:href="#ArialMT-37"/>
       <use xlink:href="#ArialMT-35" x="55.615234"/>
      </g>
     </g>
    </g>
    <g id="ytick_3">
     <g id="line2d_6">
      <path d="M 144 305.46491 
L 1036.8 305.46491 
" clip-path="url(#pe720142b46)" style="fill: none; stroke: #ffffff; stroke-width: 0.8; stroke-linecap: round"/>
     </g>
     <g id="text_7">
      <!-- 80 -->
      <g style="fill: #262626" transform="translate(125.878125 309.043816) scale(0.1 -0.1)">
       <defs>
        <path id="ArialMT-38" d="M 1131 2484 
Q 781 2613 612 2850 
Q 444 3088 444 3419 
Q 444 3919 803 4259 
Q 1163 4600 1759 4600 
Q 2359 4600 2725 4251 
Q 3091 3903 3091 3403 
Q 3091 3084 2923 2848 
Q 2756 2613 2416 2484 
Q 2838 2347 3058 2040 
Q 3278 1734 3278 1309 
Q 3278 722 2862 322 
Q 2447 -78 1769 -78 
Q 1091 -78 675 323 
Q 259 725 259 1325 
Q 259 1772 486 2073 
Q 713 2375 1131 2484 
z
M 1019 3438 
Q 1019 3113 1228 2906 
Q 1438 2700 1772 2700 
Q 2097 2700 2305 2904 
Q 2513 3109 2513 3406 
Q 2513 3716 2298 3927 
Q 2084 4138 1766 4138 
Q 1444 4138 1231 3931 
Q 1019 3725 1019 3438 
z
M 838 1322 
Q 838 1081 952 856 
Q 1066 631 1291 507 
Q 1516 384 1775 384 
Q 2178 384 2440 643 
Q 2703 903 2703 1303 
Q 2703 1709 2433 1975 
Q 2163 2241 1756 2241 
Q 1359 2241 1098 1978 
Q 838 1716 838 1322 
z
" transform="scale(0.015625)"/>
       </defs>
       <use xlink:href="#ArialMT-38"/>
       <use xlink:href="#ArialMT-30" x="55.615234"/>
      </g>
     </g>
    </g>
    <g id="ytick_4">
     <g id="line2d_7">
      <path d="M 144 195.378511 
L 1036.8 195.378511 
" clip-path="url(#pe720142b46)" style="fill: none; stroke: #ffffff; stroke-width: 0.8; stroke-linecap: round"/>
     </g>
     <g id="text_8">
      <!-- 85 -->
      <g style="fill: #262626" transform="translate(125.878125 198.957417) scale(0.1 -0.1)">
       <use xlink:href="#ArialMT-38"/>
       <use xlink:href="#ArialMT-35" x="55.615234"/>
      </g>
     </g>
    </g>
    <g id="ytick_5">
     <g id="line2d_8">
      <path d="M 144 85.292111 
L 1036.8 85.292111 
" clip-path="url(#pe720142b46)" style="fill: none; stroke: #ffffff; stroke-width: 0.8; stroke-linecap: round"/>
     </g>
     <g id="text_9">
      <!-- 90 -->
      <g style="fill: #262626" transform="translate(125.878125 88.871018) scale(0.1 -0.1)">
       <defs>
        <path id="ArialMT-39" d="M 350 1059 
L 891 1109 
Q 959 728 1153 556 
Q 1347 384 1650 384 
Q 1909 384 2104 503 
Q 2300 622 2425 820 
Q 2550 1019 2634 1356 
Q 2719 1694 2719 2044 
Q 2719 2081 2716 2156 
Q 2547 1888 2255 1720 
Q 1963 1553 1622 1553 
Q 1053 1553 659 1965 
Q 266 2378 266 3053 
Q 266 3750 677 4175 
Q 1088 4600 1706 4600 
Q 2153 4600 2523 4359 
Q 2894 4119 3086 3673 
Q 3278 3228 3278 2384 
Q 3278 1506 3087 986 
Q 2897 466 2520 194 
Q 2144 -78 1638 -78 
Q 1100 -78 759 220 
Q 419 519 350 1059 
z
M 2653 3081 
Q 2653 3566 2395 3850 
Q 2138 4134 1775 4134 
Q 1400 4134 1122 3828 
Q 844 3522 844 3034 
Q 844 2597 1108 2323 
Q 1372 2050 1759 2050 
Q 2150 2050 2401 2323 
Q 2653 2597 2653 3081 
z
" transform="scale(0.015625)"/>
       </defs>
       <use xlink:href="#ArialMT-39"/>
       <use xlink:href="#ArialMT-30" x="55.615234"/>
      </g>
     </g>
    </g>
    <g id="text_10">
     <!-- Accuracy (%) -->
     <g style="fill: #262626" transform="translate(119.773438 356.965781) rotate(-90) scale(0.1 -0.1)">
      <defs>
       <path id="ArialMT-41" d="M -9 0 
L 1750 4581 
L 2403 4581 
L 4278 0 
L 3588 0 
L 3053 1388 
L 1138 1388 
L 634 0 
L -9 0 
z
M 1313 1881 
L 2866 1881 
L 2388 3150 
Q 2169 3728 2063 4100 
Q 1975 3659 1816 3225 
L 1313 1881 
z
" transform="scale(0.015625)"/>
       <path id="ArialMT-63" d="M 2588 1216 
L 3141 1144 
Q 3050 572 2676 248 
Q 2303 -75 1759 -75 
Q 1078 -75 664 370 
Q 250 816 250 1647 
Q 250 2184 428 2587 
Q 606 2991 970 3192 
Q 1334 3394 1763 3394 
Q 2303 3394 2647 3120 
Q 2991 2847 3088 2344 
L 2541 2259 
Q 2463 2594 2264 2762 
Q 2066 2931 1784 2931 
Q 1359 2931 1093 2626 
Q 828 2322 828 1663 
Q 828 994 1084 691 
Q 1341 388 1753 388 
Q 2084 388 2306 591 
Q 2528 794 2588 1216 
z
" transform="scale(0.015625)"/>
       <path id="ArialMT-75" d="M 2597 0 
L 2597 488 
Q 2209 -75 1544 -75 
Q 1250 -75 995 37 
Q 741 150 617 320 
Q 494 491 444 738 
Q 409 903 409 1263 
L 409 3319 
L 972 3319 
L 972 1478 
Q 972 1038 1006 884 
Q 1059 663 1231 536 
Q 1403 409 1656 409 
Q 1909 409 2131 539 
Q 2353 669 2445 892 
Q 2538 1116 2538 1541 
L 2538 3319 
L 3100 3319 
L 3100 0 
L 2597 0 
z
" transform="scale(0.015625)"/>
       <path id="ArialMT-79" d="M 397 -1278 
L 334 -750 
Q 519 -800 656 -800 
Q 844 -800 956 -737 
Q 1069 -675 1141 -563 
Q 1194 -478 1313 -144 
Q 1328 -97 1363 -6 
L 103 3319 
L 709 3319 
L 1400 1397 
Q 1534 1031 1641 628 
Q 1738 1016 1872 1384 
L 2581 3319 
L 3144 3319 
L 1881 -56 
Q 1678 -603 1566 -809 
Q 1416 -1088 1222 -1217 
Q 1028 -1347 759 -1347 
Q 597 -1347 397 -1278 
z
" transform="scale(0.015625)"/>
       <path id="ArialMT-25" d="M 372 3481 
Q 372 3972 619 4315 
Q 866 4659 1334 4659 
Q 1766 4659 2048 4351 
Q 2331 4044 2331 3447 
Q 2331 2866 2045 2552 
Q 1759 2238 1341 2238 
Q 925 2238 648 2547 
Q 372 2856 372 3481 
z
M 1350 4272 
Q 1141 4272 1002 4090 
Q 863 3909 863 3425 
Q 863 2984 1003 2804 
Q 1144 2625 1350 2625 
Q 1563 2625 1702 2806 
Q 1841 2988 1841 3469 
Q 1841 3913 1700 4092 
Q 1559 4272 1350 4272 
z
M 1353 -169 
L 3859 4659 
L 4316 4659 
L 1819 -169 
L 1353 -169 
z
M 3334 1075 
Q 3334 1569 3581 1911 
Q 3828 2253 4300 2253 
Q 4731 2253 5014 1945 
Q 5297 1638 5297 1041 
Q 5297 459 5011 145 
Q 4725 -169 4303 -169 
Q 3888 -169 3611 142 
Q 3334 453 3334 1075 
z
M 4316 1866 
Q 4103 1866 3964 1684 
Q 3825 1503 3825 1019 
Q 3825 581 3965 400 
Q 4106 219 4313 219 
Q 4528 219 4667 400 
Q 4806 581 4806 1063 
Q 4806 1506 4665 1686 
Q 4525 1866 4316 1866 
z
" transform="scale(0.015625)"/>
      </defs>
      <use xlink:href="#ArialMT-41"/>
      <use xlink:href="#ArialMT-63" x="66.699219"/>
      <use xlink:href="#ArialMT-63" x="116.699219"/>
      <use xlink:href="#ArialMT-75" x="166.699219"/>
      <use xlink:href="#ArialMT-72" x="222.314453"/>
      <use xlink:href="#ArialMT-61" x="255.615234"/>
      <use xlink:href="#ArialMT-63" x="311.230469"/>
      <use xlink:href="#ArialMT-79" x="361.230469"/>
      <use xlink:href="#ArialMT-20" x="411.230469"/>
      <use xlink:href="#ArialMT-28" x="439.013672"/>
      <use xlink:href="#ArialMT-25" x="472.314453"/>
      <use xlink:href="#ArialMT-29" x="561.230469"/>
     </g>
    </g>
   </g>
   <g id="PathCollection_1">
    <path d="M 406.052801 212.909136 
C 407.064248 212.909136 408.034405 212.507284 408.749607 211.792082 
C 409.464808 211.076881 409.866661 210.106724 409.866661 209.095276 
C 409.866661 208.083829 409.464808 207.113671 408.749607 206.39847 
C 408.034405 205.683269 407.064248 205.281416 406.052801 205.281416 
C 405.041353 205.281416 404.071196 205.683269 403.355994 206.39847 
C 402.640793 207.113671 402.238941 208.083829 402.238941 209.095276 
C 402.238941 210.106724 402.640793 211.076881 403.355994 211.792082 
C 404.071196 212.507284 405.041353 212.909136 406.052801 212.909136 
z
" clip-path="url(#pe720142b46)" style="fill: #ecaa7d; stroke: #ffffff; stroke-width: 0.593964"/>
    <path d="M 325.998547 211.107021 
C 326.999192 211.107021 327.958988 210.709461 328.666551 210.001898 
C 329.374114 209.294335 329.771675 208.334539 329.771675 207.333894 
C 329.771675 206.333249 329.374114 205.373453 328.666551 204.66589 
C 327.958988 203.958327 326.999192 203.560766 325.998547 203.560766 
C 324.997902 203.560766 324.038106 203.958327 323.330543 204.66589 
C 322.62298 205.373453 322.22542 206.333249 322.22542 207.333894 
C 322.22542 208.334539 322.62298 209.294335 323.330543 210.001898 
C 324.038106 210.709461 324.997902 211.107021 325.998547 211.107021 
z
" clip-path="url(#pe720142b46)" style="fill: #edab7e; stroke: #ffffff; stroke-width: 0.593964"/>
    <path d="M 337.0199 258.711676 
C 338.02142 258.711676 338.982054 258.313768 339.690235 257.605587 
C 340.398416 256.897406 340.796323 255.936772 340.796323 254.935253 
C 340.796323 253.933734 340.398416 252.9731 339.690235 252.264919 
C 338.982054 251.556738 338.02142 251.15883 337.0199 251.15883 
C 336.018381 251.15883 335.057747 251.556738 334.349566 252.264919 
C 333.641385 252.9731 333.243478 253.933734 333.243478 254.935253 
C 333.243478 255.936772 333.641385 256.897406 334.349566 257.605587 
C 335.057747 258.313768 336.018381 258.711676 337.0199 258.711676 
z
" clip-path="url(#pe720142b46)" style="fill: #ecaa7d; stroke: #ffffff; stroke-width: 0.593964"/>
    <path d="M 341.615733 281.103258 
C 342.617254 281.103258 343.57789 280.705349 344.286073 279.997167 
C 344.994255 279.288984 345.392164 278.328348 345.392164 277.326827 
C 345.392164 276.325305 344.994255 275.364669 344.286073 274.656486 
C 343.57789 273.948304 342.617254 273.550395 341.615733 273.550395 
C 340.614211 273.550395 339.653575 273.948304 338.945393 274.656486 
C 338.23721 275.364669 337.839302 276.325305 337.839302 277.326827 
C 337.839302 278.328348 338.23721 279.288984 338.945393 279.997167 
C 339.653575 280.705349 340.614211 281.103258 341.615733 281.103258 
z
" clip-path="url(#pe720142b46)" style="fill: #ecaa7d; stroke: #ffffff; stroke-width: 0.593964"/>
    <path d="M 184.581818 557.736905 
C 185.562249 557.736905 186.502656 557.347376 187.195925 556.654106 
C 187.889194 555.960837 188.278723 555.020431 188.278723 554.04 
C 188.278723 553.059569 187.889194 552.119163 187.195925 551.425894 
C 186.502656 550.732624 185.562249 550.343095 184.581818 550.343095 
C 183.601388 550.343095 182.660981 550.732624 181.967712 551.425894 
C 181.274443 552.119163 180.884913 553.059569 180.884913 554.04 
C 180.884913 555.020431 181.274443 555.960837 181.967712 556.654106 
C 182.660981 557.347376 183.601388 557.736905 184.581818 557.736905 
z
" clip-path="url(#pe720142b46)" style="fill: #edad7f; stroke: #ffffff; stroke-width: 0.593964"/>
    <path d="M 271.689706 471.744847 
C 272.701304 471.744847 273.671606 471.342934 274.386914 470.627627 
C 275.102222 469.912319 275.504134 468.942017 275.504134 467.930418 
C 275.504134 466.91882 275.102222 465.948518 274.386914 465.23321 
C 273.671606 464.517902 272.701304 464.11599 271.689706 464.11599 
C 270.678108 464.11599 269.707806 464.517902 268.992498 465.23321 
C 268.27719 465.948518 267.875278 466.91882 267.875278 467.930418 
C 267.875278 468.942017 268.27719 469.912319 268.992498 470.627627 
C 269.707806 471.342934 270.678108 471.744847 271.689706 471.744847 
z
" clip-path="url(#pe720142b46)" style="fill: #ecaa7d; stroke: #ffffff; stroke-width: 0.593964"/>
    <path d="M 321.805048 124.007859 
C 322.846883 124.007859 323.846189 123.593933 324.582878 122.857244 
C 325.319567 122.120555 325.733493 121.12125 325.733493 120.079414 
C 325.733493 119.037578 325.319567 118.038272 324.582878 117.301583 
C 323.846189 116.564894 322.846883 116.150968 321.805048 116.150968 
C 320.763212 116.150968 319.763906 116.564894 319.027217 117.301583 
C 318.290528 118.038272 317.876602 119.037578 317.876602 120.079414 
C 317.876602 121.12125 318.290528 122.120555 319.027217 122.857244 
C 319.763906 123.593933 320.763212 124.007859 321.805048 124.007859 
z
" clip-path="url(#pe720142b46)" style="fill: #eca67b; stroke: #ffffff; stroke-width: 0.593964"/>
    <path d="M 419.167367 104.40718 
C 420.219475 104.40718 421.228634 103.989173 421.972587 103.24522 
C 422.71654 102.501267 423.134547 101.492108 423.134547 100.44 
C 423.134547 99.387892 422.71654 98.378733 421.972587 97.63478 
C 421.228634 96.890827 420.219475 96.47282 419.167367 96.47282 
C 418.115258 96.47282 417.1061 96.890827 416.362147 97.63478 
C 415.618194 98.378733 415.200187 99.387892 415.200187 100.44 
C 415.200187 101.492108 415.618194 102.501267 416.362147 103.24522 
C 417.1061 103.989173 418.115258 104.40718 419.167367 104.40718 
z
" clip-path="url(#pe720142b46)" style="fill: #eca57a; stroke: #ffffff; stroke-width: 0.593964"/>
    <path d="M 259.003407 304.758857 
C 260.054038 304.758857 261.061779 304.341436 261.804688 303.598528 
C 262.547596 302.85562 262.965017 301.847878 262.965017 300.797247 
C 262.965017 299.746616 262.547596 298.738874 261.804688 297.995966 
C 261.061779 297.253057 260.054038 296.835637 259.003407 296.835637 
C 257.952776 296.835637 256.945034 297.253057 256.202126 297.995966 
C 255.459217 298.738874 255.041797 299.746616 255.041797 300.797247 
C 255.041797 301.847878 255.459217 302.85562 256.202126 303.598528 
C 256.945034 304.341436 257.952776 304.758857 259.003407 304.758857 
z
" clip-path="url(#pe720142b46)" style="fill: #eca67b; stroke: #ffffff; stroke-width: 0.593964"/>
    <path d="M 249.793239 273.145427 
C 250.844768 273.145427 251.85337 272.72765 252.596913 271.984107 
C 253.340456 271.240564 253.758233 270.231962 253.758233 269.180433 
C 253.758233 268.128904 253.340456 267.120302 252.596913 266.376759 
C 251.85337 265.633216 250.844768 265.215439 249.793239 265.215439 
C 248.74171 265.215439 247.733108 265.633216 246.989565 266.376759 
C 246.246022 267.120302 245.828245 268.128904 245.828245 269.180433 
C 245.828245 270.231962 246.246022 271.240564 246.989565 271.984107 
C 247.733108 272.72765 248.74171 273.145427 249.793239 273.145427 
z
" clip-path="url(#pe720142b46)" style="fill: #eca67b; stroke: #ffffff; stroke-width: 0.593964"/>
    <path d="M 688.642124 332.889193 
C 689.579759 332.889193 690.479117 332.516667 691.142124 331.853659 
C 691.805132 331.190651 692.177658 330.291293 692.177658 329.353659 
C 692.177658 328.416024 691.805132 327.516667 691.142124 326.853659 
C 690.479117 326.190651 689.579759 325.818125 688.642124 325.818125 
C 687.70449 325.818125 686.805132 326.190651 686.142124 326.853659 
C 685.479117 327.516667 685.106591 328.416024 685.106591 329.353659 
C 685.106591 330.291293 685.479117 331.190651 686.142124 331.853659 
C 686.805132 332.516667 687.70449 332.889193 688.642124 332.889193 
z
" clip-path="url(#pe720142b46)" style="fill: #edb081; stroke: #ffffff; stroke-width: 0.593964"/>
    <path d="M 711.084662 416.228636 
C 712.210217 416.228636 713.289824 415.781448 714.085712 414.98556 
C 714.8816 414.189673 715.328788 413.110066 715.328788 411.98451 
C 715.328788 410.858955 714.8816 409.779348 714.085712 408.98346 
C 713.289824 408.187572 712.210217 407.740384 711.084662 407.740384 
C 709.959107 407.740384 708.8795 408.187572 708.083612 408.98346 
C 707.287724 409.779348 706.840536 410.858955 706.840536 411.98451 
C 706.840536 413.110066 707.287724 414.189673 708.083612 414.98556 
C 708.8795 415.781448 709.959107 416.228636 711.084662 416.228636 
z
" clip-path="url(#pe720142b46)" style="fill: #eb9e76; stroke: #ffffff; stroke-width: 0.593964"/>
    <path d="M 996.218182 299.208802 
C 998.69893 299.208802 1001.078406 298.223191 1002.83256 296.469037 
C 1004.586714 294.714883 1005.572325 292.335407 1005.572325 289.854659 
C 1005.572325 287.373911 1004.586714 284.994434 1002.83256 283.24028 
C 1001.078406 281.486127 998.69893 280.500515 996.218182 280.500515 
C 993.737434 280.500515 991.357957 281.486127 989.603804 283.24028 
C 987.84965 284.994434 986.864038 287.373911 986.864038 289.854659 
C 986.864038 292.335407 987.84965 294.714883 989.603804 296.469037 
C 991.357957 298.223191 993.737434 299.208802 996.218182 299.208802 
z
" clip-path="url(#pe720142b46)" style="fill: #4b2362; stroke: #ffffff; stroke-width: 0.593964"/>
   </g>
   <g id="line2d_9"/>
   <g id="line2d_10"/>
   <g id="line2d_11"/>
   <g id="line2d_12"/>
   <g id="line2d_13"/>
   <g id="patch_3">
    <path d="M 144 576.72 
L 144 77.76 
" style="fill: none; stroke: #ffffff; stroke-width: 0.8; stroke-linejoin: miter; stroke-linecap: square"/>
   </g>
   <g id="patch_4">
    <path d="M 1036.8 576.72 
L 1036.8 77.76 
" style="fill: none; stroke: #ffffff; stroke-width: 0.8; stroke-linejoin: miter; stroke-linecap: square"/>
   </g>
   <g id="patch_5">
    <path d="M 144 576.72 
L 1036.8 576.72 
" style="fill: none; stroke: #ffffff; stroke-width: 0.8; stroke-linejoin: miter; stroke-linecap: square"/>
   </g>
   <g id="patch_6">
    <path d="M 144 77.76 
L 1036.8 77.76 
" style="fill: none; stroke: #ffffff; stroke-width: 0.8; stroke-linejoin: miter; stroke-linecap: square"/>
   </g>
   <g id="text_11">
    <!-- MobileLookNet -->
    <g style="fill: #262626" transform="translate(409.388197 212.397868) scale(0.1 -0.1)">
     <defs>
      <path id="ArialMT-4d" d="M 475 0 
L 475 4581 
L 1388 4581 
L 2472 1338 
Q 2622 884 2691 659 
Q 2769 909 2934 1394 
L 4031 4581 
L 4847 4581 
L 4847 0 
L 4263 0 
L 4263 3834 
L 2931 0 
L 2384 0 
L 1059 3900 
L 1059 0 
L 475 0 
z
" transform="scale(0.015625)"/>
      <path id="ArialMT-62" d="M 941 0 
L 419 0 
L 419 4581 
L 981 4581 
L 981 2947 
Q 1338 3394 1891 3394 
Q 2197 3394 2470 3270 
Q 2744 3147 2920 2923 
Q 3097 2700 3197 2384 
Q 3297 2069 3297 1709 
Q 3297 856 2875 390 
Q 2453 -75 1863 -75 
Q 1275 -75 941 416 
L 941 0 
z
M 934 1684 
Q 934 1088 1097 822 
Q 1363 388 1816 388 
Q 2184 388 2453 708 
Q 2722 1028 2722 1663 
Q 2722 2313 2464 2622 
Q 2206 2931 1841 2931 
Q 1472 2931 1203 2611 
Q 934 2291 934 1684 
z
" transform="scale(0.015625)"/>
      <path id="ArialMT-4c" d="M 469 0 
L 469 4581 
L 1075 4581 
L 1075 541 
L 3331 541 
L 3331 0 
L 469 0 
z
" transform="scale(0.015625)"/>
      <path id="ArialMT-6b" d="M 425 0 
L 425 4581 
L 988 4581 
L 988 1969 
L 2319 3319 
L 3047 3319 
L 1778 2088 
L 3175 0 
L 2481 0 
L 1384 1697 
L 988 1316 
L 988 0 
L 425 0 
z
" transform="scale(0.015625)"/>
      <path id="ArialMT-4e" d="M 488 0 
L 488 4581 
L 1109 4581 
L 3516 984 
L 3516 4581 
L 4097 4581 
L 4097 0 
L 3475 0 
L 1069 3600 
L 1069 0 
L 488 0 
z
" transform="scale(0.015625)"/>
     </defs>
     <use xlink:href="#ArialMT-4d"/>
     <use xlink:href="#ArialMT-6f" x="83.300781"/>
     <use xlink:href="#ArialMT-62" x="138.916016"/>
     <use xlink:href="#ArialMT-69" x="194.53125"/>
     <use xlink:href="#ArialMT-6c" x="216.748047"/>
     <use xlink:href="#ArialMT-65" x="238.964844"/>
     <use xlink:href="#ArialMT-4c" x="294.580078"/>
     <use xlink:href="#ArialMT-6f" x="350.195312"/>
     <use xlink:href="#ArialMT-6f" x="405.810547"/>
     <use xlink:href="#ArialMT-6b" x="461.425781"/>
     <use xlink:href="#ArialMT-4e" x="511.425781"/>
     <use xlink:href="#ArialMT-65" x="583.642578"/>
     <use xlink:href="#ArialMT-74" x="639.257812"/>
    </g>
   </g>
   <g id="text_12">
    <!-- MobileLookNet + FF -->
    <g style="fill: #262626" transform="translate(332.381902 210.636486) scale(0.1 -0.1)">
     <defs>
      <path id="ArialMT-2b" d="M 1603 741 
L 1603 1997 
L 356 1997 
L 356 2522 
L 1603 2522 
L 1603 3769 
L 2134 3769 
L 2134 2522 
L 3381 2522 
L 3381 1997 
L 2134 1997 
L 2134 741 
L 1603 741 
z
" transform="scale(0.015625)"/>
      <path id="ArialMT-46" d="M 525 0 
L 525 4581 
L 3616 4581 
L 3616 4041 
L 1131 4041 
L 1131 2622 
L 3281 2622 
L 3281 2081 
L 1131 2081 
L 1131 0 
L 525 0 
z
" transform="scale(0.015625)"/>
     </defs>
     <use xlink:href="#ArialMT-4d"/>
     <use xlink:href="#ArialMT-6f" x="83.300781"/>
     <use xlink:href="#ArialMT-62" x="138.916016"/>
     <use xlink:href="#ArialMT-69" x="194.53125"/>
     <use xlink:href="#ArialMT-6c" x="216.748047"/>
     <use xlink:href="#ArialMT-65" x="238.964844"/>
     <use xlink:href="#ArialMT-4c" x="294.580078"/>
     <use xlink:href="#ArialMT-6f" x="350.195312"/>
     <use xlink:href="#ArialMT-6f" x="405.810547"/>
     <use xlink:href="#ArialMT-6b" x="461.425781"/>
     <use xlink:href="#ArialMT-4e" x="511.425781"/>
     <use xlink:href="#ArialMT-65" x="583.642578"/>
     <use xlink:href="#ArialMT-74" x="639.257812"/>
     <use xlink:href="#ArialMT-20" x="667.041016"/>
     <use xlink:href="#ArialMT-2b" x="694.824219"/>
     <use xlink:href="#ArialMT-20" x="753.222656"/>
     <use xlink:href="#ArialMT-46" x="781.005859"/>
     <use xlink:href="#ArialMT-46" x="842.089844"/>
    </g>
   </g>
   <g id="text_13">
    <!-- MobileLookNet + A -->
    <g style="fill: #262626" transform="translate(342.860571 258.237845) scale(0.1 -0.1)">
     <use xlink:href="#ArialMT-4d"/>
     <use xlink:href="#ArialMT-6f" x="83.300781"/>
     <use xlink:href="#ArialMT-62" x="138.916016"/>
     <use xlink:href="#ArialMT-69" x="194.53125"/>
     <use xlink:href="#ArialMT-6c" x="216.748047"/>
     <use xlink:href="#ArialMT-65" x="238.964844"/>
     <use xlink:href="#ArialMT-4c" x="294.580078"/>
     <use xlink:href="#ArialMT-6f" x="350.195312"/>
     <use xlink:href="#ArialMT-6f" x="405.810547"/>
     <use xlink:href="#ArialMT-6b" x="461.425781"/>
     <use xlink:href="#ArialMT-4e" x="511.425781"/>
     <use xlink:href="#ArialMT-65" x="583.642578"/>
     <use xlink:href="#ArialMT-74" x="639.257812"/>
     <use xlink:href="#ArialMT-20" x="667.041016"/>
     <use xlink:href="#ArialMT-2b" x="694.824219"/>
     <use xlink:href="#ArialMT-20" x="753.222656"/>
     <use xlink:href="#ArialMT-41" x="775.505859"/>
    </g>
   </g>
   <g id="text_14">
    <!-- MobileLookNet + FF + A -->
    <g style="fill: #262626" transform="translate(347.24365 280.629419) scale(0.1 -0.1)">
     <use xlink:href="#ArialMT-4d"/>
     <use xlink:href="#ArialMT-6f" x="83.300781"/>
     <use xlink:href="#ArialMT-62" x="138.916016"/>
     <use xlink:href="#ArialMT-69" x="194.53125"/>
     <use xlink:href="#ArialMT-6c" x="216.748047"/>
     <use xlink:href="#ArialMT-65" x="238.964844"/>
     <use xlink:href="#ArialMT-4c" x="294.580078"/>
     <use xlink:href="#ArialMT-6f" x="350.195312"/>
     <use xlink:href="#ArialMT-6f" x="405.810547"/>
     <use xlink:href="#ArialMT-6b" x="461.425781"/>
     <use xlink:href="#ArialMT-4e" x="511.425781"/>
     <use xlink:href="#ArialMT-65" x="583.642578"/>
     <use xlink:href="#ArialMT-74" x="639.257812"/>
     <use xlink:href="#ArialMT-20" x="667.041016"/>
     <use xlink:href="#ArialMT-2b" x="694.824219"/>
     <use xlink:href="#ArialMT-20" x="753.222656"/>
     <use xlink:href="#ArialMT-46" x="781.005859"/>
     <use xlink:href="#ArialMT-46" x="842.089844"/>
     <use xlink:href="#ArialMT-20" x="903.173828"/>
     <use xlink:href="#ArialMT-2b" x="930.957031"/>
     <use xlink:href="#ArialMT-20" x="989.355469"/>
     <use xlink:href="#ArialMT-41" x="1011.638672"/>
    </g>
   </g>
   <g id="text_15">
    <!-- MobileLookNet w/ 1 rep/group -->
    <g style="fill: #262626" transform="translate(204.030515 557.342592) scale(0.1 -0.1)">
     <defs>
      <path id="ArialMT-77" d="M 1034 0 
L 19 3319 
L 600 3319 
L 1128 1403 
L 1325 691 
Q 1338 744 1497 1375 
L 2025 3319 
L 2603 3319 
L 3100 1394 
L 3266 759 
L 3456 1400 
L 4025 3319 
L 4572 3319 
L 3534 0 
L 2950 0 
L 2422 1988 
L 2294 2553 
L 1622 0 
L 1034 0 
z
" transform="scale(0.015625)"/>
      <path id="ArialMT-2f" d="M 0 -78 
L 1328 4659 
L 1778 4659 
L 453 -78 
L 0 -78 
z
" transform="scale(0.015625)"/>
      <path id="ArialMT-70" d="M 422 -1272 
L 422 3319 
L 934 3319 
L 934 2888 
Q 1116 3141 1344 3267 
Q 1572 3394 1897 3394 
Q 2322 3394 2647 3175 
Q 2972 2956 3137 2557 
Q 3303 2159 3303 1684 
Q 3303 1175 3120 767 
Q 2938 359 2589 142 
Q 2241 -75 1856 -75 
Q 1575 -75 1351 44 
Q 1128 163 984 344 
L 984 -1272 
L 422 -1272 
z
M 931 1641 
Q 931 1000 1190 694 
Q 1450 388 1819 388 
Q 2194 388 2461 705 
Q 2728 1022 2728 1688 
Q 2728 2322 2467 2637 
Q 2206 2953 1844 2953 
Q 1484 2953 1207 2617 
Q 931 2281 931 1641 
z
" transform="scale(0.015625)"/>
      <path id="ArialMT-67" d="M 319 -275 
L 866 -356 
Q 900 -609 1056 -725 
Q 1266 -881 1628 -881 
Q 2019 -881 2231 -725 
Q 2444 -569 2519 -288 
Q 2563 -116 2559 434 
Q 2191 0 1641 0 
Q 956 0 581 494 
Q 206 988 206 1678 
Q 206 2153 378 2554 
Q 550 2956 876 3175 
Q 1203 3394 1644 3394 
Q 2231 3394 2613 2919 
L 2613 3319 
L 3131 3319 
L 3131 450 
Q 3131 -325 2973 -648 
Q 2816 -972 2473 -1159 
Q 2131 -1347 1631 -1347 
Q 1038 -1347 672 -1080 
Q 306 -813 319 -275 
z
M 784 1719 
Q 784 1066 1043 766 
Q 1303 466 1694 466 
Q 2081 466 2343 764 
Q 2606 1063 2606 1700 
Q 2606 2309 2336 2618 
Q 2066 2928 1684 2928 
Q 1309 2928 1046 2623 
Q 784 2319 784 1719 
z
" transform="scale(0.015625)"/>
     </defs>
     <use xlink:href="#ArialMT-4d"/>
     <use xlink:href="#ArialMT-6f" x="83.300781"/>
     <use xlink:href="#ArialMT-62" x="138.916016"/>
     <use xlink:href="#ArialMT-69" x="194.53125"/>
     <use xlink:href="#ArialMT-6c" x="216.748047"/>
     <use xlink:href="#ArialMT-65" x="238.964844"/>
     <use xlink:href="#ArialMT-4c" x="294.580078"/>
     <use xlink:href="#ArialMT-6f" x="350.195312"/>
     <use xlink:href="#ArialMT-6f" x="405.810547"/>
     <use xlink:href="#ArialMT-6b" x="461.425781"/>
     <use xlink:href="#ArialMT-4e" x="511.425781"/>
     <use xlink:href="#ArialMT-65" x="583.642578"/>
     <use xlink:href="#ArialMT-74" x="639.257812"/>
     <use xlink:href="#ArialMT-20" x="667.041016"/>
     <use xlink:href="#ArialMT-77" x="694.824219"/>
     <use xlink:href="#ArialMT-2f" x="767.041016"/>
     <use xlink:href="#ArialMT-20" x="794.824219"/>
     <use xlink:href="#ArialMT-31" x="822.607422"/>
     <use xlink:href="#ArialMT-20" x="878.222656"/>
     <use xlink:href="#ArialMT-72" x="906.005859"/>
     <use xlink:href="#ArialMT-65" x="939.306641"/>
     <use xlink:href="#ArialMT-70" x="994.921875"/>
     <use xlink:href="#ArialMT-2f" x="1050.537109"/>
     <use xlink:href="#ArialMT-67" x="1078.320312"/>
     <use xlink:href="#ArialMT-72" x="1133.935547"/>
     <use xlink:href="#ArialMT-6f" x="1167.236328"/>
     <use xlink:href="#ArialMT-75" x="1222.851562"/>
     <use xlink:href="#ArialMT-70" x="1278.466797"/>
    </g>
   </g>
   <g id="text_16">
    <!-- MobileLookNet w/ 2 reps/group -->
    <g style="fill: #262626" transform="translate(281.546222 471.23301) scale(0.1 -0.1)">
     <defs>
      <path id="ArialMT-32" d="M 3222 541 
L 3222 0 
L 194 0 
Q 188 203 259 391 
Q 375 700 629 1000 
Q 884 1300 1366 1694 
Q 2113 2306 2375 2664 
Q 2638 3022 2638 3341 
Q 2638 3675 2398 3904 
Q 2159 4134 1775 4134 
Q 1369 4134 1125 3890 
Q 881 3647 878 3216 
L 300 3275 
Q 359 3922 746 4261 
Q 1134 4600 1788 4600 
Q 2447 4600 2831 4234 
Q 3216 3869 3216 3328 
Q 3216 3053 3103 2787 
Q 2991 2522 2730 2228 
Q 2469 1934 1863 1422 
Q 1356 997 1212 845 
Q 1069 694 975 541 
L 3222 541 
z
" transform="scale(0.015625)"/>
     </defs>
     <use xlink:href="#ArialMT-4d"/>
     <use xlink:href="#ArialMT-6f" x="83.300781"/>
     <use xlink:href="#ArialMT-62" x="138.916016"/>
     <use xlink:href="#ArialMT-69" x="194.53125"/>
     <use xlink:href="#ArialMT-6c" x="216.748047"/>
     <use xlink:href="#ArialMT-65" x="238.964844"/>
     <use xlink:href="#ArialMT-4c" x="294.580078"/>
     <use xlink:href="#ArialMT-6f" x="350.195312"/>
     <use xlink:href="#ArialMT-6f" x="405.810547"/>
     <use xlink:href="#ArialMT-6b" x="461.425781"/>
     <use xlink:href="#ArialMT-4e" x="511.425781"/>
     <use xlink:href="#ArialMT-65" x="583.642578"/>
     <use xlink:href="#ArialMT-74" x="639.257812"/>
     <use xlink:href="#ArialMT-20" x="667.041016"/>
     <use xlink:href="#ArialMT-77" x="694.824219"/>
     <use xlink:href="#ArialMT-2f" x="767.041016"/>
     <use xlink:href="#ArialMT-20" x="794.824219"/>
     <use xlink:href="#ArialMT-32" x="822.607422"/>
     <use xlink:href="#ArialMT-20" x="878.222656"/>
     <use xlink:href="#ArialMT-72" x="906.005859"/>
     <use xlink:href="#ArialMT-65" x="939.306641"/>
     <use xlink:href="#ArialMT-70" x="994.921875"/>
     <use xlink:href="#ArialMT-73" x="1050.537109"/>
     <use xlink:href="#ArialMT-2f" x="1100.537109"/>
     <use xlink:href="#ArialMT-67" x="1128.320312"/>
     <use xlink:href="#ArialMT-72" x="1183.935547"/>
     <use xlink:href="#ArialMT-6f" x="1217.236328"/>
     <use xlink:href="#ArialMT-75" x="1272.851562"/>
     <use xlink:href="#ArialMT-70" x="1328.466797"/>
    </g>
   </g>
   <g id="text_17">
    <!-- MobileLookNet w/ 3 reps/group -->
    <g style="fill: #262626" transform="translate(328.407535 123.382006) scale(0.1 -0.1)">
     <defs>
      <path id="ArialMT-33" d="M 269 1209 
L 831 1284 
Q 928 806 1161 595 
Q 1394 384 1728 384 
Q 2125 384 2398 659 
Q 2672 934 2672 1341 
Q 2672 1728 2419 1979 
Q 2166 2231 1775 2231 
Q 1616 2231 1378 2169 
L 1441 2663 
Q 1497 2656 1531 2656 
Q 1891 2656 2178 2843 
Q 2466 3031 2466 3422 
Q 2466 3731 2256 3934 
Q 2047 4138 1716 4138 
Q 1388 4138 1169 3931 
Q 950 3725 888 3313 
L 325 3413 
Q 428 3978 793 4289 
Q 1159 4600 1703 4600 
Q 2078 4600 2393 4439 
Q 2709 4278 2876 4000 
Q 3044 3722 3044 3409 
Q 3044 3113 2884 2869 
Q 2725 2625 2413 2481 
Q 2819 2388 3044 2092 
Q 3269 1797 3269 1353 
Q 3269 753 2831 336 
Q 2394 -81 1725 -81 
Q 1122 -81 723 278 
Q 325 638 269 1209 
z
" transform="scale(0.015625)"/>
     </defs>
     <use xlink:href="#ArialMT-4d"/>
     <use xlink:href="#ArialMT-6f" x="83.300781"/>
     <use xlink:href="#ArialMT-62" x="138.916016"/>
     <use xlink:href="#ArialMT-69" x="194.53125"/>
     <use xlink:href="#ArialMT-6c" x="216.748047"/>
     <use xlink:href="#ArialMT-65" x="238.964844"/>
     <use xlink:href="#ArialMT-4c" x="294.580078"/>
     <use xlink:href="#ArialMT-6f" x="350.195312"/>
     <use xlink:href="#ArialMT-6f" x="405.810547"/>
     <use xlink:href="#ArialMT-6b" x="461.425781"/>
     <use xlink:href="#ArialMT-4e" x="511.425781"/>
     <use xlink:href="#ArialMT-65" x="583.642578"/>
     <use xlink:href="#ArialMT-74" x="639.257812"/>
     <use xlink:href="#ArialMT-20" x="667.041016"/>
     <use xlink:href="#ArialMT-77" x="694.824219"/>
     <use xlink:href="#ArialMT-2f" x="767.041016"/>
     <use xlink:href="#ArialMT-20" x="794.824219"/>
     <use xlink:href="#ArialMT-33" x="822.607422"/>
     <use xlink:href="#ArialMT-20" x="878.222656"/>
     <use xlink:href="#ArialMT-72" x="906.005859"/>
     <use xlink:href="#ArialMT-65" x="939.306641"/>
     <use xlink:href="#ArialMT-70" x="994.921875"/>
     <use xlink:href="#ArialMT-73" x="1050.537109"/>
     <use xlink:href="#ArialMT-2f" x="1100.537109"/>
     <use xlink:href="#ArialMT-67" x="1128.320312"/>
     <use xlink:href="#ArialMT-72" x="1183.935547"/>
     <use xlink:href="#ArialMT-6f" x="1217.236328"/>
     <use xlink:href="#ArialMT-75" x="1272.851562"/>
     <use xlink:href="#ArialMT-70" x="1328.466797"/>
    </g>
   </g>
   <g id="text_18">
    <!-- MobileLookNet Deep -->
    <g style="fill: #262626" transform="translate(422.164279 103.742592) scale(0.1 -0.1)">
     <defs>
      <path id="ArialMT-44" d="M 494 0 
L 494 4581 
L 2072 4581 
Q 2606 4581 2888 4516 
Q 3281 4425 3559 4188 
Q 3922 3881 4101 3404 
Q 4281 2928 4281 2316 
Q 4281 1794 4159 1391 
Q 4038 988 3847 723 
Q 3656 459 3429 307 
Q 3203 156 2883 78 
Q 2563 0 2147 0 
L 494 0 
z
M 1100 541 
L 2078 541 
Q 2531 541 2789 625 
Q 3047 709 3200 863 
Q 3416 1078 3536 1442 
Q 3656 1806 3656 2325 
Q 3656 3044 3420 3430 
Q 3184 3816 2847 3947 
Q 2603 4041 2063 4041 
L 1100 4041 
L 1100 541 
z
" transform="scale(0.015625)"/>
     </defs>
     <use xlink:href="#ArialMT-4d"/>
     <use xlink:href="#ArialMT-6f" x="83.300781"/>
     <use xlink:href="#ArialMT-62" x="138.916016"/>
     <use xlink:href="#ArialMT-69" x="194.53125"/>
     <use xlink:href="#ArialMT-6c" x="216.748047"/>
     <use xlink:href="#ArialMT-65" x="238.964844"/>
     <use xlink:href="#ArialMT-4c" x="294.580078"/>
     <use xlink:href="#ArialMT-6f" x="350.195312"/>
     <use xlink:href="#ArialMT-6f" x="405.810547"/>
     <use xlink:href="#ArialMT-6b" x="461.425781"/>
     <use xlink:href="#ArialMT-4e" x="511.425781"/>
     <use xlink:href="#ArialMT-65" x="583.642578"/>
     <use xlink:href="#ArialMT-74" x="639.257812"/>
     <use xlink:href="#ArialMT-20" x="667.041016"/>
     <use xlink:href="#ArialMT-44" x="694.824219"/>
     <use xlink:href="#ArialMT-65" x="767.041016"/>
     <use xlink:href="#ArialMT-65" x="822.65625"/>
     <use xlink:href="#ArialMT-70" x="878.271484"/>
    </g>
   </g>
   <g id="text_19">
    <!-- MobileLookNet Rev Groups -->
    <g style="fill: #262626" transform="translate(269.902043 304.099839) scale(0.1 -0.1)">
     <defs>
      <path id="ArialMT-52" d="M 503 0 
L 503 4581 
L 2534 4581 
Q 3147 4581 3465 4457 
Q 3784 4334 3975 4021 
Q 4166 3709 4166 3331 
Q 4166 2844 3850 2509 
Q 3534 2175 2875 2084 
Q 3116 1969 3241 1856 
Q 3506 1613 3744 1247 
L 4541 0 
L 3778 0 
L 3172 953 
Q 2906 1366 2734 1584 
Q 2563 1803 2427 1890 
Q 2291 1978 2150 2013 
Q 2047 2034 1813 2034 
L 1109 2034 
L 1109 0 
L 503 0 
z
M 1109 2559 
L 2413 2559 
Q 2828 2559 3062 2645 
Q 3297 2731 3419 2920 
Q 3541 3109 3541 3331 
Q 3541 3656 3305 3865 
Q 3069 4075 2559 4075 
L 1109 4075 
L 1109 2559 
z
" transform="scale(0.015625)"/>
      <path id="ArialMT-76" d="M 1344 0 
L 81 3319 
L 675 3319 
L 1388 1331 
Q 1503 1009 1600 663 
Q 1675 925 1809 1294 
L 2547 3319 
L 3125 3319 
L 1869 0 
L 1344 0 
z
" transform="scale(0.015625)"/>
      <path id="ArialMT-47" d="M 2638 1797 
L 2638 2334 
L 4578 2338 
L 4578 638 
Q 4131 281 3656 101 
Q 3181 -78 2681 -78 
Q 2006 -78 1454 211 
Q 903 500 622 1047 
Q 341 1594 341 2269 
Q 341 2938 620 3517 
Q 900 4097 1425 4378 
Q 1950 4659 2634 4659 
Q 3131 4659 3532 4498 
Q 3934 4338 4162 4050 
Q 4391 3763 4509 3300 
L 3963 3150 
Q 3859 3500 3706 3700 
Q 3553 3900 3268 4020 
Q 2984 4141 2638 4141 
Q 2222 4141 1919 4014 
Q 1616 3888 1430 3681 
Q 1244 3475 1141 3228 
Q 966 2803 966 2306 
Q 966 1694 1177 1281 
Q 1388 869 1791 669 
Q 2194 469 2647 469 
Q 3041 469 3416 620 
Q 3791 772 3984 944 
L 3984 1797 
L 2638 1797 
z
" transform="scale(0.015625)"/>
     </defs>
     <use xlink:href="#ArialMT-4d"/>
     <use xlink:href="#ArialMT-6f" x="83.300781"/>
     <use xlink:href="#ArialMT-62" x="138.916016"/>
     <use xlink:href="#ArialMT-69" x="194.53125"/>
     <use xlink:href="#ArialMT-6c" x="216.748047"/>
     <use xlink:href="#ArialMT-65" x="238.964844"/>
     <use xlink:href="#ArialMT-4c" x="294.580078"/>
     <use xlink:href="#ArialMT-6f" x="350.195312"/>
     <use xlink:href="#ArialMT-6f" x="405.810547"/>
     <use xlink:href="#ArialMT-6b" x="461.425781"/>
     <use xlink:href="#ArialMT-4e" x="511.425781"/>
     <use xlink:href="#ArialMT-65" x="583.642578"/>
     <use xlink:href="#ArialMT-74" x="639.257812"/>
     <use xlink:href="#ArialMT-20" x="667.041016"/>
     <use xlink:href="#ArialMT-52" x="694.824219"/>
     <use xlink:href="#ArialMT-65" x="767.041016"/>
     <use xlink:href="#ArialMT-76" x="822.65625"/>
     <use xlink:href="#ArialMT-20" x="872.65625"/>
     <use xlink:href="#ArialMT-47" x="900.439453"/>
     <use xlink:href="#ArialMT-72" x="978.222656"/>
     <use xlink:href="#ArialMT-6f" x="1011.523438"/>
     <use xlink:href="#ArialMT-75" x="1067.138672"/>
     <use xlink:href="#ArialMT-70" x="1122.753906"/>
     <use xlink:href="#ArialMT-73" x="1178.369141"/>
    </g>
   </g>
   <g id="text_20">
    <!-- MobileLookNet Rev Reps -->
    <g style="fill: #262626" transform="translate(261.513582 272.483025) scale(0.1 -0.1)">
     <use xlink:href="#ArialMT-4d"/>
     <use xlink:href="#ArialMT-6f" x="83.300781"/>
     <use xlink:href="#ArialMT-62" x="138.916016"/>
     <use xlink:href="#ArialMT-69" x="194.53125"/>
     <use xlink:href="#ArialMT-6c" x="216.748047"/>
     <use xlink:href="#ArialMT-65" x="238.964844"/>
     <use xlink:href="#ArialMT-4c" x="294.580078"/>
     <use xlink:href="#ArialMT-6f" x="350.195312"/>
     <use xlink:href="#ArialMT-6f" x="405.810547"/>
     <use xlink:href="#ArialMT-6b" x="461.425781"/>
     <use xlink:href="#ArialMT-4e" x="511.425781"/>
     <use xlink:href="#ArialMT-65" x="583.642578"/>
     <use xlink:href="#ArialMT-74" x="639.257812"/>
     <use xlink:href="#ArialMT-20" x="667.041016"/>
     <use xlink:href="#ArialMT-52" x="694.824219"/>
     <use xlink:href="#ArialMT-65" x="767.041016"/>
     <use xlink:href="#ArialMT-76" x="822.65625"/>
     <use xlink:href="#ArialMT-20" x="872.65625"/>
     <use xlink:href="#ArialMT-52" x="900.439453"/>
     <use xlink:href="#ArialMT-65" x="972.65625"/>
     <use xlink:href="#ArialMT-70" x="1028.271484"/>
     <use xlink:href="#ArialMT-73" x="1083.886719"/>
    </g>
   </g>
   <g id="text_21">
    <!-- Base CNN -->
    <g style="fill: #262626" transform="translate(688.968723 332.656251) scale(0.1 -0.1)">
     <defs>
      <path id="ArialMT-42" d="M 469 0 
L 469 4581 
L 2188 4581 
Q 2713 4581 3030 4442 
Q 3347 4303 3526 4014 
Q 3706 3725 3706 3409 
Q 3706 3116 3547 2856 
Q 3388 2597 3066 2438 
Q 3481 2316 3704 2022 
Q 3928 1728 3928 1328 
Q 3928 1006 3792 729 
Q 3656 453 3456 303 
Q 3256 153 2954 76 
Q 2653 0 2216 0 
L 469 0 
z
M 1075 2656 
L 2066 2656 
Q 2469 2656 2644 2709 
Q 2875 2778 2992 2937 
Q 3109 3097 3109 3338 
Q 3109 3566 3000 3739 
Q 2891 3913 2687 3977 
Q 2484 4041 1991 4041 
L 1075 4041 
L 1075 2656 
z
M 1075 541 
L 2216 541 
Q 2509 541 2628 563 
Q 2838 600 2978 687 
Q 3119 775 3209 942 
Q 3300 1109 3300 1328 
Q 3300 1584 3169 1773 
Q 3038 1963 2805 2039 
Q 2572 2116 2134 2116 
L 1075 2116 
L 1075 541 
z
" transform="scale(0.015625)"/>
      <path id="ArialMT-43" d="M 3763 1606 
L 4369 1453 
Q 4178 706 3683 314 
Q 3188 -78 2472 -78 
Q 1731 -78 1267 223 
Q 803 525 561 1097 
Q 319 1669 319 2325 
Q 319 3041 592 3573 
Q 866 4106 1370 4382 
Q 1875 4659 2481 4659 
Q 3169 4659 3637 4309 
Q 4106 3959 4291 3325 
L 3694 3184 
Q 3534 3684 3231 3912 
Q 2928 4141 2469 4141 
Q 1941 4141 1586 3887 
Q 1231 3634 1087 3207 
Q 944 2781 944 2328 
Q 944 1744 1114 1308 
Q 1284 872 1643 656 
Q 2003 441 2422 441 
Q 2931 441 3284 734 
Q 3638 1028 3763 1606 
z
" transform="scale(0.015625)"/>
     </defs>
     <use xlink:href="#ArialMT-42"/>
     <use xlink:href="#ArialMT-61" x="66.699219"/>
     <use xlink:href="#ArialMT-73" x="122.314453"/>
     <use xlink:href="#ArialMT-65" x="172.314453"/>
     <use xlink:href="#ArialMT-20" x="227.929688"/>
     <use xlink:href="#ArialMT-43" x="255.712891"/>
     <use xlink:href="#ArialMT-4e" x="327.929688"/>
     <use xlink:href="#ArialMT-4e" x="400.146484"/>
    </g>
   </g>
   <g id="text_22">
    <!-- MobileNetV2 -->
    <g style="fill: #262626" transform="translate(711.356019 415.287102) scale(0.1 -0.1)">
     <defs>
      <path id="ArialMT-56" d="M 1803 0 
L 28 4581 
L 684 4581 
L 1875 1253 
Q 2019 853 2116 503 
Q 2222 878 2363 1253 
L 3600 4581 
L 4219 4581 
L 2425 0 
L 1803 0 
z
" transform="scale(0.015625)"/>
     </defs>
     <use xlink:href="#ArialMT-4d"/>
     <use xlink:href="#ArialMT-6f" x="83.300781"/>
     <use xlink:href="#ArialMT-62" x="138.916016"/>
     <use xlink:href="#ArialMT-69" x="194.53125"/>
     <use xlink:href="#ArialMT-6c" x="216.748047"/>
     <use xlink:href="#ArialMT-65" x="238.964844"/>
     <use xlink:href="#ArialMT-4e" x="294.580078"/>
     <use xlink:href="#ArialMT-65" x="366.796875"/>
     <use xlink:href="#ArialMT-74" x="422.412109"/>
     <use xlink:href="#ArialMT-56" x="450.195312"/>
     <use xlink:href="#ArialMT-32" x="516.894531"/>
    </g>
   </g>
   <g id="text_23">
    <!-- ResNet50 -->
    <g style="fill: #262626" transform="translate(996.243903 293.157251) scale(0.1 -0.1)">
     <use xlink:href="#ArialMT-52"/>
     <use xlink:href="#ArialMT-65" x="72.216797"/>
     <use xlink:href="#ArialMT-73" x="127.832031"/>
     <use xlink:href="#ArialMT-4e" x="177.832031"/>
     <use xlink:href="#ArialMT-65" x="250.048828"/>
     <use xlink:href="#ArialMT-74" x="305.664062"/>
     <use xlink:href="#ArialMT-35" x="333.447266"/>
     <use xlink:href="#ArialMT-30" x="389.0625"/>
    </g>
   </g>
   <g id="legend_1">
    <g id="patch_7">
     <path d="M 151 170.877188 
L 228.89375 170.877188 
Q 230.89375 170.877188 230.89375 168.877188 
L 230.89375 84.76 
Q 230.89375 82.76 228.89375 82.76 
L 151 82.76 
Q 149 82.76 149 84.76 
L 149 168.877188 
Q 149 170.877188 151 170.877188 
z
" style="fill: #eaeaf2; opacity: 0.8; stroke: #cccccc; stroke-linejoin: miter"/>
    </g>
    <g id="text_24">
     <!-- FLOPs (millions) -->
     <g style="fill: #262626" transform="translate(153 94.045938) scale(0.1 -0.1)">
      <defs>
       <path id="ArialMT-4f" d="M 309 2231 
Q 309 3372 921 4017 
Q 1534 4663 2503 4663 
Q 3138 4663 3647 4359 
Q 4156 4056 4423 3514 
Q 4691 2972 4691 2284 
Q 4691 1588 4409 1038 
Q 4128 488 3612 205 
Q 3097 -78 2500 -78 
Q 1853 -78 1343 234 
Q 834 547 571 1087 
Q 309 1628 309 2231 
z
M 934 2222 
Q 934 1394 1379 917 
Q 1825 441 2497 441 
Q 3181 441 3623 922 
Q 4066 1403 4066 2288 
Q 4066 2847 3877 3264 
Q 3688 3681 3323 3911 
Q 2959 4141 2506 4141 
Q 1863 4141 1398 3698 
Q 934 3256 934 2222 
z
" transform="scale(0.015625)"/>
      </defs>
      <use xlink:href="#ArialMT-46"/>
      <use xlink:href="#ArialMT-4c" x="61.083984"/>
      <use xlink:href="#ArialMT-4f" x="116.699219"/>
      <use xlink:href="#ArialMT-50" x="194.482422"/>
      <use xlink:href="#ArialMT-73" x="261.181641"/>
      <use xlink:href="#ArialMT-20" x="311.181641"/>
      <use xlink:href="#ArialMT-28" x="338.964844"/>
      <use xlink:href="#ArialMT-6d" x="372.265625"/>
      <use xlink:href="#ArialMT-69" x="455.566406"/>
      <use xlink:href="#ArialMT-6c" x="477.783203"/>
      <use xlink:href="#ArialMT-6c" x="500"/>
      <use xlink:href="#ArialMT-69" x="522.216797"/>
      <use xlink:href="#ArialMT-6f" x="544.433594"/>
      <use xlink:href="#ArialMT-6e" x="600.048828"/>
      <use xlink:href="#ArialMT-73" x="655.664062"/>
      <use xlink:href="#ArialMT-29" x="705.664062"/>
     </g>
    </g>
    <g id="line2d_14">
     <defs>
      <path id="mc4570c82d5" d="M 0 4.973685 
C 1.319037 4.973685 2.584227 4.449627 3.516927 3.516927 
C 4.449627 2.584227 4.973685 1.319037 4.973685 0 
C 4.973685 -1.319037 4.449627 -2.584227 3.516927 -3.516927 
C 2.584227 -4.449627 1.319037 -4.973685 0 -4.973685 
C -1.319037 -4.973685 -2.584227 -4.449627 -3.516927 -3.516927 
C -4.449627 -2.584227 -4.973685 -1.319037 -4.973685 0 
C -4.973685 1.319037 -4.449627 2.584227 -3.516927 3.516927 
C -2.584227 4.449627 -1.319037 4.973685 0 4.973685 
z
" style="stroke: #ffffff; stroke-width: 0.593964"/>
     </defs>
     <g>
      <use xlink:href="#mc4570c82d5" x="172.044531" y="104.808438" style="fill: #e98868; stroke: #ffffff; stroke-width: 0.593964"/>
     </g>
    </g>
    <g id="text_25">
     <!-- 2000 -->
     <g style="fill: #262626" transform="translate(190.044531 108.308438) scale(0.1 -0.1)">
      <use xlink:href="#ArialMT-32"/>
      <use xlink:href="#ArialMT-30" x="55.615234"/>
      <use xlink:href="#ArialMT-30" x="111.230469"/>
      <use xlink:href="#ArialMT-30" x="166.845703"/>
     </g>
    </g>
    <g id="line2d_15">
     <defs>
      <path id="mda82c8d46f" d="M 0 6.107586 
C 1.619751 6.107586 3.173379 5.464052 4.318715 4.318715 
C 5.464052 3.173379 6.107586 1.619751 6.107586 0 
C 6.107586 -1.619751 5.464052 -3.173379 4.318715 -4.318715 
C 3.173379 -5.464052 1.619751 -6.107586 0 -6.107586 
C -1.619751 -6.107586 -3.173379 -5.464052 -4.318715 -4.318715 
C -5.464052 -3.173379 -6.107586 -1.619751 -6.107586 0 
C -6.107586 1.619751 -5.464052 3.173379 -4.318715 4.318715 
C -3.173379 5.464052 -1.619751 6.107586 0 6.107586 
z
" style="stroke: #ffffff; stroke-width: 0.593964"/>
     </defs>
     <g>
      <use xlink:href="#mda82c8d46f" x="172.044531" y="118.95375" style="fill: #df5e5c; stroke: #ffffff; stroke-width: 0.593964"/>
     </g>
    </g>
    <g id="text_26">
     <!-- 4000 -->
     <g style="fill: #262626" transform="translate(190.044531 122.45375) scale(0.1 -0.1)">
      <defs>
       <path id="ArialMT-34" d="M 2069 0 
L 2069 1097 
L 81 1097 
L 81 1613 
L 2172 4581 
L 2631 4581 
L 2631 1613 
L 3250 1613 
L 3250 1097 
L 2631 1097 
L 2631 0 
L 2069 0 
z
M 2069 1613 
L 2069 3678 
L 634 1613 
L 2069 1613 
z
" transform="scale(0.015625)"/>
      </defs>
      <use xlink:href="#ArialMT-34"/>
      <use xlink:href="#ArialMT-30" x="55.615234"/>
      <use xlink:href="#ArialMT-30" x="111.230469"/>
      <use xlink:href="#ArialMT-30" x="166.845703"/>
     </g>
    </g>
    <g id="line2d_16">
     <defs>
      <path id="m7389ca059f" d="M 0 7.061704 
C 1.872786 7.061704 3.669119 6.317638 4.993379 4.993379 
C 6.317638 3.669119 7.061704 1.872786 7.061704 0 
C 7.061704 -1.872786 6.317638 -3.669119 4.993379 -4.993379 
C 3.669119 -6.317638 1.872786 -7.061704 0 -7.061704 
C -1.872786 -7.061704 -3.669119 -6.317638 -4.993379 -4.993379 
C -6.317638 -3.669119 -7.061704 -1.872786 -7.061704 0 
C -7.061704 1.872786 -6.317638 3.669119 -4.993379 4.993379 
C -3.669119 6.317638 -1.872786 7.061704 0 7.061704 
z
" style="stroke: #ffffff; stroke-width: 0.593964"/>
     </defs>
     <g>
      <use xlink:href="#m7389ca059f" x="172.044531" y="133.099063" style="fill: #c24167; stroke: #ffffff; stroke-width: 0.593964"/>
     </g>
    </g>
    <g id="text_27">
     <!-- 6000 -->
     <g style="fill: #262626" transform="translate(190.044531 136.599063) scale(0.1 -0.1)">
      <use xlink:href="#ArialMT-36"/>
      <use xlink:href="#ArialMT-30" x="55.615234"/>
      <use xlink:href="#ArialMT-30" x="111.230469"/>
      <use xlink:href="#ArialMT-30" x="166.845703"/>
     </g>
    </g>
    <g id="line2d_17">
     <defs>
      <path id="mc229e48388" d="M 0 7.901437 
C 2.095486 7.901437 4.105428 7.068892 5.58716 5.58716 
C 7.068892 4.105428 7.901437 2.095486 7.901437 0 
C 7.901437 -2.095486 7.068892 -4.105428 5.58716 -5.58716 
C 4.105428 -7.068892 2.095486 -7.901437 0 -7.901437 
C -2.095486 -7.901437 -4.105428 -7.068892 -5.58716 -5.58716 
C -7.068892 -4.105428 -7.901437 -2.095486 -7.901437 0 
C -7.901437 2.095486 -7.068892 4.105428 -5.58716 5.58716 
C -4.105428 7.068892 -2.095486 7.901437 0 7.901437 
z
" style="stroke: #ffffff; stroke-width: 0.593964"/>
     </defs>
     <g>
      <use xlink:href="#mc229e48388" x="172.044531" y="147.244375" style="fill: #9a3670; stroke: #ffffff; stroke-width: 0.593964"/>
     </g>
    </g>
    <g id="text_28">
     <!-- 8000 -->
     <g style="fill: #262626" transform="translate(190.044531 150.744375) scale(0.1 -0.1)">
      <use xlink:href="#ArialMT-38"/>
      <use xlink:href="#ArialMT-30" x="55.615234"/>
      <use xlink:href="#ArialMT-30" x="111.230469"/>
      <use xlink:href="#ArialMT-30" x="166.845703"/>
     </g>
    </g>
    <g id="line2d_18">
     <defs>
      <path id="m5e5e25e7f6" d="M 0 8.660125 
C 2.296692 8.660125 4.499627 7.74764 6.123633 6.123633 
C 7.74764 4.499627 8.660125 2.296692 8.660125 0 
C 8.660125 -2.296692 7.74764 -4.499627 6.123633 -6.123633 
C 4.499627 -7.74764 2.296692 -8.660125 0 -8.660125 
C -2.296692 -8.660125 -4.499627 -7.74764 -6.123633 -6.123633 
C -7.74764 -4.499627 -8.660125 -2.296692 -8.660125 0 
C -8.660125 2.296692 -7.74764 4.499627 -6.123633 6.123633 
C -4.499627 7.74764 -2.296692 8.660125 0 8.660125 
z
" style="stroke: #ffffff; stroke-width: 0.593964"/>
     </defs>
     <g>
      <use xlink:href="#m5e5e25e7f6" x="172.044531" y="161.389688" style="fill: #722c6e; stroke: #ffffff; stroke-width: 0.593964"/>
     </g>
    </g>
    <g id="text_29">
     <!-- 10000 -->
     <g style="fill: #262626" transform="translate(190.044531 164.889688) scale(0.1 -0.1)">
      <use xlink:href="#ArialMT-31"/>
      <use xlink:href="#ArialMT-30" x="55.615234"/>
      <use xlink:href="#ArialMT-30" x="111.230469"/>
      <use xlink:href="#ArialMT-30" x="166.845703"/>
      <use xlink:href="#ArialMT-30" x="222.460938"/>
     </g>
    </g>
   </g>
  </g>
 </g>
 <defs>
  <clipPath id="pe720142b46">
   <rect x="144" y="77.76" width="892.8" height="498.96"/>
  </clipPath>
 </defs>
</svg>
