<?xml version="1.0" encoding="utf-8" standalone="no"?>
<!DOCTYPE svg PUBLIC "-//W3C//DTD SVG 1.1//EN"
  "http://www.w3.org/Graphics/SVG/1.1/DTD/svg11.dtd">
<svg xmlns:xlink="http://www.w3.org/1999/xlink" width="924.30625pt" height="528.489688pt" viewBox="0 0 924.30625 528.489688" xmlns="http://www.w3.org/2000/svg" version="1.1">
 <metadata>
  <rdf:RDF xmlns:dc="http://purl.org/dc/elements/1.1/" xmlns:cc="http://creativecommons.org/ns#" xmlns:rdf="http://www.w3.org/1999/02/22-rdf-syntax-ns#">
   <cc:Work>
    <dc:type rdf:resource="http://purl.org/dc/dcmitype/StillImage"/>
    <dc:date>2024-02-23T21:56:25.632583</dc:date>
    <dc:format>image/svg+xml</dc:format>
    <dc:creator>
     <cc:Agent>
      <dc:title>Matplotlib v3.6.2, https://matplotlib.org/</dc:title>
     </cc:Agent>
    </dc:creator>
   </cc:Work>
  </rdf:RDF>
 </metadata>
 <defs>
  <style type="text/css">*{stroke-linejoin: round; stroke-linecap: butt}</style>
 </defs>
 <g id="figure_1">
  <g id="patch_1">
   <path d="M 0 528.489688 
L 924.30625 528.489688 
L 924.30625 0 
L 0 0 
z
" style="fill: #ffffff"/>
  </g>
  <g id="axes_1">
   <g id="patch_2">
    <path d="M 31.50625 498.96 
L 924.30625 498.96 
L 924.30625 0 
L 31.50625 0 
z
" style="fill: #eaeaf2"/>
   </g>
   <g id="matplotlib.axis_1">
    <g id="xtick_1">
     <g id="line2d_1">
      <path d="M 52.211897 498.96 
L 52.211897 0 
" clip-path="url(#p8ba3380874)" style="fill: none; stroke: #ffffff; stroke-width: 0.8; stroke-linecap: round"/>
     </g>
     <g id="text_1">
      <!-- 0.03 -->
      <g style="fill: #262626" transform="translate(42.481428 513.117813) scale(0.1 -0.1)">
       <defs>
        <path id="ArialMT-30" d="M 266 2259 
Q 266 3072 433 3567 
Q 600 4063 929 4331 
Q 1259 4600 1759 4600 
Q 2128 4600 2406 4451 
Q 2684 4303 2865 4023 
Q 3047 3744 3150 3342 
Q 3253 2941 3253 2259 
Q 3253 1453 3087 958 
Q 2922 463 2592 192 
Q 2263 -78 1759 -78 
Q 1097 -78 719 397 
Q 266 969 266 2259 
z
M 844 2259 
Q 844 1131 1108 757 
Q 1372 384 1759 384 
Q 2147 384 2411 759 
Q 2675 1134 2675 2259 
Q 2675 3391 2411 3762 
Q 2147 4134 1753 4134 
Q 1366 4134 1134 3806 
Q 844 3388 844 2259 
z
" transform="scale(0.015625)"/>
        <path id="ArialMT-2e" d="M 581 0 
L 581 641 
L 1222 641 
L 1222 0 
L 581 0 
z
" transform="scale(0.015625)"/>
        <path id="ArialMT-33" d="M 269 1209 
L 831 1284 
Q 928 806 1161 595 
Q 1394 384 1728 384 
Q 2125 384 2398 659 
Q 2672 934 2672 1341 
Q 2672 1728 2419 1979 
Q 2166 2231 1775 2231 
Q 1616 2231 1378 2169 
L 1441 2663 
Q 1497 2656 1531 2656 
Q 1891 2656 2178 2843 
Q 2466 3031 2466 3422 
Q 2466 3731 2256 3934 
Q 2047 4138 1716 4138 
Q 1388 4138 1169 3931 
Q 950 3725 888 3313 
L 325 3413 
Q 428 3978 793 4289 
Q 1159 4600 1703 4600 
Q 2078 4600 2393 4439 
Q 2709 4278 2876 4000 
Q 3044 3722 3044 3409 
Q 3044 3113 2884 2869 
Q 2725 2625 2413 2481 
Q 2819 2388 3044 2092 
Q 3269 1797 3269 1353 
Q 3269 753 2831 336 
Q 2394 -81 1725 -81 
Q 1122 -81 723 278 
Q 325 638 269 1209 
z
" transform="scale(0.015625)"/>
       </defs>
       <use xlink:href="#ArialMT-30"/>
       <use xlink:href="#ArialMT-2e" x="55.615234"/>
       <use xlink:href="#ArialMT-30" x="83.398438"/>
       <use xlink:href="#ArialMT-33" x="139.013672"/>
      </g>
     </g>
    </g>
    <g id="xtick_2">
     <g id="line2d_2">
      <path d="M 158.564867 498.96 
L 158.564867 0 
" clip-path="url(#p8ba3380874)" style="fill: none; stroke: #ffffff; stroke-width: 0.8; stroke-linecap: round"/>
     </g>
     <g id="text_2">
      <!-- 0.05 -->
      <g style="fill: #262626" transform="translate(148.834398 513.117813) scale(0.1 -0.1)">
       <defs>
        <path id="ArialMT-35" d="M 266 1200 
L 856 1250 
Q 922 819 1161 601 
Q 1400 384 1738 384 
Q 2144 384 2425 690 
Q 2706 997 2706 1503 
Q 2706 1984 2436 2262 
Q 2166 2541 1728 2541 
Q 1456 2541 1237 2417 
Q 1019 2294 894 2097 
L 366 2166 
L 809 4519 
L 3088 4519 
L 3088 3981 
L 1259 3981 
L 1013 2750 
Q 1425 3038 1878 3038 
Q 2478 3038 2890 2622 
Q 3303 2206 3303 1553 
Q 3303 931 2941 478 
Q 2500 -78 1738 -78 
Q 1113 -78 717 272 
Q 322 622 266 1200 
z
" transform="scale(0.015625)"/>
       </defs>
       <use xlink:href="#ArialMT-30"/>
       <use xlink:href="#ArialMT-2e" x="55.615234"/>
       <use xlink:href="#ArialMT-30" x="83.398438"/>
       <use xlink:href="#ArialMT-35" x="139.013672"/>
      </g>
     </g>
    </g>
    <g id="xtick_3">
     <g id="line2d_3">
      <path d="M 264.917837 498.96 
L 264.917837 0 
" clip-path="url(#p8ba3380874)" style="fill: none; stroke: #ffffff; stroke-width: 0.8; stroke-linecap: round"/>
     </g>
     <g id="text_3">
      <!-- 0.07 -->
      <g style="fill: #262626" transform="translate(255.187368 513.117813) scale(0.1 -0.1)">
       <defs>
        <path id="ArialMT-37" d="M 303 3981 
L 303 4522 
L 3269 4522 
L 3269 4084 
Q 2831 3619 2401 2847 
Q 1972 2075 1738 1259 
Q 1569 684 1522 0 
L 944 0 
Q 953 541 1156 1306 
Q 1359 2072 1739 2783 
Q 2119 3494 2547 3981 
L 303 3981 
z
" transform="scale(0.015625)"/>
       </defs>
       <use xlink:href="#ArialMT-30"/>
       <use xlink:href="#ArialMT-2e" x="55.615234"/>
       <use xlink:href="#ArialMT-30" x="83.398438"/>
       <use xlink:href="#ArialMT-37" x="139.013672"/>
      </g>
     </g>
    </g>
    <g id="xtick_4">
     <g id="line2d_4">
      <path d="M 371.270807 498.96 
L 371.270807 0 
" clip-path="url(#p8ba3380874)" style="fill: none; stroke: #ffffff; stroke-width: 0.8; stroke-linecap: round"/>
     </g>
     <g id="text_4">
      <!-- 0.10 -->
      <g style="fill: #262626" transform="translate(361.540338 513.117813) scale(0.1 -0.1)">
       <defs>
        <path id="ArialMT-31" d="M 2384 0 
L 1822 0 
L 1822 3584 
Q 1619 3391 1289 3197 
Q 959 3003 697 2906 
L 697 3450 
Q 1169 3672 1522 3987 
Q 1875 4303 2022 4600 
L 2384 4600 
L 2384 0 
z
" transform="scale(0.015625)"/>
       </defs>
       <use xlink:href="#ArialMT-30"/>
       <use xlink:href="#ArialMT-2e" x="55.615234"/>
       <use xlink:href="#ArialMT-31" x="83.398438"/>
       <use xlink:href="#ArialMT-30" x="139.013672"/>
      </g>
     </g>
    </g>
    <g id="xtick_5">
     <g id="line2d_5">
      <path d="M 477.623777 498.96 
L 477.623777 0 
" clip-path="url(#p8ba3380874)" style="fill: none; stroke: #ffffff; stroke-width: 0.8; stroke-linecap: round"/>
     </g>
     <g id="text_5">
      <!-- 0.12 -->
      <g style="fill: #262626" transform="translate(467.893308 513.117813) scale(0.1 -0.1)">
       <defs>
        <path id="ArialMT-32" d="M 3222 541 
L 3222 0 
L 194 0 
Q 188 203 259 391 
Q 375 700 629 1000 
Q 884 1300 1366 1694 
Q 2113 2306 2375 2664 
Q 2638 3022 2638 3341 
Q 2638 3675 2398 3904 
Q 2159 4134 1775 4134 
Q 1369 4134 1125 3890 
Q 881 3647 878 3216 
L 300 3275 
Q 359 3922 746 4261 
Q 1134 4600 1788 4600 
Q 2447 4600 2831 4234 
Q 3216 3869 3216 3328 
Q 3216 3053 3103 2787 
Q 2991 2522 2730 2228 
Q 2469 1934 1863 1422 
Q 1356 997 1212 845 
Q 1069 694 975 541 
L 3222 541 
z
" transform="scale(0.015625)"/>
       </defs>
       <use xlink:href="#ArialMT-30"/>
       <use xlink:href="#ArialMT-2e" x="55.615234"/>
       <use xlink:href="#ArialMT-31" x="83.398438"/>
       <use xlink:href="#ArialMT-32" x="139.013672"/>
      </g>
     </g>
    </g>
    <g id="xtick_6">
     <g id="line2d_6">
      <path d="M 583.976746 498.96 
L 583.976746 0 
" clip-path="url(#p8ba3380874)" style="fill: none; stroke: #ffffff; stroke-width: 0.8; stroke-linecap: round"/>
     </g>
     <g id="text_6">
      <!-- 0.15 -->
      <g style="fill: #262626" transform="translate(574.246278 513.117813) scale(0.1 -0.1)">
       <use xlink:href="#ArialMT-30"/>
       <use xlink:href="#ArialMT-2e" x="55.615234"/>
       <use xlink:href="#ArialMT-31" x="83.398438"/>
       <use xlink:href="#ArialMT-35" x="139.013672"/>
      </g>
     </g>
    </g>
    <g id="xtick_7">
     <g id="line2d_7">
      <path d="M 690.329716 498.96 
L 690.329716 0 
" clip-path="url(#p8ba3380874)" style="fill: none; stroke: #ffffff; stroke-width: 0.8; stroke-linecap: round"/>
     </g>
     <g id="text_7">
      <!-- 0.17 -->
      <g style="fill: #262626" transform="translate(680.599248 513.117813) scale(0.1 -0.1)">
       <use xlink:href="#ArialMT-30"/>
       <use xlink:href="#ArialMT-2e" x="55.615234"/>
       <use xlink:href="#ArialMT-31" x="83.398438"/>
       <use xlink:href="#ArialMT-37" x="139.013672"/>
      </g>
     </g>
    </g>
    <g id="xtick_8">
     <g id="line2d_8">
      <path d="M 796.682686 498.96 
L 796.682686 0 
" clip-path="url(#p8ba3380874)" style="fill: none; stroke: #ffffff; stroke-width: 0.8; stroke-linecap: round"/>
     </g>
     <g id="text_8">
      <!-- 0.20 -->
      <g style="fill: #262626" transform="translate(786.952217 513.117813) scale(0.1 -0.1)">
       <use xlink:href="#ArialMT-30"/>
       <use xlink:href="#ArialMT-2e" x="55.615234"/>
       <use xlink:href="#ArialMT-32" x="83.398438"/>
       <use xlink:href="#ArialMT-30" x="139.013672"/>
      </g>
     </g>
    </g>
    <g id="xtick_9">
     <g id="line2d_9">
      <path d="M 903.035656 498.96 
L 903.035656 0 
" clip-path="url(#p8ba3380874)" style="fill: none; stroke: #ffffff; stroke-width: 0.8; stroke-linecap: round"/>
     </g>
     <g id="text_9">
      <!-- 0.23 -->
      <g style="fill: #262626" transform="translate(893.305187 513.117813) scale(0.1 -0.1)">
       <use xlink:href="#ArialMT-30"/>
       <use xlink:href="#ArialMT-2e" x="55.615234"/>
       <use xlink:href="#ArialMT-32" x="83.398438"/>
       <use xlink:href="#ArialMT-33" x="139.013672"/>
      </g>
     </g>
    </g>
    <g id="text_10">
     <!-- Parameters (millions) -->
     <g style="fill: #262626" transform="translate(430.677344 526.385) scale(0.1 -0.1)">
      <defs>
       <path id="ArialMT-50" d="M 494 0 
L 494 4581 
L 2222 4581 
Q 2678 4581 2919 4538 
Q 3256 4481 3484 4323 
Q 3713 4166 3852 3881 
Q 3991 3597 3991 3256 
Q 3991 2672 3619 2267 
Q 3247 1863 2275 1863 
L 1100 1863 
L 1100 0 
L 494 0 
z
M 1100 2403 
L 2284 2403 
Q 2872 2403 3119 2622 
Q 3366 2841 3366 3238 
Q 3366 3525 3220 3729 
Q 3075 3934 2838 4000 
Q 2684 4041 2272 4041 
L 1100 4041 
L 1100 2403 
z
" transform="scale(0.015625)"/>
       <path id="ArialMT-61" d="M 2588 409 
Q 2275 144 1986 34 
Q 1697 -75 1366 -75 
Q 819 -75 525 192 
Q 231 459 231 875 
Q 231 1119 342 1320 
Q 453 1522 633 1644 
Q 813 1766 1038 1828 
Q 1203 1872 1538 1913 
Q 2219 1994 2541 2106 
Q 2544 2222 2544 2253 
Q 2544 2597 2384 2738 
Q 2169 2928 1744 2928 
Q 1347 2928 1158 2789 
Q 969 2650 878 2297 
L 328 2372 
Q 403 2725 575 2942 
Q 747 3159 1072 3276 
Q 1397 3394 1825 3394 
Q 2250 3394 2515 3294 
Q 2781 3194 2906 3042 
Q 3031 2891 3081 2659 
Q 3109 2516 3109 2141 
L 3109 1391 
Q 3109 606 3145 398 
Q 3181 191 3288 0 
L 2700 0 
Q 2613 175 2588 409 
z
M 2541 1666 
Q 2234 1541 1622 1453 
Q 1275 1403 1131 1340 
Q 988 1278 909 1158 
Q 831 1038 831 891 
Q 831 666 1001 516 
Q 1172 366 1500 366 
Q 1825 366 2078 508 
Q 2331 650 2450 897 
Q 2541 1088 2541 1459 
L 2541 1666 
z
" transform="scale(0.015625)"/>
       <path id="ArialMT-72" d="M 416 0 
L 416 3319 
L 922 3319 
L 922 2816 
Q 1116 3169 1280 3281 
Q 1444 3394 1641 3394 
Q 1925 3394 2219 3213 
L 2025 2691 
Q 1819 2813 1613 2813 
Q 1428 2813 1281 2702 
Q 1134 2591 1072 2394 
Q 978 2094 978 1738 
L 978 0 
L 416 0 
z
" transform="scale(0.015625)"/>
       <path id="ArialMT-6d" d="M 422 0 
L 422 3319 
L 925 3319 
L 925 2853 
Q 1081 3097 1340 3245 
Q 1600 3394 1931 3394 
Q 2300 3394 2536 3241 
Q 2772 3088 2869 2813 
Q 3263 3394 3894 3394 
Q 4388 3394 4653 3120 
Q 4919 2847 4919 2278 
L 4919 0 
L 4359 0 
L 4359 2091 
Q 4359 2428 4304 2576 
Q 4250 2725 4106 2815 
Q 3963 2906 3769 2906 
Q 3419 2906 3187 2673 
Q 2956 2441 2956 1928 
L 2956 0 
L 2394 0 
L 2394 2156 
Q 2394 2531 2256 2718 
Q 2119 2906 1806 2906 
Q 1569 2906 1367 2781 
Q 1166 2656 1075 2415 
Q 984 2175 984 1722 
L 984 0 
L 422 0 
z
" transform="scale(0.015625)"/>
       <path id="ArialMT-65" d="M 2694 1069 
L 3275 997 
Q 3138 488 2766 206 
Q 2394 -75 1816 -75 
Q 1088 -75 661 373 
Q 234 822 234 1631 
Q 234 2469 665 2931 
Q 1097 3394 1784 3394 
Q 2450 3394 2872 2941 
Q 3294 2488 3294 1666 
Q 3294 1616 3291 1516 
L 816 1516 
Q 847 969 1125 678 
Q 1403 388 1819 388 
Q 2128 388 2347 550 
Q 2566 713 2694 1069 
z
M 847 1978 
L 2700 1978 
Q 2663 2397 2488 2606 
Q 2219 2931 1791 2931 
Q 1403 2931 1139 2672 
Q 875 2413 847 1978 
z
" transform="scale(0.015625)"/>
       <path id="ArialMT-74" d="M 1650 503 
L 1731 6 
Q 1494 -44 1306 -44 
Q 1000 -44 831 53 
Q 663 150 594 308 
Q 525 466 525 972 
L 525 2881 
L 113 2881 
L 113 3319 
L 525 3319 
L 525 4141 
L 1084 4478 
L 1084 3319 
L 1650 3319 
L 1650 2881 
L 1084 2881 
L 1084 941 
Q 1084 700 1114 631 
Q 1144 563 1211 522 
Q 1278 481 1403 481 
Q 1497 481 1650 503 
z
" transform="scale(0.015625)"/>
       <path id="ArialMT-73" d="M 197 991 
L 753 1078 
Q 800 744 1014 566 
Q 1228 388 1613 388 
Q 2000 388 2187 545 
Q 2375 703 2375 916 
Q 2375 1106 2209 1216 
Q 2094 1291 1634 1406 
Q 1016 1563 777 1677 
Q 538 1791 414 1992 
Q 291 2194 291 2438 
Q 291 2659 392 2848 
Q 494 3038 669 3163 
Q 800 3259 1026 3326 
Q 1253 3394 1513 3394 
Q 1903 3394 2198 3281 
Q 2494 3169 2634 2976 
Q 2775 2784 2828 2463 
L 2278 2388 
Q 2241 2644 2061 2787 
Q 1881 2931 1553 2931 
Q 1166 2931 1000 2803 
Q 834 2675 834 2503 
Q 834 2394 903 2306 
Q 972 2216 1119 2156 
Q 1203 2125 1616 2013 
Q 2213 1853 2448 1751 
Q 2684 1650 2818 1456 
Q 2953 1263 2953 975 
Q 2953 694 2789 445 
Q 2625 197 2315 61 
Q 2006 -75 1616 -75 
Q 969 -75 630 194 
Q 291 463 197 991 
z
" transform="scale(0.015625)"/>
       <path id="ArialMT-20" transform="scale(0.015625)"/>
       <path id="ArialMT-28" d="M 1497 -1347 
Q 1031 -759 709 28 
Q 388 816 388 1659 
Q 388 2403 628 3084 
Q 909 3875 1497 4659 
L 1900 4659 
Q 1522 4009 1400 3731 
Q 1209 3300 1100 2831 
Q 966 2247 966 1656 
Q 966 153 1900 -1347 
L 1497 -1347 
z
" transform="scale(0.015625)"/>
       <path id="ArialMT-69" d="M 425 3934 
L 425 4581 
L 988 4581 
L 988 3934 
L 425 3934 
z
M 425 0 
L 425 3319 
L 988 3319 
L 988 0 
L 425 0 
z
" transform="scale(0.015625)"/>
       <path id="ArialMT-6c" d="M 409 0 
L 409 4581 
L 972 4581 
L 972 0 
L 409 0 
z
" transform="scale(0.015625)"/>
       <path id="ArialMT-6f" d="M 213 1659 
Q 213 2581 725 3025 
Q 1153 3394 1769 3394 
Q 2453 3394 2887 2945 
Q 3322 2497 3322 1706 
Q 3322 1066 3130 698 
Q 2938 331 2570 128 
Q 2203 -75 1769 -75 
Q 1072 -75 642 372 
Q 213 819 213 1659 
z
M 791 1659 
Q 791 1022 1069 705 
Q 1347 388 1769 388 
Q 2188 388 2466 706 
Q 2744 1025 2744 1678 
Q 2744 2294 2464 2611 
Q 2184 2928 1769 2928 
Q 1347 2928 1069 2612 
Q 791 2297 791 1659 
z
" transform="scale(0.015625)"/>
       <path id="ArialMT-6e" d="M 422 0 
L 422 3319 
L 928 3319 
L 928 2847 
Q 1294 3394 1984 3394 
Q 2284 3394 2536 3286 
Q 2788 3178 2913 3003 
Q 3038 2828 3088 2588 
Q 3119 2431 3119 2041 
L 3119 0 
L 2556 0 
L 2556 2019 
Q 2556 2363 2490 2533 
Q 2425 2703 2258 2804 
Q 2091 2906 1866 2906 
Q 1506 2906 1245 2678 
Q 984 2450 984 1813 
L 984 0 
L 422 0 
z
" transform="scale(0.015625)"/>
       <path id="ArialMT-29" d="M 791 -1347 
L 388 -1347 
Q 1322 153 1322 1656 
Q 1322 2244 1188 2822 
Q 1081 3291 891 3722 
Q 769 4003 388 4659 
L 791 4659 
Q 1378 3875 1659 3084 
Q 1900 2403 1900 1659 
Q 1900 816 1576 28 
Q 1253 -759 791 -1347 
z
" transform="scale(0.015625)"/>
      </defs>
      <use xlink:href="#ArialMT-50"/>
      <use xlink:href="#ArialMT-61" x="66.699219"/>
      <use xlink:href="#ArialMT-72" x="122.314453"/>
      <use xlink:href="#ArialMT-61" x="155.615234"/>
      <use xlink:href="#ArialMT-6d" x="211.230469"/>
      <use xlink:href="#ArialMT-65" x="294.53125"/>
      <use xlink:href="#ArialMT-74" x="350.146484"/>
      <use xlink:href="#ArialMT-65" x="377.929688"/>
      <use xlink:href="#ArialMT-72" x="433.544922"/>
      <use xlink:href="#ArialMT-73" x="466.845703"/>
      <use xlink:href="#ArialMT-20" x="516.845703"/>
      <use xlink:href="#ArialMT-28" x="544.628906"/>
      <use xlink:href="#ArialMT-6d" x="577.929688"/>
      <use xlink:href="#ArialMT-69" x="661.230469"/>
      <use xlink:href="#ArialMT-6c" x="683.447266"/>
      <use xlink:href="#ArialMT-6c" x="705.664062"/>
      <use xlink:href="#ArialMT-69" x="727.880859"/>
      <use xlink:href="#ArialMT-6f" x="750.097656"/>
      <use xlink:href="#ArialMT-6e" x="805.712891"/>
      <use xlink:href="#ArialMT-73" x="861.328125"/>
      <use xlink:href="#ArialMT-29" x="911.328125"/>
     </g>
    </g>
   </g>
   <g id="matplotlib.axis_2">
    <g id="ytick_1">
     <g id="line2d_10">
      <path d="M 31.50625 447.877709 
L 924.30625 447.877709 
" clip-path="url(#p8ba3380874)" style="fill: none; stroke: #ffffff; stroke-width: 0.8; stroke-linecap: round"/>
     </g>
     <g id="text_11">
      <!-- 70 -->
      <g style="fill: #262626" transform="translate(13.384375 451.456615) scale(0.1 -0.1)">
       <use xlink:href="#ArialMT-37"/>
       <use xlink:href="#ArialMT-30" x="55.615234"/>
      </g>
     </g>
    </g>
    <g id="ytick_2">
     <g id="line2d_11">
      <path d="M 31.50625 337.79131 
L 924.30625 337.79131 
" clip-path="url(#p8ba3380874)" style="fill: none; stroke: #ffffff; stroke-width: 0.8; stroke-linecap: round"/>
     </g>
     <g id="text_12">
      <!-- 75 -->
      <g style="fill: #262626" transform="translate(13.384375 341.370216) scale(0.1 -0.1)">
       <use xlink:href="#ArialMT-37"/>
       <use xlink:href="#ArialMT-35" x="55.615234"/>
      </g>
     </g>
    </g>
    <g id="ytick_3">
     <g id="line2d_12">
      <path d="M 31.50625 227.70491 
L 924.30625 227.70491 
" clip-path="url(#p8ba3380874)" style="fill: none; stroke: #ffffff; stroke-width: 0.8; stroke-linecap: round"/>
     </g>
     <g id="text_13">
      <!-- 80 -->
      <g style="fill: #262626" transform="translate(13.384375 231.283816) scale(0.1 -0.1)">
       <defs>
        <path id="ArialMT-38" d="M 1131 2484 
Q 781 2613 612 2850 
Q 444 3088 444 3419 
Q 444 3919 803 4259 
Q 1163 4600 1759 4600 
Q 2359 4600 2725 4251 
Q 3091 3903 3091 3403 
Q 3091 3084 2923 2848 
Q 2756 2613 2416 2484 
Q 2838 2347 3058 2040 
Q 3278 1734 3278 1309 
Q 3278 722 2862 322 
Q 2447 -78 1769 -78 
Q 1091 -78 675 323 
Q 259 725 259 1325 
Q 259 1772 486 2073 
Q 713 2375 1131 2484 
z
M 1019 3438 
Q 1019 3113 1228 2906 
Q 1438 2700 1772 2700 
Q 2097 2700 2305 2904 
Q 2513 3109 2513 3406 
Q 2513 3716 2298 3927 
Q 2084 4138 1766 4138 
Q 1444 4138 1231 3931 
Q 1019 3725 1019 3438 
z
M 838 1322 
Q 838 1081 952 856 
Q 1066 631 1291 507 
Q 1516 384 1775 384 
Q 2178 384 2440 643 
Q 2703 903 2703 1303 
Q 2703 1709 2433 1975 
Q 2163 2241 1756 2241 
Q 1359 2241 1098 1978 
Q 838 1716 838 1322 
z
" transform="scale(0.015625)"/>
       </defs>
       <use xlink:href="#ArialMT-38"/>
       <use xlink:href="#ArialMT-30" x="55.615234"/>
      </g>
     </g>
    </g>
    <g id="ytick_4">
     <g id="line2d_13">
      <path d="M 31.50625 117.618511 
L 924.30625 117.618511 
" clip-path="url(#p8ba3380874)" style="fill: none; stroke: #ffffff; stroke-width: 0.8; stroke-linecap: round"/>
     </g>
     <g id="text_14">
      <!-- 85 -->
      <g style="fill: #262626" transform="translate(13.384375 121.197417) scale(0.1 -0.1)">
       <use xlink:href="#ArialMT-38"/>
       <use xlink:href="#ArialMT-35" x="55.615234"/>
      </g>
     </g>
    </g>
    <g id="ytick_5">
     <g id="line2d_14">
      <path d="M 31.50625 7.532111 
L 924.30625 7.532111 
" clip-path="url(#p8ba3380874)" style="fill: none; stroke: #ffffff; stroke-width: 0.8; stroke-linecap: round"/>
     </g>
     <g id="text_15">
      <!-- 90 -->
      <g style="fill: #262626" transform="translate(13.384375 11.111018) scale(0.1 -0.1)">
       <defs>
        <path id="ArialMT-39" d="M 350 1059 
L 891 1109 
Q 959 728 1153 556 
Q 1347 384 1650 384 
Q 1909 384 2104 503 
Q 2300 622 2425 820 
Q 2550 1019 2634 1356 
Q 2719 1694 2719 2044 
Q 2719 2081 2716 2156 
Q 2547 1888 2255 1720 
Q 1963 1553 1622 1553 
Q 1053 1553 659 1965 
Q 266 2378 266 3053 
Q 266 3750 677 4175 
Q 1088 4600 1706 4600 
Q 2153 4600 2523 4359 
Q 2894 4119 3086 3673 
Q 3278 3228 3278 2384 
Q 3278 1506 3087 986 
Q 2897 466 2520 194 
Q 2144 -78 1638 -78 
Q 1100 -78 759 220 
Q 419 519 350 1059 
z
M 2653 3081 
Q 2653 3566 2395 3850 
Q 2138 4134 1775 4134 
Q 1400 4134 1122 3828 
Q 844 3522 844 3034 
Q 844 2597 1108 2323 
Q 1372 2050 1759 2050 
Q 2150 2050 2401 2323 
Q 2653 2597 2653 3081 
z
" transform="scale(0.015625)"/>
       </defs>
       <use xlink:href="#ArialMT-39"/>
       <use xlink:href="#ArialMT-30" x="55.615234"/>
      </g>
     </g>
    </g>
    <g id="text_16">
     <!-- Accuracy (%) -->
     <g style="fill: #262626" transform="translate(7.279688 279.205781) rotate(-90) scale(0.1 -0.1)">
      <defs>
       <path id="ArialMT-41" d="M -9 0 
L 1750 4581 
L 2403 4581 
L 4278 0 
L 3588 0 
L 3053 1388 
L 1138 1388 
L 634 0 
L -9 0 
z
M 1313 1881 
L 2866 1881 
L 2388 3150 
Q 2169 3728 2063 4100 
Q 1975 3659 1816 3225 
L 1313 1881 
z
" transform="scale(0.015625)"/>
       <path id="ArialMT-63" d="M 2588 1216 
L 3141 1144 
Q 3050 572 2676 248 
Q 2303 -75 1759 -75 
Q 1078 -75 664 370 
Q 250 816 250 1647 
Q 250 2184 428 2587 
Q 606 2991 970 3192 
Q 1334 3394 1763 3394 
Q 2303 3394 2647 3120 
Q 2991 2847 3088 2344 
L 2541 2259 
Q 2463 2594 2264 2762 
Q 2066 2931 1784 2931 
Q 1359 2931 1093 2626 
Q 828 2322 828 1663 
Q 828 994 1084 691 
Q 1341 388 1753 388 
Q 2084 388 2306 591 
Q 2528 794 2588 1216 
z
" transform="scale(0.015625)"/>
       <path id="ArialMT-75" d="M 2597 0 
L 2597 488 
Q 2209 -75 1544 -75 
Q 1250 -75 995 37 
Q 741 150 617 320 
Q 494 491 444 738 
Q 409 903 409 1263 
L 409 3319 
L 972 3319 
L 972 1478 
Q 972 1038 1006 884 
Q 1059 663 1231 536 
Q 1403 409 1656 409 
Q 1909 409 2131 539 
Q 2353 669 2445 892 
Q 2538 1116 2538 1541 
L 2538 3319 
L 3100 3319 
L 3100 0 
L 2597 0 
z
" transform="scale(0.015625)"/>
       <path id="ArialMT-79" d="M 397 -1278 
L 334 -750 
Q 519 -800 656 -800 
Q 844 -800 956 -737 
Q 1069 -675 1141 -563 
Q 1194 -478 1313 -144 
Q 1328 -97 1363 -6 
L 103 3319 
L 709 3319 
L 1400 1397 
Q 1534 1031 1641 628 
Q 1738 1016 1872 1384 
L 2581 3319 
L 3144 3319 
L 1881 -56 
Q 1678 -603 1566 -809 
Q 1416 -1088 1222 -1217 
Q 1028 -1347 759 -1347 
Q 597 -1347 397 -1278 
z
" transform="scale(0.015625)"/>
       <path id="ArialMT-25" d="M 372 3481 
Q 372 3972 619 4315 
Q 866 4659 1334 4659 
Q 1766 4659 2048 4351 
Q 2331 4044 2331 3447 
Q 2331 2866 2045 2552 
Q 1759 2238 1341 2238 
Q 925 2238 648 2547 
Q 372 2856 372 3481 
z
M 1350 4272 
Q 1141 4272 1002 4090 
Q 863 3909 863 3425 
Q 863 2984 1003 2804 
Q 1144 2625 1350 2625 
Q 1563 2625 1702 2806 
Q 1841 2988 1841 3469 
Q 1841 3913 1700 4092 
Q 1559 4272 1350 4272 
z
M 1353 -169 
L 3859 4659 
L 4316 4659 
L 1819 -169 
L 1353 -169 
z
M 3334 1075 
Q 3334 1569 3581 1911 
Q 3828 2253 4300 2253 
Q 4731 2253 5014 1945 
Q 5297 1638 5297 1041 
Q 5297 459 5011 145 
Q 4725 -169 4303 -169 
Q 3888 -169 3611 142 
Q 3334 453 3334 1075 
z
M 4316 1866 
Q 4103 1866 3964 1684 
Q 3825 1503 3825 1019 
Q 3825 581 3965 400 
Q 4106 219 4313 219 
Q 4528 219 4667 400 
Q 4806 581 4806 1063 
Q 4806 1506 4665 1686 
Q 4525 1866 4316 1866 
z
" transform="scale(0.015625)"/>
      </defs>
      <use xlink:href="#ArialMT-41"/>
      <use xlink:href="#ArialMT-63" x="66.699219"/>
      <use xlink:href="#ArialMT-63" x="116.699219"/>
      <use xlink:href="#ArialMT-75" x="166.699219"/>
      <use xlink:href="#ArialMT-72" x="222.314453"/>
      <use xlink:href="#ArialMT-61" x="255.615234"/>
      <use xlink:href="#ArialMT-63" x="311.230469"/>
      <use xlink:href="#ArialMT-79" x="361.230469"/>
      <use xlink:href="#ArialMT-20" x="411.230469"/>
      <use xlink:href="#ArialMT-28" x="439.013672"/>
      <use xlink:href="#ArialMT-25" x="472.314453"/>
      <use xlink:href="#ArialMT-29" x="561.230469"/>
     </g>
    </g>
   </g>
   <g id="PathCollection_1">
    <path d="M 706.708074 138.511929 
C 708.611344 138.511929 710.436918 137.755752 711.782734 136.409936 
C 713.128549 135.064121 713.884727 133.238547 713.884727 131.335276 
C 713.884727 129.432005 713.128549 127.606432 711.782734 126.260616 
C 710.436918 124.9148 708.611344 124.158623 706.708074 124.158623 
C 704.804803 124.158623 702.979229 124.9148 701.633413 126.260616 
C 700.287598 127.606432 699.53142 129.432005 699.53142 131.335276 
C 699.53142 133.238547 700.287598 135.064121 701.633413 136.409936 
C 702.979229 137.755752 704.804803 138.511929 706.708074 138.511929 
z
" clip-path="url(#p8ba3380874)" style="fill: #d24a61; stroke: #ffffff; stroke-width: 1.017754"/>
    <path d="M 338.403485 136.068497 
C 340.125874 136.068497 341.77795 135.384185 342.995863 134.166272 
C 344.213776 132.948359 344.898088 131.296283 344.898088 129.573894 
C 344.898088 127.851505 344.213776 126.199429 342.995863 124.981516 
C 341.77795 123.763603 340.125874 123.079291 338.403485 123.079291 
C 336.681096 123.079291 335.02902 123.763603 333.811107 124.981516 
C 332.593194 126.199429 331.908882 127.851505 331.908882 129.573894 
C 331.908882 131.296283 332.593194 132.948359 333.811107 134.166272 
C 335.02902 135.384185 336.681096 136.068497 338.403485 136.068497 
z
" clip-path="url(#p8ba3380874)" style="fill: #e36b5d; stroke: #ffffff; stroke-width: 1.017754"/>
    <path d="M 375.848238 183.727392 
C 377.585886 183.727392 379.252598 183.037017 380.481301 181.808315 
C 381.710003 180.579613 382.400378 178.912901 382.400378 177.175253 
C 382.400378 175.437605 381.710003 173.770893 380.481301 172.542191 
C 379.252598 171.313488 377.585886 170.623114 375.848238 170.623114 
C 374.110591 170.623114 372.443879 171.313488 371.215176 172.542191 
C 369.986474 173.770893 369.296099 175.437605 369.296099 177.175253 
C 369.296099 178.912901 369.986474 180.579613 371.215176 181.808315 
C 372.443879 183.037017 374.110591 183.727392 375.848238 183.727392 
z
" clip-path="url(#p8ba3380874)" style="fill: #e3685c; stroke: #ffffff; stroke-width: 1.017754"/>
    <path d="M 392.498859 206.119111 
C 394.236545 206.119111 395.903294 205.428721 397.132024 204.199991 
C 398.360753 202.971261 399.051143 201.304513 399.051143 199.566827 
C 399.051143 197.82914 398.360753 196.162392 397.132024 194.933662 
C 395.903294 193.704933 394.236545 193.014543 392.498859 193.014543 
C 390.761173 193.014543 389.094425 193.704933 387.865695 194.933662 
C 386.636965 196.162392 385.946575 197.82914 385.946575 199.566827 
C 385.946575 201.304513 386.636965 202.971261 387.865695 204.199991 
C 389.094425 205.428721 390.761173 206.119111 392.498859 206.119111 
z
" clip-path="url(#p8ba3380874)" style="fill: #e3685c; stroke: #ffffff; stroke-width: 1.017754"/>
    <path d="M 67.807497 481.28 
C 69.133512 481.28 70.405396 480.753168 71.34303 479.815534 
C 72.280665 478.877899 72.807497 477.606015 72.807497 476.28 
C 72.807497 474.953984 72.280665 473.682101 71.34303 472.744466 
C 70.405396 471.806832 69.133512 471.28 67.807497 471.28 
C 66.481481 471.28 65.209597 471.806832 64.271963 472.744466 
C 63.334328 473.682101 62.807497 474.953984 62.807497 476.28 
C 62.807497 477.606015 63.334328 478.877899 64.271963 479.815534 
C 65.209597 480.753168 66.481481 481.28 67.807497 481.28 
z
" clip-path="url(#p8ba3380874)" style="fill: #edb081; stroke: #ffffff; stroke-width: 1.017754"/>
    <path d="M 196.418016 397.356179 
C 198.323702 397.356179 200.151592 396.599042 201.499116 395.251518 
C 202.846639 393.903995 203.603776 392.076104 203.603776 390.170418 
C 203.603776 388.264733 202.846639 386.436842 201.499116 385.089319 
C 200.151592 383.741795 198.323702 382.984658 196.418016 382.984658 
C 194.51233 382.984658 192.68444 383.741795 191.336916 385.089319 
C 189.989393 386.436842 189.232256 388.264733 189.232256 390.170418 
C 189.232256 392.076104 189.989393 393.903995 191.336916 395.251518 
C 192.68444 396.599042 194.51233 397.356179 196.418016 397.356179 
z
" clip-path="url(#p8ba3380874)" style="fill: #d14a61; stroke: #ffffff; stroke-width: 1.017754"/>
    <path d="M 325.028535 51.166571 
C 327.374829 51.166571 329.62534 50.234379 331.28442 48.575299 
C 332.9435 46.916219 333.875693 44.665707 333.875693 42.319414 
C 333.875693 39.97312 332.9435 37.722609 331.28442 36.063529 
C 329.62534 34.404449 327.374829 33.472256 325.028535 33.472256 
C 322.682242 33.472256 320.43173 34.404449 318.77265 36.063529 
C 317.11357 37.722609 316.181378 39.97312 316.181378 42.319414 
C 316.181378 44.665707 317.11357 46.916219 318.77265 48.575299 
C 320.43173 50.234379 322.682242 51.166571 325.028535 51.166571 
z
" clip-path="url(#p8ba3380874)" style="fill: #6d2b6d; stroke: #ffffff; stroke-width: 1.017754"/>
    <path d="M 793.832427 32.034143 
C 796.313174 32.034143 798.692651 31.048532 800.446805 29.294378 
C 802.200958 27.540225 803.18657 25.160748 803.18657 22.68 
C 803.18657 20.199252 802.200958 17.819775 800.446805 16.065622 
C 798.692651 14.311468 796.313174 13.325857 793.832427 13.325857 
C 791.351679 13.325857 788.972202 14.311468 787.218048 16.065622 
C 785.463895 17.819775 784.478283 20.199252 784.478283 22.68 
C 784.478283 25.160748 785.463895 27.540225 787.218048 29.294378 
C 788.972202 31.048532 791.351679 32.034143 793.832427 32.034143 
z
" clip-path="url(#p8ba3380874)" style="fill: #4b2362; stroke: #ffffff; stroke-width: 1.017754"/>
    <path d="M 171.471863 232.319886 
C 173.933648 232.319886 176.294936 231.341809 178.03568 229.601064 
C 179.776425 227.860319 180.754502 225.499032 180.754502 223.037247 
C 180.754502 220.575462 179.776425 218.214174 178.03568 216.47343 
C 176.294936 214.732685 173.933648 213.754608 171.471863 213.754608 
C 169.010079 213.754608 166.648791 214.732685 164.908046 216.47343 
C 163.167302 218.214174 162.189224 220.575462 162.189224 223.037247 
C 162.189224 225.499032 163.167302 227.860319 164.908046 229.601064 
C 166.648791 231.341809 169.010079 232.319886 171.471863 232.319886 
z
" clip-path="url(#p8ba3380874)" style="fill: #4f2463; stroke: #ffffff; stroke-width: 1.017754"/>
    <path d="M 154.931849 200.746569 
C 157.40517 200.746569 159.777522 199.763908 161.526423 198.015007 
C 163.275325 196.266106 164.257985 193.893753 164.257985 191.420433 
C 164.257985 188.947113 163.275325 186.57476 161.526423 184.825859 
C 159.777522 183.076957 157.40517 182.094297 154.931849 182.094297 
C 152.458529 182.094297 150.086177 183.076957 148.337275 184.825859 
C 146.588374 186.57476 145.605713 188.947113 145.605713 191.420433 
C 145.605713 193.893753 146.588374 196.266106 148.337275 198.015007 
C 150.086177 199.763908 152.458529 200.746569 154.931849 200.746569 
z
" clip-path="url(#p8ba3380874)" style="fill: #4d2463; stroke: #ffffff; stroke-width: 1.017754"/>
   </g>
   <g id="line2d_15"/>
   <g id="line2d_16"/>
   <g id="line2d_17"/>
   <g id="line2d_18"/>
   <g id="line2d_19"/>
   <g id="line2d_20"/>
   <g id="patch_3">
    <path d="M 31.50625 498.96 
L 31.50625 0 
" style="fill: none; stroke: #ffffff; stroke-width: 0.8; stroke-linejoin: miter; stroke-linecap: square"/>
   </g>
   <g id="patch_4">
    <path d="M 924.30625 498.96 
L 924.30625 0 
" style="fill: none; stroke: #ffffff; stroke-width: 0.8; stroke-linejoin: miter; stroke-linecap: square"/>
   </g>
   <g id="patch_5">
    <path d="M 31.50625 498.96 
L 924.30625 498.96 
" style="fill: none; stroke: #ffffff; stroke-width: 0.8; stroke-linejoin: miter; stroke-linecap: square"/>
   </g>
   <g id="patch_6">
    <path d="M 31.50625 0 
L 924.30625 0 
" style="fill: none; stroke: #ffffff; stroke-width: 0.8; stroke-linejoin: miter; stroke-linecap: square"/>
   </g>
   <g id="text_17">
    <!-- MLN -->
    <g style="fill: #262626" transform="translate(717.420512 134.637868) scale(0.1 -0.1)">
     <defs>
      <path id="ArialMT-4d" d="M 475 0 
L 475 4581 
L 1388 4581 
L 2472 1338 
Q 2622 884 2691 659 
Q 2769 909 2934 1394 
L 4031 4581 
L 4847 4581 
L 4847 0 
L 4263 0 
L 4263 3834 
L 2931 0 
L 2384 0 
L 1059 3900 
L 1059 0 
L 475 0 
z
" transform="scale(0.015625)"/>
      <path id="ArialMT-4c" d="M 469 0 
L 469 4581 
L 1075 4581 
L 1075 541 
L 3331 541 
L 3331 0 
L 469 0 
z
" transform="scale(0.015625)"/>
      <path id="ArialMT-4e" d="M 488 0 
L 488 4581 
L 1109 4581 
L 3516 984 
L 3516 4581 
L 4097 4581 
L 4097 0 
L 3475 0 
L 1069 3600 
L 1069 0 
L 488 0 
z
" transform="scale(0.015625)"/>
     </defs>
     <use xlink:href="#ArialMT-4d"/>
     <use xlink:href="#ArialMT-4c" x="83.300781"/>
     <use xlink:href="#ArialMT-4e" x="138.916016"/>
    </g>
   </g>
   <g id="text_18">
    <!-- MLN + FF -->
    <g style="fill: #262626" transform="translate(347.720856 132.876486) scale(0.1 -0.1)">
     <defs>
      <path id="ArialMT-2b" d="M 1603 741 
L 1603 1997 
L 356 1997 
L 356 2522 
L 1603 2522 
L 1603 3769 
L 2134 3769 
L 2134 2522 
L 3381 2522 
L 3381 1997 
L 2134 1997 
L 2134 741 
L 1603 741 
z
" transform="scale(0.015625)"/>
      <path id="ArialMT-46" d="M 525 0 
L 525 4581 
L 3616 4581 
L 3616 4041 
L 1131 4041 
L 1131 2622 
L 3281 2622 
L 3281 2081 
L 1131 2081 
L 1131 0 
L 525 0 
z
" transform="scale(0.015625)"/>
     </defs>
     <use xlink:href="#ArialMT-4d"/>
     <use xlink:href="#ArialMT-4c" x="83.300781"/>
     <use xlink:href="#ArialMT-4e" x="138.916016"/>
     <use xlink:href="#ArialMT-20" x="211.132812"/>
     <use xlink:href="#ArialMT-2b" x="238.916016"/>
     <use xlink:href="#ArialMT-20" x="297.314453"/>
     <use xlink:href="#ArialMT-46" x="325.097656"/>
     <use xlink:href="#ArialMT-46" x="386.181641"/>
    </g>
   </g>
   <g id="text_19">
    <!-- MLN + A -->
    <g style="fill: #262626" transform="translate(385.277918 180.477845) scale(0.1 -0.1)">
     <use xlink:href="#ArialMT-4d"/>
     <use xlink:href="#ArialMT-4c" x="83.300781"/>
     <use xlink:href="#ArialMT-4e" x="138.916016"/>
     <use xlink:href="#ArialMT-20" x="211.132812"/>
     <use xlink:href="#ArialMT-2b" x="238.916016"/>
     <use xlink:href="#ArialMT-20" x="297.314453"/>
     <use xlink:href="#ArialMT-41" x="319.597656"/>
    </g>
   </g>
   <g id="text_20">
    <!-- MLN + FF + A -->
    <g style="fill: #262626" transform="translate(401.928823 202.869419) scale(0.1 -0.1)">
     <use xlink:href="#ArialMT-4d"/>
     <use xlink:href="#ArialMT-4c" x="83.300781"/>
     <use xlink:href="#ArialMT-4e" x="138.916016"/>
     <use xlink:href="#ArialMT-20" x="211.132812"/>
     <use xlink:href="#ArialMT-2b" x="238.916016"/>
     <use xlink:href="#ArialMT-20" x="297.314453"/>
     <use xlink:href="#ArialMT-46" x="325.097656"/>
     <use xlink:href="#ArialMT-46" x="386.181641"/>
     <use xlink:href="#ArialMT-20" x="447.265625"/>
     <use xlink:href="#ArialMT-2b" x="475.048828"/>
     <use xlink:href="#ArialMT-20" x="533.447266"/>
     <use xlink:href="#ArialMT-41" x="555.730469"/>
    </g>
   </g>
   <g id="text_21">
    <!-- MLN 1 Rep/Grp -->
    <g style="fill: #262626" transform="translate(74.554529 479.582592) scale(0.1 -0.1)">
     <defs>
      <path id="ArialMT-52" d="M 503 0 
L 503 4581 
L 2534 4581 
Q 3147 4581 3465 4457 
Q 3784 4334 3975 4021 
Q 4166 3709 4166 3331 
Q 4166 2844 3850 2509 
Q 3534 2175 2875 2084 
Q 3116 1969 3241 1856 
Q 3506 1613 3744 1247 
L 4541 0 
L 3778 0 
L 3172 953 
Q 2906 1366 2734 1584 
Q 2563 1803 2427 1890 
Q 2291 1978 2150 2013 
Q 2047 2034 1813 2034 
L 1109 2034 
L 1109 0 
L 503 0 
z
M 1109 2559 
L 2413 2559 
Q 2828 2559 3062 2645 
Q 3297 2731 3419 2920 
Q 3541 3109 3541 3331 
Q 3541 3656 3305 3865 
Q 3069 4075 2559 4075 
L 1109 4075 
L 1109 2559 
z
" transform="scale(0.015625)"/>
      <path id="ArialMT-70" d="M 422 -1272 
L 422 3319 
L 934 3319 
L 934 2888 
Q 1116 3141 1344 3267 
Q 1572 3394 1897 3394 
Q 2322 3394 2647 3175 
Q 2972 2956 3137 2557 
Q 3303 2159 3303 1684 
Q 3303 1175 3120 767 
Q 2938 359 2589 142 
Q 2241 -75 1856 -75 
Q 1575 -75 1351 44 
Q 1128 163 984 344 
L 984 -1272 
L 422 -1272 
z
M 931 1641 
Q 931 1000 1190 694 
Q 1450 388 1819 388 
Q 2194 388 2461 705 
Q 2728 1022 2728 1688 
Q 2728 2322 2467 2637 
Q 2206 2953 1844 2953 
Q 1484 2953 1207 2617 
Q 931 2281 931 1641 
z
" transform="scale(0.015625)"/>
      <path id="ArialMT-2f" d="M 0 -78 
L 1328 4659 
L 1778 4659 
L 453 -78 
L 0 -78 
z
" transform="scale(0.015625)"/>
      <path id="ArialMT-47" d="M 2638 1797 
L 2638 2334 
L 4578 2338 
L 4578 638 
Q 4131 281 3656 101 
Q 3181 -78 2681 -78 
Q 2006 -78 1454 211 
Q 903 500 622 1047 
Q 341 1594 341 2269 
Q 341 2938 620 3517 
Q 900 4097 1425 4378 
Q 1950 4659 2634 4659 
Q 3131 4659 3532 4498 
Q 3934 4338 4162 4050 
Q 4391 3763 4509 3300 
L 3963 3150 
Q 3859 3500 3706 3700 
Q 3553 3900 3268 4020 
Q 2984 4141 2638 4141 
Q 2222 4141 1919 4014 
Q 1616 3888 1430 3681 
Q 1244 3475 1141 3228 
Q 966 2803 966 2306 
Q 966 1694 1177 1281 
Q 1388 869 1791 669 
Q 2194 469 2647 469 
Q 3041 469 3416 620 
Q 3791 772 3984 944 
L 3984 1797 
L 2638 1797 
z
" transform="scale(0.015625)"/>
     </defs>
     <use xlink:href="#ArialMT-4d"/>
     <use xlink:href="#ArialMT-4c" x="83.300781"/>
     <use xlink:href="#ArialMT-4e" x="138.916016"/>
     <use xlink:href="#ArialMT-20" x="211.132812"/>
     <use xlink:href="#ArialMT-31" x="238.916016"/>
     <use xlink:href="#ArialMT-20" x="294.53125"/>
     <use xlink:href="#ArialMT-52" x="322.314453"/>
     <use xlink:href="#ArialMT-65" x="394.53125"/>
     <use xlink:href="#ArialMT-70" x="450.146484"/>
     <use xlink:href="#ArialMT-2f" x="505.761719"/>
     <use xlink:href="#ArialMT-47" x="533.544922"/>
     <use xlink:href="#ArialMT-72" x="611.328125"/>
     <use xlink:href="#ArialMT-70" x="644.628906"/>
    </g>
   </g>
   <g id="text_22">
    <!-- MLN 2 Reps/Grp -->
    <g style="fill: #262626" transform="translate(207.150023 393.47301) scale(0.1 -0.1)">
     <use xlink:href="#ArialMT-4d"/>
     <use xlink:href="#ArialMT-4c" x="83.300781"/>
     <use xlink:href="#ArialMT-4e" x="138.916016"/>
     <use xlink:href="#ArialMT-20" x="211.132812"/>
     <use xlink:href="#ArialMT-32" x="238.916016"/>
     <use xlink:href="#ArialMT-20" x="294.53125"/>
     <use xlink:href="#ArialMT-52" x="322.314453"/>
     <use xlink:href="#ArialMT-65" x="394.53125"/>
     <use xlink:href="#ArialMT-70" x="450.146484"/>
     <use xlink:href="#ArialMT-73" x="505.761719"/>
     <use xlink:href="#ArialMT-2f" x="555.761719"/>
     <use xlink:href="#ArialMT-47" x="583.544922"/>
     <use xlink:href="#ArialMT-72" x="661.328125"/>
     <use xlink:href="#ArialMT-70" x="694.628906"/>
    </g>
   </g>
   <g id="text_23">
    <!-- MLN 3 Reps/Grp -->
    <g style="fill: #262626" transform="translate(339.745801 45.622006) scale(0.1 -0.1)">
     <use xlink:href="#ArialMT-4d"/>
     <use xlink:href="#ArialMT-4c" x="83.300781"/>
     <use xlink:href="#ArialMT-4e" x="138.916016"/>
     <use xlink:href="#ArialMT-20" x="211.132812"/>
     <use xlink:href="#ArialMT-33" x="238.916016"/>
     <use xlink:href="#ArialMT-20" x="294.53125"/>
     <use xlink:href="#ArialMT-52" x="322.314453"/>
     <use xlink:href="#ArialMT-65" x="394.53125"/>
     <use xlink:href="#ArialMT-70" x="450.146484"/>
     <use xlink:href="#ArialMT-73" x="505.761719"/>
     <use xlink:href="#ArialMT-2f" x="555.761719"/>
     <use xlink:href="#ArialMT-47" x="583.544922"/>
     <use xlink:href="#ArialMT-72" x="661.328125"/>
     <use xlink:href="#ArialMT-70" x="694.628906"/>
    </g>
   </g>
   <g id="text_24">
    <!-- MLN Deep -->
    <g style="fill: #262626" transform="translate(809.930296 25.982592) scale(0.1 -0.1)">
     <defs>
      <path id="ArialMT-44" d="M 494 0 
L 494 4581 
L 2072 4581 
Q 2606 4581 2888 4516 
Q 3281 4425 3559 4188 
Q 3922 3881 4101 3404 
Q 4281 2928 4281 2316 
Q 4281 1794 4159 1391 
Q 4038 988 3847 723 
Q 3656 459 3429 307 
Q 3203 156 2883 78 
Q 2563 0 2147 0 
L 494 0 
z
M 1100 541 
L 2078 541 
Q 2531 541 2789 625 
Q 3047 709 3200 863 
Q 3416 1078 3536 1442 
Q 3656 1806 3656 2325 
Q 3656 3044 3420 3430 
Q 3184 3816 2847 3947 
Q 2603 4041 2063 4041 
L 1100 4041 
L 1100 541 
z
" transform="scale(0.015625)"/>
     </defs>
     <use xlink:href="#ArialMT-4d"/>
     <use xlink:href="#ArialMT-4c" x="83.300781"/>
     <use xlink:href="#ArialMT-4e" x="138.916016"/>
     <use xlink:href="#ArialMT-20" x="211.132812"/>
     <use xlink:href="#ArialMT-44" x="238.916016"/>
     <use xlink:href="#ArialMT-65" x="311.132812"/>
     <use xlink:href="#ArialMT-65" x="366.748047"/>
     <use xlink:href="#ArialMT-70" x="422.363281"/>
    </g>
   </g>
   <g id="text_25">
    <!-- MLN RevGrps -->
    <g style="fill: #262626" transform="translate(187.370356 226.339839) scale(0.1 -0.1)">
     <defs>
      <path id="ArialMT-76" d="M 1344 0 
L 81 3319 
L 675 3319 
L 1388 1331 
Q 1503 1009 1600 663 
Q 1675 925 1809 1294 
L 2547 3319 
L 3125 3319 
L 1869 0 
L 1344 0 
z
" transform="scale(0.015625)"/>
     </defs>
     <use xlink:href="#ArialMT-4d"/>
     <use xlink:href="#ArialMT-4c" x="83.300781"/>
     <use xlink:href="#ArialMT-4e" x="138.916016"/>
     <use xlink:href="#ArialMT-20" x="211.132812"/>
     <use xlink:href="#ArialMT-52" x="238.916016"/>
     <use xlink:href="#ArialMT-65" x="311.132812"/>
     <use xlink:href="#ArialMT-76" x="366.748047"/>
     <use xlink:href="#ArialMT-47" x="416.748047"/>
     <use xlink:href="#ArialMT-72" x="494.53125"/>
     <use xlink:href="#ArialMT-70" x="527.832031"/>
     <use xlink:href="#ArialMT-73" x="583.447266"/>
    </g>
   </g>
   <g id="text_26">
    <!-- MLN RevReps -->
    <g style="fill: #262626" transform="translate(170.951443 194.723025) scale(0.1 -0.1)">
     <use xlink:href="#ArialMT-4d"/>
     <use xlink:href="#ArialMT-4c" x="83.300781"/>
     <use xlink:href="#ArialMT-4e" x="138.916016"/>
     <use xlink:href="#ArialMT-20" x="211.132812"/>
     <use xlink:href="#ArialMT-52" x="238.916016"/>
     <use xlink:href="#ArialMT-65" x="311.132812"/>
     <use xlink:href="#ArialMT-76" x="366.748047"/>
     <use xlink:href="#ArialMT-52" x="416.748047"/>
     <use xlink:href="#ArialMT-65" x="488.964844"/>
     <use xlink:href="#ArialMT-70" x="544.580078"/>
     <use xlink:href="#ArialMT-73" x="600.195312"/>
    </g>
   </g>
   <g id="legend_1">
    <g id="patch_7">
     <path d="M 38.50625 107.2625 
L 116.4 107.2625 
Q 118.4 107.2625 118.4 105.2625 
L 118.4 7 
Q 118.4 5 116.4 5 
L 38.50625 5 
Q 36.50625 5 36.50625 7 
L 36.50625 105.2625 
Q 36.50625 107.2625 38.50625 107.2625 
z
" style="fill: #eaeaf2; opacity: 0.8; stroke: #cccccc; stroke-linejoin: miter"/>
    </g>
    <g id="text_27">
     <!-- FLOPs (millions) -->
     <g style="fill: #262626" transform="translate(40.50625 16.285938) scale(0.1 -0.1)">
      <defs>
       <path id="ArialMT-4f" d="M 309 2231 
Q 309 3372 921 4017 
Q 1534 4663 2503 4663 
Q 3138 4663 3647 4359 
Q 4156 4056 4423 3514 
Q 4691 2972 4691 2284 
Q 4691 1588 4409 1038 
Q 4128 488 3612 205 
Q 3097 -78 2500 -78 
Q 1853 -78 1343 234 
Q 834 547 571 1087 
Q 309 1628 309 2231 
z
M 934 2222 
Q 934 1394 1379 917 
Q 1825 441 2497 441 
Q 3181 441 3623 922 
Q 4066 1403 4066 2288 
Q 4066 2847 3877 3264 
Q 3688 3681 3323 3911 
Q 2959 4141 2506 4141 
Q 1863 4141 1398 3698 
Q 934 3256 934 2222 
z
" transform="scale(0.015625)"/>
      </defs>
      <use xlink:href="#ArialMT-46"/>
      <use xlink:href="#ArialMT-4c" x="61.083984"/>
      <use xlink:href="#ArialMT-4f" x="116.699219"/>
      <use xlink:href="#ArialMT-50" x="194.482422"/>
      <use xlink:href="#ArialMT-73" x="261.181641"/>
      <use xlink:href="#ArialMT-20" x="311.181641"/>
      <use xlink:href="#ArialMT-28" x="338.964844"/>
      <use xlink:href="#ArialMT-6d" x="372.265625"/>
      <use xlink:href="#ArialMT-69" x="455.566406"/>
      <use xlink:href="#ArialMT-6c" x="477.783203"/>
      <use xlink:href="#ArialMT-6c" x="500"/>
      <use xlink:href="#ArialMT-69" x="522.216797"/>
      <use xlink:href="#ArialMT-6f" x="544.433594"/>
      <use xlink:href="#ArialMT-6e" x="600.048828"/>
      <use xlink:href="#ArialMT-73" x="655.664062"/>
      <use xlink:href="#ArialMT-29" x="705.664062"/>
     </g>
    </g>
    <g id="line2d_21">
     <defs>
      <path id="mfa81ca3952" d="M 0 5.03965 
C 1.336531 5.03965 2.618501 4.508641 3.563571 3.563571 
C 4.508641 2.618501 5.03965 1.336531 5.03965 0 
C 5.03965 -1.336531 4.508641 -2.618501 3.563571 -3.563571 
C 2.618501 -4.508641 1.336531 -5.03965 0 -5.03965 
C -1.336531 -5.03965 -2.618501 -4.508641 -3.563571 -3.563571 
C -4.508641 -2.618501 -5.03965 -1.336531 -5.03965 0 
C -5.03965 1.336531 -4.508641 2.618501 -3.563571 3.563571 
C -2.618501 4.508641 -1.336531 5.03965 0 5.03965 
z
" style="stroke: #ffffff; stroke-width: 1.017754"/>
     </defs>
     <g>
      <use xlink:href="#mfa81ca3952" x="65.111719" y="27.048438" style="fill: #edaf80; stroke: #ffffff; stroke-width: 1.017754"/>
     </g>
    </g>
    <g id="text_28">
     <!-- 240 -->
     <g style="fill: #262626" transform="translate(83.111719 30.548438) scale(0.1 -0.1)">
      <defs>
       <path id="ArialMT-34" d="M 2069 0 
L 2069 1097 
L 81 1097 
L 81 1613 
L 2172 4581 
L 2631 4581 
L 2631 1613 
L 3250 1613 
L 3250 1097 
L 2631 1097 
L 2631 0 
L 2069 0 
z
M 2069 1613 
L 2069 3678 
L 634 1613 
L 2069 1613 
z
" transform="scale(0.015625)"/>
      </defs>
      <use xlink:href="#ArialMT-32"/>
      <use xlink:href="#ArialMT-34" x="55.615234"/>
      <use xlink:href="#ArialMT-30" x="111.230469"/>
     </g>
    </g>
    <g id="line2d_22">
     <defs>
      <path id="m6f3d9490a2" d="M 0 6.063968 
C 1.608183 6.063968 3.150716 5.42503 4.287873 4.287873 
C 5.42503 3.150716 6.063968 1.608183 6.063968 0 
C 6.063968 -1.608183 5.42503 -3.150716 4.287873 -4.287873 
C 3.150716 -5.42503 1.608183 -6.063968 0 -6.063968 
C -1.608183 -6.063968 -3.150716 -5.42503 -4.287873 -4.287873 
C -5.42503 -3.150716 -6.063968 -1.608183 -6.063968 0 
C -6.063968 1.608183 -5.42503 3.150716 -4.287873 4.287873 
C -3.150716 5.42503 -1.608183 6.063968 0 6.063968 
z
" style="stroke: #ffffff; stroke-width: 1.017754"/>
     </defs>
     <g>
      <use xlink:href="#m6f3d9490a2" x="65.111719" y="41.19375" style="fill: #e88165; stroke: #ffffff; stroke-width: 1.017754"/>
     </g>
    </g>
    <g id="text_29">
     <!-- 300 -->
     <g style="fill: #262626" transform="translate(83.111719 44.69375) scale(0.1 -0.1)">
      <use xlink:href="#ArialMT-33"/>
      <use xlink:href="#ArialMT-30" x="55.615234"/>
      <use xlink:href="#ArialMT-30" x="111.230469"/>
     </g>
    </g>
    <g id="line2d_23">
     <defs>
      <path id="m3cc140f7f3" d="M 0 6.938684 
C 1.840161 6.938684 3.605201 6.207581 4.906391 4.906391 
C 6.207581 3.605201 6.938684 1.840161 6.938684 0 
C 6.938684 -1.840161 6.207581 -3.605201 4.906391 -4.906391 
C 3.605201 -6.207581 1.840161 -6.938684 0 -6.938684 
C -1.840161 -6.938684 -3.605201 -6.207581 -4.906391 -4.906391 
C -6.207581 -3.605201 -6.938684 -1.840161 -6.938684 0 
C -6.938684 1.840161 -6.207581 3.605201 -4.906391 4.906391 
C -3.605201 6.207581 -1.840161 6.938684 0 6.938684 
z
" style="stroke: #ffffff; stroke-width: 1.017754"/>
     </defs>
     <g>
      <use xlink:href="#m3cc140f7f3" x="65.111719" y="55.339063" style="fill: #da555d; stroke: #ffffff; stroke-width: 1.017754"/>
     </g>
    </g>
    <g id="text_30">
     <!-- 360 -->
     <g style="fill: #262626" transform="translate(83.111719 58.839063) scale(0.1 -0.1)">
      <defs>
       <path id="ArialMT-36" d="M 3184 3459 
L 2625 3416 
Q 2550 3747 2413 3897 
Q 2184 4138 1850 4138 
Q 1581 4138 1378 3988 
Q 1113 3794 959 3422 
Q 806 3050 800 2363 
Q 1003 2672 1297 2822 
Q 1591 2972 1913 2972 
Q 2475 2972 2870 2558 
Q 3266 2144 3266 1488 
Q 3266 1056 3080 686 
Q 2894 316 2569 119 
Q 2244 -78 1831 -78 
Q 1128 -78 684 439 
Q 241 956 241 2144 
Q 241 3472 731 4075 
Q 1159 4600 1884 4600 
Q 2425 4600 2770 4297 
Q 3116 3994 3184 3459 
z
M 888 1484 
Q 888 1194 1011 928 
Q 1134 663 1356 523 
Q 1578 384 1822 384 
Q 2178 384 2434 671 
Q 2691 959 2691 1453 
Q 2691 1928 2437 2201 
Q 2184 2475 1800 2475 
Q 1419 2475 1153 2201 
Q 888 1928 888 1484 
z
" transform="scale(0.015625)"/>
      </defs>
      <use xlink:href="#ArialMT-33"/>
      <use xlink:href="#ArialMT-36" x="55.615234"/>
      <use xlink:href="#ArialMT-30" x="111.230469"/>
     </g>
    </g>
    <g id="line2d_24">
     <defs>
      <path id="m02ed023ed0" d="M 0 7.714854 
C 2.046003 7.714854 4.008483 6.901968 5.455226 5.455226 
C 6.901968 4.008483 7.714854 2.046003 7.714854 0 
C 7.714854 -2.046003 6.901968 -4.008483 5.455226 -5.455226 
C 4.008483 -6.901968 2.046003 -7.714854 0 -7.714854 
C -2.046003 -7.714854 -4.008483 -6.901968 -5.455226 -5.455226 
C -6.901968 -4.008483 -7.714854 -2.046003 -7.714854 0 
C -7.714854 2.046003 -6.901968 4.008483 -5.455226 5.455226 
C -4.008483 6.901968 -2.046003 7.714854 0 7.714854 
z
" style="stroke: #ffffff; stroke-width: 1.017754"/>
     </defs>
     <g>
      <use xlink:href="#m02ed023ed0" x="65.111719" y="69.484375" style="fill: #b53d6b; stroke: #ffffff; stroke-width: 1.017754"/>
     </g>
    </g>
    <g id="text_31">
     <!-- 420 -->
     <g style="fill: #262626" transform="translate(83.111719 72.984375) scale(0.1 -0.1)">
      <use xlink:href="#ArialMT-34"/>
      <use xlink:href="#ArialMT-32" x="55.615234"/>
      <use xlink:href="#ArialMT-30" x="111.230469"/>
     </g>
    </g>
    <g id="line2d_25">
     <defs>
      <path id="mf3f8a71724" d="M 0 8.419774 
C 2.23295 8.419774 4.374745 7.532614 5.95368 5.95368 
C 7.532614 4.374745 8.419774 2.23295 8.419774 0 
C 8.419774 -2.23295 7.532614 -4.374745 5.95368 -5.95368 
C 4.374745 -7.532614 2.23295 -8.419774 0 -8.419774 
C -2.23295 -8.419774 -4.374745 -7.532614 -5.95368 -5.95368 
C -7.532614 -4.374745 -8.419774 -2.23295 -8.419774 0 
C -8.419774 2.23295 -7.532614 4.374745 -5.95368 5.95368 
C -4.374745 7.532614 -2.23295 8.419774 0 8.419774 
z
" style="stroke: #ffffff; stroke-width: 1.017754"/>
     </defs>
     <g>
      <use xlink:href="#mf3f8a71724" x="65.111719" y="83.629688" style="fill: #8a3171; stroke: #ffffff; stroke-width: 1.017754"/>
     </g>
    </g>
    <g id="text_32">
     <!-- 480 -->
     <g style="fill: #262626" transform="translate(83.111719 87.129688) scale(0.1 -0.1)">
      <use xlink:href="#ArialMT-34"/>
      <use xlink:href="#ArialMT-38" x="55.615234"/>
      <use xlink:href="#ArialMT-30" x="111.230469"/>
     </g>
    </g>
    <g id="line2d_26">
     <defs>
      <path id="m216e914557" d="M 0 9.070074 
C 2.405412 9.070074 4.712628 8.114393 6.413511 6.413511 
C 8.114393 4.712628 9.070074 2.405412 9.070074 0 
C 9.070074 -2.405412 8.114393 -4.712628 6.413511 -6.413511 
C 4.712628 -8.114393 2.405412 -9.070074 0 -9.070074 
C -2.405412 -9.070074 -4.712628 -8.114393 -6.413511 -6.413511 
C -8.114393 -4.712628 -9.070074 -2.405412 -9.070074 0 
C -9.070074 2.405412 -8.114393 4.712628 -6.413511 6.413511 
C -4.712628 8.114393 -2.405412 9.070074 0 9.070074 
z
" style="stroke: #ffffff; stroke-width: 1.017754"/>
     </defs>
     <g>
      <use xlink:href="#m216e914557" x="65.111719" y="97.775" style="fill: #5e2868; stroke: #ffffff; stroke-width: 1.017754"/>
     </g>
    </g>
    <g id="text_33">
     <!-- 540 -->
     <g style="fill: #262626" transform="translate(83.111719 101.275) scale(0.1 -0.1)">
      <use xlink:href="#ArialMT-35"/>
      <use xlink:href="#ArialMT-34" x="55.615234"/>
      <use xlink:href="#ArialMT-30" x="111.230469"/>
     </g>
    </g>
   </g>
  </g>
 </g>
 <defs>
  <clipPath id="p8ba3380874">
   <rect x="31.50625" y="0" width="892.8" height="498.96"/>
  </clipPath>
 </defs>
</svg>
