<svg xmlns="http://www.w3.org/2000/svg" xmlns:xlink="http://www.w3.org/1999/xlink" width="1232.408" height="704.653" version="1.1" viewBox="0 0 924.306 528.49"><metadata><rdf:RDF xmlns:cc="http://creativecommons.org/ns#" xmlns:dc="http://purl.org/dc/elements/1.1/" xmlns:rdf="http://www.w3.org/1999/02/22-rdf-syntax-ns#"><cc:Work><dc:type rdf:resource="http://purl.org/dc/dcmitype/StillImage"/><dc:date>2024-03-02T23:39:10.600663</dc:date><dc:format>image/svg+xml</dc:format><dc:creator><cc:Agent><dc:title>Matplotlib v3.6.2, https://matplotlib.org/</dc:title></cc:Agent></dc:creator></cc:Work></rdf:RDF></metadata><defs><style type="text/css">*{stroke-linejoin:round;stroke-linecap:butt}</style></defs><g id="figure_1"><g id="patch_1"><path d="M 0 528.489688 L 924.30625 528.489688 L 924.30625 0 L 0 0 z" style="fill:#fff"/></g><g id="axes_1"><g id="patch_2"><path d="M 31.50625 498.96 L 924.30625 498.96 L 924.30625 0 L 31.50625 0 z" style="fill:#eaeaf2"/></g><g id="patch_3"><path d="M -54.141073 295.634447 L -54.141073 0 L 924.30625 0 L 924.30625 295.634447 z" clip-path="url(#p98a69007ae)" style="fill:#c1c8f3;opacity:.2;stroke:#c1c8f3;stroke-linejoin:miter"/></g><g id="line2d_1"><path d="M 31.50625 295.634447 L 924.30625 295.634447" clip-path="url(#p98a69007ae)" style="fill:none;stroke-dasharray:5.55,2.4;stroke-dashoffset:0;stroke:#c1c8f3;stroke-width:1.5"/></g><g id="text_1"><g style="fill:#636efa" transform="translate(31.506293 312.568976) scale(0.1 -0.1)"><defs><path id="ArialMT-4d" d="M 475 0 L 475 4581 L 1388 4581 L 2472 1338 Q 2622 884 2691 659 Q 2769 909 2934 1394 L 4031 4581 L 4847 4581 L 4847 0 L 4263 0 L 4263 3834 L 2931 0 L 2384 0 L 1059 3900 L 1059 0 L 475 0 z" transform="scale(0.015625)"/><path id="ArialMT-69" d="M 425 3934 L 425 4581 L 988 4581 L 988 3934 L 425 3934 z M 425 0 L 425 3319 L 988 3319 L 988 0 L 425 0 z" transform="scale(0.015625)"/><path id="ArialMT-6e" d="M 422 0 L 422 3319 L 928 3319 L 928 2847 Q 1294 3394 1984 3394 Q 2284 3394 2536 3286 Q 2788 3178 2913 3003 Q 3038 2828 3088 2588 Q 3119 2431 3119 2041 L 3119 0 L 2556 0 L 2556 2019 Q 2556 2363 2490 2533 Q 2425 2703 2258 2804 Q 2091 2906 1866 2906 Q 1506 2906 1245 2678 Q 984 2450 984 1813 L 984 0 L 422 0 z" transform="scale(0.015625)"/><path id="ArialMT-6d" d="M 422 0 L 422 3319 L 925 3319 L 925 2853 Q 1081 3097 1340 3245 Q 1600 3394 1931 3394 Q 2300 3394 2536 3241 Q 2772 3088 2869 2813 Q 3263 3394 3894 3394 Q 4388 3394 4653 3120 Q 4919 2847 4919 2278 L 4919 0 L 4359 0 L 4359 2091 Q 4359 2428 4304 2576 Q 4250 2725 4106 2815 Q 3963 2906 3769 2906 Q 3419 2906 3187 2673 Q 2956 2441 2956 1928 L 2956 0 L 2394 0 L 2394 2156 Q 2394 2531 2256 2718 Q 2119 2906 1806 2906 Q 1569 2906 1367 2781 Q 1166 2656 1075 2415 Q 984 2175 984 1722 L 984 0 L 422 0 z" transform="scale(0.015625)"/><path id="ArialMT-75" d="M 2597 0 L 2597 488 Q 2209 -75 1544 -75 Q 1250 -75 995 37 Q 741 150 617 320 Q 494 491 444 738 Q 409 903 409 1263 L 409 3319 L 972 3319 L 972 1478 Q 972 1038 1006 884 Q 1059 663 1231 536 Q 1403 409 1656 409 Q 1909 409 2131 539 Q 2353 669 2445 892 Q 2538 1116 2538 1541 L 2538 3319 L 3100 3319 L 3100 0 L 2597 0 z" transform="scale(0.015625)"/><path id="ArialMT-20" transform="scale(0.015625)"/><path id="ArialMT-61" d="M 2588 409 Q 2275 144 1986 34 Q 1697 -75 1366 -75 Q 819 -75 525 192 Q 231 459 231 875 Q 231 1119 342 1320 Q 453 1522 633 1644 Q 813 1766 1038 1828 Q 1203 1872 1538 1913 Q 2219 1994 2541 2106 Q 2544 2222 2544 2253 Q 2544 2597 2384 2738 Q 2169 2928 1744 2928 Q 1347 2928 1158 2789 Q 969 2650 878 2297 L 328 2372 Q 403 2725 575 2942 Q 747 3159 1072 3276 Q 1397 3394 1825 3394 Q 2250 3394 2515 3294 Q 2781 3194 2906 3042 Q 3031 2891 3081 2659 Q 3109 2516 3109 2141 L 3109 1391 Q 3109 606 3145 398 Q 3181 191 3288 0 L 2700 0 Q 2613 175 2588 409 z M 2541 1666 Q 2234 1541 1622 1453 Q 1275 1403 1131 1340 Q 988 1278 909 1158 Q 831 1038 831 891 Q 831 666 1001 516 Q 1172 366 1500 366 Q 1825 366 2078 508 Q 2331 650 2450 897 Q 2541 1088 2541 1459 L 2541 1666 z" transform="scale(0.015625)"/><path id="ArialMT-63" d="M 2588 1216 L 3141 1144 Q 3050 572 2676 248 Q 2303 -75 1759 -75 Q 1078 -75 664 370 Q 250 816 250 1647 Q 250 2184 428 2587 Q 606 2991 970 3192 Q 1334 3394 1763 3394 Q 2303 3394 2647 3120 Q 2991 2847 3088 2344 L 2541 2259 Q 2463 2594 2264 2762 Q 2066 2931 1784 2931 Q 1359 2931 1093 2626 Q 828 2322 828 1663 Q 828 994 1084 691 Q 1341 388 1753 388 Q 2084 388 2306 591 Q 2528 794 2588 1216 z" transform="scale(0.015625)"/><path id="ArialMT-72" d="M 416 0 L 416 3319 L 922 3319 L 922 2816 Q 1116 3169 1280 3281 Q 1444 3394 1641 3394 Q 1925 3394 2219 3213 L 2025 2691 Q 1819 2813 1613 2813 Q 1428 2813 1281 2702 Q 1134 2591 1072 2394 Q 978 2094 978 1738 L 978 0 L 416 0 z" transform="scale(0.015625)"/><path id="ArialMT-79" d="M 397 -1278 L 334 -750 Q 519 -800 656 -800 Q 844 -800 956 -737 Q 1069 -675 1141 -563 Q 1194 -478 1313 -144 Q 1328 -97 1363 -6 L 103 3319 L 709 3319 L 1400 1397 Q 1534 1031 1641 628 Q 1738 1016 1872 1384 L 2581 3319 L 3144 3319 L 1881 -56 Q 1678 -603 1566 -809 Q 1416 -1088 1222 -1217 Q 1028 -1347 759 -1347 Q 597 -1347 397 -1278 z" transform="scale(0.015625)"/><path id="ArialMT-66" d="M 556 0 L 556 2881 L 59 2881 L 59 3319 L 556 3319 L 556 3672 Q 556 4006 616 4169 Q 697 4388 901 4523 Q 1106 4659 1475 4659 Q 1713 4659 2000 4603 L 1916 4113 Q 1741 4144 1584 4144 Q 1328 4144 1222 4034 Q 1116 3925 1116 3625 L 1116 3319 L 1763 3319 L 1763 2881 L 1116 2881 L 1116 0 L 556 0 z" transform="scale(0.015625)"/><path id="ArialMT-6f" d="M 213 1659 Q 213 2581 725 3025 Q 1153 3394 1769 3394 Q 2453 3394 2887 2945 Q 3322 2497 3322 1706 Q 3322 1066 3130 698 Q 2938 331 2570 128 Q 2203 -75 1769 -75 Q 1072 -75 642 372 Q 213 819 213 1659 z M 791 1659 Q 791 1022 1069 705 Q 1347 388 1769 388 Q 2188 388 2466 706 Q 2744 1025 2744 1678 Q 2744 2294 2464 2611 Q 2184 2928 1769 2928 Q 1347 2928 1069 2612 Q 791 2297 791 1659 z" transform="scale(0.015625)"/><path id="ArialMT-62" d="M 941 0 L 419 0 L 419 4581 L 981 4581 L 981 2947 Q 1338 3394 1891 3394 Q 2197 3394 2470 3270 Q 2744 3147 2920 2923 Q 3097 2700 3197 2384 Q 3297 2069 3297 1709 Q 3297 856 2875 390 Q 2453 -75 1863 -75 Q 1275 -75 941 416 L 941 0 z M 934 1684 Q 934 1088 1097 822 Q 1363 388 1816 388 Q 2184 388 2453 708 Q 2722 1028 2722 1663 Q 2722 2313 2464 2622 Q 2206 2931 1841 2931 Q 1472 2931 1203 2611 Q 934 2291 934 1684 z" transform="scale(0.015625)"/><path id="ArialMT-65" d="M 2694 1069 L 3275 997 Q 3138 488 2766 206 Q 2394 -75 1816 -75 Q 1088 -75 661 373 Q 234 822 234 1631 Q 234 2469 665 2931 Q 1097 3394 1784 3394 Q 2450 3394 2872 2941 Q 3294 2488 3294 1666 Q 3294 1616 3291 1516 L 816 1516 Q 847 969 1125 678 Q 1403 388 1819 388 Q 2128 388 2347 550 Q 2566 713 2694 1069 z M 847 1978 L 2700 1978 Q 2663 2397 2488 2606 Q 2219 2931 1791 2931 Q 1403 2931 1139 2672 Q 875 2413 847 1978 z" transform="scale(0.015625)"/><path id="ArialMT-68" d="M 422 0 L 422 4581 L 984 4581 L 984 2938 Q 1378 3394 1978 3394 Q 2347 3394 2619 3248 Q 2891 3103 3008 2847 Q 3125 2591 3125 2103 L 3125 0 L 2563 0 L 2563 2103 Q 2563 2525 2380 2717 Q 2197 2909 1863 2909 Q 1613 2909 1392 2779 Q 1172 2650 1078 2428 Q 984 2206 984 1816 L 984 0 L 422 0 z" transform="scale(0.015625)"/><path id="ArialMT-6b" d="M 425 0 L 425 4581 L 988 4581 L 988 1969 L 2319 3319 L 3047 3319 L 1778 2088 L 3175 0 L 2481 0 L 1384 1697 L 988 1316 L 988 0 L 425 0 z" transform="scale(0.015625)"/></defs><use xlink:href="#ArialMT-4d"/><use x="83.301" xlink:href="#ArialMT-69"/><use x="105.518" xlink:href="#ArialMT-6e"/><use x="161.133" xlink:href="#ArialMT-69"/><use x="183.35" xlink:href="#ArialMT-6d"/><use x="266.65" xlink:href="#ArialMT-75"/><use x="322.266" xlink:href="#ArialMT-6d"/><use x="405.566" xlink:href="#ArialMT-20"/><use x="433.35" xlink:href="#ArialMT-61"/><use x="488.965" xlink:href="#ArialMT-63"/><use x="538.965" xlink:href="#ArialMT-63"/><use x="588.965" xlink:href="#ArialMT-75"/><use x="644.58" xlink:href="#ArialMT-72"/><use x="677.881" xlink:href="#ArialMT-61"/><use x="733.496" xlink:href="#ArialMT-63"/><use x="783.496" xlink:href="#ArialMT-79"/><use x="833.496" xlink:href="#ArialMT-20"/><use x="861.279" xlink:href="#ArialMT-66"/><use x="889.063" xlink:href="#ArialMT-6f"/><use x="944.678" xlink:href="#ArialMT-72"/><use x="977.979" xlink:href="#ArialMT-20"/><use x="1005.762" xlink:href="#ArialMT-62"/><use x="1061.377" xlink:href="#ArialMT-65"/><use x="1116.992" xlink:href="#ArialMT-6e"/><use x="1172.607" xlink:href="#ArialMT-63"/><use x="1222.607" xlink:href="#ArialMT-68"/><use x="1278.223" xlink:href="#ArialMT-6d"/><use x="1361.523" xlink:href="#ArialMT-61"/><use x="1417.139" xlink:href="#ArialMT-72"/><use x="1450.439" xlink:href="#ArialMT-6b"/></g></g><g id="matplotlib.axis_1"><g id="xtick_1"><g id="line2d_2"><path d="M 52.211897 498.96 L 52.211897 0" clip-path="url(#p98a69007ae)" style="fill:none;stroke:#fff;stroke-width:.8;stroke-linecap:round"/></g><g id="text_2"><g style="fill:#262626" transform="translate(42.481428 513.117813) scale(0.1 -0.1)"><defs><path id="ArialMT-30" d="M 266 2259 Q 266 3072 433 3567 Q 600 4063 929 4331 Q 1259 4600 1759 4600 Q 2128 4600 2406 4451 Q 2684 4303 2865 4023 Q 3047 3744 3150 3342 Q 3253 2941 3253 2259 Q 3253 1453 3087 958 Q 2922 463 2592 192 Q 2263 -78 1759 -78 Q 1097 -78 719 397 Q 266 969 266 2259 z M 844 2259 Q 844 1131 1108 757 Q 1372 384 1759 384 Q 2147 384 2411 759 Q 2675 1134 2675 2259 Q 2675 3391 2411 3762 Q 2147 4134 1753 4134 Q 1366 4134 1134 3806 Q 844 3388 844 2259 z" transform="scale(0.015625)"/><path id="ArialMT-2e" d="M 581 0 L 581 641 L 1222 641 L 1222 0 L 581 0 z" transform="scale(0.015625)"/><path id="ArialMT-33" d="M 269 1209 L 831 1284 Q 928 806 1161 595 Q 1394 384 1728 384 Q 2125 384 2398 659 Q 2672 934 2672 1341 Q 2672 1728 2419 1979 Q 2166 2231 1775 2231 Q 1616 2231 1378 2169 L 1441 2663 Q 1497 2656 1531 2656 Q 1891 2656 2178 2843 Q 2466 3031 2466 3422 Q 2466 3731 2256 3934 Q 2047 4138 1716 4138 Q 1388 4138 1169 3931 Q 950 3725 888 3313 L 325 3413 Q 428 3978 793 4289 Q 1159 4600 1703 4600 Q 2078 4600 2393 4439 Q 2709 4278 2876 4000 Q 3044 3722 3044 3409 Q 3044 3113 2884 2869 Q 2725 2625 2413 2481 Q 2819 2388 3044 2092 Q 3269 1797 3269 1353 Q 3269 753 2831 336 Q 2394 -81 1725 -81 Q 1122 -81 723 278 Q 325 638 269 1209 z" transform="scale(0.015625)"/></defs><use xlink:href="#ArialMT-30"/><use x="55.615" xlink:href="#ArialMT-2e"/><use x="83.398" xlink:href="#ArialMT-30"/><use x="139.014" xlink:href="#ArialMT-33"/></g></g></g><g id="xtick_2"><g id="line2d_3"><path d="M 158.564867 498.96 L 158.564867 0" clip-path="url(#p98a69007ae)" style="fill:none;stroke:#fff;stroke-width:.8;stroke-linecap:round"/></g><g id="text_3"><g style="fill:#262626" transform="translate(148.834398 513.117813) scale(0.1 -0.1)"><defs><path id="ArialMT-35" d="M 266 1200 L 856 1250 Q 922 819 1161 601 Q 1400 384 1738 384 Q 2144 384 2425 690 Q 2706 997 2706 1503 Q 2706 1984 2436 2262 Q 2166 2541 1728 2541 Q 1456 2541 1237 2417 Q 1019 2294 894 2097 L 366 2166 L 809 4519 L 3088 4519 L 3088 3981 L 1259 3981 L 1013 2750 Q 1425 3038 1878 3038 Q 2478 3038 2890 2622 Q 3303 2206 3303 1553 Q 3303 931 2941 478 Q 2500 -78 1738 -78 Q 1113 -78 717 272 Q 322 622 266 1200 z" transform="scale(0.015625)"/></defs><use xlink:href="#ArialMT-30"/><use x="55.615" xlink:href="#ArialMT-2e"/><use x="83.398" xlink:href="#ArialMT-30"/><use x="139.014" xlink:href="#ArialMT-35"/></g></g></g><g id="xtick_3"><g id="line2d_4"><path d="M 264.917837 498.96 L 264.917837 0" clip-path="url(#p98a69007ae)" style="fill:none;stroke:#fff;stroke-width:.8;stroke-linecap:round"/></g><g id="text_4"><g style="fill:#262626" transform="translate(255.187368 513.117813) scale(0.1 -0.1)"><defs><path id="ArialMT-37" d="M 303 3981 L 303 4522 L 3269 4522 L 3269 4084 Q 2831 3619 2401 2847 Q 1972 2075 1738 1259 Q 1569 684 1522 0 L 944 0 Q 953 541 1156 1306 Q 1359 2072 1739 2783 Q 2119 3494 2547 3981 L 303 3981 z" transform="scale(0.015625)"/></defs><use xlink:href="#ArialMT-30"/><use x="55.615" xlink:href="#ArialMT-2e"/><use x="83.398" xlink:href="#ArialMT-30"/><use x="139.014" xlink:href="#ArialMT-37"/></g></g></g><g id="xtick_4"><g id="line2d_5"><path d="M 371.270807 498.96 L 371.270807 0" clip-path="url(#p98a69007ae)" style="fill:none;stroke:#fff;stroke-width:.8;stroke-linecap:round"/></g><g id="text_5"><g style="fill:#262626" transform="translate(361.540338 513.117813) scale(0.1 -0.1)"><defs><path id="ArialMT-31" d="M 2384 0 L 1822 0 L 1822 3584 Q 1619 3391 1289 3197 Q 959 3003 697 2906 L 697 3450 Q 1169 3672 1522 3987 Q 1875 4303 2022 4600 L 2384 4600 L 2384 0 z" transform="scale(0.015625)"/></defs><use xlink:href="#ArialMT-30"/><use x="55.615" xlink:href="#ArialMT-2e"/><use x="83.398" xlink:href="#ArialMT-31"/><use x="139.014" xlink:href="#ArialMT-30"/></g></g></g><g id="xtick_5"><g id="line2d_6"><path d="M 477.623777 498.96 L 477.623777 0" clip-path="url(#p98a69007ae)" style="fill:none;stroke:#fff;stroke-width:.8;stroke-linecap:round"/></g><g id="text_6"><g style="fill:#262626" transform="translate(467.893308 513.117813) scale(0.1 -0.1)"><defs><path id="ArialMT-32" d="M 3222 541 L 3222 0 L 194 0 Q 188 203 259 391 Q 375 700 629 1000 Q 884 1300 1366 1694 Q 2113 2306 2375 2664 Q 2638 3022 2638 3341 Q 2638 3675 2398 3904 Q 2159 4134 1775 4134 Q 1369 4134 1125 3890 Q 881 3647 878 3216 L 300 3275 Q 359 3922 746 4261 Q 1134 4600 1788 4600 Q 2447 4600 2831 4234 Q 3216 3869 3216 3328 Q 3216 3053 3103 2787 Q 2991 2522 2730 2228 Q 2469 1934 1863 1422 Q 1356 997 1212 845 Q 1069 694 975 541 L 3222 541 z" transform="scale(0.015625)"/></defs><use xlink:href="#ArialMT-30"/><use x="55.615" xlink:href="#ArialMT-2e"/><use x="83.398" xlink:href="#ArialMT-31"/><use x="139.014" xlink:href="#ArialMT-32"/></g></g></g><g id="xtick_6"><g id="line2d_7"><path d="M 583.976746 498.96 L 583.976746 0" clip-path="url(#p98a69007ae)" style="fill:none;stroke:#fff;stroke-width:.8;stroke-linecap:round"/></g><g id="text_7"><g style="fill:#262626" transform="translate(574.246278 513.117813) scale(0.1 -0.1)"><use xlink:href="#ArialMT-30"/><use x="55.615" xlink:href="#ArialMT-2e"/><use x="83.398" xlink:href="#ArialMT-31"/><use x="139.014" xlink:href="#ArialMT-35"/></g></g></g><g id="xtick_7"><g id="line2d_8"><path d="M 690.329716 498.96 L 690.329716 0" clip-path="url(#p98a69007ae)" style="fill:none;stroke:#fff;stroke-width:.8;stroke-linecap:round"/></g><g id="text_8"><g style="fill:#262626" transform="translate(680.599248 513.117813) scale(0.1 -0.1)"><use xlink:href="#ArialMT-30"/><use x="55.615" xlink:href="#ArialMT-2e"/><use x="83.398" xlink:href="#ArialMT-31"/><use x="139.014" xlink:href="#ArialMT-37"/></g></g></g><g id="xtick_8"><g id="line2d_9"><path d="M 796.682686 498.96 L 796.682686 0" clip-path="url(#p98a69007ae)" style="fill:none;stroke:#fff;stroke-width:.8;stroke-linecap:round"/></g><g id="text_9"><g style="fill:#262626" transform="translate(786.952217 513.117813) scale(0.1 -0.1)"><use xlink:href="#ArialMT-30"/><use x="55.615" xlink:href="#ArialMT-2e"/><use x="83.398" xlink:href="#ArialMT-32"/><use x="139.014" xlink:href="#ArialMT-30"/></g></g></g><g id="xtick_9"><g id="line2d_10"><path d="M 903.035656 498.96 L 903.035656 0" clip-path="url(#p98a69007ae)" style="fill:none;stroke:#fff;stroke-width:.8;stroke-linecap:round"/></g><g id="text_10"><g style="fill:#262626" transform="translate(893.305187 513.117813) scale(0.1 -0.1)"><use xlink:href="#ArialMT-30"/><use x="55.615" xlink:href="#ArialMT-2e"/><use x="83.398" xlink:href="#ArialMT-32"/><use x="139.014" xlink:href="#ArialMT-33"/></g></g></g><g id="text_11"><g style="fill:#262626" transform="translate(430.677344 526.385) scale(0.1 -0.1)"><defs><path id="ArialMT-50" d="M 494 0 L 494 4581 L 2222 4581 Q 2678 4581 2919 4538 Q 3256 4481 3484 4323 Q 3713 4166 3852 3881 Q 3991 3597 3991 3256 Q 3991 2672 3619 2267 Q 3247 1863 2275 1863 L 1100 1863 L 1100 0 L 494 0 z M 1100 2403 L 2284 2403 Q 2872 2403 3119 2622 Q 3366 2841 3366 3238 Q 3366 3525 3220 3729 Q 3075 3934 2838 4000 Q 2684 4041 2272 4041 L 1100 4041 L 1100 2403 z" transform="scale(0.015625)"/><path id="ArialMT-74" d="M 1650 503 L 1731 6 Q 1494 -44 1306 -44 Q 1000 -44 831 53 Q 663 150 594 308 Q 525 466 525 972 L 525 2881 L 113 2881 L 113 3319 L 525 3319 L 525 4141 L 1084 4478 L 1084 3319 L 1650 3319 L 1650 2881 L 1084 2881 L 1084 941 Q 1084 700 1114 631 Q 1144 563 1211 522 Q 1278 481 1403 481 Q 1497 481 1650 503 z" transform="scale(0.015625)"/><path id="ArialMT-73" d="M 197 991 L 753 1078 Q 800 744 1014 566 Q 1228 388 1613 388 Q 2000 388 2187 545 Q 2375 703 2375 916 Q 2375 1106 2209 1216 Q 2094 1291 1634 1406 Q 1016 1563 777 1677 Q 538 1791 414 1992 Q 291 2194 291 2438 Q 291 2659 392 2848 Q 494 3038 669 3163 Q 800 3259 1026 3326 Q 1253 3394 1513 3394 Q 1903 3394 2198 3281 Q 2494 3169 2634 2976 Q 2775 2784 2828 2463 L 2278 2388 Q 2241 2644 2061 2787 Q 1881 2931 1553 2931 Q 1166 2931 1000 2803 Q 834 2675 834 2503 Q 834 2394 903 2306 Q 972 2216 1119 2156 Q 1203 2125 1616 2013 Q 2213 1853 2448 1751 Q 2684 1650 2818 1456 Q 2953 1263 2953 975 Q 2953 694 2789 445 Q 2625 197 2315 61 Q 2006 -75 1616 -75 Q 969 -75 630 194 Q 291 463 197 991 z" transform="scale(0.015625)"/><path id="ArialMT-28" d="M 1497 -1347 Q 1031 -759 709 28 Q 388 816 388 1659 Q 388 2403 628 3084 Q 909 3875 1497 4659 L 1900 4659 Q 1522 4009 1400 3731 Q 1209 3300 1100 2831 Q 966 2247 966 1656 Q 966 153 1900 -1347 L 1497 -1347 z" transform="scale(0.015625)"/><path id="ArialMT-6c" d="M 409 0 L 409 4581 L 972 4581 L 972 0 L 409 0 z" transform="scale(0.015625)"/><path id="ArialMT-29" d="M 791 -1347 L 388 -1347 Q 1322 153 1322 1656 Q 1322 2244 1188 2822 Q 1081 3291 891 3722 Q 769 4003 388 4659 L 791 4659 Q 1378 3875 1659 3084 Q 1900 2403 1900 1659 Q 1900 816 1576 28 Q 1253 -759 791 -1347 z" transform="scale(0.015625)"/></defs><use xlink:href="#ArialMT-50"/><use x="66.699" xlink:href="#ArialMT-61"/><use x="122.314" xlink:href="#ArialMT-72"/><use x="155.615" xlink:href="#ArialMT-61"/><use x="211.23" xlink:href="#ArialMT-6d"/><use x="294.531" xlink:href="#ArialMT-65"/><use x="350.146" xlink:href="#ArialMT-74"/><use x="377.93" xlink:href="#ArialMT-65"/><use x="433.545" xlink:href="#ArialMT-72"/><use x="466.846" xlink:href="#ArialMT-73"/><use x="516.846" xlink:href="#ArialMT-20"/><use x="544.629" xlink:href="#ArialMT-28"/><use x="577.93" xlink:href="#ArialMT-6d"/><use x="661.23" xlink:href="#ArialMT-69"/><use x="683.447" xlink:href="#ArialMT-6c"/><use x="705.664" xlink:href="#ArialMT-6c"/><use x="727.881" xlink:href="#ArialMT-69"/><use x="750.098" xlink:href="#ArialMT-6f"/><use x="805.713" xlink:href="#ArialMT-6e"/><use x="861.328" xlink:href="#ArialMT-73"/><use x="911.328" xlink:href="#ArialMT-29"/></g></g></g><g id="matplotlib.axis_2"><g id="ytick_1"><g id="line2d_11"><path d="M 31.50625 447.877709 L 924.30625 447.877709" clip-path="url(#p98a69007ae)" style="fill:none;stroke:#fff;stroke-width:.8;stroke-linecap:round"/></g><g id="text_12"><g style="fill:#262626" transform="translate(13.384375 451.456615) scale(0.1 -0.1)"><use xlink:href="#ArialMT-37"/><use x="55.615" xlink:href="#ArialMT-30"/></g></g></g><g id="ytick_2"><g id="line2d_12"><path d="M 31.50625 337.79131 L 924.30625 337.79131" clip-path="url(#p98a69007ae)" style="fill:none;stroke:#fff;stroke-width:.8;stroke-linecap:round"/></g><g id="text_13"><g style="fill:#262626" transform="translate(13.384375 341.370216) scale(0.1 -0.1)"><use xlink:href="#ArialMT-37"/><use x="55.615" xlink:href="#ArialMT-35"/></g></g></g><g id="ytick_3"><g id="line2d_13"><path d="M 31.50625 227.70491 L 924.30625 227.70491" clip-path="url(#p98a69007ae)" style="fill:none;stroke:#fff;stroke-width:.8;stroke-linecap:round"/></g><g id="text_14"><g style="fill:#262626" transform="translate(13.384375 231.283816) scale(0.1 -0.1)"><defs><path id="ArialMT-38" d="M 1131 2484 Q 781 2613 612 2850 Q 444 3088 444 3419 Q 444 3919 803 4259 Q 1163 4600 1759 4600 Q 2359 4600 2725 4251 Q 3091 3903 3091 3403 Q 3091 3084 2923 2848 Q 2756 2613 2416 2484 Q 2838 2347 3058 2040 Q 3278 1734 3278 1309 Q 3278 722 2862 322 Q 2447 -78 1769 -78 Q 1091 -78 675 323 Q 259 725 259 1325 Q 259 1772 486 2073 Q 713 2375 1131 2484 z M 1019 3438 Q 1019 3113 1228 2906 Q 1438 2700 1772 2700 Q 2097 2700 2305 2904 Q 2513 3109 2513 3406 Q 2513 3716 2298 3927 Q 2084 4138 1766 4138 Q 1444 4138 1231 3931 Q 1019 3725 1019 3438 z M 838 1322 Q 838 1081 952 856 Q 1066 631 1291 507 Q 1516 384 1775 384 Q 2178 384 2440 643 Q 2703 903 2703 1303 Q 2703 1709 2433 1975 Q 2163 2241 1756 2241 Q 1359 2241 1098 1978 Q 838 1716 838 1322 z" transform="scale(0.015625)"/></defs><use xlink:href="#ArialMT-38"/><use x="55.615" xlink:href="#ArialMT-30"/></g></g></g><g id="ytick_4"><g id="line2d_14"><path d="M 31.50625 117.618511 L 924.30625 117.618511" clip-path="url(#p98a69007ae)" style="fill:none;stroke:#fff;stroke-width:.8;stroke-linecap:round"/></g><g id="text_15"><g style="fill:#262626" transform="translate(13.384375 121.197417) scale(0.1 -0.1)"><use xlink:href="#ArialMT-38"/><use x="55.615" xlink:href="#ArialMT-35"/></g></g></g><g id="ytick_5"><g id="line2d_15"><path d="M 31.50625 7.532111 L 924.30625 7.532111" clip-path="url(#p98a69007ae)" style="fill:none;stroke:#fff;stroke-width:.8;stroke-linecap:round"/></g><g id="text_16"><g style="fill:#262626" transform="translate(13.384375 11.111018) scale(0.1 -0.1)"><defs><path id="ArialMT-39" d="M 350 1059 L 891 1109 Q 959 728 1153 556 Q 1347 384 1650 384 Q 1909 384 2104 503 Q 2300 622 2425 820 Q 2550 1019 2634 1356 Q 2719 1694 2719 2044 Q 2719 2081 2716 2156 Q 2547 1888 2255 1720 Q 1963 1553 1622 1553 Q 1053 1553 659 1965 Q 266 2378 266 3053 Q 266 3750 677 4175 Q 1088 4600 1706 4600 Q 2153 4600 2523 4359 Q 2894 4119 3086 3673 Q 3278 3228 3278 2384 Q 3278 1506 3087 986 Q 2897 466 2520 194 Q 2144 -78 1638 -78 Q 1100 -78 759 220 Q 419 519 350 1059 z M 2653 3081 Q 2653 3566 2395 3850 Q 2138 4134 1775 4134 Q 1400 4134 1122 3828 Q 844 3522 844 3034 Q 844 2597 1108 2323 Q 1372 2050 1759 2050 Q 2150 2050 2401 2323 Q 2653 2597 2653 3081 z" transform="scale(0.015625)"/></defs><use xlink:href="#ArialMT-39"/><use x="55.615" xlink:href="#ArialMT-30"/></g></g></g><g id="text_17"><g style="fill:#262626" transform="translate(7.279688 279.205781) rotate(-90) scale(0.1 -0.1)"><defs><path id="ArialMT-41" d="M -9 0 L 1750 4581 L 2403 4581 L 4278 0 L 3588 0 L 3053 1388 L 1138 1388 L 634 0 L -9 0 z M 1313 1881 L 2866 1881 L 2388 3150 Q 2169 3728 2063 4100 Q 1975 3659 1816 3225 L 1313 1881 z" transform="scale(0.015625)"/><path id="ArialMT-25" d="M 372 3481 Q 372 3972 619 4315 Q 866 4659 1334 4659 Q 1766 4659 2048 4351 Q 2331 4044 2331 3447 Q 2331 2866 2045 2552 Q 1759 2238 1341 2238 Q 925 2238 648 2547 Q 372 2856 372 3481 z M 1350 4272 Q 1141 4272 1002 4090 Q 863 3909 863 3425 Q 863 2984 1003 2804 Q 1144 2625 1350 2625 Q 1563 2625 1702 2806 Q 1841 2988 1841 3469 Q 1841 3913 1700 4092 Q 1559 4272 1350 4272 z M 1353 -169 L 3859 4659 L 4316 4659 L 1819 -169 L 1353 -169 z M 3334 1075 Q 3334 1569 3581 1911 Q 3828 2253 4300 2253 Q 4731 2253 5014 1945 Q 5297 1638 5297 1041 Q 5297 459 5011 145 Q 4725 -169 4303 -169 Q 3888 -169 3611 142 Q 3334 453 3334 1075 z M 4316 1866 Q 4103 1866 3964 1684 Q 3825 1503 3825 1019 Q 3825 581 3965 400 Q 4106 219 4313 219 Q 4528 219 4667 400 Q 4806 581 4806 1063 Q 4806 1506 4665 1686 Q 4525 1866 4316 1866 z" transform="scale(0.015625)"/></defs><use xlink:href="#ArialMT-41"/><use x="66.699" xlink:href="#ArialMT-63"/><use x="116.699" xlink:href="#ArialMT-63"/><use x="166.699" xlink:href="#ArialMT-75"/><use x="222.314" xlink:href="#ArialMT-72"/><use x="255.615" xlink:href="#ArialMT-61"/><use x="311.23" xlink:href="#ArialMT-63"/><use x="361.23" xlink:href="#ArialMT-79"/><use x="411.23" xlink:href="#ArialMT-20"/><use x="439.014" xlink:href="#ArialMT-28"/><use x="472.314" xlink:href="#ArialMT-25"/><use x="561.23" xlink:href="#ArialMT-29"/></g></g></g><g id="PathCollection_1"><path d="M 366.514702 302.422636 C 368.252373 302.422636 369.919107 301.732252 371.147826 300.503533 C 372.376545 299.274814 373.066929 297.60808 373.066929 295.870409 C 373.066929 294.132738 372.376545 292.466004 371.147826 291.237285 C 369.919107 290.008566 368.252373 289.318182 366.514702 289.318182 C 364.777031 289.318182 363.110297 290.008566 361.881578 291.237285 C 360.652859 292.466004 359.962475 294.132738 359.962475 295.870409 C 359.962475 297.60808 360.652859 299.274814 361.881578 300.503533 C 363.110297 301.732252 364.777031 302.422636 366.514702 302.422636 z" clip-path="url(#p98a69007ae)" style="fill:#e3685c;stroke:#fff;stroke-width:1.026229"/><path d="M 367.944086 150.41534 C 369.681758 150.41534 371.348493 149.724956 372.577213 148.496236 C 373.805933 147.267516 374.496317 145.600781 374.496317 143.863108 C 374.496317 142.125436 373.805933 140.458701 372.577213 139.229981 C 371.348493 138.001261 369.681758 137.310877 367.944086 137.310877 C 366.206414 137.310877 364.539678 138.001261 363.310958 139.229981 C 362.082238 140.458701 361.391854 142.125436 361.391854 143.863108 C 361.391854 145.600781 362.082238 147.267516 363.310958 148.496236 C 364.539678 149.724956 366.206414 150.41534 367.944086 150.41534 z" clip-path="url(#p98a69007ae)" style="fill:#e3685c;stroke:#fff;stroke-width:1.026229"/><path d="M 375.848238 183.727512 C 377.585918 183.727512 379.25266 183.037124 380.481385 181.808399 C 381.71011 180.579675 382.400497 178.912932 382.400497 177.175253 C 382.400497 175.437574 381.71011 173.770831 380.481385 172.542106 C 379.25266 171.313381 377.585918 170.622994 375.848238 170.622994 C 374.110559 170.622994 372.443817 171.313381 371.215092 172.542106 C 369.986367 173.770831 369.29598 175.437574 369.29598 177.175253 C 369.29598 178.912932 369.986367 180.579675 371.215092 181.808399 C 372.443817 183.037124 374.110559 183.727512 375.848238 183.727512 z" clip-path="url(#p98a69007ae)" style="fill:#e3685c;stroke:#fff;stroke-width:1.026229"/><path d="M 392.498859 206.119143 C 394.236554 206.119143 395.903311 205.428749 397.132047 204.200014 C 398.360782 202.971278 399.051176 201.304521 399.051176 199.566827 C 399.051176 197.829132 398.360782 196.162375 397.132047 194.933639 C 395.903311 193.704904 394.236554 193.01451 392.498859 193.01451 C 390.761165 193.01451 389.094408 193.704904 387.865672 194.933639 C 386.636937 196.162375 385.946543 197.829132 385.946543 199.566827 C 385.946543 201.304521 386.636937 202.971278 387.865672 204.200014 C 389.094408 205.428749 390.761165 206.119143 392.498859 206.119143 z" clip-path="url(#p98a69007ae)" style="fill:#e3685c;stroke:#fff;stroke-width:1.026229"/><path d="M 67.807497 481.28 C 69.133512 481.28 70.405396 480.753168 71.34303 479.815534 C 72.280665 478.877899 72.807497 477.606015 72.807497 476.28 C 72.807497 474.953984 72.280665 473.682101 71.34303 472.744466 C 70.405396 471.806832 69.133512 471.28 67.807497 471.28 C 66.481481 471.28 65.209597 471.806832 64.271963 472.744466 C 63.334328 473.682101 62.807497 474.953984 62.807497 476.28 C 62.807497 477.606015 63.334328 478.877899 64.271963 479.815534 C 65.209597 480.753168 66.481481 481.28 67.807497 481.28 z" clip-path="url(#p98a69007ae)" style="fill:#edb081;stroke:#fff;stroke-width:1.026229"/><path d="M 196.418016 397.356283 C 198.323729 397.356283 200.151646 396.599135 201.499189 395.251592 C 202.846732 393.904049 203.60388 392.076132 203.60388 390.170418 C 203.60388 388.264705 202.846732 386.436788 201.499189 385.089245 C 200.151646 383.741702 198.323729 382.984554 196.418016 382.984554 C 194.512302 382.984554 192.684385 383.741702 191.336843 385.089245 C 189.9893 386.436788 189.232152 388.264705 189.232152 390.170418 C 189.232152 392.076132 189.9893 393.904049 191.336843 395.251592 C 192.684385 396.599135 194.512302 397.356283 196.418016 397.356283 z" clip-path="url(#p98a69007ae)" style="fill:#d14a61;stroke:#fff;stroke-width:1.026229"/><path d="M 325.028535 51.166633 C 327.374845 51.166633 329.625372 50.234434 331.284464 48.575343 C 332.943556 46.916251 333.875755 44.665724 333.875755 42.319414 C 333.875755 39.973104 332.943556 37.722577 331.284464 36.063485 C 329.625372 34.404393 327.374845 33.472194 325.028535 33.472194 C 322.682225 33.472194 320.431698 34.404393 318.772606 36.063485 C 317.113515 37.722577 316.181316 39.973104 316.181316 42.319414 C 316.181316 44.665724 317.113515 46.916251 318.772606 48.575343 C 320.431698 50.234434 322.682225 51.166633 325.028535 51.166633 z" clip-path="url(#p98a69007ae)" style="fill:#6d2b6d;stroke:#fff;stroke-width:1.026229"/><path d="M 793.832427 32.034143 C 796.313174 32.034143 798.692651 31.048532 800.446805 29.294378 C 802.200958 27.540225 803.18657 25.160748 803.18657 22.68 C 803.18657 20.199252 802.200958 17.819775 800.446805 16.065622 C 798.692651 14.311468 796.313174 13.325857 793.832427 13.325857 C 791.351679 13.325857 788.972202 14.311468 787.218048 16.065622 C 785.463895 17.819775 784.478283 20.199252 784.478283 22.68 C 784.478283 25.160748 785.463895 27.540225 787.218048 29.294378 C 788.972202 31.048532 791.351679 32.034143 793.832427 32.034143 z" clip-path="url(#p98a69007ae)" style="fill:#4b2362;stroke:#fff;stroke-width:1.026229"/><path d="M 154.931849 200.746647 C 157.40519 200.746647 159.777562 199.763978 161.526478 198.015062 C 163.275394 196.266146 164.258063 193.893774 164.258063 191.420433 C 164.258063 188.947092 163.275394 186.57472 161.526478 184.825804 C 159.777562 183.076888 157.40519 182.094219 154.931849 182.094219 C 152.458509 182.094219 150.086137 183.076888 148.33722 184.825804 C 146.588304 186.57472 145.605636 188.947092 145.605636 191.420433 C 145.605636 193.893774 146.588304 196.266146 148.33722 198.015062 C 150.086137 199.763978 152.458509 200.746647 154.931849 200.746647 z" clip-path="url(#p98a69007ae)" style="fill:#4d2463;stroke:#fff;stroke-width:1.026229"/><path d="M 171.471863 232.319916 C 173.933656 232.319916 176.294952 231.341836 178.035702 229.601085 C 179.776452 227.860335 180.754533 225.49904 180.754533 223.037247 C 180.754533 220.575454 179.776452 218.214159 178.035702 216.473408 C 176.294952 214.732658 173.933656 213.754577 171.471863 213.754577 C 169.010071 213.754577 166.648775 214.732658 164.908025 216.473408 C 163.167274 218.214159 162.189194 220.575454 162.189194 223.037247 C 162.189194 225.49904 163.167274 227.860335 164.908025 229.601085 C 166.648775 231.341836 169.010071 232.319916 171.471863 232.319916 z" clip-path="url(#p98a69007ae)" style="fill:#4f2463;stroke:#fff;stroke-width:1.026229"/></g><g id="patch_4"><path d="M 31.50625 498.96 L 31.50625 0" style="fill:none;stroke:#fff;stroke-width:.8;stroke-linejoin:miter;stroke-linecap:square"/></g><g id="patch_5"><path d="M 924.30625 498.96 L 924.30625 0" style="fill:none;stroke:#fff;stroke-width:.8;stroke-linejoin:miter;stroke-linecap:square"/></g><g id="patch_6"><path d="M 31.50625 498.96 L 924.30625 498.96" style="fill:none;stroke:#fff;stroke-width:.8;stroke-linejoin:miter;stroke-linecap:square"/></g><g id="patch_7"><path d="M 31.50625 0 L 924.30625 0" style="fill:none;stroke:#fff;stroke-width:.8;stroke-linejoin:miter;stroke-linecap:square"/></g><g id="text_18"><g style="fill:#262626" transform="translate(375.944429 299.173001) scale(0.1 -0.1)"><defs><path id="ArialMT-4c" d="M 469 0 L 469 4581 L 1075 4581 L 1075 541 L 3331 541 L 3331 0 L 469 0 z" transform="scale(0.015625)"/><path id="ArialMT-4e" d="M 488 0 L 488 4581 L 1109 4581 L 3516 984 L 3516 4581 L 4097 4581 L 4097 0 L 3475 0 L 1069 3600 L 1069 0 L 488 0 z" transform="scale(0.015625)"/></defs><use xlink:href="#ArialMT-4d"/><use x="83.301" xlink:href="#ArialMT-4c"/><use x="138.916" xlink:href="#ArialMT-4e"/></g></g><g id="text_19"><g style="fill:#262626" transform="translate(377.373823 147.1657) scale(0.1 -0.1)"><defs><path id="ArialMT-2b" d="M 1603 741 L 1603 1997 L 356 1997 L 356 2522 L 1603 2522 L 1603 3769 L 2134 3769 L 2134 2522 L 3381 2522 L 3381 1997 L 2134 1997 L 2134 741 L 1603 741 z" transform="scale(0.015625)"/><path id="ArialMT-46" d="M 525 0 L 525 4581 L 3616 4581 L 3616 4041 L 1131 4041 L 1131 2622 L 3281 2622 L 3281 2081 L 1131 2081 L 1131 0 L 525 0 z" transform="scale(0.015625)"/></defs><use xlink:href="#ArialMT-4d"/><use x="83.301" xlink:href="#ArialMT-4c"/><use x="138.916" xlink:href="#ArialMT-4e"/><use x="211.133" xlink:href="#ArialMT-20"/><use x="238.916" xlink:href="#ArialMT-2b"/><use x="297.314" xlink:href="#ArialMT-20"/><use x="325.098" xlink:href="#ArialMT-46"/><use x="386.182" xlink:href="#ArialMT-46"/></g></g><g id="text_20"><g style="fill:#262626" transform="translate(385.278028 180.477845) scale(0.1 -0.1)"><use xlink:href="#ArialMT-4d"/><use x="83.301" xlink:href="#ArialMT-4c"/><use x="138.916" xlink:href="#ArialMT-4e"/><use x="211.133" xlink:href="#ArialMT-20"/><use x="238.916" xlink:href="#ArialMT-2b"/><use x="297.314" xlink:href="#ArialMT-20"/><use x="319.598" xlink:href="#ArialMT-41"/></g></g><g id="text_21"><g style="fill:#262626" transform="translate(401.928762 202.869419) scale(0.1 -0.1)"><use xlink:href="#ArialMT-4d"/><use x="83.301" xlink:href="#ArialMT-4c"/><use x="138.916" xlink:href="#ArialMT-4e"/><use x="211.133" xlink:href="#ArialMT-20"/><use x="238.916" xlink:href="#ArialMT-2b"/><use x="297.314" xlink:href="#ArialMT-20"/><use x="325.098" xlink:href="#ArialMT-46"/><use x="386.182" xlink:href="#ArialMT-46"/><use x="447.266" xlink:href="#ArialMT-20"/><use x="475.049" xlink:href="#ArialMT-2b"/><use x="533.447" xlink:href="#ArialMT-20"/><use x="555.73" xlink:href="#ArialMT-41"/></g></g><g id="text_22"><g style="fill:#262626" transform="translate(74.554412 479.582592) scale(0.1 -0.1)"><defs><path id="ArialMT-52" d="M 503 0 L 503 4581 L 2534 4581 Q 3147 4581 3465 4457 Q 3784 4334 3975 4021 Q 4166 3709 4166 3331 Q 4166 2844 3850 2509 Q 3534 2175 2875 2084 Q 3116 1969 3241 1856 Q 3506 1613 3744 1247 L 4541 0 L 3778 0 L 3172 953 Q 2906 1366 2734 1584 Q 2563 1803 2427 1890 Q 2291 1978 2150 2013 Q 2047 2034 1813 2034 L 1109 2034 L 1109 0 L 503 0 z M 1109 2559 L 2413 2559 Q 2828 2559 3062 2645 Q 3297 2731 3419 2920 Q 3541 3109 3541 3331 Q 3541 3656 3305 3865 Q 3069 4075 2559 4075 L 1109 4075 L 1109 2559 z" transform="scale(0.015625)"/><path id="ArialMT-70" d="M 422 -1272 L 422 3319 L 934 3319 L 934 2888 Q 1116 3141 1344 3267 Q 1572 3394 1897 3394 Q 2322 3394 2647 3175 Q 2972 2956 3137 2557 Q 3303 2159 3303 1684 Q 3303 1175 3120 767 Q 2938 359 2589 142 Q 2241 -75 1856 -75 Q 1575 -75 1351 44 Q 1128 163 984 344 L 984 -1272 L 422 -1272 z M 931 1641 Q 931 1000 1190 694 Q 1450 388 1819 388 Q 2194 388 2461 705 Q 2728 1022 2728 1688 Q 2728 2322 2467 2637 Q 2206 2953 1844 2953 Q 1484 2953 1207 2617 Q 931 2281 931 1641 z" transform="scale(0.015625)"/><path id="ArialMT-2f" d="M 0 -78 L 1328 4659 L 1778 4659 L 453 -78 L 0 -78 z" transform="scale(0.015625)"/><path id="ArialMT-42" d="M 469 0 L 469 4581 L 2188 4581 Q 2713 4581 3030 4442 Q 3347 4303 3526 4014 Q 3706 3725 3706 3409 Q 3706 3116 3547 2856 Q 3388 2597 3066 2438 Q 3481 2316 3704 2022 Q 3928 1728 3928 1328 Q 3928 1006 3792 729 Q 3656 453 3456 303 Q 3256 153 2954 76 Q 2653 0 2216 0 L 469 0 z M 1075 2656 L 2066 2656 Q 2469 2656 2644 2709 Q 2875 2778 2992 2937 Q 3109 3097 3109 3338 Q 3109 3566 3000 3739 Q 2891 3913 2687 3977 Q 2484 4041 1991 4041 L 1075 4041 L 1075 2656 z M 1075 541 L 2216 541 Q 2509 541 2628 563 Q 2838 600 2978 687 Q 3119 775 3209 942 Q 3300 1109 3300 1328 Q 3300 1584 3169 1773 Q 3038 1963 2805 2039 Q 2572 2116 2134 2116 L 1075 2116 L 1075 541 z" transform="scale(0.015625)"/></defs><use xlink:href="#ArialMT-4d"/><use x="83.301" xlink:href="#ArialMT-4c"/><use x="138.916" xlink:href="#ArialMT-4e"/><use x="211.133" xlink:href="#ArialMT-20"/><use x="238.916" xlink:href="#ArialMT-31"/><use x="294.531" xlink:href="#ArialMT-20"/><use x="322.314" xlink:href="#ArialMT-52"/><use x="394.531" xlink:href="#ArialMT-65"/><use x="450.146" xlink:href="#ArialMT-70"/><use x="505.762" xlink:href="#ArialMT-2f"/><use x="533.545" xlink:href="#ArialMT-42"/><use x="600.244" xlink:href="#ArialMT-6c"/><use x="622.461" xlink:href="#ArialMT-6b"/></g></g><g id="text_23"><g style="fill:#262626" transform="translate(207.15012 393.47301) scale(0.1 -0.1)"><use xlink:href="#ArialMT-4d"/><use x="83.301" xlink:href="#ArialMT-4c"/><use x="138.916" xlink:href="#ArialMT-4e"/><use x="211.133" xlink:href="#ArialMT-20"/><use x="238.916" xlink:href="#ArialMT-32"/><use x="294.531" xlink:href="#ArialMT-20"/><use x="322.314" xlink:href="#ArialMT-52"/><use x="394.531" xlink:href="#ArialMT-65"/><use x="450.146" xlink:href="#ArialMT-70"/><use x="505.762" xlink:href="#ArialMT-73"/><use x="555.762" xlink:href="#ArialMT-2f"/><use x="583.545" xlink:href="#ArialMT-42"/><use x="650.244" xlink:href="#ArialMT-6c"/><use x="672.461" xlink:href="#ArialMT-6b"/></g></g><g id="text_24"><g style="fill:#262626" transform="translate(339.745828 45.622006) scale(0.1 -0.1)"><use xlink:href="#ArialMT-4d"/><use x="83.301" xlink:href="#ArialMT-4c"/><use x="138.916" xlink:href="#ArialMT-4e"/><use x="211.133" xlink:href="#ArialMT-20"/><use x="238.916" xlink:href="#ArialMT-33"/><use x="294.531" xlink:href="#ArialMT-20"/><use x="322.314" xlink:href="#ArialMT-52"/><use x="394.531" xlink:href="#ArialMT-65"/><use x="450.146" xlink:href="#ArialMT-70"/><use x="505.762" xlink:href="#ArialMT-73"/><use x="555.762" xlink:href="#ArialMT-2f"/><use x="583.545" xlink:href="#ArialMT-42"/><use x="650.244" xlink:href="#ArialMT-6c"/><use x="672.461" xlink:href="#ArialMT-6b"/></g></g><g id="text_25"><g style="fill:#262626" transform="translate(809.930155 25.982592) scale(0.1 -0.1)"><defs><path id="ArialMT-44" d="M 494 0 L 494 4581 L 2072 4581 Q 2606 4581 2888 4516 Q 3281 4425 3559 4188 Q 3922 3881 4101 3404 Q 4281 2928 4281 2316 Q 4281 1794 4159 1391 Q 4038 988 3847 723 Q 3656 459 3429 307 Q 3203 156 2883 78 Q 2563 0 2147 0 L 494 0 z M 1100 541 L 2078 541 Q 2531 541 2789 625 Q 3047 709 3200 863 Q 3416 1078 3536 1442 Q 3656 1806 3656 2325 Q 3656 3044 3420 3430 Q 3184 3816 2847 3947 Q 2603 4041 2063 4041 L 1100 4041 L 1100 541 z" transform="scale(0.015625)"/></defs><use xlink:href="#ArialMT-4d"/><use x="83.301" xlink:href="#ArialMT-4c"/><use x="138.916" xlink:href="#ArialMT-4e"/><use x="211.133" xlink:href="#ArialMT-20"/><use x="238.916" xlink:href="#ArialMT-44"/><use x="311.133" xlink:href="#ArialMT-65"/><use x="366.748" xlink:href="#ArialMT-65"/><use x="422.363" xlink:href="#ArialMT-70"/></g></g><g id="text_26"><g style="fill:#262626" transform="translate(170.951519 194.723025) scale(0.1 -0.1)"><defs><path id="ArialMT-76" d="M 1344 0 L 81 3319 L 675 3319 L 1388 1331 Q 1503 1009 1600 663 Q 1675 925 1809 1294 L 2547 3319 L 3125 3319 L 1869 0 L 1344 0 z" transform="scale(0.015625)"/></defs><use xlink:href="#ArialMT-4d"/><use x="83.301" xlink:href="#ArialMT-4c"/><use x="138.916" xlink:href="#ArialMT-4e"/><use x="211.133" xlink:href="#ArialMT-20"/><use x="238.916" xlink:href="#ArialMT-52"/><use x="311.133" xlink:href="#ArialMT-65"/><use x="366.748" xlink:href="#ArialMT-76"/><use x="416.748" xlink:href="#ArialMT-52"/><use x="488.965" xlink:href="#ArialMT-65"/><use x="544.58" xlink:href="#ArialMT-70"/><use x="600.195" xlink:href="#ArialMT-73"/></g></g><g id="text_27"><g style="fill:#262626" transform="translate(187.3703 226.339839) scale(0.1 -0.1)"><use xlink:href="#ArialMT-4d"/><use x="83.301" xlink:href="#ArialMT-4c"/><use x="138.916" xlink:href="#ArialMT-4e"/><use x="211.133" xlink:href="#ArialMT-20"/><use x="238.916" xlink:href="#ArialMT-52"/><use x="311.133" xlink:href="#ArialMT-65"/><use x="366.748" xlink:href="#ArialMT-76"/><use x="416.748" xlink:href="#ArialMT-42"/><use x="483.447" xlink:href="#ArialMT-6c"/><use x="505.664" xlink:href="#ArialMT-6b"/><use x="555.664" xlink:href="#ArialMT-73"/></g></g><g id="legend_1"><g id="patch_8"><path d="M 38.50625 107.2625 L 116.4 107.2625 Q 118.4 107.2625 118.4 105.2625 L 118.4 7 Q 118.4 5 116.4 5 L 38.50625 5 Q 36.50625 5 36.50625 7 L 36.50625 105.2625 Q 36.50625 107.2625 38.50625 107.2625 z" style="fill:#eaeaf2;opacity:.8;stroke:#ccc;stroke-linejoin:miter"/></g><g id="text_28"><g style="fill:#262626" transform="translate(40.50625 16.285938) scale(0.1 -0.1)"><defs><path id="ArialMT-4f" d="M 309 2231 Q 309 3372 921 4017 Q 1534 4663 2503 4663 Q 3138 4663 3647 4359 Q 4156 4056 4423 3514 Q 4691 2972 4691 2284 Q 4691 1588 4409 1038 Q 4128 488 3612 205 Q 3097 -78 2500 -78 Q 1853 -78 1343 234 Q 834 547 571 1087 Q 309 1628 309 2231 z M 934 2222 Q 934 1394 1379 917 Q 1825 441 2497 441 Q 3181 441 3623 922 Q 4066 1403 4066 2288 Q 4066 2847 3877 3264 Q 3688 3681 3323 3911 Q 2959 4141 2506 4141 Q 1863 4141 1398 3698 Q 934 3256 934 2222 z" transform="scale(0.015625)"/></defs><use xlink:href="#ArialMT-46"/><use x="61.084" xlink:href="#ArialMT-4c"/><use x="116.699" xlink:href="#ArialMT-4f"/><use x="194.482" xlink:href="#ArialMT-50"/><use x="261.182" xlink:href="#ArialMT-73"/><use x="311.182" xlink:href="#ArialMT-20"/><use x="338.965" xlink:href="#ArialMT-28"/><use x="372.266" xlink:href="#ArialMT-6d"/><use x="455.566" xlink:href="#ArialMT-69"/><use x="477.783" xlink:href="#ArialMT-6c"/><use x="500" xlink:href="#ArialMT-6c"/><use x="522.217" xlink:href="#ArialMT-69"/><use x="544.434" xlink:href="#ArialMT-6f"/><use x="600.049" xlink:href="#ArialMT-6e"/><use x="655.664" xlink:href="#ArialMT-73"/><use x="705.664" xlink:href="#ArialMT-29"/></g></g><g id="line2d_22"><defs><path id="m6cf26f94bb" d="M 0 5.039728 C 1.336552 5.039728 2.618541 4.508711 3.563626 3.563626 C 4.508711 2.618541 5.039728 1.336552 5.039728 0 C 5.039728 -1.336552 4.508711 -2.618541 3.563626 -3.563626 C 2.618541 -4.508711 1.336552 -5.039728 0 -5.039728 C -1.336552 -5.039728 -2.618541 -4.508711 -3.563626 -3.563626 C -4.508711 -2.618541 -5.039728 -1.336552 -5.039728 0 C -5.039728 1.336552 -4.508711 2.618541 -3.563626 3.563626 C -2.618541 4.508711 -1.336552 5.039728 0 5.039728 z" style="stroke:#fff;stroke-width:1.026229"/></defs><g><use x="65.112" y="27.048" xlink:href="#m6cf26f94bb" style="fill:#edaf80;stroke:#fff;stroke-width:1.026229"/></g></g><g id="text_29"><g style="fill:#262626" transform="translate(83.111719 30.548438) scale(0.1 -0.1)"><defs><path id="ArialMT-34" d="M 2069 0 L 2069 1097 L 81 1097 L 81 1613 L 2172 4581 L 2631 4581 L 2631 1613 L 3250 1613 L 3250 1097 L 2631 1097 L 2631 0 L 2069 0 z M 2069 1613 L 2069 3678 L 634 1613 L 2069 1613 z" transform="scale(0.015625)"/></defs><use xlink:href="#ArialMT-32"/><use x="55.615" xlink:href="#ArialMT-34"/><use x="111.23" xlink:href="#ArialMT-30"/></g></g><g id="line2d_23"><defs><path id="m3b5fc5b192" d="M 0 6.064035 C 1.608201 6.064035 3.150751 5.42509 4.28792 4.28792 C 5.42509 3.150751 6.064035 1.608201 6.064035 0 C 6.064035 -1.608201 5.42509 -3.150751 4.28792 -4.28792 C 3.150751 -5.42509 1.608201 -6.064035 0 -6.064035 C -1.608201 -6.064035 -3.150751 -5.42509 -4.28792 -4.28792 C -5.42509 -3.150751 -6.064035 -1.608201 -6.064035 0 C -6.064035 1.608201 -5.42509 3.150751 -4.28792 4.28792 C -3.150751 5.42509 -1.608201 6.064035 0 6.064035 z" style="stroke:#fff;stroke-width:1.026229"/></defs><g><use x="65.112" y="41.194" xlink:href="#m3b5fc5b192" style="fill:#e88165;stroke:#fff;stroke-width:1.026229"/></g></g><g id="text_30"><g style="fill:#262626" transform="translate(83.111719 44.69375) scale(0.1 -0.1)"><use xlink:href="#ArialMT-33"/><use x="55.615" xlink:href="#ArialMT-30"/><use x="111.23" xlink:href="#ArialMT-30"/></g></g><g id="line2d_24"><defs><path id="m89a86c32e5" d="M 0 6.938745 C 1.840177 6.938745 3.605232 6.207635 4.906434 4.906434 C 6.207635 3.605232 6.938745 1.840177 6.938745 0 C 6.938745 -1.840177 6.207635 -3.605232 4.906434 -4.906434 C 3.605232 -6.207635 1.840177 -6.938745 0 -6.938745 C -1.840177 -6.938745 -3.605232 -6.207635 -4.906434 -4.906434 C -6.207635 -3.605232 -6.938745 -1.840177 -6.938745 0 C -6.938745 1.840177 -6.207635 3.605232 -4.906434 4.906434 C -3.605232 6.207635 -1.840177 6.938745 0 6.938745 z" style="stroke:#fff;stroke-width:1.026229"/></defs><g><use x="65.112" y="55.339" xlink:href="#m89a86c32e5" style="fill:#da555d;stroke:#fff;stroke-width:1.026229"/></g></g><g id="text_31"><g style="fill:#262626" transform="translate(83.111719 58.839063) scale(0.1 -0.1)"><defs><path id="ArialMT-36" d="M 3184 3459 L 2625 3416 Q 2550 3747 2413 3897 Q 2184 4138 1850 4138 Q 1581 4138 1378 3988 Q 1113 3794 959 3422 Q 806 3050 800 2363 Q 1003 2672 1297 2822 Q 1591 2972 1913 2972 Q 2475 2972 2870 2558 Q 3266 2144 3266 1488 Q 3266 1056 3080 686 Q 2894 316 2569 119 Q 2244 -78 1831 -78 Q 1128 -78 684 439 Q 241 956 241 2144 Q 241 3472 731 4075 Q 1159 4600 1884 4600 Q 2425 4600 2770 4297 Q 3116 3994 3184 3459 z M 888 1484 Q 888 1194 1011 928 Q 1134 663 1356 523 Q 1578 384 1822 384 Q 2178 384 2434 671 Q 2691 959 2691 1453 Q 2691 1928 2437 2201 Q 2184 2475 1800 2475 Q 1419 2475 1153 2201 Q 888 1928 888 1484 z" transform="scale(0.015625)"/></defs><use xlink:href="#ArialMT-33"/><use x="55.615" xlink:href="#ArialMT-36"/><use x="111.23" xlink:href="#ArialMT-30"/></g></g><g id="line2d_25"><defs><path id="me6fd201953" d="M 0 7.71491 C 2.046018 7.71491 4.008512 6.902019 5.455265 5.455265 C 6.902019 4.008512 7.71491 2.046018 7.71491 0 C 7.71491 -2.046018 6.902019 -4.008512 5.455265 -5.455265 C 4.008512 -6.902019 2.046018 -7.71491 0 -7.71491 C -2.046018 -7.71491 -4.008512 -6.902019 -5.455265 -5.455265 C -6.902019 -4.008512 -7.71491 -2.046018 -7.71491 0 C -7.71491 2.046018 -6.902019 4.008512 -5.455265 5.455265 C -4.008512 6.902019 -2.046018 7.71491 0 7.71491 z" style="stroke:#fff;stroke-width:1.026229"/></defs><g><use x="65.112" y="69.484" xlink:href="#me6fd201953" style="fill:#b53d6b;stroke:#fff;stroke-width:1.026229"/></g></g><g id="text_32"><g style="fill:#262626" transform="translate(83.111719 72.984375) scale(0.1 -0.1)"><use xlink:href="#ArialMT-34"/><use x="55.615" xlink:href="#ArialMT-32"/><use x="111.23" xlink:href="#ArialMT-30"/></g></g><g id="line2d_26"><defs><path id="me73f03b24f" d="M 0 8.419828 C 2.232964 8.419828 4.374773 7.532662 5.953717 5.953717 C 7.532662 4.374773 8.419828 2.232964 8.419828 0 C 8.419828 -2.232964 7.532662 -4.374773 5.953717 -5.953717 C 4.374773 -7.532662 2.232964 -8.419828 0 -8.419828 C -2.232964 -8.419828 -4.374773 -7.532662 -5.953717 -5.953717 C -7.532662 -4.374773 -8.419828 -2.232964 -8.419828 0 C -8.419828 2.232964 -7.532662 4.374773 -5.953717 5.953717 C -4.374773 7.532662 -2.232964 8.419828 0 8.419828 z" style="stroke:#fff;stroke-width:1.026229"/></defs><g><use x="65.112" y="83.63" xlink:href="#me73f03b24f" style="fill:#8a3171;stroke:#fff;stroke-width:1.026229"/></g></g><g id="text_33"><g style="fill:#262626" transform="translate(83.111719 87.129688) scale(0.1 -0.1)"><use xlink:href="#ArialMT-34"/><use x="55.615" xlink:href="#ArialMT-38"/><use x="111.23" xlink:href="#ArialMT-30"/></g></g><g id="line2d_27"><defs><path id="m3bb3addce0" d="M 0 9.070125 C 2.405425 9.070125 4.712654 8.114439 6.413547 6.413547 C 8.114439 4.712654 9.070125 2.405425 9.070125 0 C 9.070125 -2.405425 8.114439 -4.712654 6.413547 -6.413547 C 4.712654 -8.114439 2.405425 -9.070125 0 -9.070125 C -2.405425 -9.070125 -4.712654 -8.114439 -6.413547 -6.413547 C -8.114439 -4.712654 -9.070125 -2.405425 -9.070125 0 C -9.070125 2.405425 -8.114439 4.712654 -6.413547 6.413547 C -4.712654 8.114439 -2.405425 9.070125 0 9.070125 z" style="stroke:#fff;stroke-width:1.026229"/></defs><g><use x="65.112" y="97.775" xlink:href="#m3bb3addce0" style="fill:#5e2868;stroke:#fff;stroke-width:1.026229"/></g></g><g id="text_34"><g style="fill:#262626" transform="translate(83.111719 101.275) scale(0.1 -0.1)"><use xlink:href="#ArialMT-35"/><use x="55.615" xlink:href="#ArialMT-34"/><use x="111.23" xlink:href="#ArialMT-30"/></g></g></g></g></g><defs><clipPath id="p98a69007ae"><rect width="892.8" height="498.96" x="31.506" y="0"/></clipPath></defs></svg>