<?xml version="1.0" encoding="utf-8" standalone="no"?>
<!DOCTYPE svg PUBLIC "-//W3C//DTD SVG 1.1//EN"
  "http://www.w3.org/Graphics/SVG/1.1/DTD/svg11.dtd">
<svg xmlns:xlink="http://www.w3.org/1999/xlink" width="1152pt" height="648pt" viewBox="0 0 1152 648" xmlns="http://www.w3.org/2000/svg" version="1.1">
 <metadata>
  <rdf:RDF xmlns:dc="http://purl.org/dc/elements/1.1/" xmlns:cc="http://creativecommons.org/ns#" xmlns:rdf="http://www.w3.org/1999/02/22-rdf-syntax-ns#">
   <cc:Work>
    <dc:type rdf:resource="http://purl.org/dc/dcmitype/StillImage"/>
    <dc:date>2024-02-23T20:59:10.014105</dc:date>
    <dc:format>image/svg+xml</dc:format>
    <dc:creator>
     <cc:Agent>
      <dc:title>Matplotlib v3.6.2, https://matplotlib.org/</dc:title>
     </cc:Agent>
    </dc:creator>
   </cc:Work>
  </rdf:RDF>
 </metadata>
 <defs>
  <style type="text/css">*{stroke-linejoin: round; stroke-linecap: butt}</style>
 </defs>
 <g id="figure_1">
  <g id="patch_1">
   <path d="M 0 648 
L 1152 648 
L 1152 0 
L 0 0 
z
" style="fill: #ffffff"/>
  </g>
  <g id="axes_1">
   <g id="patch_2">
    <path d="M 144 576.72 
L 1036.8 576.72 
L 1036.8 77.76 
L 144 77.76 
z
" style="fill: #eaeaf2"/>
   </g>
   <g id="matplotlib.axis_1">
    <g id="xtick_1">
     <g id="line2d_1">
      <path d="M 164.705647 576.72 
L 164.705647 77.76 
" clip-path="url(#pc5f946f0a1)" style="fill: none; stroke: #ffffff; stroke-width: 0.8; stroke-linecap: round"/>
     </g>
     <g id="text_1">
      <!-- 0.03 -->
      <g style="fill: #262626" transform="translate(154.975178 590.877813) scale(0.1 -0.1)">
       <defs>
        <path id="ArialMT-30" d="M 266 2259 
Q 266 3072 433 3567 
Q 600 4063 929 4331 
Q 1259 4600 1759 4600 
Q 2128 4600 2406 4451 
Q 2684 4303 2865 4023 
Q 3047 3744 3150 3342 
Q 3253 2941 3253 2259 
Q 3253 1453 3087 958 
Q 2922 463 2592 192 
Q 2263 -78 1759 -78 
Q 1097 -78 719 397 
Q 266 969 266 2259 
z
M 844 2259 
Q 844 1131 1108 757 
Q 1372 384 1759 384 
Q 2147 384 2411 759 
Q 2675 1134 2675 2259 
Q 2675 3391 2411 3762 
Q 2147 4134 1753 4134 
Q 1366 4134 1134 3806 
Q 844 3388 844 2259 
z
" transform="scale(0.015625)"/>
        <path id="ArialMT-2e" d="M 581 0 
L 581 641 
L 1222 641 
L 1222 0 
L 581 0 
z
" transform="scale(0.015625)"/>
        <path id="ArialMT-33" d="M 269 1209 
L 831 1284 
Q 928 806 1161 595 
Q 1394 384 1728 384 
Q 2125 384 2398 659 
Q 2672 934 2672 1341 
Q 2672 1728 2419 1979 
Q 2166 2231 1775 2231 
Q 1616 2231 1378 2169 
L 1441 2663 
Q 1497 2656 1531 2656 
Q 1891 2656 2178 2843 
Q 2466 3031 2466 3422 
Q 2466 3731 2256 3934 
Q 2047 4138 1716 4138 
Q 1388 4138 1169 3931 
Q 950 3725 888 3313 
L 325 3413 
Q 428 3978 793 4289 
Q 1159 4600 1703 4600 
Q 2078 4600 2393 4439 
Q 2709 4278 2876 4000 
Q 3044 3722 3044 3409 
Q 3044 3113 2884 2869 
Q 2725 2625 2413 2481 
Q 2819 2388 3044 2092 
Q 3269 1797 3269 1353 
Q 3269 753 2831 336 
Q 2394 -81 1725 -81 
Q 1122 -81 723 278 
Q 325 638 269 1209 
z
" transform="scale(0.015625)"/>
       </defs>
       <use xlink:href="#ArialMT-30"/>
       <use xlink:href="#ArialMT-2e" x="55.615234"/>
       <use xlink:href="#ArialMT-30" x="83.398438"/>
       <use xlink:href="#ArialMT-33" x="139.013672"/>
      </g>
     </g>
    </g>
    <g id="xtick_2">
     <g id="line2d_2">
      <path d="M 271.058617 576.72 
L 271.058617 77.76 
" clip-path="url(#pc5f946f0a1)" style="fill: none; stroke: #ffffff; stroke-width: 0.8; stroke-linecap: round"/>
     </g>
     <g id="text_2">
      <!-- 0.05 -->
      <g style="fill: #262626" transform="translate(261.328148 590.877813) scale(0.1 -0.1)">
       <defs>
        <path id="ArialMT-35" d="M 266 1200 
L 856 1250 
Q 922 819 1161 601 
Q 1400 384 1738 384 
Q 2144 384 2425 690 
Q 2706 997 2706 1503 
Q 2706 1984 2436 2262 
Q 2166 2541 1728 2541 
Q 1456 2541 1237 2417 
Q 1019 2294 894 2097 
L 366 2166 
L 809 4519 
L 3088 4519 
L 3088 3981 
L 1259 3981 
L 1013 2750 
Q 1425 3038 1878 3038 
Q 2478 3038 2890 2622 
Q 3303 2206 3303 1553 
Q 3303 931 2941 478 
Q 2500 -78 1738 -78 
Q 1113 -78 717 272 
Q 322 622 266 1200 
z
" transform="scale(0.015625)"/>
       </defs>
       <use xlink:href="#ArialMT-30"/>
       <use xlink:href="#ArialMT-2e" x="55.615234"/>
       <use xlink:href="#ArialMT-30" x="83.398438"/>
       <use xlink:href="#ArialMT-35" x="139.013672"/>
      </g>
     </g>
    </g>
    <g id="xtick_3">
     <g id="line2d_3">
      <path d="M 377.411587 576.72 
L 377.411587 77.76 
" clip-path="url(#pc5f946f0a1)" style="fill: none; stroke: #ffffff; stroke-width: 0.8; stroke-linecap: round"/>
     </g>
     <g id="text_3">
      <!-- 0.07 -->
      <g style="fill: #262626" transform="translate(367.681118 590.877813) scale(0.1 -0.1)">
       <defs>
        <path id="ArialMT-37" d="M 303 3981 
L 303 4522 
L 3269 4522 
L 3269 4084 
Q 2831 3619 2401 2847 
Q 1972 2075 1738 1259 
Q 1569 684 1522 0 
L 944 0 
Q 953 541 1156 1306 
Q 1359 2072 1739 2783 
Q 2119 3494 2547 3981 
L 303 3981 
z
" transform="scale(0.015625)"/>
       </defs>
       <use xlink:href="#ArialMT-30"/>
       <use xlink:href="#ArialMT-2e" x="55.615234"/>
       <use xlink:href="#ArialMT-30" x="83.398438"/>
       <use xlink:href="#ArialMT-37" x="139.013672"/>
      </g>
     </g>
    </g>
    <g id="xtick_4">
     <g id="line2d_4">
      <path d="M 483.764557 576.72 
L 483.764557 77.76 
" clip-path="url(#pc5f946f0a1)" style="fill: none; stroke: #ffffff; stroke-width: 0.8; stroke-linecap: round"/>
     </g>
     <g id="text_4">
      <!-- 0.10 -->
      <g style="fill: #262626" transform="translate(474.034088 590.877813) scale(0.1 -0.1)">
       <defs>
        <path id="ArialMT-31" d="M 2384 0 
L 1822 0 
L 1822 3584 
Q 1619 3391 1289 3197 
Q 959 3003 697 2906 
L 697 3450 
Q 1169 3672 1522 3987 
Q 1875 4303 2022 4600 
L 2384 4600 
L 2384 0 
z
" transform="scale(0.015625)"/>
       </defs>
       <use xlink:href="#ArialMT-30"/>
       <use xlink:href="#ArialMT-2e" x="55.615234"/>
       <use xlink:href="#ArialMT-31" x="83.398438"/>
       <use xlink:href="#ArialMT-30" x="139.013672"/>
      </g>
     </g>
    </g>
    <g id="xtick_5">
     <g id="line2d_5">
      <path d="M 590.117527 576.72 
L 590.117527 77.76 
" clip-path="url(#pc5f946f0a1)" style="fill: none; stroke: #ffffff; stroke-width: 0.8; stroke-linecap: round"/>
     </g>
     <g id="text_5">
      <!-- 0.12 -->
      <g style="fill: #262626" transform="translate(580.387058 590.877813) scale(0.1 -0.1)">
       <defs>
        <path id="ArialMT-32" d="M 3222 541 
L 3222 0 
L 194 0 
Q 188 203 259 391 
Q 375 700 629 1000 
Q 884 1300 1366 1694 
Q 2113 2306 2375 2664 
Q 2638 3022 2638 3341 
Q 2638 3675 2398 3904 
Q 2159 4134 1775 4134 
Q 1369 4134 1125 3890 
Q 881 3647 878 3216 
L 300 3275 
Q 359 3922 746 4261 
Q 1134 4600 1788 4600 
Q 2447 4600 2831 4234 
Q 3216 3869 3216 3328 
Q 3216 3053 3103 2787 
Q 2991 2522 2730 2228 
Q 2469 1934 1863 1422 
Q 1356 997 1212 845 
Q 1069 694 975 541 
L 3222 541 
z
" transform="scale(0.015625)"/>
       </defs>
       <use xlink:href="#ArialMT-30"/>
       <use xlink:href="#ArialMT-2e" x="55.615234"/>
       <use xlink:href="#ArialMT-31" x="83.398438"/>
       <use xlink:href="#ArialMT-32" x="139.013672"/>
      </g>
     </g>
    </g>
    <g id="xtick_6">
     <g id="line2d_6">
      <path d="M 696.470496 576.72 
L 696.470496 77.76 
" clip-path="url(#pc5f946f0a1)" style="fill: none; stroke: #ffffff; stroke-width: 0.8; stroke-linecap: round"/>
     </g>
     <g id="text_6">
      <!-- 0.15 -->
      <g style="fill: #262626" transform="translate(686.740028 590.877813) scale(0.1 -0.1)">
       <use xlink:href="#ArialMT-30"/>
       <use xlink:href="#ArialMT-2e" x="55.615234"/>
       <use xlink:href="#ArialMT-31" x="83.398438"/>
       <use xlink:href="#ArialMT-35" x="139.013672"/>
      </g>
     </g>
    </g>
    <g id="xtick_7">
     <g id="line2d_7">
      <path d="M 802.823466 576.72 
L 802.823466 77.76 
" clip-path="url(#pc5f946f0a1)" style="fill: none; stroke: #ffffff; stroke-width: 0.8; stroke-linecap: round"/>
     </g>
     <g id="text_7">
      <!-- 0.17 -->
      <g style="fill: #262626" transform="translate(793.092998 590.877813) scale(0.1 -0.1)">
       <use xlink:href="#ArialMT-30"/>
       <use xlink:href="#ArialMT-2e" x="55.615234"/>
       <use xlink:href="#ArialMT-31" x="83.398438"/>
       <use xlink:href="#ArialMT-37" x="139.013672"/>
      </g>
     </g>
    </g>
    <g id="xtick_8">
     <g id="line2d_8">
      <path d="M 909.176436 576.72 
L 909.176436 77.76 
" clip-path="url(#pc5f946f0a1)" style="fill: none; stroke: #ffffff; stroke-width: 0.8; stroke-linecap: round"/>
     </g>
     <g id="text_8">
      <!-- 0.20 -->
      <g style="fill: #262626" transform="translate(899.445967 590.877813) scale(0.1 -0.1)">
       <use xlink:href="#ArialMT-30"/>
       <use xlink:href="#ArialMT-2e" x="55.615234"/>
       <use xlink:href="#ArialMT-32" x="83.398438"/>
       <use xlink:href="#ArialMT-30" x="139.013672"/>
      </g>
     </g>
    </g>
    <g id="xtick_9">
     <g id="line2d_9">
      <path d="M 1015.529406 576.72 
L 1015.529406 77.76 
" clip-path="url(#pc5f946f0a1)" style="fill: none; stroke: #ffffff; stroke-width: 0.8; stroke-linecap: round"/>
     </g>
     <g id="text_9">
      <!-- 0.23 -->
      <g style="fill: #262626" transform="translate(1005.798937 590.877813) scale(0.1 -0.1)">
       <use xlink:href="#ArialMT-30"/>
       <use xlink:href="#ArialMT-2e" x="55.615234"/>
       <use xlink:href="#ArialMT-32" x="83.398438"/>
       <use xlink:href="#ArialMT-33" x="139.013672"/>
      </g>
     </g>
    </g>
    <g id="text_10">
     <!-- Parameters (millions) -->
     <g style="fill: #262626" transform="translate(543.171094 604.145) scale(0.1 -0.1)">
      <defs>
       <path id="ArialMT-50" d="M 494 0 
L 494 4581 
L 2222 4581 
Q 2678 4581 2919 4538 
Q 3256 4481 3484 4323 
Q 3713 4166 3852 3881 
Q 3991 3597 3991 3256 
Q 3991 2672 3619 2267 
Q 3247 1863 2275 1863 
L 1100 1863 
L 1100 0 
L 494 0 
z
M 1100 2403 
L 2284 2403 
Q 2872 2403 3119 2622 
Q 3366 2841 3366 3238 
Q 3366 3525 3220 3729 
Q 3075 3934 2838 4000 
Q 2684 4041 2272 4041 
L 1100 4041 
L 1100 2403 
z
" transform="scale(0.015625)"/>
       <path id="ArialMT-61" d="M 2588 409 
Q 2275 144 1986 34 
Q 1697 -75 1366 -75 
Q 819 -75 525 192 
Q 231 459 231 875 
Q 231 1119 342 1320 
Q 453 1522 633 1644 
Q 813 1766 1038 1828 
Q 1203 1872 1538 1913 
Q 2219 1994 2541 2106 
Q 2544 2222 2544 2253 
Q 2544 2597 2384 2738 
Q 2169 2928 1744 2928 
Q 1347 2928 1158 2789 
Q 969 2650 878 2297 
L 328 2372 
Q 403 2725 575 2942 
Q 747 3159 1072 3276 
Q 1397 3394 1825 3394 
Q 2250 3394 2515 3294 
Q 2781 3194 2906 3042 
Q 3031 2891 3081 2659 
Q 3109 2516 3109 2141 
L 3109 1391 
Q 3109 606 3145 398 
Q 3181 191 3288 0 
L 2700 0 
Q 2613 175 2588 409 
z
M 2541 1666 
Q 2234 1541 1622 1453 
Q 1275 1403 1131 1340 
Q 988 1278 909 1158 
Q 831 1038 831 891 
Q 831 666 1001 516 
Q 1172 366 1500 366 
Q 1825 366 2078 508 
Q 2331 650 2450 897 
Q 2541 1088 2541 1459 
L 2541 1666 
z
" transform="scale(0.015625)"/>
       <path id="ArialMT-72" d="M 416 0 
L 416 3319 
L 922 3319 
L 922 2816 
Q 1116 3169 1280 3281 
Q 1444 3394 1641 3394 
Q 1925 3394 2219 3213 
L 2025 2691 
Q 1819 2813 1613 2813 
Q 1428 2813 1281 2702 
Q 1134 2591 1072 2394 
Q 978 2094 978 1738 
L 978 0 
L 416 0 
z
" transform="scale(0.015625)"/>
       <path id="ArialMT-6d" d="M 422 0 
L 422 3319 
L 925 3319 
L 925 2853 
Q 1081 3097 1340 3245 
Q 1600 3394 1931 3394 
Q 2300 3394 2536 3241 
Q 2772 3088 2869 2813 
Q 3263 3394 3894 3394 
Q 4388 3394 4653 3120 
Q 4919 2847 4919 2278 
L 4919 0 
L 4359 0 
L 4359 2091 
Q 4359 2428 4304 2576 
Q 4250 2725 4106 2815 
Q 3963 2906 3769 2906 
Q 3419 2906 3187 2673 
Q 2956 2441 2956 1928 
L 2956 0 
L 2394 0 
L 2394 2156 
Q 2394 2531 2256 2718 
Q 2119 2906 1806 2906 
Q 1569 2906 1367 2781 
Q 1166 2656 1075 2415 
Q 984 2175 984 1722 
L 984 0 
L 422 0 
z
" transform="scale(0.015625)"/>
       <path id="ArialMT-65" d="M 2694 1069 
L 3275 997 
Q 3138 488 2766 206 
Q 2394 -75 1816 -75 
Q 1088 -75 661 373 
Q 234 822 234 1631 
Q 234 2469 665 2931 
Q 1097 3394 1784 3394 
Q 2450 3394 2872 2941 
Q 3294 2488 3294 1666 
Q 3294 1616 3291 1516 
L 816 1516 
Q 847 969 1125 678 
Q 1403 388 1819 388 
Q 2128 388 2347 550 
Q 2566 713 2694 1069 
z
M 847 1978 
L 2700 1978 
Q 2663 2397 2488 2606 
Q 2219 2931 1791 2931 
Q 1403 2931 1139 2672 
Q 875 2413 847 1978 
z
" transform="scale(0.015625)"/>
       <path id="ArialMT-74" d="M 1650 503 
L 1731 6 
Q 1494 -44 1306 -44 
Q 1000 -44 831 53 
Q 663 150 594 308 
Q 525 466 525 972 
L 525 2881 
L 113 2881 
L 113 3319 
L 525 3319 
L 525 4141 
L 1084 4478 
L 1084 3319 
L 1650 3319 
L 1650 2881 
L 1084 2881 
L 1084 941 
Q 1084 700 1114 631 
Q 1144 563 1211 522 
Q 1278 481 1403 481 
Q 1497 481 1650 503 
z
" transform="scale(0.015625)"/>
       <path id="ArialMT-73" d="M 197 991 
L 753 1078 
Q 800 744 1014 566 
Q 1228 388 1613 388 
Q 2000 388 2187 545 
Q 2375 703 2375 916 
Q 2375 1106 2209 1216 
Q 2094 1291 1634 1406 
Q 1016 1563 777 1677 
Q 538 1791 414 1992 
Q 291 2194 291 2438 
Q 291 2659 392 2848 
Q 494 3038 669 3163 
Q 800 3259 1026 3326 
Q 1253 3394 1513 3394 
Q 1903 3394 2198 3281 
Q 2494 3169 2634 2976 
Q 2775 2784 2828 2463 
L 2278 2388 
Q 2241 2644 2061 2787 
Q 1881 2931 1553 2931 
Q 1166 2931 1000 2803 
Q 834 2675 834 2503 
Q 834 2394 903 2306 
Q 972 2216 1119 2156 
Q 1203 2125 1616 2013 
Q 2213 1853 2448 1751 
Q 2684 1650 2818 1456 
Q 2953 1263 2953 975 
Q 2953 694 2789 445 
Q 2625 197 2315 61 
Q 2006 -75 1616 -75 
Q 969 -75 630 194 
Q 291 463 197 991 
z
" transform="scale(0.015625)"/>
       <path id="ArialMT-20" transform="scale(0.015625)"/>
       <path id="ArialMT-28" d="M 1497 -1347 
Q 1031 -759 709 28 
Q 388 816 388 1659 
Q 388 2403 628 3084 
Q 909 3875 1497 4659 
L 1900 4659 
Q 1522 4009 1400 3731 
Q 1209 3300 1100 2831 
Q 966 2247 966 1656 
Q 966 153 1900 -1347 
L 1497 -1347 
z
" transform="scale(0.015625)"/>
       <path id="ArialMT-69" d="M 425 3934 
L 425 4581 
L 988 4581 
L 988 3934 
L 425 3934 
z
M 425 0 
L 425 3319 
L 988 3319 
L 988 0 
L 425 0 
z
" transform="scale(0.015625)"/>
       <path id="ArialMT-6c" d="M 409 0 
L 409 4581 
L 972 4581 
L 972 0 
L 409 0 
z
" transform="scale(0.015625)"/>
       <path id="ArialMT-6f" d="M 213 1659 
Q 213 2581 725 3025 
Q 1153 3394 1769 3394 
Q 2453 3394 2887 2945 
Q 3322 2497 3322 1706 
Q 3322 1066 3130 698 
Q 2938 331 2570 128 
Q 2203 -75 1769 -75 
Q 1072 -75 642 372 
Q 213 819 213 1659 
z
M 791 1659 
Q 791 1022 1069 705 
Q 1347 388 1769 388 
Q 2188 388 2466 706 
Q 2744 1025 2744 1678 
Q 2744 2294 2464 2611 
Q 2184 2928 1769 2928 
Q 1347 2928 1069 2612 
Q 791 2297 791 1659 
z
" transform="scale(0.015625)"/>
       <path id="ArialMT-6e" d="M 422 0 
L 422 3319 
L 928 3319 
L 928 2847 
Q 1294 3394 1984 3394 
Q 2284 3394 2536 3286 
Q 2788 3178 2913 3003 
Q 3038 2828 3088 2588 
Q 3119 2431 3119 2041 
L 3119 0 
L 2556 0 
L 2556 2019 
Q 2556 2363 2490 2533 
Q 2425 2703 2258 2804 
Q 2091 2906 1866 2906 
Q 1506 2906 1245 2678 
Q 984 2450 984 1813 
L 984 0 
L 422 0 
z
" transform="scale(0.015625)"/>
       <path id="ArialMT-29" d="M 791 -1347 
L 388 -1347 
Q 1322 153 1322 1656 
Q 1322 2244 1188 2822 
Q 1081 3291 891 3722 
Q 769 4003 388 4659 
L 791 4659 
Q 1378 3875 1659 3084 
Q 1900 2403 1900 1659 
Q 1900 816 1576 28 
Q 1253 -759 791 -1347 
z
" transform="scale(0.015625)"/>
      </defs>
      <use xlink:href="#ArialMT-50"/>
      <use xlink:href="#ArialMT-61" x="66.699219"/>
      <use xlink:href="#ArialMT-72" x="122.314453"/>
      <use xlink:href="#ArialMT-61" x="155.615234"/>
      <use xlink:href="#ArialMT-6d" x="211.230469"/>
      <use xlink:href="#ArialMT-65" x="294.53125"/>
      <use xlink:href="#ArialMT-74" x="350.146484"/>
      <use xlink:href="#ArialMT-65" x="377.929688"/>
      <use xlink:href="#ArialMT-72" x="433.544922"/>
      <use xlink:href="#ArialMT-73" x="466.845703"/>
      <use xlink:href="#ArialMT-20" x="516.845703"/>
      <use xlink:href="#ArialMT-28" x="544.628906"/>
      <use xlink:href="#ArialMT-6d" x="577.929688"/>
      <use xlink:href="#ArialMT-69" x="661.230469"/>
      <use xlink:href="#ArialMT-6c" x="683.447266"/>
      <use xlink:href="#ArialMT-6c" x="705.664062"/>
      <use xlink:href="#ArialMT-69" x="727.880859"/>
      <use xlink:href="#ArialMT-6f" x="750.097656"/>
      <use xlink:href="#ArialMT-6e" x="805.712891"/>
      <use xlink:href="#ArialMT-73" x="861.328125"/>
      <use xlink:href="#ArialMT-29" x="911.328125"/>
     </g>
    </g>
   </g>
   <g id="matplotlib.axis_2">
    <g id="ytick_1">
     <g id="line2d_10">
      <path d="M 144 525.637709 
L 1036.8 525.637709 
" clip-path="url(#pc5f946f0a1)" style="fill: none; stroke: #ffffff; stroke-width: 0.8; stroke-linecap: round"/>
     </g>
     <g id="text_11">
      <!-- 70 -->
      <g style="fill: #262626" transform="translate(125.878125 529.216615) scale(0.1 -0.1)">
       <use xlink:href="#ArialMT-37"/>
       <use xlink:href="#ArialMT-30" x="55.615234"/>
      </g>
     </g>
    </g>
    <g id="ytick_2">
     <g id="line2d_11">
      <path d="M 144 415.55131 
L 1036.8 415.55131 
" clip-path="url(#pc5f946f0a1)" style="fill: none; stroke: #ffffff; stroke-width: 0.8; stroke-linecap: round"/>
     </g>
     <g id="text_12">
      <!-- 75 -->
      <g style="fill: #262626" transform="translate(125.878125 419.130216) scale(0.1 -0.1)">
       <use xlink:href="#ArialMT-37"/>
       <use xlink:href="#ArialMT-35" x="55.615234"/>
      </g>
     </g>
    </g>
    <g id="ytick_3">
     <g id="line2d_12">
      <path d="M 144 305.46491 
L 1036.8 305.46491 
" clip-path="url(#pc5f946f0a1)" style="fill: none; stroke: #ffffff; stroke-width: 0.8; stroke-linecap: round"/>
     </g>
     <g id="text_13">
      <!-- 80 -->
      <g style="fill: #262626" transform="translate(125.878125 309.043816) scale(0.1 -0.1)">
       <defs>
        <path id="ArialMT-38" d="M 1131 2484 
Q 781 2613 612 2850 
Q 444 3088 444 3419 
Q 444 3919 803 4259 
Q 1163 4600 1759 4600 
Q 2359 4600 2725 4251 
Q 3091 3903 3091 3403 
Q 3091 3084 2923 2848 
Q 2756 2613 2416 2484 
Q 2838 2347 3058 2040 
Q 3278 1734 3278 1309 
Q 3278 722 2862 322 
Q 2447 -78 1769 -78 
Q 1091 -78 675 323 
Q 259 725 259 1325 
Q 259 1772 486 2073 
Q 713 2375 1131 2484 
z
M 1019 3438 
Q 1019 3113 1228 2906 
Q 1438 2700 1772 2700 
Q 2097 2700 2305 2904 
Q 2513 3109 2513 3406 
Q 2513 3716 2298 3927 
Q 2084 4138 1766 4138 
Q 1444 4138 1231 3931 
Q 1019 3725 1019 3438 
z
M 838 1322 
Q 838 1081 952 856 
Q 1066 631 1291 507 
Q 1516 384 1775 384 
Q 2178 384 2440 643 
Q 2703 903 2703 1303 
Q 2703 1709 2433 1975 
Q 2163 2241 1756 2241 
Q 1359 2241 1098 1978 
Q 838 1716 838 1322 
z
" transform="scale(0.015625)"/>
       </defs>
       <use xlink:href="#ArialMT-38"/>
       <use xlink:href="#ArialMT-30" x="55.615234"/>
      </g>
     </g>
    </g>
    <g id="ytick_4">
     <g id="line2d_13">
      <path d="M 144 195.378511 
L 1036.8 195.378511 
" clip-path="url(#pc5f946f0a1)" style="fill: none; stroke: #ffffff; stroke-width: 0.8; stroke-linecap: round"/>
     </g>
     <g id="text_14">
      <!-- 85 -->
      <g style="fill: #262626" transform="translate(125.878125 198.957417) scale(0.1 -0.1)">
       <use xlink:href="#ArialMT-38"/>
       <use xlink:href="#ArialMT-35" x="55.615234"/>
      </g>
     </g>
    </g>
    <g id="ytick_5">
     <g id="line2d_14">
      <path d="M 144 85.292111 
L 1036.8 85.292111 
" clip-path="url(#pc5f946f0a1)" style="fill: none; stroke: #ffffff; stroke-width: 0.8; stroke-linecap: round"/>
     </g>
     <g id="text_15">
      <!-- 90 -->
      <g style="fill: #262626" transform="translate(125.878125 88.871018) scale(0.1 -0.1)">
       <defs>
        <path id="ArialMT-39" d="M 350 1059 
L 891 1109 
Q 959 728 1153 556 
Q 1347 384 1650 384 
Q 1909 384 2104 503 
Q 2300 622 2425 820 
Q 2550 1019 2634 1356 
Q 2719 1694 2719 2044 
Q 2719 2081 2716 2156 
Q 2547 1888 2255 1720 
Q 1963 1553 1622 1553 
Q 1053 1553 659 1965 
Q 266 2378 266 3053 
Q 266 3750 677 4175 
Q 1088 4600 1706 4600 
Q 2153 4600 2523 4359 
Q 2894 4119 3086 3673 
Q 3278 3228 3278 2384 
Q 3278 1506 3087 986 
Q 2897 466 2520 194 
Q 2144 -78 1638 -78 
Q 1100 -78 759 220 
Q 419 519 350 1059 
z
M 2653 3081 
Q 2653 3566 2395 3850 
Q 2138 4134 1775 4134 
Q 1400 4134 1122 3828 
Q 844 3522 844 3034 
Q 844 2597 1108 2323 
Q 1372 2050 1759 2050 
Q 2150 2050 2401 2323 
Q 2653 2597 2653 3081 
z
" transform="scale(0.015625)"/>
       </defs>
       <use xlink:href="#ArialMT-39"/>
       <use xlink:href="#ArialMT-30" x="55.615234"/>
      </g>
     </g>
    </g>
    <g id="text_16">
     <!-- Accuracy (%) -->
     <g style="fill: #262626" transform="translate(119.773438 356.965781) rotate(-90) scale(0.1 -0.1)">
      <defs>
       <path id="ArialMT-41" d="M -9 0 
L 1750 4581 
L 2403 4581 
L 4278 0 
L 3588 0 
L 3053 1388 
L 1138 1388 
L 634 0 
L -9 0 
z
M 1313 1881 
L 2866 1881 
L 2388 3150 
Q 2169 3728 2063 4100 
Q 1975 3659 1816 3225 
L 1313 1881 
z
" transform="scale(0.015625)"/>
       <path id="ArialMT-63" d="M 2588 1216 
L 3141 1144 
Q 3050 572 2676 248 
Q 2303 -75 1759 -75 
Q 1078 -75 664 370 
Q 250 816 250 1647 
Q 250 2184 428 2587 
Q 606 2991 970 3192 
Q 1334 3394 1763 3394 
Q 2303 3394 2647 3120 
Q 2991 2847 3088 2344 
L 2541 2259 
Q 2463 2594 2264 2762 
Q 2066 2931 1784 2931 
Q 1359 2931 1093 2626 
Q 828 2322 828 1663 
Q 828 994 1084 691 
Q 1341 388 1753 388 
Q 2084 388 2306 591 
Q 2528 794 2588 1216 
z
" transform="scale(0.015625)"/>
       <path id="ArialMT-75" d="M 2597 0 
L 2597 488 
Q 2209 -75 1544 -75 
Q 1250 -75 995 37 
Q 741 150 617 320 
Q 494 491 444 738 
Q 409 903 409 1263 
L 409 3319 
L 972 3319 
L 972 1478 
Q 972 1038 1006 884 
Q 1059 663 1231 536 
Q 1403 409 1656 409 
Q 1909 409 2131 539 
Q 2353 669 2445 892 
Q 2538 1116 2538 1541 
L 2538 3319 
L 3100 3319 
L 3100 0 
L 2597 0 
z
" transform="scale(0.015625)"/>
       <path id="ArialMT-79" d="M 397 -1278 
L 334 -750 
Q 519 -800 656 -800 
Q 844 -800 956 -737 
Q 1069 -675 1141 -563 
Q 1194 -478 1313 -144 
Q 1328 -97 1363 -6 
L 103 3319 
L 709 3319 
L 1400 1397 
Q 1534 1031 1641 628 
Q 1738 1016 1872 1384 
L 2581 3319 
L 3144 3319 
L 1881 -56 
Q 1678 -603 1566 -809 
Q 1416 -1088 1222 -1217 
Q 1028 -1347 759 -1347 
Q 597 -1347 397 -1278 
z
" transform="scale(0.015625)"/>
       <path id="ArialMT-25" d="M 372 3481 
Q 372 3972 619 4315 
Q 866 4659 1334 4659 
Q 1766 4659 2048 4351 
Q 2331 4044 2331 3447 
Q 2331 2866 2045 2552 
Q 1759 2238 1341 2238 
Q 925 2238 648 2547 
Q 372 2856 372 3481 
z
M 1350 4272 
Q 1141 4272 1002 4090 
Q 863 3909 863 3425 
Q 863 2984 1003 2804 
Q 1144 2625 1350 2625 
Q 1563 2625 1702 2806 
Q 1841 2988 1841 3469 
Q 1841 3913 1700 4092 
Q 1559 4272 1350 4272 
z
M 1353 -169 
L 3859 4659 
L 4316 4659 
L 1819 -169 
L 1353 -169 
z
M 3334 1075 
Q 3334 1569 3581 1911 
Q 3828 2253 4300 2253 
Q 4731 2253 5014 1945 
Q 5297 1638 5297 1041 
Q 5297 459 5011 145 
Q 4725 -169 4303 -169 
Q 3888 -169 3611 142 
Q 3334 453 3334 1075 
z
M 4316 1866 
Q 4103 1866 3964 1684 
Q 3825 1503 3825 1019 
Q 3825 581 3965 400 
Q 4106 219 4313 219 
Q 4528 219 4667 400 
Q 4806 581 4806 1063 
Q 4806 1506 4665 1686 
Q 4525 1866 4316 1866 
z
" transform="scale(0.015625)"/>
      </defs>
      <use xlink:href="#ArialMT-41"/>
      <use xlink:href="#ArialMT-63" x="66.699219"/>
      <use xlink:href="#ArialMT-63" x="116.699219"/>
      <use xlink:href="#ArialMT-75" x="166.699219"/>
      <use xlink:href="#ArialMT-72" x="222.314453"/>
      <use xlink:href="#ArialMT-61" x="255.615234"/>
      <use xlink:href="#ArialMT-63" x="311.230469"/>
      <use xlink:href="#ArialMT-79" x="361.230469"/>
      <use xlink:href="#ArialMT-20" x="411.230469"/>
      <use xlink:href="#ArialMT-28" x="439.013672"/>
      <use xlink:href="#ArialMT-25" x="472.314453"/>
      <use xlink:href="#ArialMT-29" x="561.230469"/>
     </g>
    </g>
   </g>
   <g id="PathCollection_1">
    <path d="M 819.201824 216.271929 
C 821.105094 216.271929 822.930668 215.515752 824.276484 214.169936 
C 825.622299 212.824121 826.378477 210.998547 826.378477 209.095276 
C 826.378477 207.192005 825.622299 205.366432 824.276484 204.020616 
C 822.930668 202.6748 821.105094 201.918623 819.201824 201.918623 
C 817.298553 201.918623 815.472979 202.6748 814.127163 204.020616 
C 812.781348 205.366432 812.02517 207.192005 812.02517 209.095276 
C 812.02517 210.998547 812.781348 212.824121 814.127163 214.169936 
C 815.472979 215.515752 817.298553 216.271929 819.201824 216.271929 
z
" clip-path="url(#pc5f946f0a1)" style="fill: #d24a61; stroke: #ffffff; stroke-width: 1.017754"/>
    <path d="M 450.897235 213.828497 
C 452.619624 213.828497 454.2717 213.144185 455.489613 211.926272 
C 456.707526 210.708359 457.391838 209.056283 457.391838 207.333894 
C 457.391838 205.611505 456.707526 203.959429 455.489613 202.741516 
C 454.2717 201.523603 452.619624 200.839291 450.897235 200.839291 
C 449.174846 200.839291 447.52277 201.523603 446.304857 202.741516 
C 445.086944 203.959429 444.402632 205.611505 444.402632 207.333894 
C 444.402632 209.056283 445.086944 210.708359 446.304857 211.926272 
C 447.52277 213.144185 449.174846 213.828497 450.897235 213.828497 
z
" clip-path="url(#pc5f946f0a1)" style="fill: #e36b5d; stroke: #ffffff; stroke-width: 1.017754"/>
    <path d="M 488.341988 261.487392 
C 490.079636 261.487392 491.746348 260.797017 492.975051 259.568315 
C 494.203753 258.339613 494.894128 256.672901 494.894128 254.935253 
C 494.894128 253.197605 494.203753 251.530893 492.975051 250.302191 
C 491.746348 249.073488 490.079636 248.383114 488.341988 248.383114 
C 486.604341 248.383114 484.937629 249.073488 483.708926 250.302191 
C 482.480224 251.530893 481.789849 253.197605 481.789849 254.935253 
C 481.789849 256.672901 482.480224 258.339613 483.708926 259.568315 
C 484.937629 260.797017 486.604341 261.487392 488.341988 261.487392 
z
" clip-path="url(#pc5f946f0a1)" style="fill: #e3685c; stroke: #ffffff; stroke-width: 1.017754"/>
    <path d="M 504.992609 283.879111 
C 506.730295 283.879111 508.397044 283.188721 509.625774 281.959991 
C 510.854503 280.731261 511.544893 279.064513 511.544893 277.326827 
C 511.544893 275.58914 510.854503 273.922392 509.625774 272.693662 
C 508.397044 271.464933 506.730295 270.774543 504.992609 270.774543 
C 503.254923 270.774543 501.588175 271.464933 500.359445 272.693662 
C 499.130715 273.922392 498.440325 275.58914 498.440325 277.326827 
C 498.440325 279.064513 499.130715 280.731261 500.359445 281.959991 
C 501.588175 283.188721 503.254923 283.879111 504.992609 283.879111 
z
" clip-path="url(#pc5f946f0a1)" style="fill: #e3685c; stroke: #ffffff; stroke-width: 1.017754"/>
    <path d="M 180.301247 559.04 
C 181.627262 559.04 182.899146 558.513168 183.83678 557.575534 
C 184.774415 556.637899 185.301247 555.366015 185.301247 554.04 
C 185.301247 552.713984 184.774415 551.442101 183.83678 550.504466 
C 182.899146 549.566832 181.627262 549.04 180.301247 549.04 
C 178.975231 549.04 177.703347 549.566832 176.765713 550.504466 
C 175.828078 551.442101 175.301247 552.713984 175.301247 554.04 
C 175.301247 555.366015 175.828078 556.637899 176.765713 557.575534 
C 177.703347 558.513168 178.975231 559.04 180.301247 559.04 
z
" clip-path="url(#pc5f946f0a1)" style="fill: #edb081; stroke: #ffffff; stroke-width: 1.017754"/>
    <path d="M 308.911766 475.116179 
C 310.817452 475.116179 312.645342 474.359042 313.992866 473.011518 
C 315.340389 471.663995 316.097526 469.836104 316.097526 467.930418 
C 316.097526 466.024733 315.340389 464.196842 313.992866 462.849319 
C 312.645342 461.501795 310.817452 460.744658 308.911766 460.744658 
C 307.00608 460.744658 305.17819 461.501795 303.830666 462.849319 
C 302.483143 464.196842 301.726006 466.024733 301.726006 467.930418 
C 301.726006 469.836104 302.483143 471.663995 303.830666 473.011518 
C 305.17819 474.359042 307.00608 475.116179 308.911766 475.116179 
z
" clip-path="url(#pc5f946f0a1)" style="fill: #d14a61; stroke: #ffffff; stroke-width: 1.017754"/>
    <path d="M 437.522285 128.926571 
C 439.868579 128.926571 442.11909 127.994379 443.77817 126.335299 
C 445.43725 124.676219 446.369443 122.425707 446.369443 120.079414 
C 446.369443 117.73312 445.43725 115.482609 443.77817 113.823529 
C 442.11909 112.164449 439.868579 111.232256 437.522285 111.232256 
C 435.175992 111.232256 432.92548 112.164449 431.2664 113.823529 
C 429.60732 115.482609 428.675128 117.73312 428.675128 120.079414 
C 428.675128 122.425707 429.60732 124.676219 431.2664 126.335299 
C 432.92548 127.994379 435.175992 128.926571 437.522285 128.926571 
z
" clip-path="url(#pc5f946f0a1)" style="fill: #6d2b6d; stroke: #ffffff; stroke-width: 1.017754"/>
    <path d="M 906.326177 109.794143 
C 908.806924 109.794143 911.186401 108.808532 912.940555 107.054378 
C 914.694708 105.300225 915.68032 102.920748 915.68032 100.44 
C 915.68032 97.959252 914.694708 95.579775 912.940555 93.825622 
C 911.186401 92.071468 908.806924 91.085857 906.326177 91.085857 
C 903.845429 91.085857 901.465952 92.071468 899.711798 93.825622 
C 897.957645 95.579775 896.972033 97.959252 896.972033 100.44 
C 896.972033 102.920748 897.957645 105.300225 899.711798 107.054378 
C 901.465952 108.808532 903.845429 109.794143 906.326177 109.794143 
z
" clip-path="url(#pc5f946f0a1)" style="fill: #4b2362; stroke: #ffffff; stroke-width: 1.017754"/>
    <path d="M 283.965613 310.079886 
C 286.427398 310.079886 288.788686 309.101809 290.52943 307.361064 
C 292.270175 305.620319 293.248252 303.259032 293.248252 300.797247 
C 293.248252 298.335462 292.270175 295.974174 290.52943 294.23343 
C 288.788686 292.492685 286.427398 291.514608 283.965613 291.514608 
C 281.503829 291.514608 279.142541 292.492685 277.401796 294.23343 
C 275.661052 295.974174 274.682974 298.335462 274.682974 300.797247 
C 274.682974 303.259032 275.661052 305.620319 277.401796 307.361064 
C 279.142541 309.101809 281.503829 310.079886 283.965613 310.079886 
z
" clip-path="url(#pc5f946f0a1)" style="fill: #4f2463; stroke: #ffffff; stroke-width: 1.017754"/>
    <path d="M 267.425599 278.506569 
C 269.89892 278.506569 272.271272 277.523908 274.020173 275.775007 
C 275.769075 274.026106 276.751735 271.653753 276.751735 269.180433 
C 276.751735 266.707113 275.769075 264.33476 274.020173 262.585859 
C 272.271272 260.836957 269.89892 259.854297 267.425599 259.854297 
C 264.952279 259.854297 262.579927 260.836957 260.831025 262.585859 
C 259.082124 264.33476 258.099463 266.707113 258.099463 269.180433 
C 258.099463 271.653753 259.082124 274.026106 260.831025 275.775007 
C 262.579927 277.523908 264.952279 278.506569 267.425599 278.506569 
z
" clip-path="url(#pc5f946f0a1)" style="fill: #4d2463; stroke: #ffffff; stroke-width: 1.017754"/>
   </g>
   <g id="line2d_15"/>
   <g id="line2d_16"/>
   <g id="line2d_17"/>
   <g id="line2d_18"/>
   <g id="line2d_19"/>
   <g id="line2d_20"/>
   <g id="patch_3">
    <path d="M 144 576.72 
L 144 77.76 
" style="fill: none; stroke: #ffffff; stroke-width: 0.8; stroke-linejoin: miter; stroke-linecap: square"/>
   </g>
   <g id="patch_4">
    <path d="M 1036.8 576.72 
L 1036.8 77.76 
" style="fill: none; stroke: #ffffff; stroke-width: 0.8; stroke-linejoin: miter; stroke-linecap: square"/>
   </g>
   <g id="patch_5">
    <path d="M 144 576.72 
L 1036.8 576.72 
" style="fill: none; stroke: #ffffff; stroke-width: 0.8; stroke-linejoin: miter; stroke-linecap: square"/>
   </g>
   <g id="patch_6">
    <path d="M 144 77.76 
L 1036.8 77.76 
" style="fill: none; stroke: #ffffff; stroke-width: 0.8; stroke-linejoin: miter; stroke-linecap: square"/>
   </g>
   <g id="text_17">
    <!-- MobileLookNet -->
    <g style="fill: #262626" transform="translate(829.837121 212.397868) scale(0.1 -0.1)">
     <defs>
      <path id="ArialMT-4d" d="M 475 0 
L 475 4581 
L 1388 4581 
L 2472 1338 
Q 2622 884 2691 659 
Q 2769 909 2934 1394 
L 4031 4581 
L 4847 4581 
L 4847 0 
L 4263 0 
L 4263 3834 
L 2931 0 
L 2384 0 
L 1059 3900 
L 1059 0 
L 475 0 
z
" transform="scale(0.015625)"/>
      <path id="ArialMT-62" d="M 941 0 
L 419 0 
L 419 4581 
L 981 4581 
L 981 2947 
Q 1338 3394 1891 3394 
Q 2197 3394 2470 3270 
Q 2744 3147 2920 2923 
Q 3097 2700 3197 2384 
Q 3297 2069 3297 1709 
Q 3297 856 2875 390 
Q 2453 -75 1863 -75 
Q 1275 -75 941 416 
L 941 0 
z
M 934 1684 
Q 934 1088 1097 822 
Q 1363 388 1816 388 
Q 2184 388 2453 708 
Q 2722 1028 2722 1663 
Q 2722 2313 2464 2622 
Q 2206 2931 1841 2931 
Q 1472 2931 1203 2611 
Q 934 2291 934 1684 
z
" transform="scale(0.015625)"/>
      <path id="ArialMT-4c" d="M 469 0 
L 469 4581 
L 1075 4581 
L 1075 541 
L 3331 541 
L 3331 0 
L 469 0 
z
" transform="scale(0.015625)"/>
      <path id="ArialMT-6b" d="M 425 0 
L 425 4581 
L 988 4581 
L 988 1969 
L 2319 3319 
L 3047 3319 
L 1778 2088 
L 3175 0 
L 2481 0 
L 1384 1697 
L 988 1316 
L 988 0 
L 425 0 
z
" transform="scale(0.015625)"/>
      <path id="ArialMT-4e" d="M 488 0 
L 488 4581 
L 1109 4581 
L 3516 984 
L 3516 4581 
L 4097 4581 
L 4097 0 
L 3475 0 
L 1069 3600 
L 1069 0 
L 488 0 
z
" transform="scale(0.015625)"/>
     </defs>
     <use xlink:href="#ArialMT-4d"/>
     <use xlink:href="#ArialMT-6f" x="83.300781"/>
     <use xlink:href="#ArialMT-62" x="138.916016"/>
     <use xlink:href="#ArialMT-69" x="194.53125"/>
     <use xlink:href="#ArialMT-6c" x="216.748047"/>
     <use xlink:href="#ArialMT-65" x="238.964844"/>
     <use xlink:href="#ArialMT-4c" x="294.580078"/>
     <use xlink:href="#ArialMT-6f" x="350.195312"/>
     <use xlink:href="#ArialMT-6f" x="405.810547"/>
     <use xlink:href="#ArialMT-6b" x="461.425781"/>
     <use xlink:href="#ArialMT-4e" x="511.425781"/>
     <use xlink:href="#ArialMT-65" x="583.642578"/>
     <use xlink:href="#ArialMT-74" x="639.257812"/>
    </g>
   </g>
   <g id="text_18">
    <!-- MobileLookNet + FF -->
    <g style="fill: #262626" transform="translate(461.532532 210.636486) scale(0.1 -0.1)">
     <defs>
      <path id="ArialMT-2b" d="M 1603 741 
L 1603 1997 
L 356 1997 
L 356 2522 
L 1603 2522 
L 1603 3769 
L 2134 3769 
L 2134 2522 
L 3381 2522 
L 3381 1997 
L 2134 1997 
L 2134 741 
L 1603 741 
z
" transform="scale(0.015625)"/>
      <path id="ArialMT-46" d="M 525 0 
L 525 4581 
L 3616 4581 
L 3616 4041 
L 1131 4041 
L 1131 2622 
L 3281 2622 
L 3281 2081 
L 1131 2081 
L 1131 0 
L 525 0 
z
" transform="scale(0.015625)"/>
     </defs>
     <use xlink:href="#ArialMT-4d"/>
     <use xlink:href="#ArialMT-6f" x="83.300781"/>
     <use xlink:href="#ArialMT-62" x="138.916016"/>
     <use xlink:href="#ArialMT-69" x="194.53125"/>
     <use xlink:href="#ArialMT-6c" x="216.748047"/>
     <use xlink:href="#ArialMT-65" x="238.964844"/>
     <use xlink:href="#ArialMT-4c" x="294.580078"/>
     <use xlink:href="#ArialMT-6f" x="350.195312"/>
     <use xlink:href="#ArialMT-6f" x="405.810547"/>
     <use xlink:href="#ArialMT-6b" x="461.425781"/>
     <use xlink:href="#ArialMT-4e" x="511.425781"/>
     <use xlink:href="#ArialMT-65" x="583.642578"/>
     <use xlink:href="#ArialMT-74" x="639.257812"/>
     <use xlink:href="#ArialMT-20" x="667.041016"/>
     <use xlink:href="#ArialMT-2b" x="694.824219"/>
     <use xlink:href="#ArialMT-20" x="753.222656"/>
     <use xlink:href="#ArialMT-46" x="781.005859"/>
     <use xlink:href="#ArialMT-46" x="842.089844"/>
    </g>
   </g>
   <g id="text_19">
    <!-- MobileLookNet + A -->
    <g style="fill: #262626" transform="translate(498.977285 258.237845) scale(0.1 -0.1)">
     <use xlink:href="#ArialMT-4d"/>
     <use xlink:href="#ArialMT-6f" x="83.300781"/>
     <use xlink:href="#ArialMT-62" x="138.916016"/>
     <use xlink:href="#ArialMT-69" x="194.53125"/>
     <use xlink:href="#ArialMT-6c" x="216.748047"/>
     <use xlink:href="#ArialMT-65" x="238.964844"/>
     <use xlink:href="#ArialMT-4c" x="294.580078"/>
     <use xlink:href="#ArialMT-6f" x="350.195312"/>
     <use xlink:href="#ArialMT-6f" x="405.810547"/>
     <use xlink:href="#ArialMT-6b" x="461.425781"/>
     <use xlink:href="#ArialMT-4e" x="511.425781"/>
     <use xlink:href="#ArialMT-65" x="583.642578"/>
     <use xlink:href="#ArialMT-74" x="639.257812"/>
     <use xlink:href="#ArialMT-20" x="667.041016"/>
     <use xlink:href="#ArialMT-2b" x="694.824219"/>
     <use xlink:href="#ArialMT-20" x="753.222656"/>
     <use xlink:href="#ArialMT-41" x="775.505859"/>
    </g>
   </g>
   <g id="text_20">
    <!-- MobileLookNet + FF + A -->
    <g style="fill: #262626" transform="translate(515.627906 280.629419) scale(0.1 -0.1)">
     <use xlink:href="#ArialMT-4d"/>
     <use xlink:href="#ArialMT-6f" x="83.300781"/>
     <use xlink:href="#ArialMT-62" x="138.916016"/>
     <use xlink:href="#ArialMT-69" x="194.53125"/>
     <use xlink:href="#ArialMT-6c" x="216.748047"/>
     <use xlink:href="#ArialMT-65" x="238.964844"/>
     <use xlink:href="#ArialMT-4c" x="294.580078"/>
     <use xlink:href="#ArialMT-6f" x="350.195312"/>
     <use xlink:href="#ArialMT-6f" x="405.810547"/>
     <use xlink:href="#ArialMT-6b" x="461.425781"/>
     <use xlink:href="#ArialMT-4e" x="511.425781"/>
     <use xlink:href="#ArialMT-65" x="583.642578"/>
     <use xlink:href="#ArialMT-74" x="639.257812"/>
     <use xlink:href="#ArialMT-20" x="667.041016"/>
     <use xlink:href="#ArialMT-2b" x="694.824219"/>
     <use xlink:href="#ArialMT-20" x="753.222656"/>
     <use xlink:href="#ArialMT-46" x="781.005859"/>
     <use xlink:href="#ArialMT-46" x="842.089844"/>
     <use xlink:href="#ArialMT-20" x="903.173828"/>
     <use xlink:href="#ArialMT-2b" x="930.957031"/>
     <use xlink:href="#ArialMT-20" x="989.355469"/>
     <use xlink:href="#ArialMT-41" x="1011.638672"/>
    </g>
   </g>
   <g id="text_21">
    <!-- MobileLookNet w/ 1 rep/group -->
    <g style="fill: #262626" transform="translate(190.936543 557.342592) scale(0.1 -0.1)">
     <defs>
      <path id="ArialMT-77" d="M 1034 0 
L 19 3319 
L 600 3319 
L 1128 1403 
L 1325 691 
Q 1338 744 1497 1375 
L 2025 3319 
L 2603 3319 
L 3100 1394 
L 3266 759 
L 3456 1400 
L 4025 3319 
L 4572 3319 
L 3534 0 
L 2950 0 
L 2422 1988 
L 2294 2553 
L 1622 0 
L 1034 0 
z
" transform="scale(0.015625)"/>
      <path id="ArialMT-2f" d="M 0 -78 
L 1328 4659 
L 1778 4659 
L 453 -78 
L 0 -78 
z
" transform="scale(0.015625)"/>
      <path id="ArialMT-70" d="M 422 -1272 
L 422 3319 
L 934 3319 
L 934 2888 
Q 1116 3141 1344 3267 
Q 1572 3394 1897 3394 
Q 2322 3394 2647 3175 
Q 2972 2956 3137 2557 
Q 3303 2159 3303 1684 
Q 3303 1175 3120 767 
Q 2938 359 2589 142 
Q 2241 -75 1856 -75 
Q 1575 -75 1351 44 
Q 1128 163 984 344 
L 984 -1272 
L 422 -1272 
z
M 931 1641 
Q 931 1000 1190 694 
Q 1450 388 1819 388 
Q 2194 388 2461 705 
Q 2728 1022 2728 1688 
Q 2728 2322 2467 2637 
Q 2206 2953 1844 2953 
Q 1484 2953 1207 2617 
Q 931 2281 931 1641 
z
" transform="scale(0.015625)"/>
      <path id="ArialMT-67" d="M 319 -275 
L 866 -356 
Q 900 -609 1056 -725 
Q 1266 -881 1628 -881 
Q 2019 -881 2231 -725 
Q 2444 -569 2519 -288 
Q 2563 -116 2559 434 
Q 2191 0 1641 0 
Q 956 0 581 494 
Q 206 988 206 1678 
Q 206 2153 378 2554 
Q 550 2956 876 3175 
Q 1203 3394 1644 3394 
Q 2231 3394 2613 2919 
L 2613 3319 
L 3131 3319 
L 3131 450 
Q 3131 -325 2973 -648 
Q 2816 -972 2473 -1159 
Q 2131 -1347 1631 -1347 
Q 1038 -1347 672 -1080 
Q 306 -813 319 -275 
z
M 784 1719 
Q 784 1066 1043 766 
Q 1303 466 1694 466 
Q 2081 466 2343 764 
Q 2606 1063 2606 1700 
Q 2606 2309 2336 2618 
Q 2066 2928 1684 2928 
Q 1309 2928 1046 2623 
Q 784 2319 784 1719 
z
" transform="scale(0.015625)"/>
     </defs>
     <use xlink:href="#ArialMT-4d"/>
     <use xlink:href="#ArialMT-6f" x="83.300781"/>
     <use xlink:href="#ArialMT-62" x="138.916016"/>
     <use xlink:href="#ArialMT-69" x="194.53125"/>
     <use xlink:href="#ArialMT-6c" x="216.748047"/>
     <use xlink:href="#ArialMT-65" x="238.964844"/>
     <use xlink:href="#ArialMT-4c" x="294.580078"/>
     <use xlink:href="#ArialMT-6f" x="350.195312"/>
     <use xlink:href="#ArialMT-6f" x="405.810547"/>
     <use xlink:href="#ArialMT-6b" x="461.425781"/>
     <use xlink:href="#ArialMT-4e" x="511.425781"/>
     <use xlink:href="#ArialMT-65" x="583.642578"/>
     <use xlink:href="#ArialMT-74" x="639.257812"/>
     <use xlink:href="#ArialMT-20" x="667.041016"/>
     <use xlink:href="#ArialMT-77" x="694.824219"/>
     <use xlink:href="#ArialMT-2f" x="767.041016"/>
     <use xlink:href="#ArialMT-20" x="794.824219"/>
     <use xlink:href="#ArialMT-31" x="822.607422"/>
     <use xlink:href="#ArialMT-20" x="878.222656"/>
     <use xlink:href="#ArialMT-72" x="906.005859"/>
     <use xlink:href="#ArialMT-65" x="939.306641"/>
     <use xlink:href="#ArialMT-70" x="994.921875"/>
     <use xlink:href="#ArialMT-2f" x="1050.537109"/>
     <use xlink:href="#ArialMT-67" x="1078.320312"/>
     <use xlink:href="#ArialMT-72" x="1133.935547"/>
     <use xlink:href="#ArialMT-6f" x="1167.236328"/>
     <use xlink:href="#ArialMT-75" x="1222.851562"/>
     <use xlink:href="#ArialMT-70" x="1278.466797"/>
    </g>
   </g>
   <g id="text_22">
    <!-- MobileLookNet w/ 2 reps/group -->
    <g style="fill: #262626" transform="translate(319.547063 471.23301) scale(0.1 -0.1)">
     <use xlink:href="#ArialMT-4d"/>
     <use xlink:href="#ArialMT-6f" x="83.300781"/>
     <use xlink:href="#ArialMT-62" x="138.916016"/>
     <use xlink:href="#ArialMT-69" x="194.53125"/>
     <use xlink:href="#ArialMT-6c" x="216.748047"/>
     <use xlink:href="#ArialMT-65" x="238.964844"/>
     <use xlink:href="#ArialMT-4c" x="294.580078"/>
     <use xlink:href="#ArialMT-6f" x="350.195312"/>
     <use xlink:href="#ArialMT-6f" x="405.810547"/>
     <use xlink:href="#ArialMT-6b" x="461.425781"/>
     <use xlink:href="#ArialMT-4e" x="511.425781"/>
     <use xlink:href="#ArialMT-65" x="583.642578"/>
     <use xlink:href="#ArialMT-74" x="639.257812"/>
     <use xlink:href="#ArialMT-20" x="667.041016"/>
     <use xlink:href="#ArialMT-77" x="694.824219"/>
     <use xlink:href="#ArialMT-2f" x="767.041016"/>
     <use xlink:href="#ArialMT-20" x="794.824219"/>
     <use xlink:href="#ArialMT-32" x="822.607422"/>
     <use xlink:href="#ArialMT-20" x="878.222656"/>
     <use xlink:href="#ArialMT-72" x="906.005859"/>
     <use xlink:href="#ArialMT-65" x="939.306641"/>
     <use xlink:href="#ArialMT-70" x="994.921875"/>
     <use xlink:href="#ArialMT-73" x="1050.537109"/>
     <use xlink:href="#ArialMT-2f" x="1100.537109"/>
     <use xlink:href="#ArialMT-67" x="1128.320312"/>
     <use xlink:href="#ArialMT-72" x="1183.935547"/>
     <use xlink:href="#ArialMT-6f" x="1217.236328"/>
     <use xlink:href="#ArialMT-75" x="1272.851562"/>
     <use xlink:href="#ArialMT-70" x="1328.466797"/>
    </g>
   </g>
   <g id="text_23">
    <!-- MobileLookNet w/ 3 reps/group -->
    <g style="fill: #262626" transform="translate(448.157582 123.382006) scale(0.1 -0.1)">
     <use xlink:href="#ArialMT-4d"/>
     <use xlink:href="#ArialMT-6f" x="83.300781"/>
     <use xlink:href="#ArialMT-62" x="138.916016"/>
     <use xlink:href="#ArialMT-69" x="194.53125"/>
     <use xlink:href="#ArialMT-6c" x="216.748047"/>
     <use xlink:href="#ArialMT-65" x="238.964844"/>
     <use xlink:href="#ArialMT-4c" x="294.580078"/>
     <use xlink:href="#ArialMT-6f" x="350.195312"/>
     <use xlink:href="#ArialMT-6f" x="405.810547"/>
     <use xlink:href="#ArialMT-6b" x="461.425781"/>
     <use xlink:href="#ArialMT-4e" x="511.425781"/>
     <use xlink:href="#ArialMT-65" x="583.642578"/>
     <use xlink:href="#ArialMT-74" x="639.257812"/>
     <use xlink:href="#ArialMT-20" x="667.041016"/>
     <use xlink:href="#ArialMT-77" x="694.824219"/>
     <use xlink:href="#ArialMT-2f" x="767.041016"/>
     <use xlink:href="#ArialMT-20" x="794.824219"/>
     <use xlink:href="#ArialMT-33" x="822.607422"/>
     <use xlink:href="#ArialMT-20" x="878.222656"/>
     <use xlink:href="#ArialMT-72" x="906.005859"/>
     <use xlink:href="#ArialMT-65" x="939.306641"/>
     <use xlink:href="#ArialMT-70" x="994.921875"/>
     <use xlink:href="#ArialMT-73" x="1050.537109"/>
     <use xlink:href="#ArialMT-2f" x="1100.537109"/>
     <use xlink:href="#ArialMT-67" x="1128.320312"/>
     <use xlink:href="#ArialMT-72" x="1183.935547"/>
     <use xlink:href="#ArialMT-6f" x="1217.236328"/>
     <use xlink:href="#ArialMT-75" x="1272.851562"/>
     <use xlink:href="#ArialMT-70" x="1328.466797"/>
    </g>
   </g>
   <g id="text_24">
    <!-- MobileLookNet Deep -->
    <g style="fill: #262626" transform="translate(916.961474 103.742592) scale(0.1 -0.1)">
     <defs>
      <path id="ArialMT-44" d="M 494 0 
L 494 4581 
L 2072 4581 
Q 2606 4581 2888 4516 
Q 3281 4425 3559 4188 
Q 3922 3881 4101 3404 
Q 4281 2928 4281 2316 
Q 4281 1794 4159 1391 
Q 4038 988 3847 723 
Q 3656 459 3429 307 
Q 3203 156 2883 78 
Q 2563 0 2147 0 
L 494 0 
z
M 1100 541 
L 2078 541 
Q 2531 541 2789 625 
Q 3047 709 3200 863 
Q 3416 1078 3536 1442 
Q 3656 1806 3656 2325 
Q 3656 3044 3420 3430 
Q 3184 3816 2847 3947 
Q 2603 4041 2063 4041 
L 1100 4041 
L 1100 541 
z
" transform="scale(0.015625)"/>
     </defs>
     <use xlink:href="#ArialMT-4d"/>
     <use xlink:href="#ArialMT-6f" x="83.300781"/>
     <use xlink:href="#ArialMT-62" x="138.916016"/>
     <use xlink:href="#ArialMT-69" x="194.53125"/>
     <use xlink:href="#ArialMT-6c" x="216.748047"/>
     <use xlink:href="#ArialMT-65" x="238.964844"/>
     <use xlink:href="#ArialMT-4c" x="294.580078"/>
     <use xlink:href="#ArialMT-6f" x="350.195312"/>
     <use xlink:href="#ArialMT-6f" x="405.810547"/>
     <use xlink:href="#ArialMT-6b" x="461.425781"/>
     <use xlink:href="#ArialMT-4e" x="511.425781"/>
     <use xlink:href="#ArialMT-65" x="583.642578"/>
     <use xlink:href="#ArialMT-74" x="639.257812"/>
     <use xlink:href="#ArialMT-20" x="667.041016"/>
     <use xlink:href="#ArialMT-44" x="694.824219"/>
     <use xlink:href="#ArialMT-65" x="767.041016"/>
     <use xlink:href="#ArialMT-65" x="822.65625"/>
     <use xlink:href="#ArialMT-70" x="878.271484"/>
    </g>
   </g>
   <g id="text_25">
    <!-- MobileLookNet Rev Groups -->
    <g style="fill: #262626" transform="translate(294.60091 304.099839) scale(0.1 -0.1)">
     <defs>
      <path id="ArialMT-52" d="M 503 0 
L 503 4581 
L 2534 4581 
Q 3147 4581 3465 4457 
Q 3784 4334 3975 4021 
Q 4166 3709 4166 3331 
Q 4166 2844 3850 2509 
Q 3534 2175 2875 2084 
Q 3116 1969 3241 1856 
Q 3506 1613 3744 1247 
L 4541 0 
L 3778 0 
L 3172 953 
Q 2906 1366 2734 1584 
Q 2563 1803 2427 1890 
Q 2291 1978 2150 2013 
Q 2047 2034 1813 2034 
L 1109 2034 
L 1109 0 
L 503 0 
z
M 1109 2559 
L 2413 2559 
Q 2828 2559 3062 2645 
Q 3297 2731 3419 2920 
Q 3541 3109 3541 3331 
Q 3541 3656 3305 3865 
Q 3069 4075 2559 4075 
L 1109 4075 
L 1109 2559 
z
" transform="scale(0.015625)"/>
      <path id="ArialMT-76" d="M 1344 0 
L 81 3319 
L 675 3319 
L 1388 1331 
Q 1503 1009 1600 663 
Q 1675 925 1809 1294 
L 2547 3319 
L 3125 3319 
L 1869 0 
L 1344 0 
z
" transform="scale(0.015625)"/>
      <path id="ArialMT-47" d="M 2638 1797 
L 2638 2334 
L 4578 2338 
L 4578 638 
Q 4131 281 3656 101 
Q 3181 -78 2681 -78 
Q 2006 -78 1454 211 
Q 903 500 622 1047 
Q 341 1594 341 2269 
Q 341 2938 620 3517 
Q 900 4097 1425 4378 
Q 1950 4659 2634 4659 
Q 3131 4659 3532 4498 
Q 3934 4338 4162 4050 
Q 4391 3763 4509 3300 
L 3963 3150 
Q 3859 3500 3706 3700 
Q 3553 3900 3268 4020 
Q 2984 4141 2638 4141 
Q 2222 4141 1919 4014 
Q 1616 3888 1430 3681 
Q 1244 3475 1141 3228 
Q 966 2803 966 2306 
Q 966 1694 1177 1281 
Q 1388 869 1791 669 
Q 2194 469 2647 469 
Q 3041 469 3416 620 
Q 3791 772 3984 944 
L 3984 1797 
L 2638 1797 
z
" transform="scale(0.015625)"/>
     </defs>
     <use xlink:href="#ArialMT-4d"/>
     <use xlink:href="#ArialMT-6f" x="83.300781"/>
     <use xlink:href="#ArialMT-62" x="138.916016"/>
     <use xlink:href="#ArialMT-69" x="194.53125"/>
     <use xlink:href="#ArialMT-6c" x="216.748047"/>
     <use xlink:href="#ArialMT-65" x="238.964844"/>
     <use xlink:href="#ArialMT-4c" x="294.580078"/>
     <use xlink:href="#ArialMT-6f" x="350.195312"/>
     <use xlink:href="#ArialMT-6f" x="405.810547"/>
     <use xlink:href="#ArialMT-6b" x="461.425781"/>
     <use xlink:href="#ArialMT-4e" x="511.425781"/>
     <use xlink:href="#ArialMT-65" x="583.642578"/>
     <use xlink:href="#ArialMT-74" x="639.257812"/>
     <use xlink:href="#ArialMT-20" x="667.041016"/>
     <use xlink:href="#ArialMT-52" x="694.824219"/>
     <use xlink:href="#ArialMT-65" x="767.041016"/>
     <use xlink:href="#ArialMT-76" x="822.65625"/>
     <use xlink:href="#ArialMT-20" x="872.65625"/>
     <use xlink:href="#ArialMT-47" x="900.439453"/>
     <use xlink:href="#ArialMT-72" x="978.222656"/>
     <use xlink:href="#ArialMT-6f" x="1011.523438"/>
     <use xlink:href="#ArialMT-75" x="1067.138672"/>
     <use xlink:href="#ArialMT-70" x="1122.753906"/>
     <use xlink:href="#ArialMT-73" x="1178.369141"/>
    </g>
   </g>
   <g id="text_26">
    <!-- MobileLookNet Rev Reps -->
    <g style="fill: #262626" transform="translate(278.060896 272.483025) scale(0.1 -0.1)">
     <use xlink:href="#ArialMT-4d"/>
     <use xlink:href="#ArialMT-6f" x="83.300781"/>
     <use xlink:href="#ArialMT-62" x="138.916016"/>
     <use xlink:href="#ArialMT-69" x="194.53125"/>
     <use xlink:href="#ArialMT-6c" x="216.748047"/>
     <use xlink:href="#ArialMT-65" x="238.964844"/>
     <use xlink:href="#ArialMT-4c" x="294.580078"/>
     <use xlink:href="#ArialMT-6f" x="350.195312"/>
     <use xlink:href="#ArialMT-6f" x="405.810547"/>
     <use xlink:href="#ArialMT-6b" x="461.425781"/>
     <use xlink:href="#ArialMT-4e" x="511.425781"/>
     <use xlink:href="#ArialMT-65" x="583.642578"/>
     <use xlink:href="#ArialMT-74" x="639.257812"/>
     <use xlink:href="#ArialMT-20" x="667.041016"/>
     <use xlink:href="#ArialMT-52" x="694.824219"/>
     <use xlink:href="#ArialMT-65" x="767.041016"/>
     <use xlink:href="#ArialMT-76" x="822.65625"/>
     <use xlink:href="#ArialMT-20" x="872.65625"/>
     <use xlink:href="#ArialMT-52" x="900.439453"/>
     <use xlink:href="#ArialMT-65" x="972.65625"/>
     <use xlink:href="#ArialMT-70" x="1028.271484"/>
     <use xlink:href="#ArialMT-73" x="1083.886719"/>
    </g>
   </g>
   <g id="legend_1">
    <g id="patch_7">
     <path d="M 151 185.0225 
L 228.89375 185.0225 
Q 230.89375 185.0225 230.89375 183.0225 
L 230.89375 84.76 
Q 230.89375 82.76 228.89375 82.76 
L 151 82.76 
Q 149 82.76 149 84.76 
L 149 183.0225 
Q 149 185.0225 151 185.0225 
z
" style="fill: #eaeaf2; opacity: 0.8; stroke: #cccccc; stroke-linejoin: miter"/>
    </g>
    <g id="text_27">
     <!-- FLOPs (millions) -->
     <g style="fill: #262626" transform="translate(153 94.045938) scale(0.1 -0.1)">
      <defs>
       <path id="ArialMT-4f" d="M 309 2231 
Q 309 3372 921 4017 
Q 1534 4663 2503 4663 
Q 3138 4663 3647 4359 
Q 4156 4056 4423 3514 
Q 4691 2972 4691 2284 
Q 4691 1588 4409 1038 
Q 4128 488 3612 205 
Q 3097 -78 2500 -78 
Q 1853 -78 1343 234 
Q 834 547 571 1087 
Q 309 1628 309 2231 
z
M 934 2222 
Q 934 1394 1379 917 
Q 1825 441 2497 441 
Q 3181 441 3623 922 
Q 4066 1403 4066 2288 
Q 4066 2847 3877 3264 
Q 3688 3681 3323 3911 
Q 2959 4141 2506 4141 
Q 1863 4141 1398 3698 
Q 934 3256 934 2222 
z
" transform="scale(0.015625)"/>
      </defs>
      <use xlink:href="#ArialMT-46"/>
      <use xlink:href="#ArialMT-4c" x="61.083984"/>
      <use xlink:href="#ArialMT-4f" x="116.699219"/>
      <use xlink:href="#ArialMT-50" x="194.482422"/>
      <use xlink:href="#ArialMT-73" x="261.181641"/>
      <use xlink:href="#ArialMT-20" x="311.181641"/>
      <use xlink:href="#ArialMT-28" x="338.964844"/>
      <use xlink:href="#ArialMT-6d" x="372.265625"/>
      <use xlink:href="#ArialMT-69" x="455.566406"/>
      <use xlink:href="#ArialMT-6c" x="477.783203"/>
      <use xlink:href="#ArialMT-6c" x="500"/>
      <use xlink:href="#ArialMT-69" x="522.216797"/>
      <use xlink:href="#ArialMT-6f" x="544.433594"/>
      <use xlink:href="#ArialMT-6e" x="600.048828"/>
      <use xlink:href="#ArialMT-73" x="655.664062"/>
      <use xlink:href="#ArialMT-29" x="705.664062"/>
     </g>
    </g>
    <g id="line2d_21">
     <defs>
      <path id="m402eba320c" d="M 0 5.03965 
C 1.336531 5.03965 2.618501 4.508641 3.563571 3.563571 
C 4.508641 2.618501 5.03965 1.336531 5.03965 0 
C 5.03965 -1.336531 4.508641 -2.618501 3.563571 -3.563571 
C 2.618501 -4.508641 1.336531 -5.03965 0 -5.03965 
C -1.336531 -5.03965 -2.618501 -4.508641 -3.563571 -3.563571 
C -4.508641 -2.618501 -5.03965 -1.336531 -5.03965 0 
C -5.03965 1.336531 -4.508641 2.618501 -3.563571 3.563571 
C -2.618501 4.508641 -1.336531 5.03965 0 5.03965 
z
" style="stroke: #ffffff; stroke-width: 1.017754"/>
     </defs>
     <g>
      <use xlink:href="#m402eba320c" x="177.605469" y="104.808438" style="fill: #edaf80; stroke: #ffffff; stroke-width: 1.017754"/>
     </g>
    </g>
    <g id="text_28">
     <!-- 240 -->
     <g style="fill: #262626" transform="translate(195.605469 108.308438) scale(0.1 -0.1)">
      <defs>
       <path id="ArialMT-34" d="M 2069 0 
L 2069 1097 
L 81 1097 
L 81 1613 
L 2172 4581 
L 2631 4581 
L 2631 1613 
L 3250 1613 
L 3250 1097 
L 2631 1097 
L 2631 0 
L 2069 0 
z
M 2069 1613 
L 2069 3678 
L 634 1613 
L 2069 1613 
z
" transform="scale(0.015625)"/>
      </defs>
      <use xlink:href="#ArialMT-32"/>
      <use xlink:href="#ArialMT-34" x="55.615234"/>
      <use xlink:href="#ArialMT-30" x="111.230469"/>
     </g>
    </g>
    <g id="line2d_22">
     <defs>
      <path id="m6c82ae85e3" d="M 0 6.063968 
C 1.608183 6.063968 3.150716 5.42503 4.287873 4.287873 
C 5.42503 3.150716 6.063968 1.608183 6.063968 0 
C 6.063968 -1.608183 5.42503 -3.150716 4.287873 -4.287873 
C 3.150716 -5.42503 1.608183 -6.063968 0 -6.063968 
C -1.608183 -6.063968 -3.150716 -5.42503 -4.287873 -4.287873 
C -5.42503 -3.150716 -6.063968 -1.608183 -6.063968 0 
C -6.063968 1.608183 -5.42503 3.150716 -4.287873 4.287873 
C -3.150716 5.42503 -1.608183 6.063968 0 6.063968 
z
" style="stroke: #ffffff; stroke-width: 1.017754"/>
     </defs>
     <g>
      <use xlink:href="#m6c82ae85e3" x="177.605469" y="118.95375" style="fill: #e88165; stroke: #ffffff; stroke-width: 1.017754"/>
     </g>
    </g>
    <g id="text_29">
     <!-- 300 -->
     <g style="fill: #262626" transform="translate(195.605469 122.45375) scale(0.1 -0.1)">
      <use xlink:href="#ArialMT-33"/>
      <use xlink:href="#ArialMT-30" x="55.615234"/>
      <use xlink:href="#ArialMT-30" x="111.230469"/>
     </g>
    </g>
    <g id="line2d_23">
     <defs>
      <path id="md3e9aedc43" d="M 0 6.938684 
C 1.840161 6.938684 3.605201 6.207581 4.906391 4.906391 
C 6.207581 3.605201 6.938684 1.840161 6.938684 0 
C 6.938684 -1.840161 6.207581 -3.605201 4.906391 -4.906391 
C 3.605201 -6.207581 1.840161 -6.938684 0 -6.938684 
C -1.840161 -6.938684 -3.605201 -6.207581 -4.906391 -4.906391 
C -6.207581 -3.605201 -6.938684 -1.840161 -6.938684 0 
C -6.938684 1.840161 -6.207581 3.605201 -4.906391 4.906391 
C -3.605201 6.207581 -1.840161 6.938684 0 6.938684 
z
" style="stroke: #ffffff; stroke-width: 1.017754"/>
     </defs>
     <g>
      <use xlink:href="#md3e9aedc43" x="177.605469" y="133.099063" style="fill: #da555d; stroke: #ffffff; stroke-width: 1.017754"/>
     </g>
    </g>
    <g id="text_30">
     <!-- 360 -->
     <g style="fill: #262626" transform="translate(195.605469 136.599063) scale(0.1 -0.1)">
      <defs>
       <path id="ArialMT-36" d="M 3184 3459 
L 2625 3416 
Q 2550 3747 2413 3897 
Q 2184 4138 1850 4138 
Q 1581 4138 1378 3988 
Q 1113 3794 959 3422 
Q 806 3050 800 2363 
Q 1003 2672 1297 2822 
Q 1591 2972 1913 2972 
Q 2475 2972 2870 2558 
Q 3266 2144 3266 1488 
Q 3266 1056 3080 686 
Q 2894 316 2569 119 
Q 2244 -78 1831 -78 
Q 1128 -78 684 439 
Q 241 956 241 2144 
Q 241 3472 731 4075 
Q 1159 4600 1884 4600 
Q 2425 4600 2770 4297 
Q 3116 3994 3184 3459 
z
M 888 1484 
Q 888 1194 1011 928 
Q 1134 663 1356 523 
Q 1578 384 1822 384 
Q 2178 384 2434 671 
Q 2691 959 2691 1453 
Q 2691 1928 2437 2201 
Q 2184 2475 1800 2475 
Q 1419 2475 1153 2201 
Q 888 1928 888 1484 
z
" transform="scale(0.015625)"/>
      </defs>
      <use xlink:href="#ArialMT-33"/>
      <use xlink:href="#ArialMT-36" x="55.615234"/>
      <use xlink:href="#ArialMT-30" x="111.230469"/>
     </g>
    </g>
    <g id="line2d_24">
     <defs>
      <path id="mc672a39139" d="M 0 7.714854 
C 2.046003 7.714854 4.008483 6.901968 5.455226 5.455226 
C 6.901968 4.008483 7.714854 2.046003 7.714854 0 
C 7.714854 -2.046003 6.901968 -4.008483 5.455226 -5.455226 
C 4.008483 -6.901968 2.046003 -7.714854 0 -7.714854 
C -2.046003 -7.714854 -4.008483 -6.901968 -5.455226 -5.455226 
C -6.901968 -4.008483 -7.714854 -2.046003 -7.714854 0 
C -7.714854 2.046003 -6.901968 4.008483 -5.455226 5.455226 
C -4.008483 6.901968 -2.046003 7.714854 0 7.714854 
z
" style="stroke: #ffffff; stroke-width: 1.017754"/>
     </defs>
     <g>
      <use xlink:href="#mc672a39139" x="177.605469" y="147.244375" style="fill: #b53d6b; stroke: #ffffff; stroke-width: 1.017754"/>
     </g>
    </g>
    <g id="text_31">
     <!-- 420 -->
     <g style="fill: #262626" transform="translate(195.605469 150.744375) scale(0.1 -0.1)">
      <use xlink:href="#ArialMT-34"/>
      <use xlink:href="#ArialMT-32" x="55.615234"/>
      <use xlink:href="#ArialMT-30" x="111.230469"/>
     </g>
    </g>
    <g id="line2d_25">
     <defs>
      <path id="m374c98cb21" d="M 0 8.419774 
C 2.23295 8.419774 4.374745 7.532614 5.95368 5.95368 
C 7.532614 4.374745 8.419774 2.23295 8.419774 0 
C 8.419774 -2.23295 7.532614 -4.374745 5.95368 -5.95368 
C 4.374745 -7.532614 2.23295 -8.419774 0 -8.419774 
C -2.23295 -8.419774 -4.374745 -7.532614 -5.95368 -5.95368 
C -7.532614 -4.374745 -8.419774 -2.23295 -8.419774 0 
C -8.419774 2.23295 -7.532614 4.374745 -5.95368 5.95368 
C -4.374745 7.532614 -2.23295 8.419774 0 8.419774 
z
" style="stroke: #ffffff; stroke-width: 1.017754"/>
     </defs>
     <g>
      <use xlink:href="#m374c98cb21" x="177.605469" y="161.389688" style="fill: #8a3171; stroke: #ffffff; stroke-width: 1.017754"/>
     </g>
    </g>
    <g id="text_32">
     <!-- 480 -->
     <g style="fill: #262626" transform="translate(195.605469 164.889688) scale(0.1 -0.1)">
      <use xlink:href="#ArialMT-34"/>
      <use xlink:href="#ArialMT-38" x="55.615234"/>
      <use xlink:href="#ArialMT-30" x="111.230469"/>
     </g>
    </g>
    <g id="line2d_26">
     <defs>
      <path id="m6eb6d3449d" d="M 0 9.070074 
C 2.405412 9.070074 4.712628 8.114393 6.413511 6.413511 
C 8.114393 4.712628 9.070074 2.405412 9.070074 0 
C 9.070074 -2.405412 8.114393 -4.712628 6.413511 -6.413511 
C 4.712628 -8.114393 2.405412 -9.070074 0 -9.070074 
C -2.405412 -9.070074 -4.712628 -8.114393 -6.413511 -6.413511 
C -8.114393 -4.712628 -9.070074 -2.405412 -9.070074 0 
C -9.070074 2.405412 -8.114393 4.712628 -6.413511 6.413511 
C -4.712628 8.114393 -2.405412 9.070074 0 9.070074 
z
" style="stroke: #ffffff; stroke-width: 1.017754"/>
     </defs>
     <g>
      <use xlink:href="#m6eb6d3449d" x="177.605469" y="175.535" style="fill: #5e2868; stroke: #ffffff; stroke-width: 1.017754"/>
     </g>
    </g>
    <g id="text_33">
     <!-- 540 -->
     <g style="fill: #262626" transform="translate(195.605469 179.035) scale(0.1 -0.1)">
      <use xlink:href="#ArialMT-35"/>
      <use xlink:href="#ArialMT-34" x="55.615234"/>
      <use xlink:href="#ArialMT-30" x="111.230469"/>
     </g>
    </g>
   </g>
  </g>
 </g>
 <defs>
  <clipPath id="pc5f946f0a1">
   <rect x="144" y="77.76" width="892.8" height="498.96"/>
  </clipPath>
 </defs>
</svg>
