<?xml version="1.0" encoding="utf-8" standalone="no"?>
<!DOCTYPE svg PUBLIC "-//W3C//DTD SVG 1.1//EN"
  "http://www.w3.org/Graphics/SVG/1.1/DTD/svg11.dtd">
<svg xmlns:xlink="http://www.w3.org/1999/xlink" width="439.76027pt" height="325.1325pt" viewBox="0 0 439.76027 325.1325" xmlns="http://www.w3.org/2000/svg" version="1.1">
 <metadata>
  <rdf:RDF xmlns:dc="http://purl.org/dc/elements/1.1/" xmlns:cc="http://creativecommons.org/ns#" xmlns:rdf="http://www.w3.org/1999/02/22-rdf-syntax-ns#">
   <cc:Work>
    <dc:type rdf:resource="http://purl.org/dc/dcmitype/StillImage"/>
    <dc:date>2024-03-02T18:13:01.485257</dc:date>
    <dc:format>image/svg+xml</dc:format>
    <dc:creator>
     <cc:Agent>
      <dc:title>Matplotlib v3.6.2, https://matplotlib.org/</dc:title>
     </cc:Agent>
    </dc:creator>
   </cc:Work>
  </rdf:RDF>
 </metadata>
 <defs>
  <style type="text/css">*{stroke-linejoin: round; stroke-linecap: butt}</style>
 </defs>
 <g id="figure_1">
  <g id="patch_1">
   <path d="M 0 325.1325 
L 439.76027 325.1325 
L 439.76027 0 
L 0 0 
z
" style="fill: #ffffff"/>
  </g>
  <g id="axes_1">
   <g id="patch_2">
    <path d="M 39.723438 295.72 
L 100.743437 295.72 
L 100.743437 0 
L 39.723438 0 
z
" style="fill: #eaeaf2"/>
   </g>
   <g id="matplotlib.axis_1">
    <g id="xtick_1">
     <g id="line2d_1">
      <path d="M 42.497074 295.72 
L 42.497074 0 
" clip-path="url(#p2a76b3ba14)" style="fill: none; stroke: #ffffff; stroke-width: 0.8; stroke-linecap: round"/>
     </g>
     <g id="text_1">
      <!-- 1 -->
      <g style="fill: #262626" transform="translate(39.716605 309.877812) scale(0.1 -0.1)">
       <defs>
        <path id="ArialMT-31" d="M 2384 0 
L 1822 0 
L 1822 3584 
Q 1619 3391 1289 3197 
Q 959 3003 697 2906 
L 697 3450 
Q 1169 3672 1522 3987 
Q 1875 4303 2022 4600 
L 2384 4600 
L 2384 0 
z
" transform="scale(0.015625)"/>
       </defs>
       <use xlink:href="#ArialMT-31"/>
      </g>
     </g>
    </g>
    <g id="xtick_2">
     <g id="line2d_2">
      <path d="M 70.233437 295.72 
L 70.233437 0 
" clip-path="url(#p2a76b3ba14)" style="fill: none; stroke: #ffffff; stroke-width: 0.8; stroke-linecap: round"/>
     </g>
     <g id="text_2">
      <!-- 2 -->
      <g style="fill: #262626" transform="translate(67.452969 309.877812) scale(0.1 -0.1)">
       <defs>
        <path id="ArialMT-32" d="M 3222 541 
L 3222 0 
L 194 0 
Q 188 203 259 391 
Q 375 700 629 1000 
Q 884 1300 1366 1694 
Q 2113 2306 2375 2664 
Q 2638 3022 2638 3341 
Q 2638 3675 2398 3904 
Q 2159 4134 1775 4134 
Q 1369 4134 1125 3890 
Q 881 3647 878 3216 
L 300 3275 
Q 359 3922 746 4261 
Q 1134 4600 1788 4600 
Q 2447 4600 2831 4234 
Q 3216 3869 3216 3328 
Q 3216 3053 3103 2787 
Q 2991 2522 2730 2228 
Q 2469 1934 1863 1422 
Q 1356 997 1212 845 
Q 1069 694 975 541 
L 3222 541 
z
" transform="scale(0.015625)"/>
       </defs>
       <use xlink:href="#ArialMT-32"/>
      </g>
     </g>
    </g>
    <g id="xtick_3">
     <g id="line2d_3">
      <path d="M 97.969801 295.72 
L 97.969801 0 
" clip-path="url(#p2a76b3ba14)" style="fill: none; stroke: #ffffff; stroke-width: 0.8; stroke-linecap: round"/>
     </g>
     <g id="text_3">
      <!-- 3 -->
      <g style="fill: #262626" transform="translate(95.189332 309.877812) scale(0.1 -0.1)">
       <defs>
        <path id="ArialMT-33" d="M 269 1209 
L 831 1284 
Q 928 806 1161 595 
Q 1394 384 1728 384 
Q 2125 384 2398 659 
Q 2672 934 2672 1341 
Q 2672 1728 2419 1979 
Q 2166 2231 1775 2231 
Q 1616 2231 1378 2169 
L 1441 2663 
Q 1497 2656 1531 2656 
Q 1891 2656 2178 2843 
Q 2466 3031 2466 3422 
Q 2466 3731 2256 3934 
Q 2047 4138 1716 4138 
Q 1388 4138 1169 3931 
Q 950 3725 888 3313 
L 325 3413 
Q 428 3978 793 4289 
Q 1159 4600 1703 4600 
Q 2078 4600 2393 4439 
Q 2709 4278 2876 4000 
Q 3044 3722 3044 3409 
Q 3044 3113 2884 2869 
Q 2725 2625 2413 2481 
Q 2819 2388 3044 2092 
Q 3269 1797 3269 1353 
Q 3269 753 2831 336 
Q 2394 -81 1725 -81 
Q 1122 -81 723 278 
Q 325 638 269 1209 
z
" transform="scale(0.015625)"/>
       </defs>
       <use xlink:href="#ArialMT-33"/>
      </g>
     </g>
    </g>
    <g id="text_4">
     <!-- Reps/Blk -->
     <g style="fill: #262626" transform="translate(50.226406 323.145) scale(0.1 -0.1)">
      <defs>
       <path id="ArialMT-52" d="M 503 0 
L 503 4581 
L 2534 4581 
Q 3147 4581 3465 4457 
Q 3784 4334 3975 4021 
Q 4166 3709 4166 3331 
Q 4166 2844 3850 2509 
Q 3534 2175 2875 2084 
Q 3116 1969 3241 1856 
Q 3506 1613 3744 1247 
L 4541 0 
L 3778 0 
L 3172 953 
Q 2906 1366 2734 1584 
Q 2563 1803 2427 1890 
Q 2291 1978 2150 2013 
Q 2047 2034 1813 2034 
L 1109 2034 
L 1109 0 
L 503 0 
z
M 1109 2559 
L 2413 2559 
Q 2828 2559 3062 2645 
Q 3297 2731 3419 2920 
Q 3541 3109 3541 3331 
Q 3541 3656 3305 3865 
Q 3069 4075 2559 4075 
L 1109 4075 
L 1109 2559 
z
" transform="scale(0.015625)"/>
       <path id="ArialMT-65" d="M 2694 1069 
L 3275 997 
Q 3138 488 2766 206 
Q 2394 -75 1816 -75 
Q 1088 -75 661 373 
Q 234 822 234 1631 
Q 234 2469 665 2931 
Q 1097 3394 1784 3394 
Q 2450 3394 2872 2941 
Q 3294 2488 3294 1666 
Q 3294 1616 3291 1516 
L 816 1516 
Q 847 969 1125 678 
Q 1403 388 1819 388 
Q 2128 388 2347 550 
Q 2566 713 2694 1069 
z
M 847 1978 
L 2700 1978 
Q 2663 2397 2488 2606 
Q 2219 2931 1791 2931 
Q 1403 2931 1139 2672 
Q 875 2413 847 1978 
z
" transform="scale(0.015625)"/>
       <path id="ArialMT-70" d="M 422 -1272 
L 422 3319 
L 934 3319 
L 934 2888 
Q 1116 3141 1344 3267 
Q 1572 3394 1897 3394 
Q 2322 3394 2647 3175 
Q 2972 2956 3137 2557 
Q 3303 2159 3303 1684 
Q 3303 1175 3120 767 
Q 2938 359 2589 142 
Q 2241 -75 1856 -75 
Q 1575 -75 1351 44 
Q 1128 163 984 344 
L 984 -1272 
L 422 -1272 
z
M 931 1641 
Q 931 1000 1190 694 
Q 1450 388 1819 388 
Q 2194 388 2461 705 
Q 2728 1022 2728 1688 
Q 2728 2322 2467 2637 
Q 2206 2953 1844 2953 
Q 1484 2953 1207 2617 
Q 931 2281 931 1641 
z
" transform="scale(0.015625)"/>
       <path id="ArialMT-73" d="M 197 991 
L 753 1078 
Q 800 744 1014 566 
Q 1228 388 1613 388 
Q 2000 388 2187 545 
Q 2375 703 2375 916 
Q 2375 1106 2209 1216 
Q 2094 1291 1634 1406 
Q 1016 1563 777 1677 
Q 538 1791 414 1992 
Q 291 2194 291 2438 
Q 291 2659 392 2848 
Q 494 3038 669 3163 
Q 800 3259 1026 3326 
Q 1253 3394 1513 3394 
Q 1903 3394 2198 3281 
Q 2494 3169 2634 2976 
Q 2775 2784 2828 2463 
L 2278 2388 
Q 2241 2644 2061 2787 
Q 1881 2931 1553 2931 
Q 1166 2931 1000 2803 
Q 834 2675 834 2503 
Q 834 2394 903 2306 
Q 972 2216 1119 2156 
Q 1203 2125 1616 2013 
Q 2213 1853 2448 1751 
Q 2684 1650 2818 1456 
Q 2953 1263 2953 975 
Q 2953 694 2789 445 
Q 2625 197 2315 61 
Q 2006 -75 1616 -75 
Q 969 -75 630 194 
Q 291 463 197 991 
z
" transform="scale(0.015625)"/>
       <path id="ArialMT-2f" d="M 0 -78 
L 1328 4659 
L 1778 4659 
L 453 -78 
L 0 -78 
z
" transform="scale(0.015625)"/>
       <path id="ArialMT-42" d="M 469 0 
L 469 4581 
L 2188 4581 
Q 2713 4581 3030 4442 
Q 3347 4303 3526 4014 
Q 3706 3725 3706 3409 
Q 3706 3116 3547 2856 
Q 3388 2597 3066 2438 
Q 3481 2316 3704 2022 
Q 3928 1728 3928 1328 
Q 3928 1006 3792 729 
Q 3656 453 3456 303 
Q 3256 153 2954 76 
Q 2653 0 2216 0 
L 469 0 
z
M 1075 2656 
L 2066 2656 
Q 2469 2656 2644 2709 
Q 2875 2778 2992 2937 
Q 3109 3097 3109 3338 
Q 3109 3566 3000 3739 
Q 2891 3913 2687 3977 
Q 2484 4041 1991 4041 
L 1075 4041 
L 1075 2656 
z
M 1075 541 
L 2216 541 
Q 2509 541 2628 563 
Q 2838 600 2978 687 
Q 3119 775 3209 942 
Q 3300 1109 3300 1328 
Q 3300 1584 3169 1773 
Q 3038 1963 2805 2039 
Q 2572 2116 2134 2116 
L 1075 2116 
L 1075 541 
z
" transform="scale(0.015625)"/>
       <path id="ArialMT-6c" d="M 409 0 
L 409 4581 
L 972 4581 
L 972 0 
L 409 0 
z
" transform="scale(0.015625)"/>
       <path id="ArialMT-6b" d="M 425 0 
L 425 4581 
L 988 4581 
L 988 1969 
L 2319 3319 
L 3047 3319 
L 1778 2088 
L 3175 0 
L 2481 0 
L 1384 1697 
L 988 1316 
L 988 0 
L 425 0 
z
" transform="scale(0.015625)"/>
      </defs>
      <use xlink:href="#ArialMT-52"/>
      <use xlink:href="#ArialMT-65" x="72.216797"/>
      <use xlink:href="#ArialMT-70" x="127.832031"/>
      <use xlink:href="#ArialMT-73" x="183.447266"/>
      <use xlink:href="#ArialMT-2f" x="233.447266"/>
      <use xlink:href="#ArialMT-42" x="261.230469"/>
      <use xlink:href="#ArialMT-6c" x="327.929688"/>
      <use xlink:href="#ArialMT-6b" x="350.146484"/>
     </g>
    </g>
   </g>
   <g id="matplotlib.axis_2">
    <g id="ytick_1">
     <g id="line2d_4">
      <path d="M 39.723438 266.84747 
L 100.743437 266.84747 
" clip-path="url(#p2a76b3ba14)" style="fill: none; stroke: #ffffff; stroke-width: 0.8; stroke-linecap: round"/>
     </g>
     <g id="text_5">
      <!-- 0.60 -->
      <g style="fill: #262626" transform="translate(13.2625 270.426376) scale(0.1 -0.1)">
       <defs>
        <path id="ArialMT-30" d="M 266 2259 
Q 266 3072 433 3567 
Q 600 4063 929 4331 
Q 1259 4600 1759 4600 
Q 2128 4600 2406 4451 
Q 2684 4303 2865 4023 
Q 3047 3744 3150 3342 
Q 3253 2941 3253 2259 
Q 3253 1453 3087 958 
Q 2922 463 2592 192 
Q 2263 -78 1759 -78 
Q 1097 -78 719 397 
Q 266 969 266 2259 
z
M 844 2259 
Q 844 1131 1108 757 
Q 1372 384 1759 384 
Q 2147 384 2411 759 
Q 2675 1134 2675 2259 
Q 2675 3391 2411 3762 
Q 2147 4134 1753 4134 
Q 1366 4134 1134 3806 
Q 844 3388 844 2259 
z
" transform="scale(0.015625)"/>
        <path id="ArialMT-2e" d="M 581 0 
L 581 641 
L 1222 641 
L 1222 0 
L 581 0 
z
" transform="scale(0.015625)"/>
        <path id="ArialMT-36" d="M 3184 3459 
L 2625 3416 
Q 2550 3747 2413 3897 
Q 2184 4138 1850 4138 
Q 1581 4138 1378 3988 
Q 1113 3794 959 3422 
Q 806 3050 800 2363 
Q 1003 2672 1297 2822 
Q 1591 2972 1913 2972 
Q 2475 2972 2870 2558 
Q 3266 2144 3266 1488 
Q 3266 1056 3080 686 
Q 2894 316 2569 119 
Q 2244 -78 1831 -78 
Q 1128 -78 684 439 
Q 241 956 241 2144 
Q 241 3472 731 4075 
Q 1159 4600 1884 4600 
Q 2425 4600 2770 4297 
Q 3116 3994 3184 3459 
z
M 888 1484 
Q 888 1194 1011 928 
Q 1134 663 1356 523 
Q 1578 384 1822 384 
Q 2178 384 2434 671 
Q 2691 959 2691 1453 
Q 2691 1928 2437 2201 
Q 2184 2475 1800 2475 
Q 1419 2475 1153 2201 
Q 888 1928 888 1484 
z
" transform="scale(0.015625)"/>
       </defs>
       <use xlink:href="#ArialMT-30"/>
       <use xlink:href="#ArialMT-2e" x="55.615234"/>
       <use xlink:href="#ArialMT-36" x="83.398438"/>
       <use xlink:href="#ArialMT-30" x="139.013672"/>
      </g>
     </g>
    </g>
    <g id="ytick_2">
     <g id="line2d_5">
      <path d="M 39.723438 225.142843 
L 100.743437 225.142843 
" clip-path="url(#p2a76b3ba14)" style="fill: none; stroke: #ffffff; stroke-width: 0.8; stroke-linecap: round"/>
     </g>
     <g id="text_6">
      <!-- 0.65 -->
      <g style="fill: #262626" transform="translate(13.2625 228.72175) scale(0.1 -0.1)">
       <defs>
        <path id="ArialMT-35" d="M 266 1200 
L 856 1250 
Q 922 819 1161 601 
Q 1400 384 1738 384 
Q 2144 384 2425 690 
Q 2706 997 2706 1503 
Q 2706 1984 2436 2262 
Q 2166 2541 1728 2541 
Q 1456 2541 1237 2417 
Q 1019 2294 894 2097 
L 366 2166 
L 809 4519 
L 3088 4519 
L 3088 3981 
L 1259 3981 
L 1013 2750 
Q 1425 3038 1878 3038 
Q 2478 3038 2890 2622 
Q 3303 2206 3303 1553 
Q 3303 931 2941 478 
Q 2500 -78 1738 -78 
Q 1113 -78 717 272 
Q 322 622 266 1200 
z
" transform="scale(0.015625)"/>
       </defs>
       <use xlink:href="#ArialMT-30"/>
       <use xlink:href="#ArialMT-2e" x="55.615234"/>
       <use xlink:href="#ArialMT-36" x="83.398438"/>
       <use xlink:href="#ArialMT-35" x="139.013672"/>
      </g>
     </g>
    </g>
    <g id="ytick_3">
     <g id="line2d_6">
      <path d="M 39.723438 183.438217 
L 100.743437 183.438217 
" clip-path="url(#p2a76b3ba14)" style="fill: none; stroke: #ffffff; stroke-width: 0.8; stroke-linecap: round"/>
     </g>
     <g id="text_7">
      <!-- 0.70 -->
      <g style="fill: #262626" transform="translate(13.2625 187.017123) scale(0.1 -0.1)">
       <defs>
        <path id="ArialMT-37" d="M 303 3981 
L 303 4522 
L 3269 4522 
L 3269 4084 
Q 2831 3619 2401 2847 
Q 1972 2075 1738 1259 
Q 1569 684 1522 0 
L 944 0 
Q 953 541 1156 1306 
Q 1359 2072 1739 2783 
Q 2119 3494 2547 3981 
L 303 3981 
z
" transform="scale(0.015625)"/>
       </defs>
       <use xlink:href="#ArialMT-30"/>
       <use xlink:href="#ArialMT-2e" x="55.615234"/>
       <use xlink:href="#ArialMT-37" x="83.398438"/>
       <use xlink:href="#ArialMT-30" x="139.013672"/>
      </g>
     </g>
    </g>
    <g id="ytick_4">
     <g id="line2d_7">
      <path d="M 39.723438 141.73359 
L 100.743437 141.73359 
" clip-path="url(#p2a76b3ba14)" style="fill: none; stroke: #ffffff; stroke-width: 0.8; stroke-linecap: round"/>
     </g>
     <g id="text_8">
      <!-- 0.75 -->
      <g style="fill: #262626" transform="translate(13.2625 145.312497) scale(0.1 -0.1)">
       <use xlink:href="#ArialMT-30"/>
       <use xlink:href="#ArialMT-2e" x="55.615234"/>
       <use xlink:href="#ArialMT-37" x="83.398438"/>
       <use xlink:href="#ArialMT-35" x="139.013672"/>
      </g>
     </g>
    </g>
    <g id="ytick_5">
     <g id="line2d_8">
      <path d="M 39.723438 100.028964 
L 100.743437 100.028964 
" clip-path="url(#p2a76b3ba14)" style="fill: none; stroke: #ffffff; stroke-width: 0.8; stroke-linecap: round"/>
     </g>
     <g id="text_9">
      <!-- 0.80 -->
      <g style="fill: #262626" transform="translate(13.2625 103.60787) scale(0.1 -0.1)">
       <defs>
        <path id="ArialMT-38" d="M 1131 2484 
Q 781 2613 612 2850 
Q 444 3088 444 3419 
Q 444 3919 803 4259 
Q 1163 4600 1759 4600 
Q 2359 4600 2725 4251 
Q 3091 3903 3091 3403 
Q 3091 3084 2923 2848 
Q 2756 2613 2416 2484 
Q 2838 2347 3058 2040 
Q 3278 1734 3278 1309 
Q 3278 722 2862 322 
Q 2447 -78 1769 -78 
Q 1091 -78 675 323 
Q 259 725 259 1325 
Q 259 1772 486 2073 
Q 713 2375 1131 2484 
z
M 1019 3438 
Q 1019 3113 1228 2906 
Q 1438 2700 1772 2700 
Q 2097 2700 2305 2904 
Q 2513 3109 2513 3406 
Q 2513 3716 2298 3927 
Q 2084 4138 1766 4138 
Q 1444 4138 1231 3931 
Q 1019 3725 1019 3438 
z
M 838 1322 
Q 838 1081 952 856 
Q 1066 631 1291 507 
Q 1516 384 1775 384 
Q 2178 384 2440 643 
Q 2703 903 2703 1303 
Q 2703 1709 2433 1975 
Q 2163 2241 1756 2241 
Q 1359 2241 1098 1978 
Q 838 1716 838 1322 
z
" transform="scale(0.015625)"/>
       </defs>
       <use xlink:href="#ArialMT-30"/>
       <use xlink:href="#ArialMT-2e" x="55.615234"/>
       <use xlink:href="#ArialMT-38" x="83.398438"/>
       <use xlink:href="#ArialMT-30" x="139.013672"/>
      </g>
     </g>
    </g>
    <g id="ytick_6">
     <g id="line2d_9">
      <path d="M 39.723438 58.324337 
L 100.743437 58.324337 
" clip-path="url(#p2a76b3ba14)" style="fill: none; stroke: #ffffff; stroke-width: 0.8; stroke-linecap: round"/>
     </g>
     <g id="text_10">
      <!-- 0.85 -->
      <g style="fill: #262626" transform="translate(13.2625 61.903244) scale(0.1 -0.1)">
       <use xlink:href="#ArialMT-30"/>
       <use xlink:href="#ArialMT-2e" x="55.615234"/>
       <use xlink:href="#ArialMT-38" x="83.398438"/>
       <use xlink:href="#ArialMT-35" x="139.013672"/>
      </g>
     </g>
    </g>
    <g id="ytick_7">
     <g id="line2d_10">
      <path d="M 39.723438 16.619711 
L 100.743437 16.619711 
" clip-path="url(#p2a76b3ba14)" style="fill: none; stroke: #ffffff; stroke-width: 0.8; stroke-linecap: round"/>
     </g>
     <g id="text_11">
      <!-- 0.90 -->
      <g style="fill: #262626" transform="translate(13.2625 20.198617) scale(0.1 -0.1)">
       <defs>
        <path id="ArialMT-39" d="M 350 1059 
L 891 1109 
Q 959 728 1153 556 
Q 1347 384 1650 384 
Q 1909 384 2104 503 
Q 2300 622 2425 820 
Q 2550 1019 2634 1356 
Q 2719 1694 2719 2044 
Q 2719 2081 2716 2156 
Q 2547 1888 2255 1720 
Q 1963 1553 1622 1553 
Q 1053 1553 659 1965 
Q 266 2378 266 3053 
Q 266 3750 677 4175 
Q 1088 4600 1706 4600 
Q 2153 4600 2523 4359 
Q 2894 4119 3086 3673 
Q 3278 3228 3278 2384 
Q 3278 1506 3087 986 
Q 2897 466 2520 194 
Q 2144 -78 1638 -78 
Q 1100 -78 759 220 
Q 419 519 350 1059 
z
M 2653 3081 
Q 2653 3566 2395 3850 
Q 2138 4134 1775 4134 
Q 1400 4134 1122 3828 
Q 844 3522 844 3034 
Q 844 2597 1108 2323 
Q 1372 2050 1759 2050 
Q 2150 2050 2401 2323 
Q 2653 2597 2653 3081 
z
" transform="scale(0.015625)"/>
       </defs>
       <use xlink:href="#ArialMT-30"/>
       <use xlink:href="#ArialMT-2e" x="55.615234"/>
       <use xlink:href="#ArialMT-39" x="83.398438"/>
       <use xlink:href="#ArialMT-30" x="139.013672"/>
      </g>
     </g>
    </g>
    <g id="text_12">
     <!-- Accuracy -->
     <g style="fill: #262626" transform="translate(7.157813 168.420937) rotate(-90) scale(0.1 -0.1)">
      <defs>
       <path id="ArialMT-41" d="M -9 0 
L 1750 4581 
L 2403 4581 
L 4278 0 
L 3588 0 
L 3053 1388 
L 1138 1388 
L 634 0 
L -9 0 
z
M 1313 1881 
L 2866 1881 
L 2388 3150 
Q 2169 3728 2063 4100 
Q 1975 3659 1816 3225 
L 1313 1881 
z
" transform="scale(0.015625)"/>
       <path id="ArialMT-63" d="M 2588 1216 
L 3141 1144 
Q 3050 572 2676 248 
Q 2303 -75 1759 -75 
Q 1078 -75 664 370 
Q 250 816 250 1647 
Q 250 2184 428 2587 
Q 606 2991 970 3192 
Q 1334 3394 1763 3394 
Q 2303 3394 2647 3120 
Q 2991 2847 3088 2344 
L 2541 2259 
Q 2463 2594 2264 2762 
Q 2066 2931 1784 2931 
Q 1359 2931 1093 2626 
Q 828 2322 828 1663 
Q 828 994 1084 691 
Q 1341 388 1753 388 
Q 2084 388 2306 591 
Q 2528 794 2588 1216 
z
" transform="scale(0.015625)"/>
       <path id="ArialMT-75" d="M 2597 0 
L 2597 488 
Q 2209 -75 1544 -75 
Q 1250 -75 995 37 
Q 741 150 617 320 
Q 494 491 444 738 
Q 409 903 409 1263 
L 409 3319 
L 972 3319 
L 972 1478 
Q 972 1038 1006 884 
Q 1059 663 1231 536 
Q 1403 409 1656 409 
Q 1909 409 2131 539 
Q 2353 669 2445 892 
Q 2538 1116 2538 1541 
L 2538 3319 
L 3100 3319 
L 3100 0 
L 2597 0 
z
" transform="scale(0.015625)"/>
       <path id="ArialMT-72" d="M 416 0 
L 416 3319 
L 922 3319 
L 922 2816 
Q 1116 3169 1280 3281 
Q 1444 3394 1641 3394 
Q 1925 3394 2219 3213 
L 2025 2691 
Q 1819 2813 1613 2813 
Q 1428 2813 1281 2702 
Q 1134 2591 1072 2394 
Q 978 2094 978 1738 
L 978 0 
L 416 0 
z
" transform="scale(0.015625)"/>
       <path id="ArialMT-61" d="M 2588 409 
Q 2275 144 1986 34 
Q 1697 -75 1366 -75 
Q 819 -75 525 192 
Q 231 459 231 875 
Q 231 1119 342 1320 
Q 453 1522 633 1644 
Q 813 1766 1038 1828 
Q 1203 1872 1538 1913 
Q 2219 1994 2541 2106 
Q 2544 2222 2544 2253 
Q 2544 2597 2384 2738 
Q 2169 2928 1744 2928 
Q 1347 2928 1158 2789 
Q 969 2650 878 2297 
L 328 2372 
Q 403 2725 575 2942 
Q 747 3159 1072 3276 
Q 1397 3394 1825 3394 
Q 2250 3394 2515 3294 
Q 2781 3194 2906 3042 
Q 3031 2891 3081 2659 
Q 3109 2516 3109 2141 
L 3109 1391 
Q 3109 606 3145 398 
Q 3181 191 3288 0 
L 2700 0 
Q 2613 175 2588 409 
z
M 2541 1666 
Q 2234 1541 1622 1453 
Q 1275 1403 1131 1340 
Q 988 1278 909 1158 
Q 831 1038 831 891 
Q 831 666 1001 516 
Q 1172 366 1500 366 
Q 1825 366 2078 508 
Q 2331 650 2450 897 
Q 2541 1088 2541 1459 
L 2541 1666 
z
" transform="scale(0.015625)"/>
       <path id="ArialMT-79" d="M 397 -1278 
L 334 -750 
Q 519 -800 656 -800 
Q 844 -800 956 -737 
Q 1069 -675 1141 -563 
Q 1194 -478 1313 -144 
Q 1328 -97 1363 -6 
L 103 3319 
L 709 3319 
L 1400 1397 
Q 1534 1031 1641 628 
Q 1738 1016 1872 1384 
L 2581 3319 
L 3144 3319 
L 1881 -56 
Q 1678 -603 1566 -809 
Q 1416 -1088 1222 -1217 
Q 1028 -1347 759 -1347 
Q 597 -1347 397 -1278 
z
" transform="scale(0.015625)"/>
      </defs>
      <use xlink:href="#ArialMT-41"/>
      <use xlink:href="#ArialMT-63" x="66.699219"/>
      <use xlink:href="#ArialMT-63" x="116.699219"/>
      <use xlink:href="#ArialMT-75" x="166.699219"/>
      <use xlink:href="#ArialMT-72" x="222.314453"/>
      <use xlink:href="#ArialMT-61" x="255.615234"/>
      <use xlink:href="#ArialMT-63" x="311.230469"/>
      <use xlink:href="#ArialMT-79" x="361.230469"/>
     </g>
    </g>
   </g>
   <g id="PathCollection_1">
    <defs>
     <path id="md45941542b" d="M 0 3 
C 0.795609 3 1.55874 2.683901 2.12132 2.12132 
C 2.683901 1.55874 3 0.795609 3 0 
C 3 -0.795609 2.683901 -1.55874 2.12132 -2.12132 
C 1.55874 -2.683901 0.795609 -3 0 -3 
C -0.795609 -3 -1.55874 -2.683901 -2.12132 -2.12132 
C -2.683901 -1.55874 -3 -0.795609 -3 0 
C -3 0.795609 -2.683901 1.55874 -2.12132 2.12132 
C -1.55874 2.683901 -0.795609 3 0 3 
z
" style="stroke: #1f77b4; stroke-opacity: 0.8"/>
    </defs>
    <g clip-path="url(#p2a76b3ba14)">
     <use xlink:href="#md45941542b" x="42.497074" y="194.198011" style="fill: #1f77b4; fill-opacity: 0.8; stroke: #1f77b4; stroke-opacity: 0.8"/>
     <use xlink:href="#md45941542b" x="70.233437" y="161.576652" style="fill: #1f77b4; fill-opacity: 0.8; stroke: #1f77b4; stroke-opacity: 0.8"/>
     <use xlink:href="#md45941542b" x="97.969801" y="29.798373" style="fill: #1f77b4; fill-opacity: 0.8; stroke: #1f77b4; stroke-opacity: 0.8"/>
    </g>
   </g>
   <g id="line2d_11">
    <path d="M 42.497074 194.198011 
L 43.057404 194.520344 
L 43.617735 194.80221 
L 44.178066 195.043607 
L 44.738396 195.244537 
L 45.298727 195.404998 
L 45.859057 195.524991 
L 46.419388 195.604516 
L 46.979718 195.643574 
L 47.540049 195.642162 
L 48.10038 195.600283 
L 48.66071 195.517936 
L 49.221041 195.395121 
L 49.781371 195.231838 
L 50.341702 195.028086 
L 50.902033 194.783867 
L 51.462363 194.499179 
L 52.022694 194.174023 
L 52.583024 193.8084 
L 53.143355 193.402308 
L 53.703685 192.955748 
L 54.264016 192.46872 
L 54.824347 191.941224 
L 55.384677 191.37326 
L 55.945008 190.764827 
L 56.505338 190.115927 
L 57.065669 189.426559 
L 57.625999 188.696722 
L 58.18633 187.926418 
L 58.746661 187.115645 
L 59.306991 186.264404 
L 59.867322 185.372695 
L 60.427652 184.440519 
L 60.987983 183.467874 
L 61.548314 182.45476 
L 62.108644 181.401179 
L 62.668975 180.30713 
L 63.229305 179.172613 
L 63.789636 177.997627 
L 64.349966 176.782174 
L 64.910297 175.526252 
L 65.470628 174.229863 
L 66.030958 172.893005 
L 66.591289 171.515679 
L 67.151619 170.097885 
L 67.71195 168.639623 
L 68.27228 167.140893 
L 68.832611 165.601695 
L 69.392942 164.022029 
L 69.953272 162.401894 
L 70.513603 160.741292 
L 71.073933 159.040221 
L 71.634264 157.298683 
L 72.194595 155.516676 
L 72.754925 153.694202 
L 73.315256 151.831259 
L 73.875586 149.927848 
L 74.435917 147.983969 
L 74.996247 145.999622 
L 75.556578 143.974807 
L 76.116909 141.909523 
L 76.677239 139.803772 
L 77.23757 137.657553 
L 77.7979 135.470865 
L 78.358231 133.24371 
L 78.918561 130.976086 
L 79.478892 128.667994 
L 80.039223 126.319434 
L 80.599553 123.930407 
L 81.159884 121.500911 
L 81.720214 119.030947 
L 82.280545 116.520514 
L 82.840876 113.969614 
L 83.401206 111.378246 
L 83.961537 108.746409 
L 84.521867 106.074105 
L 85.082198 103.361332 
L 85.642528 100.608092 
L 86.202859 97.814383 
L 86.76319 94.980206 
L 87.32352 92.105561 
L 87.883851 89.190448 
L 88.444181 86.234867 
L 89.004512 83.238818 
L 89.564842 80.202301 
L 90.125173 77.125316 
L 90.685504 74.007862 
L 91.245834 70.849941 
L 91.806165 67.651551 
L 92.366495 64.412694 
L 92.926826 61.133368 
L 93.487157 57.813574 
L 94.047487 54.453312 
L 94.607818 51.052582 
L 95.168148 47.611384 
L 95.728479 44.129718 
L 96.288809 40.607584 
L 96.84914 37.044982 
L 97.409471 33.441911 
L 97.969801 29.798373 
" clip-path="url(#p2a76b3ba14)" style="fill: none; stroke: #1f77b4; stroke-width: 2.25; stroke-linecap: round"/>
   </g>
   <g id="patch_3">
    <path d="M 39.723438 295.72 
L 39.723438 0 
" style="fill: none; stroke: #ffffff; stroke-width: 0.8; stroke-linejoin: miter; stroke-linecap: square"/>
   </g>
   <g id="patch_4">
    <path d="M 100.743437 295.72 
L 100.743437 0 
" style="fill: none; stroke: #ffffff; stroke-width: 0.8; stroke-linejoin: miter; stroke-linecap: square"/>
   </g>
   <g id="patch_5">
    <path d="M 39.723438 295.72 
L 100.743437 295.72 
" style="fill: none; stroke: #ffffff; stroke-width: 0.8; stroke-linejoin: miter; stroke-linecap: square"/>
   </g>
   <g id="patch_6">
    <path d="M 39.723438 0 
L 100.743437 0 
" style="fill: none; stroke: #ffffff; stroke-width: 0.8; stroke-linejoin: miter; stroke-linecap: square"/>
   </g>
  </g>
  <g id="axes_2">
   <g id="patch_7">
    <path d="M 124.475938 295.72 
L 185.495937 295.72 
L 185.495937 0 
L 124.475938 0 
z
" style="fill: #eaeaf2"/>
   </g>
   <g id="matplotlib.axis_3">
    <g id="xtick_4">
     <g id="line2d_12">
      <path d="M 127.249574 295.72 
L 127.249574 0 
" clip-path="url(#p65b0b8a989)" style="fill: none; stroke: #ffffff; stroke-width: 0.8; stroke-linecap: round"/>
     </g>
     <g id="text_13">
      <!-- 1 -->
      <g style="fill: #262626" transform="translate(124.469105 309.877812) scale(0.1 -0.1)">
       <use xlink:href="#ArialMT-31"/>
      </g>
     </g>
    </g>
    <g id="xtick_5">
     <g id="line2d_13">
      <path d="M 154.985937 295.72 
L 154.985937 0 
" clip-path="url(#p65b0b8a989)" style="fill: none; stroke: #ffffff; stroke-width: 0.8; stroke-linecap: round"/>
     </g>
     <g id="text_14">
      <!-- 2 -->
      <g style="fill: #262626" transform="translate(152.205469 309.877812) scale(0.1 -0.1)">
       <use xlink:href="#ArialMT-32"/>
      </g>
     </g>
    </g>
    <g id="xtick_6">
     <g id="line2d_14">
      <path d="M 182.722301 295.72 
L 182.722301 0 
" clip-path="url(#p65b0b8a989)" style="fill: none; stroke: #ffffff; stroke-width: 0.8; stroke-linecap: round"/>
     </g>
     <g id="text_15">
      <!-- 3 -->
      <g style="fill: #262626" transform="translate(179.941832 309.877812) scale(0.1 -0.1)">
       <use xlink:href="#ArialMT-33"/>
      </g>
     </g>
    </g>
    <g id="text_16">
     <!-- Reps/Blk -->
     <g style="fill: #262626" transform="translate(134.978906 323.145) scale(0.1 -0.1)">
      <use xlink:href="#ArialMT-52"/>
      <use xlink:href="#ArialMT-65" x="72.216797"/>
      <use xlink:href="#ArialMT-70" x="127.832031"/>
      <use xlink:href="#ArialMT-73" x="183.447266"/>
      <use xlink:href="#ArialMT-2f" x="233.447266"/>
      <use xlink:href="#ArialMT-42" x="261.230469"/>
      <use xlink:href="#ArialMT-6c" x="327.929688"/>
      <use xlink:href="#ArialMT-6b" x="350.146484"/>
     </g>
    </g>
   </g>
   <g id="matplotlib.axis_4">
    <g id="ytick_8">
     <g id="line2d_15">
      <path d="M 124.475938 266.84747 
L 185.495937 266.84747 
" clip-path="url(#p65b0b8a989)" style="fill: none; stroke: #ffffff; stroke-width: 0.8; stroke-linecap: round"/>
     </g>
    </g>
    <g id="ytick_9">
     <g id="line2d_16">
      <path d="M 124.475938 225.142843 
L 185.495937 225.142843 
" clip-path="url(#p65b0b8a989)" style="fill: none; stroke: #ffffff; stroke-width: 0.8; stroke-linecap: round"/>
     </g>
    </g>
    <g id="ytick_10">
     <g id="line2d_17">
      <path d="M 124.475938 183.438217 
L 185.495937 183.438217 
" clip-path="url(#p65b0b8a989)" style="fill: none; stroke: #ffffff; stroke-width: 0.8; stroke-linecap: round"/>
     </g>
    </g>
    <g id="ytick_11">
     <g id="line2d_18">
      <path d="M 124.475938 141.73359 
L 185.495937 141.73359 
" clip-path="url(#p65b0b8a989)" style="fill: none; stroke: #ffffff; stroke-width: 0.8; stroke-linecap: round"/>
     </g>
    </g>
    <g id="ytick_12">
     <g id="line2d_19">
      <path d="M 124.475938 100.028964 
L 185.495937 100.028964 
" clip-path="url(#p65b0b8a989)" style="fill: none; stroke: #ffffff; stroke-width: 0.8; stroke-linecap: round"/>
     </g>
    </g>
    <g id="ytick_13">
     <g id="line2d_20">
      <path d="M 124.475938 58.324337 
L 185.495937 58.324337 
" clip-path="url(#p65b0b8a989)" style="fill: none; stroke: #ffffff; stroke-width: 0.8; stroke-linecap: round"/>
     </g>
    </g>
    <g id="ytick_14">
     <g id="line2d_21">
      <path d="M 124.475938 16.619711 
L 185.495937 16.619711 
" clip-path="url(#p65b0b8a989)" style="fill: none; stroke: #ffffff; stroke-width: 0.8; stroke-linecap: round"/>
     </g>
    </g>
    <g id="text_17">
     <!-- Precision -->
     <g style="fill: #262626" transform="translate(118.488438 168.423281) rotate(-90) scale(0.1 -0.1)">
      <defs>
       <path id="ArialMT-50" d="M 494 0 
L 494 4581 
L 2222 4581 
Q 2678 4581 2919 4538 
Q 3256 4481 3484 4323 
Q 3713 4166 3852 3881 
Q 3991 3597 3991 3256 
Q 3991 2672 3619 2267 
Q 3247 1863 2275 1863 
L 1100 1863 
L 1100 0 
L 494 0 
z
M 1100 2403 
L 2284 2403 
Q 2872 2403 3119 2622 
Q 3366 2841 3366 3238 
Q 3366 3525 3220 3729 
Q 3075 3934 2838 4000 
Q 2684 4041 2272 4041 
L 1100 4041 
L 1100 2403 
z
" transform="scale(0.015625)"/>
       <path id="ArialMT-69" d="M 425 3934 
L 425 4581 
L 988 4581 
L 988 3934 
L 425 3934 
z
M 425 0 
L 425 3319 
L 988 3319 
L 988 0 
L 425 0 
z
" transform="scale(0.015625)"/>
       <path id="ArialMT-6f" d="M 213 1659 
Q 213 2581 725 3025 
Q 1153 3394 1769 3394 
Q 2453 3394 2887 2945 
Q 3322 2497 3322 1706 
Q 3322 1066 3130 698 
Q 2938 331 2570 128 
Q 2203 -75 1769 -75 
Q 1072 -75 642 372 
Q 213 819 213 1659 
z
M 791 1659 
Q 791 1022 1069 705 
Q 1347 388 1769 388 
Q 2188 388 2466 706 
Q 2744 1025 2744 1678 
Q 2744 2294 2464 2611 
Q 2184 2928 1769 2928 
Q 1347 2928 1069 2612 
Q 791 2297 791 1659 
z
" transform="scale(0.015625)"/>
       <path id="ArialMT-6e" d="M 422 0 
L 422 3319 
L 928 3319 
L 928 2847 
Q 1294 3394 1984 3394 
Q 2284 3394 2536 3286 
Q 2788 3178 2913 3003 
Q 3038 2828 3088 2588 
Q 3119 2431 3119 2041 
L 3119 0 
L 2556 0 
L 2556 2019 
Q 2556 2363 2490 2533 
Q 2425 2703 2258 2804 
Q 2091 2906 1866 2906 
Q 1506 2906 1245 2678 
Q 984 2450 984 1813 
L 984 0 
L 422 0 
z
" transform="scale(0.015625)"/>
      </defs>
      <use xlink:href="#ArialMT-50"/>
      <use xlink:href="#ArialMT-72" x="66.699219"/>
      <use xlink:href="#ArialMT-65" x="100"/>
      <use xlink:href="#ArialMT-63" x="155.615234"/>
      <use xlink:href="#ArialMT-69" x="205.615234"/>
      <use xlink:href="#ArialMT-73" x="227.832031"/>
      <use xlink:href="#ArialMT-69" x="277.832031"/>
      <use xlink:href="#ArialMT-6f" x="300.048828"/>
      <use xlink:href="#ArialMT-6e" x="355.664062"/>
     </g>
    </g>
   </g>
   <g id="PathCollection_2">
    <g clip-path="url(#p65b0b8a989)">
     <use xlink:href="#md45941542b" x="127.249574" y="197.542722" style="fill: #1f77b4; fill-opacity: 0.8; stroke: #1f77b4; stroke-opacity: 0.8"/>
     <use xlink:href="#md45941542b" x="154.985937" y="168.291097" style="fill: #1f77b4; fill-opacity: 0.8; stroke: #1f77b4; stroke-opacity: 0.8"/>
     <use xlink:href="#md45941542b" x="182.722301" y="61.368775" style="fill: #1f77b4; fill-opacity: 0.8; stroke: #1f77b4; stroke-opacity: 0.8"/>
    </g>
   </g>
   <g id="line2d_22">
    <path d="M 127.249574 197.542722 
L 127.809904 197.720483 
L 128.370235 197.866545 
L 128.930566 197.980907 
L 129.490896 198.063571 
L 130.051227 198.114536 
L 130.611557 198.133801 
L 131.171888 198.121368 
L 131.732218 198.077235 
L 132.292549 198.001404 
L 132.85288 197.893873 
L 133.41321 197.754643 
L 133.973541 197.583714 
L 134.533871 197.381086 
L 135.094202 197.146759 
L 135.654533 196.880732 
L 136.214863 196.583007 
L 136.775194 196.253583 
L 137.335524 195.892459 
L 137.895855 195.499637 
L 138.456185 195.075115 
L 139.016516 194.618894 
L 139.576847 194.130974 
L 140.137177 193.611355 
L 140.697508 193.060037 
L 141.257838 192.47702 
L 141.818169 191.862304 
L 142.378499 191.215888 
L 142.93883 190.537774 
L 143.499161 189.827961 
L 144.059491 189.086448 
L 144.619822 188.313236 
L 145.180152 187.508325 
L 145.740483 186.671716 
L 146.300814 185.803407 
L 146.861144 184.903399 
L 147.421475 183.971691 
L 147.981805 183.008285 
L 148.542136 182.01318 
L 149.102466 180.986375 
L 149.662797 179.927872 
L 150.223128 178.837669 
L 150.783458 177.715768 
L 151.343789 176.562167 
L 151.904119 175.376867 
L 152.46445 174.159868 
L 153.02478 172.91117 
L 153.585111 171.630773 
L 154.145442 170.318677 
L 154.705772 168.974881 
L 155.266103 167.599387 
L 155.826433 166.192193 
L 156.386764 164.753301 
L 156.947095 163.282709 
L 157.507425 161.780418 
L 158.067756 160.246429 
L 158.628086 158.68074 
L 159.188417 157.083352 
L 159.748747 155.454264 
L 160.309078 153.793478 
L 160.869409 152.100993 
L 161.429739 150.376808 
L 161.99007 148.620925 
L 162.5504 146.833342 
L 163.110731 145.014061 
L 163.671061 143.16308 
L 164.231392 141.2804 
L 164.791723 139.366021 
L 165.352053 137.419943 
L 165.912384 135.442166 
L 166.472714 133.43269 
L 167.033045 131.391514 
L 167.593376 129.31864 
L 168.153706 127.214067 
L 168.714037 125.077794 
L 169.274367 122.909822 
L 169.834698 120.710152 
L 170.395028 118.478782 
L 170.955359 116.215713 
L 171.51569 113.920945 
L 172.07602 111.594478 
L 172.636351 109.236311 
L 173.196681 106.846446 
L 173.757012 104.424882 
L 174.317342 101.971618 
L 174.877673 99.486656 
L 175.438004 96.969994 
L 175.998334 94.421633 
L 176.558665 91.841573 
L 177.118995 89.229814 
L 177.679326 86.586356 
L 178.239657 83.911199 
L 178.799987 81.204343 
L 179.360318 78.465788 
L 179.920648 75.695533 
L 180.480979 72.89358 
L 181.041309 70.059927 
L 181.60164 67.194576 
L 182.161971 64.297525 
L 182.722301 61.368775 
" clip-path="url(#p65b0b8a989)" style="fill: none; stroke: #1f77b4; stroke-width: 2.25; stroke-linecap: round"/>
   </g>
   <g id="patch_8">
    <path d="M 124.475938 295.72 
L 124.475938 0 
" style="fill: none; stroke: #ffffff; stroke-width: 0.8; stroke-linejoin: miter; stroke-linecap: square"/>
   </g>
   <g id="patch_9">
    <path d="M 185.495937 295.72 
L 185.495937 0 
" style="fill: none; stroke: #ffffff; stroke-width: 0.8; stroke-linejoin: miter; stroke-linecap: square"/>
   </g>
   <g id="patch_10">
    <path d="M 124.475938 295.72 
L 185.495937 295.72 
" style="fill: none; stroke: #ffffff; stroke-width: 0.8; stroke-linejoin: miter; stroke-linecap: square"/>
   </g>
   <g id="patch_11">
    <path d="M 124.475938 0 
L 185.495937 0 
" style="fill: none; stroke: #ffffff; stroke-width: 0.8; stroke-linejoin: miter; stroke-linecap: square"/>
   </g>
  </g>
  <g id="axes_3">
   <g id="patch_12">
    <path d="M 209.228437 295.72 
L 270.248438 295.72 
L 270.248438 0 
L 209.228437 0 
z
" style="fill: #eaeaf2"/>
   </g>
   <g id="matplotlib.axis_5">
    <g id="xtick_7">
     <g id="line2d_23">
      <path d="M 212.002074 295.72 
L 212.002074 0 
" clip-path="url(#p73e143ffcc)" style="fill: none; stroke: #ffffff; stroke-width: 0.8; stroke-linecap: round"/>
     </g>
     <g id="text_18">
      <!-- 1 -->
      <g style="fill: #262626" transform="translate(209.221605 309.877812) scale(0.1 -0.1)">
       <use xlink:href="#ArialMT-31"/>
      </g>
     </g>
    </g>
    <g id="xtick_8">
     <g id="line2d_24">
      <path d="M 239.738438 295.72 
L 239.738438 0 
" clip-path="url(#p73e143ffcc)" style="fill: none; stroke: #ffffff; stroke-width: 0.8; stroke-linecap: round"/>
     </g>
     <g id="text_19">
      <!-- 2 -->
      <g style="fill: #262626" transform="translate(236.957969 309.877812) scale(0.1 -0.1)">
       <use xlink:href="#ArialMT-32"/>
      </g>
     </g>
    </g>
    <g id="xtick_9">
     <g id="line2d_25">
      <path d="M 267.474801 295.72 
L 267.474801 0 
" clip-path="url(#p73e143ffcc)" style="fill: none; stroke: #ffffff; stroke-width: 0.8; stroke-linecap: round"/>
     </g>
     <g id="text_20">
      <!-- 3 -->
      <g style="fill: #262626" transform="translate(264.694332 309.877812) scale(0.1 -0.1)">
       <use xlink:href="#ArialMT-33"/>
      </g>
     </g>
    </g>
    <g id="text_21">
     <!-- Reps/Blk -->
     <g style="fill: #262626" transform="translate(219.731406 323.145) scale(0.1 -0.1)">
      <use xlink:href="#ArialMT-52"/>
      <use xlink:href="#ArialMT-65" x="72.216797"/>
      <use xlink:href="#ArialMT-70" x="127.832031"/>
      <use xlink:href="#ArialMT-73" x="183.447266"/>
      <use xlink:href="#ArialMT-2f" x="233.447266"/>
      <use xlink:href="#ArialMT-42" x="261.230469"/>
      <use xlink:href="#ArialMT-6c" x="327.929688"/>
      <use xlink:href="#ArialMT-6b" x="350.146484"/>
     </g>
    </g>
   </g>
   <g id="matplotlib.axis_6">
    <g id="ytick_15">
     <g id="line2d_26">
      <path d="M 209.228437 266.84747 
L 270.248438 266.84747 
" clip-path="url(#p73e143ffcc)" style="fill: none; stroke: #ffffff; stroke-width: 0.8; stroke-linecap: round"/>
     </g>
    </g>
    <g id="ytick_16">
     <g id="line2d_27">
      <path d="M 209.228437 225.142843 
L 270.248438 225.142843 
" clip-path="url(#p73e143ffcc)" style="fill: none; stroke: #ffffff; stroke-width: 0.8; stroke-linecap: round"/>
     </g>
    </g>
    <g id="ytick_17">
     <g id="line2d_28">
      <path d="M 209.228437 183.438217 
L 270.248438 183.438217 
" clip-path="url(#p73e143ffcc)" style="fill: none; stroke: #ffffff; stroke-width: 0.8; stroke-linecap: round"/>
     </g>
    </g>
    <g id="ytick_18">
     <g id="line2d_29">
      <path d="M 209.228437 141.73359 
L 270.248438 141.73359 
" clip-path="url(#p73e143ffcc)" style="fill: none; stroke: #ffffff; stroke-width: 0.8; stroke-linecap: round"/>
     </g>
    </g>
    <g id="ytick_19">
     <g id="line2d_30">
      <path d="M 209.228437 100.028964 
L 270.248438 100.028964 
" clip-path="url(#p73e143ffcc)" style="fill: none; stroke: #ffffff; stroke-width: 0.8; stroke-linecap: round"/>
     </g>
    </g>
    <g id="ytick_20">
     <g id="line2d_31">
      <path d="M 209.228437 58.324337 
L 270.248438 58.324337 
" clip-path="url(#p73e143ffcc)" style="fill: none; stroke: #ffffff; stroke-width: 0.8; stroke-linecap: round"/>
     </g>
    </g>
    <g id="ytick_21">
     <g id="line2d_32">
      <path d="M 209.228437 16.619711 
L 270.248438 16.619711 
" clip-path="url(#p73e143ffcc)" style="fill: none; stroke: #ffffff; stroke-width: 0.8; stroke-linecap: round"/>
     </g>
    </g>
    <g id="text_22">
     <!-- Sensitivity -->
     <g style="fill: #262626" transform="translate(203.12375 170.367031) rotate(-90) scale(0.1 -0.1)">
      <defs>
       <path id="ArialMT-53" d="M 288 1472 
L 859 1522 
Q 900 1178 1048 958 
Q 1197 738 1509 602 
Q 1822 466 2213 466 
Q 2559 466 2825 569 
Q 3091 672 3220 851 
Q 3350 1031 3350 1244 
Q 3350 1459 3225 1620 
Q 3100 1781 2813 1891 
Q 2628 1963 1997 2114 
Q 1366 2266 1113 2400 
Q 784 2572 623 2826 
Q 463 3081 463 3397 
Q 463 3744 659 4045 
Q 856 4347 1234 4503 
Q 1613 4659 2075 4659 
Q 2584 4659 2973 4495 
Q 3363 4331 3572 4012 
Q 3781 3694 3797 3291 
L 3216 3247 
Q 3169 3681 2898 3903 
Q 2628 4125 2100 4125 
Q 1550 4125 1298 3923 
Q 1047 3722 1047 3438 
Q 1047 3191 1225 3031 
Q 1400 2872 2139 2705 
Q 2878 2538 3153 2413 
Q 3553 2228 3743 1945 
Q 3934 1663 3934 1294 
Q 3934 928 3725 604 
Q 3516 281 3123 101 
Q 2731 -78 2241 -78 
Q 1619 -78 1198 103 
Q 778 284 539 648 
Q 300 1013 288 1472 
z
" transform="scale(0.015625)"/>
       <path id="ArialMT-74" d="M 1650 503 
L 1731 6 
Q 1494 -44 1306 -44 
Q 1000 -44 831 53 
Q 663 150 594 308 
Q 525 466 525 972 
L 525 2881 
L 113 2881 
L 113 3319 
L 525 3319 
L 525 4141 
L 1084 4478 
L 1084 3319 
L 1650 3319 
L 1650 2881 
L 1084 2881 
L 1084 941 
Q 1084 700 1114 631 
Q 1144 563 1211 522 
Q 1278 481 1403 481 
Q 1497 481 1650 503 
z
" transform="scale(0.015625)"/>
       <path id="ArialMT-76" d="M 1344 0 
L 81 3319 
L 675 3319 
L 1388 1331 
Q 1503 1009 1600 663 
Q 1675 925 1809 1294 
L 2547 3319 
L 3125 3319 
L 1869 0 
L 1344 0 
z
" transform="scale(0.015625)"/>
      </defs>
      <use xlink:href="#ArialMT-53"/>
      <use xlink:href="#ArialMT-65" x="66.699219"/>
      <use xlink:href="#ArialMT-6e" x="122.314453"/>
      <use xlink:href="#ArialMT-73" x="177.929688"/>
      <use xlink:href="#ArialMT-69" x="227.929688"/>
      <use xlink:href="#ArialMT-74" x="250.146484"/>
      <use xlink:href="#ArialMT-69" x="277.929688"/>
      <use xlink:href="#ArialMT-76" x="300.146484"/>
      <use xlink:href="#ArialMT-69" x="350.146484"/>
      <use xlink:href="#ArialMT-74" x="372.363281"/>
      <use xlink:href="#ArialMT-79" x="400.146484"/>
     </g>
    </g>
   </g>
   <g id="PathCollection_3">
    <g clip-path="url(#p73e143ffcc)">
     <use xlink:href="#md45941542b" x="212.002074" y="219.787969" style="fill: #1f77b4; fill-opacity: 0.8; stroke: #1f77b4; stroke-opacity: 0.8"/>
     <use xlink:href="#md45941542b" x="239.738438" y="82.012565" style="fill: #1f77b4; fill-opacity: 0.8; stroke: #1f77b4; stroke-opacity: 0.8"/>
     <use xlink:href="#md45941542b" x="267.474801" y="58.482815" style="fill: #1f77b4; fill-opacity: 0.8; stroke: #1f77b4; stroke-opacity: 0.8"/>
    </g>
   </g>
   <g id="line2d_33">
    <path d="M 212.002074 219.787969 
L 212.562404 215.873944 
L 213.122735 212.006546 
L 213.683066 208.185773 
L 214.243396 204.411626 
L 214.803727 200.684106 
L 215.364057 197.003212 
L 215.924388 193.368943 
L 216.484718 189.781301 
L 217.045049 186.240285 
L 217.60538 182.745895 
L 218.16571 179.298132 
L 218.726041 175.896994 
L 219.286371 172.542483 
L 219.846702 169.234597 
L 220.407033 165.973338 
L 220.967363 162.758705 
L 221.527694 159.590698 
L 222.088024 156.469317 
L 222.648355 153.394562 
L 223.208685 150.366434 
L 223.769016 147.384931 
L 224.329347 144.450055 
L 224.889677 141.561804 
L 225.450008 138.72018 
L 226.010338 135.925182 
L 226.570669 133.17681 
L 227.130999 130.475065 
L 227.69133 127.819945 
L 228.251661 125.211451 
L 228.811991 122.649584 
L 229.372322 120.134343 
L 229.932652 117.665727 
L 230.492983 115.243738 
L 231.053314 112.868375 
L 231.613644 110.539639 
L 232.173975 108.257528 
L 232.734305 106.022043 
L 233.294636 103.833185 
L 233.854966 101.690953 
L 234.415297 99.595346 
L 234.975628 97.546366 
L 235.535958 95.544012 
L 236.096289 93.588284 
L 236.656619 91.679183 
L 237.21695 89.816707 
L 237.77728 88.000858 
L 238.337611 86.231634 
L 238.897942 84.509037 
L 239.458272 82.833066 
L 240.018603 81.203721 
L 240.578933 79.621002 
L 241.139264 78.084909 
L 241.699595 76.595443 
L 242.259925 75.152602 
L 242.820256 73.756388 
L 243.380586 72.406799 
L 243.940917 71.103837 
L 244.501247 69.847501 
L 245.061578 68.637791 
L 245.621909 67.474708 
L 246.182239 66.35825 
L 246.74257 65.288418 
L 247.3029 64.265213 
L 247.863231 63.288634 
L 248.423561 62.358681 
L 248.983892 61.475353 
L 249.544223 60.638653 
L 250.104553 59.848578 
L 250.664884 59.105129 
L 251.225214 58.408306 
L 251.785545 57.75811 
L 252.345876 57.15454 
L 252.906206 56.597596 
L 253.466537 56.087277 
L 254.026867 55.623585 
L 254.587198 55.20652 
L 255.147528 54.83608 
L 255.707859 54.512266 
L 256.26819 54.235079 
L 256.82852 54.004518 
L 257.388851 53.820582 
L 257.949181 53.683273 
L 258.509512 53.59259 
L 259.069842 53.548533 
L 259.630173 53.551103 
L 260.190504 53.600298 
L 260.750834 53.696119 
L 261.311165 53.838567 
L 261.871495 54.027641 
L 262.431826 54.263341 
L 262.992157 54.545667 
L 263.552487 54.874619 
L 264.112818 55.250197 
L 264.673148 55.672401 
L 265.233479 56.141232 
L 265.793809 56.656688 
L 266.35414 57.218771 
L 266.914471 57.82748 
L 267.474801 58.482815 
" clip-path="url(#p73e143ffcc)" style="fill: none; stroke: #1f77b4; stroke-width: 2.25; stroke-linecap: round"/>
   </g>
   <g id="patch_13">
    <path d="M 209.228437 295.72 
L 209.228437 0 
" style="fill: none; stroke: #ffffff; stroke-width: 0.8; stroke-linejoin: miter; stroke-linecap: square"/>
   </g>
   <g id="patch_14">
    <path d="M 270.248438 295.72 
L 270.248438 0 
" style="fill: none; stroke: #ffffff; stroke-width: 0.8; stroke-linejoin: miter; stroke-linecap: square"/>
   </g>
   <g id="patch_15">
    <path d="M 209.228437 295.72 
L 270.248438 295.72 
" style="fill: none; stroke: #ffffff; stroke-width: 0.8; stroke-linejoin: miter; stroke-linecap: square"/>
   </g>
   <g id="patch_16">
    <path d="M 209.228437 0 
L 270.248438 0 
" style="fill: none; stroke: #ffffff; stroke-width: 0.8; stroke-linejoin: miter; stroke-linecap: square"/>
   </g>
  </g>
  <g id="axes_4">
   <g id="patch_17">
    <path d="M 293.980938 295.72 
L 355.000938 295.72 
L 355.000938 0 
L 293.980938 0 
z
" style="fill: #eaeaf2"/>
   </g>
   <g id="matplotlib.axis_7">
    <g id="xtick_10">
     <g id="line2d_34">
      <path d="M 296.754574 295.72 
L 296.754574 0 
" clip-path="url(#p1f6aee550e)" style="fill: none; stroke: #ffffff; stroke-width: 0.8; stroke-linecap: round"/>
     </g>
     <g id="text_23">
      <!-- 1 -->
      <g style="fill: #262626" transform="translate(293.974105 309.877812) scale(0.1 -0.1)">
       <use xlink:href="#ArialMT-31"/>
      </g>
     </g>
    </g>
    <g id="xtick_11">
     <g id="line2d_35">
      <path d="M 324.490938 295.72 
L 324.490938 0 
" clip-path="url(#p1f6aee550e)" style="fill: none; stroke: #ffffff; stroke-width: 0.8; stroke-linecap: round"/>
     </g>
     <g id="text_24">
      <!-- 2 -->
      <g style="fill: #262626" transform="translate(321.710469 309.877812) scale(0.1 -0.1)">
       <use xlink:href="#ArialMT-32"/>
      </g>
     </g>
    </g>
    <g id="xtick_12">
     <g id="line2d_36">
      <path d="M 352.227301 295.72 
L 352.227301 0 
" clip-path="url(#p1f6aee550e)" style="fill: none; stroke: #ffffff; stroke-width: 0.8; stroke-linecap: round"/>
     </g>
     <g id="text_25">
      <!-- 3 -->
      <g style="fill: #262626" transform="translate(349.446832 309.877812) scale(0.1 -0.1)">
       <use xlink:href="#ArialMT-33"/>
      </g>
     </g>
    </g>
    <g id="text_26">
     <!-- Reps/Blk -->
     <g style="fill: #262626" transform="translate(304.483906 323.145) scale(0.1 -0.1)">
      <use xlink:href="#ArialMT-52"/>
      <use xlink:href="#ArialMT-65" x="72.216797"/>
      <use xlink:href="#ArialMT-70" x="127.832031"/>
      <use xlink:href="#ArialMT-73" x="183.447266"/>
      <use xlink:href="#ArialMT-2f" x="233.447266"/>
      <use xlink:href="#ArialMT-42" x="261.230469"/>
      <use xlink:href="#ArialMT-6c" x="327.929688"/>
      <use xlink:href="#ArialMT-6b" x="350.146484"/>
     </g>
    </g>
   </g>
   <g id="matplotlib.axis_8">
    <g id="ytick_22">
     <g id="line2d_37">
      <path d="M 293.980938 266.84747 
L 355.000938 266.84747 
" clip-path="url(#p1f6aee550e)" style="fill: none; stroke: #ffffff; stroke-width: 0.8; stroke-linecap: round"/>
     </g>
    </g>
    <g id="ytick_23">
     <g id="line2d_38">
      <path d="M 293.980938 225.142843 
L 355.000938 225.142843 
" clip-path="url(#p1f6aee550e)" style="fill: none; stroke: #ffffff; stroke-width: 0.8; stroke-linecap: round"/>
     </g>
    </g>
    <g id="ytick_24">
     <g id="line2d_39">
      <path d="M 293.980938 183.438217 
L 355.000938 183.438217 
" clip-path="url(#p1f6aee550e)" style="fill: none; stroke: #ffffff; stroke-width: 0.8; stroke-linecap: round"/>
     </g>
    </g>
    <g id="ytick_25">
     <g id="line2d_40">
      <path d="M 293.980938 141.73359 
L 355.000938 141.73359 
" clip-path="url(#p1f6aee550e)" style="fill: none; stroke: #ffffff; stroke-width: 0.8; stroke-linecap: round"/>
     </g>
    </g>
    <g id="ytick_26">
     <g id="line2d_41">
      <path d="M 293.980938 100.028964 
L 355.000938 100.028964 
" clip-path="url(#p1f6aee550e)" style="fill: none; stroke: #ffffff; stroke-width: 0.8; stroke-linecap: round"/>
     </g>
    </g>
    <g id="ytick_27">
     <g id="line2d_42">
      <path d="M 293.980938 58.324337 
L 355.000938 58.324337 
" clip-path="url(#p1f6aee550e)" style="fill: none; stroke: #ffffff; stroke-width: 0.8; stroke-linecap: round"/>
     </g>
    </g>
    <g id="ytick_28">
     <g id="line2d_43">
      <path d="M 293.980938 16.619711 
L 355.000938 16.619711 
" clip-path="url(#p1f6aee550e)" style="fill: none; stroke: #ffffff; stroke-width: 0.8; stroke-linecap: round"/>
     </g>
    </g>
    <g id="text_27">
     <!-- Specificity -->
     <g style="fill: #262626" transform="translate(287.87625 170.367031) rotate(-90) scale(0.1 -0.1)">
      <defs>
       <path id="ArialMT-66" d="M 556 0 
L 556 2881 
L 59 2881 
L 59 3319 
L 556 3319 
L 556 3672 
Q 556 4006 616 4169 
Q 697 4388 901 4523 
Q 1106 4659 1475 4659 
Q 1713 4659 2000 4603 
L 1916 4113 
Q 1741 4144 1584 4144 
Q 1328 4144 1222 4034 
Q 1116 3925 1116 3625 
L 1116 3319 
L 1763 3319 
L 1763 2881 
L 1116 2881 
L 1116 0 
L 556 0 
z
" transform="scale(0.015625)"/>
      </defs>
      <use xlink:href="#ArialMT-53"/>
      <use xlink:href="#ArialMT-70" x="66.699219"/>
      <use xlink:href="#ArialMT-65" x="122.314453"/>
      <use xlink:href="#ArialMT-63" x="177.929688"/>
      <use xlink:href="#ArialMT-69" x="227.929688"/>
      <use xlink:href="#ArialMT-66" x="250.146484"/>
      <use xlink:href="#ArialMT-69" x="277.929688"/>
      <use xlink:href="#ArialMT-63" x="300.146484"/>
      <use xlink:href="#ArialMT-69" x="350.146484"/>
      <use xlink:href="#ArialMT-74" x="372.363281"/>
      <use xlink:href="#ArialMT-79" x="400.146484"/>
     </g>
    </g>
   </g>
   <g id="PathCollection_4">
    <g clip-path="url(#p1f6aee550e)">
     <use xlink:href="#md45941542b" x="296.754574" y="179.242731" style="fill: #1f77b4; fill-opacity: 0.8; stroke: #1f77b4; stroke-opacity: 0.8"/>
     <use xlink:href="#md45941542b" x="324.490938" y="205.808579" style="fill: #1f77b4; fill-opacity: 0.8; stroke: #1f77b4; stroke-opacity: 0.8"/>
     <use xlink:href="#md45941542b" x="352.227301" y="13.441818" style="fill: #1f77b4; fill-opacity: 0.8; stroke: #1f77b4; stroke-opacity: 0.8"/>
    </g>
   </g>
   <g id="line2d_44">
    <path d="M 296.754574 179.242731 
L 297.314904 181.94618 
L 297.875235 184.560278 
L 298.435566 187.085024 
L 298.995896 189.520419 
L 299.556227 191.866464 
L 300.116557 194.123157 
L 300.676888 196.290499 
L 301.237218 198.368489 
L 301.797549 200.357129 
L 302.35788 202.256418 
L 302.91821 204.066355 
L 303.478541 205.786941 
L 304.038871 207.418176 
L 304.599202 208.96006 
L 305.159533 210.412593 
L 305.719863 211.775775 
L 306.280194 213.049606 
L 306.840524 214.234085 
L 307.400855 215.329213 
L 307.961185 216.334991 
L 308.521516 217.251417 
L 309.081847 218.078492 
L 309.642177 218.816215 
L 310.202508 219.464588 
L 310.762838 220.02361 
L 311.323169 220.49328 
L 311.883499 220.873599 
L 312.44383 221.164568 
L 313.004161 221.366185 
L 313.564491 221.478451 
L 314.124822 221.501365 
L 314.685152 221.434929 
L 315.245483 221.279141 
L 315.805814 221.034003 
L 316.366144 220.699513 
L 316.926475 220.275672 
L 317.486805 219.76248 
L 318.047136 219.159937 
L 318.607466 218.468043 
L 319.167797 217.686797 
L 319.728128 216.816201 
L 320.288458 215.856253 
L 320.848789 214.806955 
L 321.409119 213.668305 
L 321.96945 212.440304 
L 322.52978 211.122951 
L 323.090111 209.716248 
L 323.650442 208.220194 
L 324.210772 206.634788 
L 324.771103 204.960031 
L 325.331433 203.195924 
L 325.891764 201.342465 
L 326.452095 199.399654 
L 327.012425 197.367493 
L 327.572756 195.245981 
L 328.133086 193.035117 
L 328.693417 190.734903 
L 329.253747 188.345337 
L 329.814078 185.86642 
L 330.374409 183.298152 
L 330.934739 180.640533 
L 331.49507 177.893563 
L 332.0554 175.057241 
L 332.615731 172.131569 
L 333.176061 169.116545 
L 333.736392 166.01217 
L 334.296723 162.818444 
L 334.857053 159.535367 
L 335.417384 156.162939 
L 335.977714 152.70116 
L 336.538045 149.150029 
L 337.098376 145.509548 
L 337.658706 141.779715 
L 338.219037 137.960531 
L 338.779367 134.051996 
L 339.339698 130.05411 
L 339.900028 125.966873 
L 340.460359 121.790285 
L 341.02069 117.524345 
L 341.58102 113.169055 
L 342.141351 108.724413 
L 342.701681 104.19042 
L 343.262012 99.567076 
L 343.822342 94.854381 
L 344.382673 90.052335 
L 344.943004 85.160937 
L 345.503334 80.180189 
L 346.063665 75.110089 
L 346.623995 69.950638 
L 347.184326 64.701836 
L 347.744657 59.363683 
L 348.304987 53.936179 
L 348.865318 48.419324 
L 349.425648 42.813117 
L 349.985979 37.11756 
L 350.546309 31.332651 
L 351.10664 25.458391 
L 351.666971 19.49478 
L 352.227301 13.441818 
" clip-path="url(#p1f6aee550e)" style="fill: none; stroke: #1f77b4; stroke-width: 2.25; stroke-linecap: round"/>
   </g>
   <g id="patch_18">
    <path d="M 293.980938 295.72 
L 293.980938 0 
" style="fill: none; stroke: #ffffff; stroke-width: 0.8; stroke-linejoin: miter; stroke-linecap: square"/>
   </g>
   <g id="patch_19">
    <path d="M 355.000938 295.72 
L 355.000938 0 
" style="fill: none; stroke: #ffffff; stroke-width: 0.8; stroke-linejoin: miter; stroke-linecap: square"/>
   </g>
   <g id="patch_20">
    <path d="M 293.980938 295.72 
L 355.000938 295.72 
" style="fill: none; stroke: #ffffff; stroke-width: 0.8; stroke-linejoin: miter; stroke-linecap: square"/>
   </g>
   <g id="patch_21">
    <path d="M 293.980938 0 
L 355.000938 0 
" style="fill: none; stroke: #ffffff; stroke-width: 0.8; stroke-linejoin: miter; stroke-linecap: square"/>
   </g>
  </g>
  <g id="axes_5">
   <g id="patch_22">
    <path d="M 378.733438 295.72 
L 439.753437 295.72 
L 439.753437 0 
L 378.733438 0 
z
" style="fill: #eaeaf2"/>
   </g>
   <g id="matplotlib.axis_9">
    <g id="xtick_13">
     <g id="line2d_45">
      <path d="M 381.507074 295.72 
L 381.507074 0 
" clip-path="url(#p2bd0980d4f)" style="fill: none; stroke: #ffffff; stroke-width: 0.8; stroke-linecap: round"/>
     </g>
     <g id="text_28">
      <!-- 1 -->
      <g style="fill: #262626" transform="translate(378.726605 309.877812) scale(0.1 -0.1)">
       <use xlink:href="#ArialMT-31"/>
      </g>
     </g>
    </g>
    <g id="xtick_14">
     <g id="line2d_46">
      <path d="M 409.243437 295.72 
L 409.243437 0 
" clip-path="url(#p2bd0980d4f)" style="fill: none; stroke: #ffffff; stroke-width: 0.8; stroke-linecap: round"/>
     </g>
     <g id="text_29">
      <!-- 2 -->
      <g style="fill: #262626" transform="translate(406.462969 309.877812) scale(0.1 -0.1)">
       <use xlink:href="#ArialMT-32"/>
      </g>
     </g>
    </g>
    <g id="xtick_15">
     <g id="line2d_47">
      <path d="M 436.979801 295.72 
L 436.979801 0 
" clip-path="url(#p2bd0980d4f)" style="fill: none; stroke: #ffffff; stroke-width: 0.8; stroke-linecap: round"/>
     </g>
     <g id="text_30">
      <!-- 3 -->
      <g style="fill: #262626" transform="translate(434.199332 309.877812) scale(0.1 -0.1)">
       <use xlink:href="#ArialMT-33"/>
      </g>
     </g>
    </g>
    <g id="text_31">
     <!-- Reps/Blk -->
     <g style="fill: #262626" transform="translate(389.236406 323.145) scale(0.1 -0.1)">
      <use xlink:href="#ArialMT-52"/>
      <use xlink:href="#ArialMT-65" x="72.216797"/>
      <use xlink:href="#ArialMT-70" x="127.832031"/>
      <use xlink:href="#ArialMT-73" x="183.447266"/>
      <use xlink:href="#ArialMT-2f" x="233.447266"/>
      <use xlink:href="#ArialMT-42" x="261.230469"/>
      <use xlink:href="#ArialMT-6c" x="327.929688"/>
      <use xlink:href="#ArialMT-6b" x="350.146484"/>
     </g>
    </g>
   </g>
   <g id="matplotlib.axis_10">
    <g id="ytick_29">
     <g id="line2d_48">
      <path d="M 378.733438 266.84747 
L 439.753437 266.84747 
" clip-path="url(#p2bd0980d4f)" style="fill: none; stroke: #ffffff; stroke-width: 0.8; stroke-linecap: round"/>
     </g>
    </g>
    <g id="ytick_30">
     <g id="line2d_49">
      <path d="M 378.733438 225.142843 
L 439.753437 225.142843 
" clip-path="url(#p2bd0980d4f)" style="fill: none; stroke: #ffffff; stroke-width: 0.8; stroke-linecap: round"/>
     </g>
    </g>
    <g id="ytick_31">
     <g id="line2d_50">
      <path d="M 378.733438 183.438217 
L 439.753437 183.438217 
" clip-path="url(#p2bd0980d4f)" style="fill: none; stroke: #ffffff; stroke-width: 0.8; stroke-linecap: round"/>
     </g>
    </g>
    <g id="ytick_32">
     <g id="line2d_51">
      <path d="M 378.733438 141.73359 
L 439.753437 141.73359 
" clip-path="url(#p2bd0980d4f)" style="fill: none; stroke: #ffffff; stroke-width: 0.8; stroke-linecap: round"/>
     </g>
    </g>
    <g id="ytick_33">
     <g id="line2d_52">
      <path d="M 378.733438 100.028964 
L 439.753437 100.028964 
" clip-path="url(#p2bd0980d4f)" style="fill: none; stroke: #ffffff; stroke-width: 0.8; stroke-linecap: round"/>
     </g>
    </g>
    <g id="ytick_34">
     <g id="line2d_53">
      <path d="M 378.733438 58.324337 
L 439.753437 58.324337 
" clip-path="url(#p2bd0980d4f)" style="fill: none; stroke: #ffffff; stroke-width: 0.8; stroke-linecap: round"/>
     </g>
    </g>
    <g id="ytick_35">
     <g id="line2d_54">
      <path d="M 378.733438 16.619711 
L 439.753437 16.619711 
" clip-path="url(#p2bd0980d4f)" style="fill: none; stroke: #ffffff; stroke-width: 0.8; stroke-linecap: round"/>
     </g>
    </g>
    <g id="text_32">
     <!-- F1 -->
     <g style="fill: #262626" transform="translate(372.745938 153.694375) rotate(-90) scale(0.1 -0.1)">
      <defs>
       <path id="ArialMT-46" d="M 525 0 
L 525 4581 
L 3616 4581 
L 3616 4041 
L 1131 4041 
L 1131 2622 
L 3281 2622 
L 3281 2081 
L 1131 2081 
L 1131 0 
L 525 0 
z
" transform="scale(0.015625)"/>
      </defs>
      <use xlink:href="#ArialMT-46"/>
      <use xlink:href="#ArialMT-31" x="61.083984"/>
     </g>
    </g>
   </g>
   <g id="PathCollection_5">
    <g clip-path="url(#p2bd0980d4f)">
     <use xlink:href="#md45941542b" x="381.507074" y="282.278182" style="fill: #1f77b4; fill-opacity: 0.8; stroke: #1f77b4; stroke-opacity: 0.8"/>
     <use xlink:href="#md45941542b" x="409.243437" y="168.341142" style="fill: #1f77b4; fill-opacity: 0.8; stroke: #1f77b4; stroke-opacity: 0.8"/>
     <use xlink:href="#md45941542b" x="436.979801" y="68.583675" style="fill: #1f77b4; fill-opacity: 0.8; stroke: #1f77b4; stroke-opacity: 0.8"/>
    </g>
   </g>
   <g id="line2d_55">
    <path d="M 381.507074 282.278182 
L 382.067404 279.836089 
L 382.627735 277.399783 
L 383.188066 274.969264 
L 383.748396 272.544532 
L 384.308727 270.125587 
L 384.869057 267.712429 
L 385.429388 265.305058 
L 385.989718 262.903474 
L 386.550049 260.507677 
L 387.11038 258.117667 
L 387.67071 255.733444 
L 388.231041 253.355008 
L 388.791371 250.982359 
L 389.351702 248.615497 
L 389.912033 246.254422 
L 390.472363 243.899134 
L 391.032694 241.549633 
L 391.593024 239.205919 
L 392.153355 236.867992 
L 392.713685 234.535852 
L 393.274016 232.209499 
L 393.834347 229.888933 
L 394.394677 227.574154 
L 394.955008 225.265162 
L 395.515338 222.961957 
L 396.075669 220.664538 
L 396.635999 218.372907 
L 397.19633 216.087063 
L 397.756661 213.807006 
L 398.316991 211.532736 
L 398.877322 209.264253 
L 399.437652 207.001556 
L 399.997983 204.744647 
L 400.558314 202.493525 
L 401.118644 200.24819 
L 401.678975 198.008642 
L 402.239305 195.77488 
L 402.799636 193.546906 
L 403.359966 191.324719 
L 403.920297 189.108319 
L 404.480628 186.897705 
L 405.040958 184.692879 
L 405.601289 182.49384 
L 406.161619 180.300587 
L 406.72195 178.113122 
L 407.28228 175.931444 
L 407.842611 173.755552 
L 408.402942 171.585448 
L 408.963272 169.421131 
L 409.523603 167.2626 
L 410.083933 165.109857 
L 410.644264 162.962901 
L 411.204595 160.821731 
L 411.764925 158.686349 
L 412.325256 156.556753 
L 412.885586 154.432945 
L 413.445917 152.314923 
L 414.006247 150.202689 
L 414.566578 148.096242 
L 415.126909 145.995581 
L 415.687239 143.900708 
L 416.24757 141.811621 
L 416.8079 139.728322 
L 417.368231 137.650809 
L 417.928561 135.579084 
L 418.488892 133.513145 
L 419.049223 131.452994 
L 419.609553 129.398629 
L 420.169884 127.350051 
L 420.730214 125.307261 
L 421.290545 123.270257 
L 421.850876 121.239041 
L 422.411206 119.213611 
L 422.971537 117.193969 
L 423.531867 115.180113 
L 424.092198 113.172044 
L 424.652528 111.169763 
L 425.212859 109.173268 
L 425.77319 107.18256 
L 426.33352 105.19764 
L 426.893851 103.218506 
L 427.454181 101.245159 
L 428.014512 99.2776 
L 428.574842 97.315827 
L 429.135173 95.359841 
L 429.695504 93.409643 
L 430.255834 91.465231 
L 430.816165 89.526606 
L 431.376495 87.593768 
L 431.936826 85.666718 
L 432.497157 83.745454 
L 433.057487 81.829977 
L 433.617818 79.920287 
L 434.178148 78.016385 
L 434.738479 76.118269 
L 435.298809 74.22594 
L 435.85914 72.339398 
L 436.419471 70.458643 
L 436.979801 68.583675 
" clip-path="url(#p2bd0980d4f)" style="fill: none; stroke: #1f77b4; stroke-width: 2.25; stroke-linecap: round"/>
   </g>
   <g id="patch_23">
    <path d="M 378.733438 295.72 
L 378.733438 0 
" style="fill: none; stroke: #ffffff; stroke-width: 0.8; stroke-linejoin: miter; stroke-linecap: square"/>
   </g>
   <g id="patch_24">
    <path d="M 439.753437 295.72 
L 439.753437 0 
" style="fill: none; stroke: #ffffff; stroke-width: 0.8; stroke-linejoin: miter; stroke-linecap: square"/>
   </g>
   <g id="patch_25">
    <path d="M 378.733438 295.72 
L 439.753437 295.72 
" style="fill: none; stroke: #ffffff; stroke-width: 0.8; stroke-linejoin: miter; stroke-linecap: square"/>
   </g>
   <g id="patch_26">
    <path d="M 378.733438 0 
L 439.753437 0 
" style="fill: none; stroke: #ffffff; stroke-width: 0.8; stroke-linejoin: miter; stroke-linecap: square"/>
   </g>
  </g>
 </g>
 <defs>
  <clipPath id="p2a76b3ba14">
   <rect x="39.723438" y="0" width="61.02" height="295.72"/>
  </clipPath>
  <clipPath id="p65b0b8a989">
   <rect x="124.475938" y="0" width="61.02" height="295.72"/>
  </clipPath>
  <clipPath id="p73e143ffcc">
   <rect x="209.228437" y="0" width="61.02" height="295.72"/>
  </clipPath>
  <clipPath id="p1f6aee550e">
   <rect x="293.980938" y="0" width="61.02" height="295.72"/>
  </clipPath>
  <clipPath id="p2bd0980d4f">
   <rect x="378.733438" y="0" width="61.02" height="295.72"/>
  </clipPath>
 </defs>
</svg>
